<svg xmlns="http://www.w3.org/2000/svg" xmlns:xlink="http://www.w3.org/1999/xlink" viewBox="0 0 1097.78 550.57"><defs><style>.cls-1{fill:url(#purple);}.cls-2{fill:url(#purple-2);}.cls-3{fill:url(#purple-3);}.cls-4{fill:url(#purple-4);}.cls-5{fill:url(#purple-5);}.cls-6{fill:url(#purple-6);}.cls-7{fill:url(#purple-7);}.cls-8{fill:url(#purple-8);}.cls-9{fill:url(#purple-9);}.cls-10{fill:url(#purple-10);}.cls-11{fill:url(#purple-11);}.cls-12{fill:url(#purple-12);}.cls-13{fill:url(#purple-13);}.cls-14{fill:url(#purple-14);}.cls-15{fill:url(#purple-15);}.cls-16{fill:url(#purple-16);}.cls-17{fill:url(#purple-17);}.cls-18{fill:url(#purple-18);}.cls-19{fill:url(#purple-19);}.cls-20{fill:url(#purple-20);}.cls-21{fill:url(#purple-21);}.cls-22{fill:url(#purple-22);}.cls-23{fill:url(#purple-23);}.cls-24{fill:url(#purple-24);}.cls-25{fill:url(#purple-25);}.cls-26{fill:url(#purple-26);}.cls-27{fill:url(#purple-27);}.cls-28{fill:url(#purple-28);}.cls-29{fill:url(#purple-29);}.cls-30{fill:url(#purple-30);}.cls-31{fill:url(#purple-31);}.cls-32{fill:url(#purple-32);}.cls-33{fill:url(#purple-33);}.cls-34{fill:url(#purple-34);}.cls-35{fill:url(#purple-35);}.cls-36{fill:url(#purple-36);}.cls-37{fill:url(#purple-37);}.cls-38{fill:url(#purple-38);}.cls-39{fill:url(#purple-39);}.cls-40{fill:url(#purple-40);}.cls-41{fill:url(#purple-41);}.cls-42{fill:url(#purple-42);}.cls-43{fill:url(#purple-43);}.cls-44{fill:url(#purple-44);}.cls-45{fill:url(#purple-45);}.cls-46{fill:url(#purple-46);}.cls-47{fill:url(#purple-47);}.cls-48{fill:url(#purple-48);}.cls-49{fill:url(#purple-49);}.cls-50{fill:url(#purple-50);}.cls-51{fill:url(#purple-51);}.cls-52{fill:url(#purple-52);}.cls-53{fill:url(#purple-53);}.cls-54{fill:url(#purple-54);}.cls-55{fill:url(#purple-55);}.cls-56{fill:url(#purple-56);}.cls-57{fill:url(#purple-57);}.cls-58{fill:url(#purple-58);}.cls-59{fill:url(#purple-59);}.cls-60{fill:url(#purple-60);}.cls-61{fill:url(#purple-61);}.cls-62{fill:url(#purple-62);}.cls-63{fill:url(#purple-63);}.cls-64{fill:url(#purple-64);}.cls-65{fill:url(#purple-65);}.cls-66{fill:url(#purple-66);}.cls-67{fill:url(#purple-67);}.cls-68{fill:url(#purple-68);}.cls-69{fill:url(#purple-69);}.cls-70{fill:url(#purple-70);}.cls-71{fill:url(#purple-71);}.cls-72{fill:url(#purple-72);}.cls-73{fill:url(#purple-73);}.cls-74{fill:url(#purple-74);}.cls-75{fill:url(#purple-75);}.cls-76{fill:url(#purple-76);}.cls-77{fill:url(#purple-77);}.cls-78{fill:url(#purple-78);}.cls-79{fill:url(#purple-79);}.cls-80{fill:url(#purple-80);}.cls-81{fill:url(#purple-81);}.cls-82{fill:url(#purple-82);}.cls-83{fill:url(#purple-83);}.cls-84{fill:url(#purple-84);}.cls-85{fill:url(#purple-85);}.cls-86{fill:url(#purple-86);}.cls-87{fill:url(#purple-87);}.cls-88{fill:url(#purple-88);}.cls-89{fill:url(#purple-89);}.cls-90{fill:url(#purple-90);}.cls-91{fill:url(#purple-91);}.cls-92{fill:url(#purple-92);}.cls-93{fill:url(#purple-93);}.cls-94{fill:url(#purple-94);}.cls-95{fill:url(#purple-95);}.cls-96{fill:url(#purple-96);}.cls-97{fill:url(#purple-97);}.cls-98{fill:url(#purple-98);}.cls-99{fill:url(#purple-99);}.cls-100{fill:url(#purple-100);}.cls-101{fill:url(#purple-101);}.cls-102{fill:url(#purple-102);}.cls-103{fill:url(#purple-103);}.cls-104{fill:url(#purple-104);}.cls-105{fill:url(#purple-105);}.cls-106{fill:url(#purple-106);}.cls-107{fill:url(#purple-107);}.cls-108{fill:url(#purple-108);}.cls-109{fill:url(#purple-109);}.cls-110{fill:url(#purple-110);}.cls-111{fill:url(#purple-111);}.cls-112{fill:url(#purple-112);}.cls-113{fill:url(#purple-113);}.cls-114{fill:url(#purple-114);}.cls-115{fill:url(#purple-115);}.cls-116{fill:url(#purple-116);}.cls-117{fill:url(#purple-117);}.cls-118{fill:url(#purple-118);}.cls-119{fill:url(#purple-119);}.cls-120{fill:url(#purple-120);}.cls-121{fill:url(#purple-121);}.cls-122{fill:url(#purple-122);}.cls-123{fill:url(#purple-123);}.cls-124{fill:url(#purple-124);}.cls-125{fill:url(#purple-125);}.cls-126{fill:url(#purple-126);}.cls-127{fill:url(#purple-127);}.cls-128{fill:url(#purple-128);}.cls-129{fill:url(#purple-129);}.cls-130{fill:url(#purple-130);}.cls-131{fill:url(#purple-131);}.cls-132{fill:url(#purple-132);}.cls-133{fill:url(#purple-133);}.cls-134{fill:url(#purple-134);}.cls-135{fill:url(#purple-135);}.cls-136{fill:url(#purple-136);}.cls-137{fill:url(#purple-137);}.cls-138{fill:url(#purple-138);}.cls-139{fill:url(#purple-139);}.cls-140{fill:url(#purple-140);}.cls-141{fill:url(#purple-141);}.cls-142{fill:url(#purple-142);}.cls-143{fill:url(#purple-143);}.cls-144{fill:url(#purple-144);}.cls-145{fill:url(#purple-145);}.cls-146{fill:url(#purple-146);}.cls-147{fill:url(#purple-147);}.cls-148{fill:url(#purple-148);}.cls-149{fill:url(#purple-149);}.cls-150{fill:url(#purple-150);}.cls-151{fill:url(#purple-151);}.cls-152{fill:url(#purple-152);}.cls-153{fill:url(#purple-153);}.cls-154{fill:url(#purple-154);}.cls-155{fill:url(#purple-155);}.cls-156{fill:url(#purple-156);}.cls-157{fill:url(#purple-157);}.cls-158{fill:url(#purple-158);}.cls-159{fill:url(#purple-159);}.cls-160{fill:url(#purple-160);}.cls-161{fill:url(#purple-161);}.cls-162{fill:url(#purple-162);}.cls-163{fill:url(#purple-163);}.cls-164{fill:url(#purple-164);}.cls-165{fill:url(#purple-165);}.cls-166{fill:url(#purple-166);}.cls-167{fill:url(#purple-167);}.cls-168{fill:url(#purple-168);}.cls-169{fill:url(#purple-169);}.cls-170{fill:url(#purple-170);}.cls-171{fill:url(#purple-171);}.cls-172{fill:url(#purple-172);}.cls-173{fill:url(#purple-173);}.cls-174{fill:url(#purple-174);}.cls-175{fill:url(#purple-175);}.cls-176{fill:url(#purple-176);}.cls-177{fill:url(#purple-177);}.cls-178{fill:url(#purple-178);}.cls-179{fill:url(#purple-179);}.cls-180{fill:url(#purple-180);}.cls-181{fill:url(#purple-181);}.cls-182{fill:url(#purple-182);}.cls-183{fill:url(#purple-183);}.cls-184{fill:url(#purple-184);}.cls-185{fill:url(#purple-185);}.cls-186{fill:url(#purple-186);}.cls-187{fill:url(#purple-187);}.cls-188{fill:url(#purple-188);}.cls-189{fill:url(#purple-189);}.cls-190{fill:url(#purple-190);}.cls-191{fill:url(#purple-191);}.cls-192{fill:url(#purple-192);}.cls-193{fill:url(#purple-193);}.cls-194{fill:url(#purple-194);}.cls-195{fill:url(#purple-195);}.cls-196{fill:url(#purple-196);}.cls-197{fill:url(#purple-197);}.cls-198{fill:url(#purple-200);}.cls-199{fill:url(#purple-201);}.cls-200{fill:url(#purple-202);}.cls-201{fill:url(#purple-203);}.cls-202{fill:url(#purple-204);}.cls-203{fill:url(#purple-205);}.cls-204{fill:url(#purple-209);}.cls-205{fill:url(#purple-210);}.cls-206{fill:url(#purple-211);}</style><linearGradient id="purple" x1="437.47" y1="344.2" x2="948.97" y2="344.2" gradientUnits="userSpaceOnUse"><stop offset="0" stop-color="#515cf9"/><stop offset="0.5" stop-color="#7e39d7"/><stop offset="0.8" stop-color="#363a4d"/></linearGradient><linearGradient id="purple-2" x1="437.47" y1="360.08" x2="948.97" y2="360.08" xlink:href="#purple"/><linearGradient id="purple-3" x1="437.47" y1="321.65" x2="948.97" y2="321.65" xlink:href="#purple"/><linearGradient id="purple-4" x1="437.47" y1="312.14" x2="948.97" y2="312.14" xlink:href="#purple"/><linearGradient id="purple-5" x1="437.47" y1="347.38" x2="948.97" y2="347.38" xlink:href="#purple"/><linearGradient id="purple-6" x1="437.47" y1="326.82" x2="948.97" y2="326.82" xlink:href="#purple"/><linearGradient id="purple-7" x1="437.47" y1="285.34" x2="948.97" y2="285.34" xlink:href="#purple"/><linearGradient id="purple-8" x1="437.47" y1="280.35" x2="948.97" y2="280.35" xlink:href="#purple"/><linearGradient id="purple-9" x1="437.47" y1="270.38" x2="948.97" y2="270.38" xlink:href="#purple"/><linearGradient id="purple-10" x1="437.47" y1="275.36" x2="948.97" y2="275.36" xlink:href="#purple"/><linearGradient id="purple-11" x1="437.47" y1="177.31" x2="948.97" y2="177.31" xlink:href="#purple"/><linearGradient id="purple-12" x1="437.47" y1="201.43" x2="948.97" y2="201.43" xlink:href="#purple"/><linearGradient id="purple-13" x1="437.47" y1="287.17" x2="948.97" y2="287.17" xlink:href="#purple"/><linearGradient id="purple-14" x1="437.47" y1="181.61" x2="948.97" y2="181.61" xlink:href="#purple"/><linearGradient id="purple-15" x1="437.47" y1="213.71" x2="948.97" y2="213.71" xlink:href="#purple"/><linearGradient id="purple-16" x1="437.47" y1="255.42" x2="948.97" y2="255.42" xlink:href="#purple"/><linearGradient id="purple-17" x1="437.47" y1="278.67" x2="948.97" y2="278.67" xlink:href="#purple"/><linearGradient id="purple-18" x1="437.47" y1="211.24" x2="948.97" y2="211.24" xlink:href="#purple"/><linearGradient id="purple-19" x1="437.47" y1="242.64" x2="948.97" y2="242.64" xlink:href="#purple"/><linearGradient id="purple-20" x1="437.47" y1="222.31" x2="948.97" y2="222.31" xlink:href="#purple"/><linearGradient id="purple-21" x1="437.47" y1="251.93" x2="948.97" y2="251.93" xlink:href="#purple"/><linearGradient id="purple-22" x1="437.47" y1="224.01" x2="948.97" y2="224.01" xlink:href="#purple"/><linearGradient id="purple-23" x1="437.47" y1="260.4" x2="948.97" y2="260.4" xlink:href="#purple"/><linearGradient id="purple-24" x1="437.47" y1="192.3" x2="948.97" y2="192.3" xlink:href="#purple"/><linearGradient id="purple-25" x1="437.47" y1="188.97" x2="948.97" y2="188.97" xlink:href="#purple"/><linearGradient id="purple-26" x1="437.47" y1="153.77" x2="948.97" y2="153.77" xlink:href="#purple"/><linearGradient id="purple-27" x1="437.47" y1="115.49" x2="948.97" y2="115.49" xlink:href="#purple"/><linearGradient id="purple-28" x1="437.47" y1="113.62" x2="948.97" y2="113.62" xlink:href="#purple"/><linearGradient id="purple-29" x1="437.47" y1="122.19" x2="948.97" y2="122.19" xlink:href="#purple"/><linearGradient id="purple-30" x1="437.47" y1="181.79" x2="948.97" y2="181.79" xlink:href="#purple"/><linearGradient id="purple-31" x1="437.47" y1="157.37" x2="948.97" y2="157.37" xlink:href="#purple"/><linearGradient id="purple-32" x1="437.47" y1="173.18" x2="948.97" y2="173.18" xlink:href="#purple"/><linearGradient id="purple-33" x1="437.47" y1="188.15" x2="948.97" y2="188.15" xlink:href="#purple"/><linearGradient id="purple-34" x1="437.47" y1="232.98" x2="948.97" y2="232.98" xlink:href="#purple"/><linearGradient id="purple-35" x1="437.47" y1="230.48" x2="948.97" y2="230.48" xlink:href="#purple"/><linearGradient id="purple-36" x1="437.47" y1="162.39" x2="948.97" y2="162.39" xlink:href="#purple"/><linearGradient id="purple-37" x1="437.47" y1="199.4" x2="948.97" y2="199.4" xlink:href="#purple"/><linearGradient id="purple-38" x1="437.47" y1="199.36" x2="948.97" y2="199.36" xlink:href="#purple"/><linearGradient id="purple-39" x1="437.47" y1="301.03" x2="948.97" y2="301.03" xlink:href="#purple"/><linearGradient id="purple-40" x1="437.47" y1="178.17" x2="948.97" y2="178.17" xlink:href="#purple"/><linearGradient id="purple-41" x1="437.47" y1="183.15" x2="948.97" y2="183.15" xlink:href="#purple"/><linearGradient id="purple-42" x1="437.47" y1="161.86" x2="948.97" y2="161.86" xlink:href="#purple"/><linearGradient id="purple-43" x1="437.47" y1="168.32" x2="948.97" y2="168.32" xlink:href="#purple"/><linearGradient id="purple-44" x1="437.47" y1="198.91" x2="948.97" y2="198.91" xlink:href="#purple"/><linearGradient id="purple-45" x1="437.47" y1="205.53" x2="948.97" y2="205.53" xlink:href="#purple"/><linearGradient id="purple-46" x1="437.47" y1="156.48" x2="948.97" y2="156.48" xlink:href="#purple"/><linearGradient id="purple-47" x1="437.47" y1="153.32" x2="948.97" y2="153.32" xlink:href="#purple"/><linearGradient id="purple-48" x1="437.47" y1="147.48" x2="948.97" y2="147.48" xlink:href="#purple"/><linearGradient id="purple-49" x1="437.47" y1="202.94" x2="948.97" y2="202.94" xlink:href="#purple"/><linearGradient id="purple-50" x1="437.47" y1="225.64" x2="948.97" y2="225.64" xlink:href="#purple"/><linearGradient id="purple-51" x1="437.47" y1="158.33" x2="948.97" y2="158.33" xlink:href="#purple"/><linearGradient id="purple-52" x1="437.47" y1="437.32" x2="948.97" y2="437.32" xlink:href="#purple"/><linearGradient id="purple-53" x1="437.47" y1="420.14" x2="948.97" y2="420.14" gradientTransform="translate(718.63 -398.06) rotate(60.25)" xlink:href="#purple"/><linearGradient id="purple-54" x1="437.47" y1="437.19" x2="948.97" y2="437.19" gradientTransform="translate(729.57 -389.75) rotate(59.98)" xlink:href="#purple"/><linearGradient id="purple-55" x1="437.47" y1="481.73" x2="948.97" y2="481.73" xlink:href="#purple"/><linearGradient id="purple-56" x1="437.47" y1="438.46" x2="948.97" y2="438.46" xlink:href="#purple"/><linearGradient id="purple-57" x1="437.47" y1="464.22" x2="948.97" y2="464.22" xlink:href="#purple"/><linearGradient id="purple-58" x1="437.47" y1="546.61" x2="948.97" y2="546.61" xlink:href="#purple"/><linearGradient id="purple-59" x1="437.47" y1="483.09" x2="948.97" y2="483.09" xlink:href="#purple"/><linearGradient id="purple-60" x1="437.47" y1="345.59" x2="948.97" y2="345.59" xlink:href="#purple"/><linearGradient id="purple-61" x1="437.47" y1="323.26" x2="948.97" y2="323.26" xlink:href="#purple"/><linearGradient id="purple-62" x1="437.47" y1="321.96" x2="948.97" y2="321.96" xlink:href="#purple"/><linearGradient id="purple-63" x1="437.47" y1="349.02" x2="948.97" y2="349.02" xlink:href="#purple"/><linearGradient id="purple-64" x1="437.47" y1="304.91" x2="948.97" y2="304.91" xlink:href="#purple"/><linearGradient id="purple-65" x1="437.47" y1="431.41" x2="948.97" y2="431.41" xlink:href="#purple"/><linearGradient id="purple-66" x1="437.47" y1="367.28" x2="948.97" y2="367.28" xlink:href="#purple"/><linearGradient id="purple-67" x1="437.47" y1="87.41" x2="948.97" y2="87.41" xlink:href="#purple"/><linearGradient id="purple-68" x1="437.47" y1="150.6" x2="948.97" y2="150.6" xlink:href="#purple"/><linearGradient id="purple-69" x1="437.47" y1="176.99" x2="948.97" y2="176.99" xlink:href="#purple"/><linearGradient id="purple-70" x1="437.47" y1="159.94" x2="948.97" y2="159.94" xlink:href="#purple"/><linearGradient id="purple-71" x1="437.47" y1="142.59" x2="948.97" y2="142.59" gradientTransform="translate(253.99 -155.01) rotate(59.97)" xlink:href="#purple"/><linearGradient id="purple-72" x1="437.47" y1="97.12" x2="948.97" y2="97.12" xlink:href="#purple"/><linearGradient id="purple-73" x1="437.47" y1="158.61" x2="948.97" y2="158.61" xlink:href="#purple"/><linearGradient id="purple-74" x1="437.47" y1="132.85" x2="948.97" y2="132.85" xlink:href="#purple"/><linearGradient id="purple-75" x1="437.47" y1="106.29" x2="948.97" y2="106.29" xlink:href="#purple"/><linearGradient id="purple-76" x1="437.47" y1="3.96" x2="948.97" y2="3.96" xlink:href="#purple"/><linearGradient id="purple-77" x1="437.47" y1="201.42" x2="948.97" y2="201.42" xlink:href="#purple"/><linearGradient id="purple-78" x1="437.47" y1="150.98" x2="948.97" y2="150.98" xlink:href="#purple"/><linearGradient id="purple-79" x1="437.47" y1="160.05" x2="948.97" y2="160.05" xlink:href="#purple"/><linearGradient id="purple-80" x1="437.47" y1="296.32" x2="948.97" y2="296.32" xlink:href="#purple"/><linearGradient id="purple-81" x1="437.47" y1="185.76" x2="948.97" y2="185.76" xlink:href="#purple"/><linearGradient id="purple-82" x1="437.47" y1="188.59" x2="948.97" y2="188.59" xlink:href="#purple"/><linearGradient id="purple-83" x1="437.47" y1="197.14" x2="948.97" y2="197.14" xlink:href="#purple"/><linearGradient id="purple-84" x1="437.47" y1="169.21" x2="948.97" y2="169.21" xlink:href="#purple"/><linearGradient id="purple-85" x1="437.47" y1="151.61" x2="948.97" y2="151.61" xlink:href="#purple"/><linearGradient id="purple-86" x1="437.47" y1="193.13" x2="948.97" y2="193.13" xlink:href="#purple"/><linearGradient id="purple-87" x1="437.47" y1="154.41" x2="948.97" y2="154.41" xlink:href="#purple"/><linearGradient id="purple-88" x1="437.47" y1="341.37" x2="948.97" y2="341.37" xlink:href="#purple"/><linearGradient id="purple-89" x1="437.47" y1="397.02" x2="948.97" y2="397.02" xlink:href="#purple"/><linearGradient id="purple-90" x1="437.47" y1="397.03" x2="948.97" y2="397.03" xlink:href="#purple"/><linearGradient id="purple-91" x1="437.47" y1="227.53" x2="948.97" y2="227.53" xlink:href="#purple"/><linearGradient id="purple-92" x1="437.47" y1="302.72" x2="948.97" y2="302.72" xlink:href="#purple"/><linearGradient id="purple-93" x1="437.47" y1="238.58" x2="948.97" y2="238.58" xlink:href="#purple"/><linearGradient id="purple-94" x1="437.47" y1="283.18" x2="948.97" y2="283.18" xlink:href="#purple"/><linearGradient id="purple-95" x1="437.47" y1="283.25" x2="948.97" y2="283.25" xlink:href="#purple"/><linearGradient id="purple-96" x1="437.47" y1="283.24" x2="948.97" y2="283.24" xlink:href="#purple"/><linearGradient id="purple-97" x1="437.47" y1="227.58" x2="948.97" y2="227.58" xlink:href="#purple"/><linearGradient id="purple-98" x1="437.47" y1="296.26" x2="948.97" y2="296.26" xlink:href="#purple"/><linearGradient id="purple-99" x1="437.47" y1="308.94" x2="948.97" y2="308.94" xlink:href="#purple"/><linearGradient id="purple-100" x1="437.47" y1="265.38" x2="948.97" y2="265.38" xlink:href="#purple"/><linearGradient id="purple-101" x1="437.47" y1="282.01" x2="948.97" y2="282.01" xlink:href="#purple"/><linearGradient id="purple-102" x1="437.47" y1="326.83" x2="948.97" y2="326.83" xlink:href="#purple"/><linearGradient id="purple-103" x1="437.47" y1="278.69" x2="948.97" y2="278.69" xlink:href="#purple"/><linearGradient id="purple-104" x1="437.47" y1="246.35" x2="948.97" y2="246.35" xlink:href="#purple"/><linearGradient id="purple-105" x1="437.47" y1="239.18" x2="948.97" y2="239.18" xlink:href="#purple"/><linearGradient id="purple-106" x1="437.47" y1="232.02" x2="948.97" y2="232.02" xlink:href="#purple"/><linearGradient id="purple-107" x1="437.47" y1="202.47" x2="948.97" y2="202.47" xlink:href="#purple"/><linearGradient id="purple-108" x1="437.47" y1="219.59" x2="948.97" y2="219.59" xlink:href="#purple"/><linearGradient id="purple-109" x1="437.47" y1="235.7" x2="948.97" y2="235.7" xlink:href="#purple"/><linearGradient id="purple-110" x1="437.47" y1="219.57" x2="948.97" y2="219.57" xlink:href="#purple"/><linearGradient id="purple-111" x1="437.47" y1="202.44" x2="948.97" y2="202.44" xlink:href="#purple"/><linearGradient id="purple-112" x1="437.47" y1="197.88" x2="948.97" y2="197.88" xlink:href="#purple"/><linearGradient id="purple-113" x1="437.47" y1="211.21" x2="948.97" y2="211.21" xlink:href="#purple"/><linearGradient id="purple-114" x1="437.47" y1="224.55" x2="948.97" y2="224.55" xlink:href="#purple"/><linearGradient id="purple-115" x1="437.47" y1="211.22" x2="948.97" y2="211.22" xlink:href="#purple"/><linearGradient id="purple-116" x1="437.47" y1="197.88" x2="948.97" y2="197.88" xlink:href="#purple"/><linearGradient id="purple-117" x1="437.47" y1="289.28" x2="948.97" y2="289.28" xlink:href="#purple"/><linearGradient id="purple-118" x1="437.47" y1="324.11" x2="948.97" y2="324.11" xlink:href="#purple"/><linearGradient id="purple-119" x1="437.47" y1="358.95" x2="948.97" y2="358.95" xlink:href="#purple"/><linearGradient id="purple-120" x1="437.47" y1="346.24" x2="948.97" y2="346.24" xlink:href="#purple"/><linearGradient id="purple-121" x1="437.47" y1="332.53" x2="948.97" y2="332.53" xlink:href="#purple"/><linearGradient id="purple-122" x1="437.47" y1="346.37" x2="948.97" y2="346.37" xlink:href="#purple"/><linearGradient id="purple-123" x1="437.47" y1="350.64" x2="948.97" y2="350.64" xlink:href="#purple"/><linearGradient id="purple-124" x1="437.47" y1="353.91" x2="948.97" y2="353.91" xlink:href="#purple"/><linearGradient id="purple-125" x1="437.47" y1="347.19" x2="948.97" y2="347.19" xlink:href="#purple"/><linearGradient id="purple-126" x1="437.47" y1="339.64" x2="948.97" y2="339.64" xlink:href="#purple"/><linearGradient id="purple-127" x1="437.47" y1="333.09" x2="948.97" y2="333.09" xlink:href="#purple"/><linearGradient id="purple-128" x1="437.47" y1="338.73" x2="948.97" y2="338.73" xlink:href="#purple"/><linearGradient id="purple-129" x1="437.47" y1="267.28" x2="948.97" y2="267.28" xlink:href="#purple"/><linearGradient id="purple-130" x1="437.47" y1="276.95" x2="948.97" y2="276.95" xlink:href="#purple"/><linearGradient id="purple-131" x1="437.47" y1="285.62" x2="948.97" y2="285.62" xlink:href="#purple"/><linearGradient id="purple-132" x1="437.47" y1="272.57" x2="948.97" y2="272.57" xlink:href="#purple"/><linearGradient id="purple-133" x1="437.47" y1="257.2" x2="948.97" y2="257.2" xlink:href="#purple"/><linearGradient id="purple-134" x1="437.47" y1="247.53" x2="948.97" y2="247.53" xlink:href="#purple"/><linearGradient id="purple-135" x1="437.47" y1="238.87" x2="948.97" y2="238.87" xlink:href="#purple"/><linearGradient id="purple-136" x1="437.47" y1="251.91" x2="948.97" y2="251.91" xlink:href="#purple"/><linearGradient id="purple-137" x1="437.47" y1="344.37" x2="948.97" y2="344.37" xlink:href="#purple"/><linearGradient id="purple-138" x1="437.47" y1="327.39" x2="948.97" y2="327.39" xlink:href="#purple"/><linearGradient id="purple-139" x1="437.47" y1="310.42" x2="948.97" y2="310.42" xlink:href="#purple"/><linearGradient id="purple-140" x1="437.47" y1="352.91" x2="948.97" y2="352.91" xlink:href="#purple"/><linearGradient id="purple-141" x1="437.47" y1="335.94" x2="948.97" y2="335.94" xlink:href="#purple"/><linearGradient id="purple-142" x1="437.47" y1="318.97" x2="948.97" y2="318.97" xlink:href="#purple"/><linearGradient id="purple-143" x1="437.47" y1="113.76" x2="948.97" y2="113.76" xlink:href="#purple"/><linearGradient id="purple-144" x1="437.47" y1="160.84" x2="948.97" y2="160.84" xlink:href="#purple"/><linearGradient id="purple-145" x1="437.47" y1="206.92" x2="948.97" y2="206.92" xlink:href="#purple"/><linearGradient id="purple-146" x1="437.47" y1="160.84" x2="948.97" y2="160.84" xlink:href="#purple"/><linearGradient id="purple-147" x1="437.47" y1="113.75" x2="948.97" y2="113.75" xlink:href="#purple"/><linearGradient id="purple-148" x1="437.47" y1="66.66" x2="948.97" y2="66.66" xlink:href="#purple"/><linearGradient id="purple-149" x1="437.47" y1="20.57" x2="948.97" y2="20.57" xlink:href="#purple"/><linearGradient id="purple-150" x1="437.47" y1="66.66" x2="948.97" y2="66.66" xlink:href="#purple"/><linearGradient id="purple-151" x1="437.47" y1="115.75" x2="948.97" y2="115.75" xlink:href="#purple"/><linearGradient id="purple-152" x1="437.47" y1="122.31" x2="948.97" y2="122.31" xlink:href="#purple"/><linearGradient id="purple-153" x1="437.47" y1="129.87" x2="948.97" y2="129.87" xlink:href="#purple"/><linearGradient id="purple-154" x1="437.47" y1="137.72" x2="948.97" y2="137.72" xlink:href="#purple"/><linearGradient id="purple-155" x1="437.47" y1="143.56" x2="948.97" y2="143.56" xlink:href="#purple"/><linearGradient id="purple-156" x1="437.47" y1="181.3" x2="948.97" y2="181.3" xlink:href="#purple"/><linearGradient id="purple-157" x1="437.47" y1="202.67" x2="948.97" y2="202.67" xlink:href="#purple"/><linearGradient id="purple-158" x1="437.47" y1="223.04" x2="948.97" y2="223.04" xlink:href="#purple"/><linearGradient id="purple-159" x1="437.47" y1="216.49" x2="948.97" y2="216.49" xlink:href="#purple"/><linearGradient id="purple-160" x1="437.47" y1="209.93" x2="948.97" y2="209.93" xlink:href="#purple"/><linearGradient id="purple-161" x1="437.47" y1="115.76" x2="948.97" y2="115.76" xlink:href="#purple"/><linearGradient id="purple-162" x1="437.47" y1="122.31" x2="948.97" y2="122.31" xlink:href="#purple"/><linearGradient id="purple-163" x1="437.47" y1="129.85" x2="948.97" y2="129.85" xlink:href="#purple"/><linearGradient id="purple-164" x1="437.47" y1="177.94" x2="948.97" y2="177.94" xlink:href="#purple"/><linearGradient id="purple-165" x1="437.47" y1="223.03" x2="948.97" y2="223.03" xlink:href="#purple"/><linearGradient id="purple-166" x1="437.47" y1="216.48" x2="948.97" y2="216.48" xlink:href="#purple"/><linearGradient id="purple-167" x1="437.47" y1="208.92" x2="948.97" y2="208.92" xlink:href="#purple"/><linearGradient id="purple-168" x1="437.47" y1="190.82" x2="948.97" y2="190.82" xlink:href="#purple"/><linearGradient id="purple-169" x1="437.47" y1="174.71" x2="948.97" y2="174.71" xlink:href="#purple"/><linearGradient id="purple-170" x1="437.47" y1="100.91" x2="948.97" y2="100.91" xlink:href="#purple"/><linearGradient id="purple-171" x1="437.47" y1="109.06" x2="948.97" y2="109.06" xlink:href="#purple"/><linearGradient id="purple-172" x1="437.47" y1="117.44" x2="948.97" y2="117.44" xlink:href="#purple"/><linearGradient id="purple-173" x1="437.47" y1="122.76" x2="948.97" y2="122.76" xlink:href="#purple"/><linearGradient id="purple-174" x1="437.47" y1="115.33" x2="948.97" y2="115.33" xlink:href="#purple"/><linearGradient id="purple-175" x1="437.47" y1="106.89" x2="948.97" y2="106.89" xlink:href="#purple"/><linearGradient id="purple-176" x1="437.47" y1="96.59" x2="948.97" y2="96.59" xlink:href="#purple"/><linearGradient id="purple-177" x1="437.47" y1="254.14" x2="948.97" y2="254.14" xlink:href="#purple"/><linearGradient id="purple-178" x1="437.47" y1="254.71" x2="948.97" y2="254.71" xlink:href="#purple"/><linearGradient id="purple-179" x1="437.47" y1="229.41" x2="948.97" y2="229.41" xlink:href="#purple"/><linearGradient id="purple-180" x1="437.47" y1="205.05" x2="948.97" y2="205.05" xlink:href="#purple"/><linearGradient id="purple-181" x1="437.47" y1="229.03" x2="948.97" y2="229.03" xlink:href="#purple"/><linearGradient id="purple-182" x1="437.47" y1="329.52" x2="948.97" y2="329.52" xlink:href="#purple"/><linearGradient id="purple-183" x1="437.47" y1="294.69" x2="948.97" y2="294.69" xlink:href="#purple"/><linearGradient id="purple-184" x1="437.47" y1="259.86" x2="948.97" y2="259.86" xlink:href="#purple"/><linearGradient id="purple-185" x1="437.47" y1="238.89" x2="948.97" y2="238.89" xlink:href="#purple"/><linearGradient id="purple-186" x1="437.47" y1="246.35" x2="948.97" y2="246.35" xlink:href="#purple"/><linearGradient id="purple-187" x1="437.47" y1="252.91" x2="948.97" y2="252.91" xlink:href="#purple"/><linearGradient id="purple-188" x1="437.47" y1="257.61" x2="948.97" y2="257.61" xlink:href="#purple"/><linearGradient id="purple-189" x1="437.47" y1="254.54" x2="948.97" y2="254.54" xlink:href="#purple"/><linearGradient id="purple-190" x1="437.47" y1="281.53" x2="948.97" y2="281.53" xlink:href="#purple"/><linearGradient id="purple-191" x1="437.47" y1="312.09" x2="948.97" y2="312.09" xlink:href="#purple"/><linearGradient id="purple-192" x1="437.47" y1="342.66" x2="948.97" y2="342.66" xlink:href="#purple"/><linearGradient id="purple-193" x1="437.47" y1="256.54" x2="948.97" y2="256.54" xlink:href="#purple"/><linearGradient id="purple-194" x1="437.47" y1="242.09" x2="948.97" y2="242.09" xlink:href="#purple"/><linearGradient id="purple-195" x1="437.47" y1="227.65" x2="948.97" y2="227.65" xlink:href="#purple"/><linearGradient id="purple-196" x1="437.47" y1="246.72" x2="948.97" y2="246.72" xlink:href="#purple"/><linearGradient id="purple-197" x1="437.47" y1="251.26" x2="948.97" y2="251.26" xlink:href="#purple"/><linearGradient id="purple-200" x1="437.47" y1="268.35" x2="948.97" y2="268.35" xlink:href="#purple"/><linearGradient id="purple-201" x1="437.47" y1="261.81" x2="948.97" y2="261.81" xlink:href="#purple"/><linearGradient id="purple-202" x1="437.47" y1="255.27" x2="948.97" y2="255.27" xlink:href="#purple"/><linearGradient id="purple-203" x1="437.47" y1="173.88" x2="948.97" y2="173.88" xlink:href="#purple"/><linearGradient id="purple-204" x1="437.47" y1="180.42" x2="948.97" y2="180.42" xlink:href="#purple"/><linearGradient id="purple-205" x1="437.47" y1="186.96" x2="948.97" y2="186.96" xlink:href="#purple"/><linearGradient id="purple-209" x1="437.47" y1="207.97" x2="948.97" y2="207.97" xlink:href="#purple"/><linearGradient id="purple-210" x1="437.47" y1="201.42" x2="948.97" y2="201.42" xlink:href="#purple"/><linearGradient id="purple-211" x1="437.47" y1="194.87" x2="948.97" y2="194.87" xlink:href="#purple"/></defs><title>Asset 2</title><g id="Layer_2" data-name="Layer 2"><g id="purple_outline"><g id="left"><g id="line"><path class="cls-1" d="M596.73,395.81a.51.51,0,0,1-.25-.06L547,367.18a.5.5,0,0,1-.25-.44V293.09a.48.48,0,0,1,.25-.43.5.5,0,0,1,.5,0L597,321.22a.49.49,0,0,1,.25.43v73.66a.52.52,0,0,1-.25.44A.57.57,0,0,1,596.73,395.81Zm-49-29.35,48.48,28V321.94l-48.48-28Z"/><path class="cls-2" d="M602.22,399a.57.57,0,0,1-.25-.06l-5.49-3.17a.5.5,0,0,1-.25-.43V321.66a.48.48,0,0,1,.25-.43.5.5,0,0,1,.5,0l5.49,3.17a.48.48,0,0,1,.25.43v73.66a.5.5,0,0,1-.25.44A.51.51,0,0,1,602.22,399Zm-5-3.95,4.49,2.59V325.12l-4.49-2.59Z"/><path class="cls-3" d="M602.22,325.33a.47.47,0,0,1-.25-.07l-5.49-3.17a.49.49,0,0,1,0-.86l5.51-3.18a.5.5,0,0,1,.5,0l5.49,3.16a.5.5,0,0,1,.25.44.48.48,0,0,1-.25.43l-5.51,3.18A.43.43,0,0,1,602.22,325.33Zm-4.49-3.67,4.49,2.59,4.51-2.6-4.49-2.59Z"/><path class="cls-4" d="M607.73,322.15a.47.47,0,0,1-.25-.07L602,318.92a.52.52,0,0,1-.23-.6l5.5-15.86a.5.5,0,0,1,.3-.3.48.48,0,0,1,.42,0l5.49,3.16a.51.51,0,0,1,.23.61l-5.49,15.84a.51.51,0,0,1-.3.31Zm-4.89-3.89,4.62,2.65L612.63,306,608,303.36Z"/><path class="cls-5" d="M602.23,399a.43.43,0,0,1-.25-.07.48.48,0,0,1-.25-.43V324.83a.5.5,0,0,1,.25-.44l5.34-3.08,5.41-15.59v-6.3A.5.5,0,0,1,613,299l5.5-3.16a.5.5,0,0,1,.5,0,.52.52,0,0,1,.25.43v6.21l5.19,9,5.07-2.94a.5.5,0,0,1,.5,0,.48.48,0,0,1,.25.43V382.6a.48.48,0,0,1-.25.43l-27.51,15.89A.47.47,0,0,1,602.23,399Zm.5-73.87v72.5l26.51-15.31V309.8l-4.75,2.75a.51.51,0,0,1-.69-.18l-5.5-9.51a.45.45,0,0,1-.07-.25v-5.48l-4.5,2.58v6.09a.47.47,0,0,1,0,.17l-5.49,15.84a.47.47,0,0,1-.23.27Z"/><path class="cls-6" d="M637.2,378.79a.52.52,0,0,1-.25-.07l-7.45-4.31a.5.5,0,0,1-.25-.43V309.23l-5-2.89-2.52,1.46a.51.51,0,0,1-.69-.18l-2.75-4.76a.57.57,0,0,1-.06-.25v-6.05l-5-2.89-5,2.89v.88a.5.5,0,0,1-.25.43.5.5,0,0,1-.5,0l-10.84-6.26a.5.5,0,0,1-.25-.43V275.36a.5.5,0,0,1,.75-.44l40.3,23.29a.52.52,0,0,1,.25.44v79.64a.52.52,0,0,1-.25.43A.59.59,0,0,1,637.2,378.79Zm-7-5.1,6.45,3.73V298.93l-39.3-22.71v14.67l9.84,5.68v-.3a.5.5,0,0,1,.25-.44l5.49-3.17a.5.5,0,0,1,.5,0l5.5,3.17a.52.52,0,0,1,.25.44v6.2l2.43,4.21,2.34-1.35a.52.52,0,0,1,.5,0l5.5,3.17a.52.52,0,0,1,.25.44Z"/><path class="cls-7" d="M637.21,299.15a.56.56,0,0,1-.26-.07l-40.3-23.3a.5.5,0,0,1,0-.87l5.75-3.32a.5.5,0,0,1,.5,0l40.31,23.29a.5.5,0,0,1,0,.87l-5.75,3.33A.59.59,0,0,1,637.21,299.15Zm-39.31-23.8,39.3,22.72,4.76-2.75L602.65,272.6Z"/><path class="cls-8" d="M643,295.82a.52.52,0,0,1-.25-.07L602.4,272.46a.48.48,0,0,1-.25-.43v-6.65a.5.5,0,0,1,.75-.44l40.31,23.29a.52.52,0,0,1,.25.44v6.65a.52.52,0,0,1-.25.43A.59.59,0,0,1,643,295.82Zm-39.81-24.08,39.31,22.71V289l-39.31-22.71Z"/><path class="cls-9" d="M648.73,285.85a.52.52,0,0,1-.25-.07l-40.3-23.28a.5.5,0,0,1-.28-.44v-6.65a.5.5,0,0,1,.75-.44L649,278.25a.52.52,0,0,1,.25.44v6.66a.52.52,0,0,1-.25.43A.59.59,0,0,1,648.73,285.85ZM608.9,261.76l39.33,22.72V279L608.9,256.27Z"/><path class="cls-10" d="M643,289.17a.52.52,0,0,1-.25-.07L602.4,265.81a.5.5,0,0,1,0-.87l5.75-3.32a.57.57,0,0,1,.51,0L649,284.91a.5.5,0,0,1,0,.87l-5.77,3.32A.59.59,0,0,1,643,289.17Zm-39.31-23.79L643,288.09l4.77-2.75L608.4,262.63Z"/><path class="cls-11" d="M454,212.06a.51.51,0,0,1-.25-.06.56.56,0,0,1-.16-.14l-59.11-34.13a.5.5,0,0,1-.25-.44.48.48,0,0,1,.25-.43l56.68-32.7.06,0,2.56-1.49a.52.52,0,0,1,.51,0l59.31,34.25a.5.5,0,0,1,.25.43.52.52,0,0,1-.25.44L454.2,212A.57.57,0,0,1,454,212.06Zm-58.27-34.77L454,211,512.3,177.3,454,143.63,451.72,145l-.06.05Z"/><path class="cls-12" d="M454,226.05a.5.5,0,0,1-.51-.5v-14a.48.48,0,0,1,.25-.43l59.35-34.26a.5.5,0,0,1,.5,0,.5.5,0,0,1,.25.43v14a.52.52,0,0,1-.25.44l-9.66,5.58h0L454.21,226A.57.57,0,0,1,454,226.05Zm.49-14.2v12.84l48.9-28.23.07,0L512.8,191V178.17Z"/><path class="cls-13" d="M677.66,317.47a.52.52,0,0,1-.25-.07.5.5,0,0,1-.25-.43v-51a.5.5,0,0,1,.25-.44l14.81-8.55a.5.5,0,0,1,.5,0,.52.52,0,0,1,.25.44v51a.52.52,0,0,1-.25.43l-14.81,8.55A.59.59,0,0,1,677.66,317.47Zm.5-51.26V316.1l13.81-8V258.24Z"/><path class="cls-14" d="M711.18,194.38a.52.52,0,0,1-.25-.07l-6.1-3.52a.49.49,0,0,1-.22-.6l4.2-11.58,0-.05,3.39-9.38a.5.5,0,0,1,.3-.3.51.51,0,0,1,.42,0l6.11,3.53a.51.51,0,0,1,.22.6l-.16.46-7.46,20.55a.52.52,0,0,1-.3.3Zm-5.49-4.25,5.22,3,7.28-20-5.23-3-3.18,8.77s0,0,0,.06Z"/><path class="cls-15" d="M711.18,254.77a.52.52,0,0,1-.25-.07.48.48,0,0,1-.25-.43V193.88a.47.47,0,0,1,0-.17l7.46-20.54a.49.49,0,0,1,.21-.26l.32-.19a.47.47,0,0,1,.38-.06.53.53,0,0,1,.31.24l7,12.19a.52.52,0,0,1,.07.25v60.39a.52.52,0,0,1-.25.43l-14.8,8.54A.59.59,0,0,1,711.18,254.77Zm.5-60.81V253.4l13.8-8v-60l-6.57-11.41Z"/><path class="cls-16" d="M677.66,266.42a.47.47,0,0,1-.32-.12.49.49,0,0,1-.15-.55l7.64-21a.47.47,0,0,1,.42-.33.5.5,0,0,1,.48.25l7.17,12.46a.49.49,0,0,1-.18.68l-14.81,8.54A.59.59,0,0,1,677.66,266.42Zm7.74-20.32-6.8,18.7,13.18-7.61Z"/><path class="cls-17" d="M677.66,317.47a.52.52,0,0,1-.25-.07l-11.63-6.73a.5.5,0,0,1-.25-.43V282.31l-32.36-18.68a.48.48,0,0,1-.25-.43V240.37a.5.5,0,0,1,.75-.44l44.24,25.55a.52.52,0,0,1,.25.44V317a.52.52,0,0,1-.25.43A.59.59,0,0,1,677.66,317.47ZM666.53,310l10.63,6.15V266.21l-43.24-25v21.68l32.36,18.67a.52.52,0,0,1,.25.44Z"/><path class="cls-18" d="M781.56,235a.47.47,0,0,1-.25-.07L737.06,209.4a.49.49,0,0,1-.22-.6l7.62-21a.51.51,0,0,1,.29-.3.54.54,0,0,1,.43,0l44.26,25.55a.49.49,0,0,1,.22.6l-7.63,21a.5.5,0,0,1-.3.3A.47.47,0,0,1,781.56,235Zm-43.64-26.28,43.38,25,7.28-20.06-43.39-25Z"/><path class="cls-19" d="M677.66,266.42a.52.52,0,0,1-.25-.07L633.17,240.8a.5.5,0,0,1-.25-.43.71.71,0,0,1,0-.21l2.32-6.42s0,0,0-.05l5.27-14.5a.5.5,0,0,1,.3-.3.51.51,0,0,1,.42,0l44.26,25.55.1.08a.54.54,0,0,1,.13.54l-7.64,21a.52.52,0,0,1-.3.3ZM634,240.14l43.37,25,7.29-20-43.39-25-5,13.9a.43.43,0,0,0,0,0Z"/><path class="cls-20" d="M711.18,254.77a.52.52,0,0,1-.25-.07l-6.1-3.52a.5.5,0,0,1-.25-.43V190.36a.5.5,0,0,1,.75-.44l6.1,3.52a.52.52,0,0,1,.25.44v60.39a.5.5,0,0,1-.25.43A.59.59,0,0,1,711.18,254.77Zm-5.6-4.31,5.1,2.94V194.17l-5.1-2.95Z"/><path class="cls-21" d="M781.56,295.4a.47.47,0,0,1-.25-.07l-44.25-25.55a.5.5,0,0,1-.25-.43V209a.5.5,0,0,1,.75-.44l44.25,25.56a.48.48,0,0,1,.25.43V294.9a.48.48,0,0,1-.25.43A.43.43,0,0,1,781.56,295.4Zm-43.75-26.34,43.25,25V234.81l-43.25-25Z"/><path class="cls-22" d="M781.56,235a.49.49,0,0,1-.32-.12.5.5,0,0,1-.15-.55l7.63-21a.51.51,0,0,1,.43-.33.52.52,0,0,1,.48.25l7.12,12.39a.51.51,0,0,1-.19.68L781.82,235A.48.48,0,0,1,781.56,235Zm7.73-20.33-6.78,18.7,13.12-7.67Z"/><path class="cls-23" d="M781.56,295.4a.47.47,0,0,1-.25-.07.5.5,0,0,1-.25-.43V234.52a.5.5,0,0,1,.25-.43l14.75-8.63a.48.48,0,0,1,.39,0,.49.49,0,0,1,.31.25,1.11,1.11,0,0,1,.09.31v60.38a.5.5,0,0,1-.25.43l-14.79,8.54A.43.43,0,0,1,781.56,295.4Zm.5-60.59V294l13.79-8V226.75Z"/><path class="cls-24" d="M829.83,196.12a.47.47,0,0,1-.25-.07.49.49,0,0,1-.25-.43V189a.5.5,0,0,1,.25-.43.5.5,0,0,1,.5,0l5.78,3.33a.5.5,0,0,1,0,.87l-5.78,3.32A.51.51,0,0,1,829.83,196.12Zm.5-6.28v4.92l4.28-2.46Z"/><path class="cls-25" d="M824.08,192.79a.54.54,0,0,1-.25-.06.5.5,0,0,1-.25-.44v-6.64a.48.48,0,0,1,.25-.43.5.5,0,0,1,.5,0l5.75,3.32a.49.49,0,0,1,0,.86l-5.75,3.33A.57.57,0,0,1,824.08,192.79Zm.5-6.27v4.91l4.25-2.46Z"/><path class="cls-26" d="M592.08,192.43a.57.57,0,0,1-.25-.06l-29.24-16.89a.52.52,0,0,1-.25-.44V115.61a.52.52,0,0,1,.25-.44.5.5,0,0,1,.5,0l29.2,16.88a.5.5,0,0,1,.29.45v59.43a.5.5,0,0,1-.25.44A.51.51,0,0,1,592.08,192.43Zm-28.74-17.68,28.24,16.32V132.79l-28.24-16.32Z"/><path class="cls-27" d="M592.08,133a.63.63,0,0,1-.26-.07L562.59,116a.5.5,0,0,1-.25-.43.52.52,0,0,1,.25-.44l29.66-17.12a.5.5,0,0,1,.5,0L607,106.29a.51.51,0,0,1,.19.68L601,117.71l8.08,4.67a.49.49,0,0,1,0,.86l-16.67,9.64A.53.53,0,0,1,592.08,133Zm-28.24-17.39,28.23,16.31,15.75-9.11-7.76-4.48a.52.52,0,0,1-.23-.3.46.46,0,0,1,0-.38l6.2-10.75L592.5,99.06Z"/><path class="cls-28" d="M630,135.53a.57.57,0,0,1-.25-.06l-21.09-12.19-.06,0-8.51-4.92a.53.53,0,0,1-.24-.31.57.57,0,0,1,0-.38L614.71,92a.49.49,0,0,1,.3-.23.46.46,0,0,1,.38,0l29.67,17.14a.49.49,0,0,1,.18.68l-14.83,25.68a.53.53,0,0,1-.31.24Zm-21-13.18.06,0,20.71,12,14.34-24.82-28.8-16.64L601,117.71l.54.31Z"/><path class="cls-29" d="M630,135.53a.51.51,0,0,1-.36-.15.5.5,0,0,1-.08-.6l14.84-25.68a.48.48,0,0,1,.3-.24.55.55,0,0,1,.38,0l14.82,8.57a.47.47,0,0,1,.25.43.48.48,0,0,1-.25.43l-29.65,17.12A.47.47,0,0,1,630,135.53ZM645,110l-13.65,23.63,27.29-15.75Z"/><path class="cls-30" d="M590.84,208.42a.47.47,0,0,1-.25-.07l-59.27-34.22a.49.49,0,0,1,0-.86l31.27-18a.5.5,0,0,1,.5,0,.47.47,0,0,1,.25.43v19.09l28.74,16.61,29.16-16.84V157.38a.47.47,0,0,1,.25-.43.5.5,0,0,1,.5,0l28.32,16.34a.5.5,0,0,1,0,.87l-59.22,34.19A.43.43,0,0,1,590.84,208.42ZM532.57,173.7l58.27,33.64,58.22-33.61-26.82-15.49v16.57a.49.49,0,0,1-.25.43l-29.66,17.13a.5.5,0,0,1-.5,0l-29.24-16.89a.52.52,0,0,1-.25-.44V156.52Z"/><path class="cls-31" d="M592.08,192.43a.57.57,0,0,1-.25-.06.52.52,0,0,1-.25-.44V132.48a.5.5,0,0,1,.25-.43l16.74-9.67a.52.52,0,0,1,.51,0L622,129.84a.5.5,0,0,1,.25.43v44.54a.49.49,0,0,1-.25.43l-29.66,17.13A.51.51,0,0,1,592.08,192.43Zm.5-59.66v58.3l28.66-16.55v-44l-12.41-7.18Z"/><path class="cls-32" d="M818.32,189.48a.47.47,0,0,1-.25-.07l-49-28.27a.5.5,0,0,1,0-.87l5.77-3.32a.5.5,0,0,1,.5,0l49,28.27a.5.5,0,0,1,.25.43.52.52,0,0,1-.25.44l-5.76,3.32A.45.45,0,0,1,818.32,189.48Zm-48-28.77,48,27.69,4.76-2.75-48-27.69Z"/><path class="cls-33" d="M812.56,206.1a.43.43,0,0,1-.25-.07l-49-28.26a.51.51,0,0,1-.25-.37.44.44,0,0,1,0-.2v-6.49a.5.5,0,0,1,.75-.44l49,28.26a.49.49,0,0,1,.25.43v6.64a.5.5,0,0,1-.25.43A.47.47,0,0,1,812.56,206.1Zm-48.46-29,48,27.67v-5.48l-48-27.68Z"/><path class="cls-34" d="M806.8,280.81a.45.45,0,0,1-.25-.07.48.48,0,0,1-.25-.43V208.93a.5.5,0,0,1,.25-.44l5.51-3.18V199a.47.47,0,0,1,.25-.43l5.5-3.19V189a.47.47,0,0,1,.15-.35.31.31,0,0,1,.11-.09l5.76-3.33a.5.5,0,0,1,.5,0,.5.5,0,0,1,.25.43v5.78l5-2.89a.5.5,0,0,1,.5,0,.48.48,0,0,1,.25.43v5.79l5-2.89a.5.5,0,0,1,.75.44v71.37a.5.5,0,0,1-.25.43l-28.81,16.63A.47.47,0,0,1,806.8,280.81Zm.5-71.6v70.23l27.81-16.05V193.17l-5,2.89a.5.5,0,0,1-.5,0,.49.49,0,0,1-.25-.43v-5.78l-5,2.89a.5.5,0,0,1-.75-.44v-5.77l-4.77,2.75v6.36a.47.47,0,0,1-.25.43l-5.5,3.19v6.35a.5.5,0,0,1-.25.43Z"/><path class="cls-35" d="M806.8,280.81a.45.45,0,0,1-.25-.07l-10.45-6a.52.52,0,0,1-.25-.43V226.11l-7-12.24-31.24-18a.49.49,0,0,1-.25-.43V180.65a.5.5,0,0,1,.25-.43.5.5,0,0,1,.5,0l49,28.27a.52.52,0,0,1,.25.44v71.38a.5.5,0,0,1-.25.43A.47.47,0,0,1,806.8,280.81ZM796.85,274l9.45,5.45V209.22l-48-27.7v13.6l31.1,18a.47.47,0,0,1,.19.18l7.12,12.39,0,.1a.59.59,0,0,1,.05.23Z"/><path class="cls-36" d="M848.4,170.28a.55.55,0,0,1-.25-.07l-5.92-3.39a.51.51,0,0,1-.23-.6l3.9-11.39a.5.5,0,0,1,.3-.3.54.54,0,0,1,.43,0l5.89,3.4a.51.51,0,0,1,.22.6l-3.87,11.38a.5.5,0,0,1-.3.3A.33.33,0,0,1,848.4,170.28Zm-5.32-4.12,5,2.88,3.54-10.42-5-2.89Z"/><path class="cls-37" d="M590.84,225.54a.5.5,0,0,1-.25-.93l59-34.08V174.62l-58.5,33.73a.49.49,0,0,1-.68-.18.5.5,0,0,1,.18-.68l59.25-34.17a.5.5,0,0,1,.5,0,.48.48,0,0,1,.25.43v17.07a.48.48,0,0,1-.25.43l-59.25,34.23A.57.57,0,0,1,590.84,225.54Z"/><path class="cls-38" d="M590.84,225.54a.47.47,0,0,1-.25-.07l-59.33-34.26a.5.5,0,0,1-.25-.43V173.67a.49.49,0,0,1,.24-.42.51.51,0,0,1,.48,0l59.36,34.27a.48.48,0,0,1,.25.43V225a.48.48,0,0,1-.25.43A.43.43,0,0,1,590.84,225.54Zm-58.83-35,58.33,33.68v-16L532,174.53Z"/><path class="cls-39" d="M613.23,306.3a.52.52,0,0,1-.31-.1l-5.44-3.14a.5.5,0,0,1-.25-.43v-6.37a.52.52,0,0,1,.25-.43.5.5,0,0,1,.5,0l5.5,3.16a.48.48,0,0,1,.25.43v6.38A.5.5,0,0,1,613.23,306.3Zm-5-4,4.5,2.59v-5.22l-4.5-2.58Z"/><path class="cls-40" d="M818.31,196.13a.47.47,0,0,1-.25-.07l-49-28.28a.5.5,0,0,1-.25-.43v-6.64a.52.52,0,0,1,.25-.44.5.5,0,0,1,.5,0l49,28.28a.48.48,0,0,1,.25.43v6.65a.5.5,0,0,1-.25.44A.54.54,0,0,1,818.31,196.13Zm-48.46-29.07,48,27.71v-5.5l-48-27.7Z"/><path class="cls-41" d="M812.56,199.46a.43.43,0,0,1-.25-.07l-49-28.25a.5.5,0,0,1,0-.87l5.75-3.35a.5.5,0,0,1,.5,0l49,28.28a.48.48,0,0,1,.25.43.47.47,0,0,1-.25.43l-5.75,3.33A.47.47,0,0,1,812.56,199.46Zm-48-28.76,48,27.68,4.75-2.75-47.95-27.7Z"/><path class="cls-42" d="M881.1,168.14a.55.55,0,0,1-.25-.07L875,164.7a.5.5,0,0,1-.15-.73l6.14-8.19a.5.5,0,0,1,.65-.14L887.5,159a.53.53,0,0,1,.24.34.52.52,0,0,1-.09.4l-6.15,8.18A.51.51,0,0,1,881.1,168.14Zm-5.1-4,5,2.86,5.55-7.37-5-2.88Z"/><path class="cls-43" d="M873,172.87a.52.52,0,0,1-.25-.07l-5.86-3.37a.48.48,0,0,1-.25-.43.5.5,0,0,1,.25-.44l8.1-4.73a.54.54,0,0,1,.51,0l5.84,3.37a.5.5,0,0,1,0,.87l-8.09,4.73A.59.59,0,0,1,873,172.87ZM868.15,169l4.85,2.8,7.1-4.15-4.84-2.8Z"/><path class="cls-44" d="M873,242.57a.52.52,0,0,1-.25-.07.5.5,0,0,1-.25-.43v-69.7a.51.51,0,0,1,.24-.44l8-4.68,6.09-8.09a.49.49,0,0,1,.49-.2l5.79,1.09,8.07-4.73a.53.53,0,0,1,.77.44v69.88a.52.52,0,0,1-.25.43L873.26,242.5A.59.59,0,0,1,873,242.57Zm.5-69.92V241.2L901,225.35V156.62l-7.5,4.39a.51.51,0,0,1-.34.06L887.46,160l-6,7.94a.64.64,0,0,1-.15.13Z"/><path class="cls-45" d="M873,242.57a.55.55,0,0,1-.25-.07l-5.86-3.35a.48.48,0,0,1-.25-.43V169a.5.5,0,0,1,.75-.44l5.86,3.37a.52.52,0,0,1,.25.44v69.7a.52.52,0,0,1-.25.43A.59.59,0,0,1,873,242.57Zm-5.36-4.14,4.86,2.77V172.66l-4.86-2.8Z"/><path class="cls-46" d="M893.22,161.08A.52.52,0,0,1,893,161l-5.85-3.38a.48.48,0,0,1-.25-.43.51.51,0,0,1,.24-.44l8.25-4.82a.5.5,0,0,1,.5,0l5.85,3.38a.5.5,0,0,1,0,.87L893.47,161A.59.59,0,0,1,893.22,161.08Zm-4.86-3.89,4.85,2.81,7.25-4.24L895.61,153Z"/><path class="cls-47" d="M867.15,169.5a.52.52,0,0,1-.25-.07l-3.16-1.83a.5.5,0,0,1-.25-.43v-6.29l-5.39-3.11-.71.41a.51.51,0,0,1-.38,0,.53.53,0,0,1-.31-.24l-.94-1.65a.5.5,0,0,1-.06-.24v-4.28l-5.4-3.12-3.42,2v2.09a.52.52,0,0,1-.25.43.5.5,0,0,1-.5,0l-8.85-5.11a.53.53,0,0,1-.25-.35.5.5,0,0,1,.12-.41l8.75-10a.51.51,0,0,1,.63-.11l34.16,19.73a.53.53,0,0,1,.24.34.52.52,0,0,1-.09.4l-5.18,6.9a.47.47,0,0,1-.15.13l-8.11,4.73A.59.59,0,0,1,867.15,169.5Zm-2.66-2.62,2.66,1.54,7.77-4.53,4.78-6.37-33.32-19.25-8.08,9.28,7.58,4.37v-1.5a.5.5,0,0,1,.25-.44l3.91-2.29a.52.52,0,0,1,.51,0l5.9,3.41a.52.52,0,0,1,.25.44V156l.62,1.1.53-.3a.5.5,0,0,1,.5,0l5.89,3.4a.52.52,0,0,1,.25.44Z"/><path class="cls-48" d="M880.43,157.87a.47.47,0,0,1-.25-.07L846,138.06a.49.49,0,0,1-.24-.56.5.5,0,0,1,.48-.37l13.86,0h0a.55.55,0,0,1,.25.07L891,154.82a.49.49,0,0,1,0,.86l-3.33,1.95a.54.54,0,0,1-.35.06l-5.66-1.07-.78,1A.48.48,0,0,1,880.43,157.87Zm-32.3-19.74,32.17,18.58.7-.93a.49.49,0,0,1,.49-.2l5.78,1.09,2.44-1.42L860,138.09Z"/><path class="cls-49" d="M867.15,239.22a.52.52,0,0,1-.25-.07l-3.16-1.83a.5.5,0,0,1-.25-.43V167.17a.5.5,0,0,1,.75-.44l3.16,1.83a.52.52,0,0,1,.25.44v69.72a.52.52,0,0,1-.25.43A.59.59,0,0,1,867.15,239.22Zm-2.66-2.62,2.16,1.25V169.28L864.49,168Z"/><path class="cls-50" d="M864,237.39a.52.52,0,0,1-.25-.07l-19.47-11.24a.5.5,0,0,1-.25-.43.52.52,0,0,1,.25-.45L863.74,214a.5.5,0,0,1,.5,0,.52.52,0,0,1,.25.44v22.5a.52.52,0,0,1-.25.43A.59.59,0,0,1,864,237.39Zm-18.48-11.75,18,10.38V215.25Z"/><path class="cls-51" d="M893.22,161.08h-.09l-6-1.12a.44.44,0,0,1-.16-.06l-5.85-3.38a.5.5,0,0,1-.22-.61.51.51,0,0,1,.56-.32l6,1.13a.49.49,0,0,1,.16,0l5.85,3.38a.5.5,0,0,1-.25.94Zm-5.8-2.1,3,.56-3.24-1.87-3-.56Z"/><path class="cls-52" d="M920.82,479,818.5,420.15l-44.28,25.56a.5.5,0,0,1-.5,0l-85.24-49.22.5-.87,85,49.08,44.28-25.56a.5.5,0,0,1,.5,0l102.57,59Z"/><rect class="cls-53" x="701.78" y="388.15" width="1" height="63.99" transform="translate(-10.94 821.44) rotate(-60.25)"/><rect class="cls-54" x="701.95" y="388.14" width="1" height="98.11" transform="translate(-27.53 826.7) rotate(-59.98)"/><path class="cls-55" d="M926,485.69c-3.65,0-6.5-1.74-6.5-4s2.85-4,6.5-4,6.49,1.74,6.49,4S929.64,485.69,926,485.69Zm0-6.92c-3,0-5.5,1.35-5.5,3s2.52,3,5.5,3,5.49-1.35,5.49-3S929,478.77,926,478.77Z"/><path class="cls-56" d="M734.3,442.42c-3.64,0-6.49-1.74-6.49-4s2.85-4,6.49-4,6.5,1.74,6.5,4S737.94,442.42,734.3,442.42Zm0-6.92c-3,0-5.49,1.36-5.49,3s2.51,3,5.49,3,5.5-1.35,5.5-3S737.28,435.5,734.3,435.5Z"/><path class="cls-57" d="M749.11,468.18c-3.64,0-6.5-1.74-6.5-4s2.86-4,6.5-4,6.49,1.74,6.49,4S752.75,468.18,749.11,468.18Zm0-6.92c-3,0-5.5,1.36-5.5,3s2.52,3,5.5,3,5.49-1.35,5.49-3S752.09,461.26,749.11,461.26Z"/><path class="cls-58" d="M772.06,550.57c-3.65,0-6.5-1.74-6.5-4s2.85-4,6.5-4,6.49,1.74,6.49,4S775.7,550.57,772.06,550.57Zm0-6.92c-3,0-5.5,1.35-5.5,3s2.52,3,5.5,3,5.49-1.36,5.49-3S775,543.65,772.06,543.65Z"/><path class="cls-59" d="M768.38,545l-68-39.26a.52.52,0,0,1-.25-.43V454.21L644.39,422l.5-.86,56,32.34a.5.5,0,0,1,.25.43v51.13l67.75,39.11Z"/><path class="cls-60" d="M1091.29,349.55c-3.65,0-6.5-1.74-6.5-4s2.85-4,6.5-4,6.49,1.74,6.49,4S1094.93,349.55,1091.29,349.55Zm0-6.92c-3,0-5.5,1.35-5.5,3s2.52,3,5.5,3,5.49-1.35,5.49-3S1094.26,342.63,1091.29,342.63Z"/><path class="cls-61" d="M935,327.22c-3.64,0-6.5-1.74-6.5-4s2.86-4,6.5-4,6.49,1.74,6.49,4S938.61,327.22,935,327.22Zm0-6.92c-3,0-5.5,1.35-5.5,3s2.52,3,5.5,3,5.49-1.36,5.49-3S938,320.3,935,320.3Z"/><polygon class="cls-62" points="945.8 347.23 945.35 346.97 859.76 297.55 860.26 296.69 946.3 346.36 945.8 347.23"/><path class="cls-63" d="M949.78,353c-3.65,0-6.5-1.74-6.5-4s2.85-4,6.5-4,6.49,1.74,6.49,4S953.42,353,949.78,353Zm0-6.92c-3,0-5.5,1.35-5.5,3s2.52,3,5.5,3,5.49-1.36,5.49-3S952.75,346.06,949.78,346.06Z"/><polygon class="cls-64" points="930.96 321.52 930.48 321.25 874.29 289.17 874.78 288.31 931.45 320.65 930.96 321.52"/><path class="cls-65" d="M972.72,435.37c-3.64,0-6.49-1.74-6.49-4s2.85-4,6.49-4,6.5,1.74,6.5,4S976.37,435.37,972.72,435.37Zm0-6.93c-3,0-5.49,1.36-5.49,3s2.52,3,5.49,3,5.5-1.36,5.5-3S975.7,428.44,972.72,428.44Z"/><path class="cls-66" d="M967.57,429l-68-39.26a.47.47,0,0,1-.25-.43V338.2l-54.9-31.72.24-.42v-.51a.48.48,0,0,1,.26.07l55.15,31.86a.49.49,0,0,1,.25.43V389l67.75,39.12Z"/><path class="cls-67" d="M334.61,168a.54.54,0,0,1-.25-.06l-55.15-31.86a.48.48,0,0,1-.25-.43V84.56L146,7.64l.5-.86.27.15,132.9,76.91a.48.48,0,0,1,.25.43V135.4l54.9,31.71-.25.43Z"/><path class="cls-68" d="M275.7,201.84l-86.47-50L145,177.44a.5.5,0,0,1-.49,0L10.33,100.22l.5-.87L144.7,176.43,189,150.88a.5.5,0,0,1,.5,0L276.2,201Z"/><polygon class="cls-69" points="289.92 193.63 233.26 161.22 233.75 160.35 234.23 160.62 290.42 192.76 289.92 193.63"/><polygon class="cls-70" points="304.44 185.25 218.41 135.5 218.91 134.64 219.37 134.9 304.95 184.38 304.44 185.25"/><rect class="cls-71" x="260.82" y="75.35" width="1" height="134.48" transform="translate(7.09 297.48) rotate(-59.97)"/><path class="cls-72" d="M6.49,101.08c-3.64,0-6.49-1.74-6.49-4s2.85-4,6.49-4,6.5,1.74,6.5,4S10.14,101.08,6.49,101.08Zm0-6.92c-3,0-5.49,1.36-5.49,3s2.52,3,5.49,3,5.5-1.35,5.5-3S9.47,94.16,6.49,94.16Z"/><path class="cls-73" d="M229.74,162.57c-3.64,0-6.49-1.74-6.49-4s2.85-4,6.49-4,6.5,1.74,6.5,4S233.39,162.57,229.74,162.57Zm0-6.92c-3,0-5.49,1.35-5.49,3s2.51,3,5.49,3,5.5-1.36,5.5-3S232.72,155.65,229.74,155.65Z"/><path class="cls-74" d="M214.93,136.81c-3.64,0-6.49-1.74-6.49-4s2.85-4,6.49-4,6.5,1.74,6.5,4S218.58,136.81,214.93,136.81Zm0-6.92c-3,0-5.49,1.35-5.49,3s2.52,3,5.49,3,5.5-1.36,5.5-3S217.91,129.89,214.93,129.89Z"/><path class="cls-75" d="M198.78,110.25c-3.64,0-6.49-1.74-6.49-4s2.85-4,6.49-4,6.5,1.74,6.5,4S202.43,110.25,198.78,110.25Zm0-6.92c-3,0-5.49,1.35-5.49,3s2.51,3,5.49,3,5.5-1.36,5.5-3S201.76,103.33,198.78,103.33Z"/><path class="cls-76" d="M141,7.92c-3.64,0-6.5-1.74-6.5-4s2.86-4,6.5-4,6.49,1.74,6.49,4S144.63,7.92,141,7.92ZM141,1c-3,0-5.5,1.36-5.5,3s2.52,3,5.5,3,5.49-1.35,5.49-3S144,1,141,1Z"/><path class="cls-77" d="M454,226.05a.51.51,0,0,1-.25-.06l-59.29-34.23a.5.5,0,0,1-.25-.44l0-14a.48.48,0,0,1,.25-.43.5.5,0,0,1,.5,0l59.27,34.22a.5.5,0,0,1,.25.43v14a.52.52,0,0,1-.25.44A.57.57,0,0,1,454,226.05Zm-58.79-35,58.29,33.65V211.8l-58.28-33.64Z"/><path class="cls-78" d="M852.27,154.33a.52.52,0,0,1-.25-.07l-5.89-3.41a.5.5,0,0,1,0-.87l3.91-2.29a.52.52,0,0,1,.51,0l5.9,3.41a.5.5,0,0,1,0,.87l-3.93,2.29A.59.59,0,0,1,852.27,154.33Zm-4.9-3.92,4.9,2.84,2.93-1.71-4.9-2.84Z"/><path class="cls-79" d="M860.05,163.4l-.13,0a.53.53,0,0,1-.31-.24L856.7,158a.51.51,0,0,1,.19-.68l1-.55a.5.5,0,0,1,.5,0l5.89,3.4a.5.5,0,0,1,0,.87l-3.94,2.3A.59.59,0,0,1,860.05,163.4Zm-2.23-5.47,2.41,4.28L863,160.6l-4.89-2.83Z"/><path class="cls-80" d="M596.73,322.16a.45.45,0,0,1-.25-.07.18.18,0,0,1-.07,0L547,293.53a.49.49,0,0,1-.24-.32.5.5,0,0,1,.07-.39l14.68-22.12a.48.48,0,0,1,.66-.15L608,297a.48.48,0,0,1,.25.43v5.19a.88.88,0,0,1,0,.16l-5.5,15.86a.53.53,0,0,1-.22.27L597,322.09A.45.45,0,0,1,596.73,322.16ZM548,292.93l48.78,28.15,5.09-2.94,5.4-15.6v-4.81l-45.15-26.08Z"/><path class="cls-81" d="M838.62,222.74a.52.52,0,0,1-.25-.07l-3-1.74a.5.5,0,0,1-.25-.43V192.59L804.82,175.1a.5.5,0,0,1-.25-.43V149.28a.5.5,0,0,1,.75-.44l33.55,19.37a.52.52,0,0,1,.25.44v53.59a.52.52,0,0,1-.25.43A.59.59,0,0,1,838.62,222.74Zm-2.51-2.53,2,1.16V168.93l-32.55-18.79v24.24l30.29,17.49a.52.52,0,0,1,.25.44Z"/><path class="cls-82" d="M844.52,226.14a.52.52,0,0,1-.25-.07.5.5,0,0,1-.25-.43V172a.5.5,0,0,1,.25-.44l3.71-2.16,3.79-11.13v-4.48a.5.5,0,0,1,.25-.44L856,151.1a.5.5,0,0,1,.5,0,.52.52,0,0,1,.25.44V156l3.53,6.25,3.51-2.05a.5.5,0,0,1,.5,0,.52.52,0,0,1,.25.44v53.79a.52.52,0,0,1-.25.43l-19.47,11.25A.59.59,0,0,1,844.52,226.14Zm.5-53.82v52.45l18.47-10.67V161.47l-3.19,1.86a.57.57,0,0,1-.38,0,.53.53,0,0,1-.31-.24l-3.85-6.8a.5.5,0,0,1-.06-.24v-3.69l-2.93,1.7v4.29a.5.5,0,0,1,0,.16l-3.87,11.38a.53.53,0,0,1-.22.27Z"/><path class="cls-83" d="M844.52,226.14a.52.52,0,0,1-.25-.07l-5.9-3.4a.5.5,0,0,1-.25-.43V168.65a.5.5,0,0,1,.75-.44l5.9,3.39a.52.52,0,0,1,.25.44v53.6a.52.52,0,0,1-.25.43A.59.59,0,0,1,844.52,226.14Zm-5.4-4.19,4.9,2.82V172.33l-4.9-2.82Z"/><path class="cls-84" d="M844.52,172.54a.55.55,0,0,1-.25-.07l-5.9-3.39a.48.48,0,0,1-.25-.43.51.51,0,0,1,.24-.44l3.86-2.26a.52.52,0,0,1,.51,0l5.92,3.39a.5.5,0,0,1,0,.87l-3.88,2.26A.59.59,0,0,1,844.52,172.54Zm-4.91-3.9,4.91,2.82,2.88-1.68L842.48,167Z"/><path class="cls-85" d="M838.62,169.15a.52.52,0,0,1-.25-.07l-33.55-19.37a.5.5,0,0,1-.17-.71l2.86-4.3a.27.27,0,0,1,.07-.08l6.84-10.33a.51.51,0,0,1,.67-.16l31.54,18.22a.52.52,0,0,1,.25.44V155a.45.45,0,0,1,0,.16L843,166.55a.53.53,0,0,1-.22.27l-3.86,2.26A.59.59,0,0,1,838.62,169.15Zm-32.84-20,32.84,19,3.45-2,3.81-11.14v-1.83L815,135.23l-6.62,10-.07.09Z"/><path class="cls-86" d="M806.8,209.43a.55.55,0,0,1-.25-.07l-49-28.27a.51.51,0,0,1,0-.88l5.74-3.31a.52.52,0,0,1,.5,0l49,28.27a.49.49,0,0,1,0,.86l-5.76,3.33A.59.59,0,0,1,806.8,209.43Zm-48-28.78,48,27.7,4.76-2.75-48-27.69Z"/><path class="cls-87" d="M852.27,158.9a.52.52,0,0,1-.25-.07l-5.89-3.4a.5.5,0,0,1-.25-.43v-4.58a.5.5,0,0,1,.25-.44.52.52,0,0,1,.5,0l5.89,3.41a.52.52,0,0,1,.25.44v4.57a.52.52,0,0,1-.25.43A.59.59,0,0,1,852.27,158.9Zm-5.39-4.19,4.89,2.82v-3.42l-4.89-2.83Z"/><path class="cls-88" d="M590.82,436.05a.52.52,0,0,1-.25-.07l-163.1-94.17a.5.5,0,0,1,0-.87l163.06-94.19a.5.5,0,0,1,.5,0l17.62,10.17a.52.52,0,0,1,.25.44v4.4L649,284.91a.5.5,0,0,1,0,.87L643.46,289v6.36a.52.52,0,0,1-.25.43l-5.51,3.19v78.48l27.83-16.06V310.24a.5.5,0,0,1,.75-.44l11.38,6.59L692,308.13v-2.22a.5.5,0,0,1,.75-.44L754.17,341a.5.5,0,0,1,0,.87L591.07,436A.59.59,0,0,1,590.82,436.05Zm-162.1-94.67L590.82,435l162.1-93.58L693,306.77v1.65a.52.52,0,0,1-.25.43l-14.81,8.55a.5.5,0,0,1-.5,0l-10.88-6.3v50.55a.52.52,0,0,1-.25.43l-28.83,16.64a.5.5,0,0,1-.75-.43V298.65a.52.52,0,0,1,.31-.47l5.45-3.15v-6.36a.5.5,0,0,1,.25-.44l5-2.89L608.18,262.5a.5.5,0,0,1-.28-.44v-4.42l-17.12-9.88Z"/><path class="cls-89" d="M590.81,453.17a.59.59,0,0,1-.25-.07L427.47,358.93a.5.5,0,0,1-.25-.43V341.38A.5.5,0,0,1,428,341l163.09,94.16a.5.5,0,0,1,.25.44v17.12a.5.5,0,0,1-.25.43A.52.52,0,0,1,590.81,453.17Zm-162.59-95L590.31,451.8v-16l-162.09-93.6Z"/><path class="cls-90" d="M590.81,453.17a.59.59,0,0,1-.25-.07.52.52,0,0,1-.25-.43V435.55a.52.52,0,0,1,.25-.44L753.67,341a.5.5,0,0,1,.75.43l0,17.09a.5.5,0,0,1-.25.43L591.06,453.1A.52.52,0,0,1,590.81,453.17Zm.5-17.33v16l162.07-93.61,0-15.94Z"/><path class="cls-91" d="M787.91,322.21a.52.52,0,0,1-.25-.07L692.22,267a.48.48,0,0,1-.25-.43v-9.1l-7-12.23-43.64-25.19L636.23,234a.5.5,0,0,1-.3.3.52.52,0,0,1-.42,0l-11-6.32a.5.5,0,0,1,0-.87l84.49-48.8a.5.5,0,0,1,.72.61l-4.08,11.22,5.22,3,7.26-20a.49.49,0,0,1,.21-.26l.49-.29,68.75-39.71a.5.5,0,0,1,.5,0l20.09,11.6a.52.52,0,0,1,.24.37.49.49,0,0,1-.15.43l-2.52,3.8,32.84,19,3.6-2.12a.52.52,0,0,1,.51,0l5.92,3.39a.5.5,0,0,1,0,.87L845,172.32v52.45L863.74,214a.5.5,0,0,1,.5,0,.52.52,0,0,1,.25.44V236.6l8.52,4.89,28-16.14V199a.5.5,0,0,1,.75-.44l49.54,28.6a.5.5,0,0,1,0,.87l-163.1,94.16A.59.59,0,0,1,787.91,322.21ZM693,266.32l94.94,54.81L950,227.55l-48-27.74v25.83a.52.52,0,0,1-.25.43L873.26,242.5a.5.5,0,0,1-.5,0l-9-5.18a.5.5,0,0,1-.25-.43V215.25l-18.72,10.82a.5.5,0,0,1-.75-.43V172a.5.5,0,0,1,.25-.44l3.13-1.82L842.48,167l-3.61,2.12a.5.5,0,0,1-.5,0l-33.55-19.37a.5.5,0,0,1-.17-.71l2.59-3.89-19.37-11.19-68.82,39.75-7.4,20.38a.52.52,0,0,1-.3.3.52.52,0,0,1-.42,0l-6.1-3.52a.49.49,0,0,1-.22-.6l3.75-10.34-82.55,47.69,9.68,5.58,5.07-13.93a.5.5,0,0,1,.3-.3.51.51,0,0,1,.42,0l44.26,25.55.1.08a.54.54,0,0,1,.09.12l7.17,12.46a.52.52,0,0,1,.07.25Z"/><path class="cls-92" d="M787.91,339.33a.52.52,0,0,1-.25-.07l-95.44-55.1a.5.5,0,0,1-.25-.43V266.61a.5.5,0,0,1,.75-.44l95.44,55.1a.52.52,0,0,1,.25.44v17.12a.52.52,0,0,1-.25.43A.59.59,0,0,1,787.91,339.33ZM693,283.44,787.41,338V322L693,267.47Z"/><path class="cls-93" d="M633.42,250.13a.52.52,0,0,1-.25-.07l-8.61-5a.5.5,0,0,1-.25-.43V227.54a.5.5,0,0,1,.75-.44l11,6.32a.52.52,0,0,1,.25.44.62.62,0,0,1,0,.18l-2.31,6.37v9.22a.52.52,0,0,1-.25.43A.59.59,0,0,1,633.42,250.13Zm-8.11-5.76,7.61,4.39v-8.43a.47.47,0,0,1,0-.17l2.2-6.08-9.84-5.68Z"/><path class="cls-94" d="M787.9,339.32a.47.47,0,0,1-.25-.07.49.49,0,0,1-.25-.43V321.7a.5.5,0,0,1,.25-.43l163.11-94.16a.5.5,0,0,1,.5,0,.52.52,0,0,1,.25.43l0,17.09a.52.52,0,0,1-.25.44L788.15,339.25A.43.43,0,0,1,787.9,339.32Zm.5-17.33v16l162.07-93.62,0-15.93Z"/><path class="cls-95" d="M393.75,339.39a.45.45,0,0,1-.25-.07.48.48,0,0,1-.25-.43V321.77a.5.5,0,0,1,.25-.44l163.1-94.15a.5.5,0,0,1,.5,0,.48.48,0,0,1,.25.43l0,17.09a.48.48,0,0,1-.25.43L394,339.32A.47.47,0,0,1,393.75,339.39Zm.5-17.33v16l162.06-93.61,0-15.93Z"/><path class="cls-96" d="M393.75,339.39a.45.45,0,0,1-.25-.07L230.4,245.15a.5.5,0,0,1-.25-.43V227.6a.5.5,0,0,1,.75-.43L394,321.33a.52.52,0,0,1,.25.44v17.12a.5.5,0,0,1-.25.43A.47.47,0,0,1,393.75,339.39Zm-162.6-95L393.25,338v-16l-162.1-93.6Z"/><path class="cls-97" d="M393.75,322.26a.51.51,0,0,1-.25-.06L230.41,228a.5.5,0,0,1-.25-.44.48.48,0,0,1,.25-.43l104-60,.06,0,59-34.11a.5.5,0,0,1,.5,0l38.5,22.23a.5.5,0,0,1,.25.43.52.52,0,0,1-.25.44l-36.78,21.22,58.52,33.79a.5.5,0,0,1,.25.43v13.18l48.9-28.23a.55.55,0,0,1,.54,0l53.22,30.73a.5.5,0,0,1,.25.43.52.52,0,0,1-.25.44L394,322.2A.57.57,0,0,1,393.75,322.26ZM231.66,227.59l162.09,93.6L555.86,227.6l-52.23-30.15L454.21,226a.52.52,0,0,1-.76-.44V211.8l-59-34.07a.5.5,0,0,1-.25-.44.48.48,0,0,1,.25-.43l36.78-21.23L393.71,134l-58.84,34-.07,0Z"/><path class="cls-98" d="M613.23,299.92a.57.57,0,0,1-.25-.06l-5.49-3.16a.51.51,0,0,1-.26-.44.52.52,0,0,1,.25-.43l5.5-3.17a.55.55,0,0,1,.5,0l5.5,3.17a.5.5,0,0,1,0,.87l-5.5,3.16A.54.54,0,0,1,613.23,299.92Zm-4.49-3.66,4.49,2.59,4.5-2.59-4.5-2.59Z"/><path class="cls-99" d="M624.24,312.62a.51.51,0,0,1-.44-.25L621,307.62a.56.56,0,0,1,0-.38.48.48,0,0,1,.24-.3l2.77-1.61a.5.5,0,0,1,.5,0L630,308.5a.49.49,0,0,1,0,.86l-5.5,3.19A.47.47,0,0,1,624.24,312.62Zm-2.08-5.07,2.26,3.89,4.32-2.51-4.49-2.59Z"/><path class="cls-100" d="M648.73,279.19a.52.52,0,0,1-.25-.07l-40.33-23.28a.5.5,0,0,1,0-.87l5.78-3.34a.5.5,0,0,1,.5,0l19.24,11.12.07.06,21,12.12a.5.5,0,0,1,0,.87L649,279.12A.59.59,0,0,1,648.73,279.19ZM609.4,255.41l39.33,22.7,4.77-2.74-20.33-11.74-.08-.05-18.91-10.94Z"/><path class="cls-101" d="M660.26,285.83a.52.52,0,0,1-.25-.07.5.5,0,0,1-.25-.43v-6.64a.5.5,0,0,1,.75-.44l5.77,3.33a.52.52,0,0,1,.25.44.5.5,0,0,1-.25.43l-5.77,3.31A.59.59,0,0,1,660.26,285.83Zm.5-6.28v4.91L665,282Z"/><path class="cls-102" d="M637.2,378.79a.52.52,0,0,1-.25-.07.5.5,0,0,1-.25-.43V298.65a.52.52,0,0,1,.31-.47l5.45-3.15v-6.36a.5.5,0,0,1,.25-.44l5.52-3.17v-6.37a.5.5,0,0,1,.25-.44l5.77-3.32a.5.5,0,0,1,.5,0,.52.52,0,0,1,.25.44v5.78l5-2.9a.5.5,0,0,1,.5,0,.52.52,0,0,1,.25.44v5.77l5-2.88a.55.55,0,0,1,.5,0,.52.52,0,0,1,.25.44v79.63a.52.52,0,0,1-.25.43l-28.83,16.64A.59.59,0,0,1,637.2,378.79Zm.5-79.85v78.48l27.83-16.06V282.88l-5,2.88a.5.5,0,0,1-.75-.43v-5.78l-5,2.9a.5.5,0,0,1-.5,0A.48.48,0,0,1,654,282v-5.79L649.23,279v6.37a.52.52,0,0,1-.25.43L643.46,289v6.36a.52.52,0,0,1-.25.43Z"/><path class="cls-103" d="M654.5,282.52a.52.52,0,0,1-.25-.07A.48.48,0,0,1,654,282v-6.65a.5.5,0,0,1,.75-.44l5.76,3.32a.52.52,0,0,1,.25.44.5.5,0,0,1-.25.43l-5.76,3.33A.59.59,0,0,1,654.5,282.52Zm.5-6.29v4.92l4.26-2.46Z"/></g><g id="dash"><path class="cls-104" d="M863.89,247.85a.45.45,0,0,1-.25-.07l-3.47-2a.5.5,0,1,1,.5-.86l3.47,2a.5.5,0,0,1-.25.93Z"/><path class="cls-105" d="M857,243.86a.45.45,0,0,1-.25-.07l-5.51-3.18a.5.5,0,0,1,.5-.86l5.51,3.18a.5.5,0,0,1-.25.93Zm-9-5.17a.47.47,0,0,1-.25-.07l-5.51-3.18a.49.49,0,0,1-.18-.68.51.51,0,0,1,.68-.19l5.51,3.19a.5.5,0,0,1,.19.68A.51.51,0,0,1,848,238.69Z"/><path class="cls-106" d="M839.07,233.52a.45.45,0,0,1-.25-.07l-3.47-2a.5.5,0,0,1-.18-.68.51.51,0,0,1,.68-.19l3.47,2a.51.51,0,0,1,.18.69A.5.5,0,0,1,839.07,233.52Z"/><path class="cls-107" d="M509.83,205a.5.5,0,0,1-.25-.93l2.72-1.57-2.72-1.56a.51.51,0,0,1-.18-.69.49.49,0,0,1,.68-.18l3.47,2a.5.5,0,0,1,.25.43.52.52,0,0,1-.25.44l-3.47,2A.54.54,0,0,1,509.83,205Z"/><path class="cls-108" d="M462.06,232.55a.5.5,0,0,1-.25-.93l7.35-4.24a.5.5,0,0,1,.5.86l-7.35,4.24A.45.45,0,0,1,462.06,232.55ZM474,225.66a.5.5,0,0,1-.25-.94l7.34-4.24a.5.5,0,1,1,.5.87l-7.34,4.24A.59.59,0,0,1,474,225.66Zm11.94-6.9a.5.5,0,0,1-.25-.93l7.35-4.24a.5.5,0,0,1,.5.86l-7.35,4.24A.47.47,0,0,1,486,218.76Zm11.94-6.89a.5.5,0,0,1-.25-.93l7.35-4.25a.5.5,0,0,1,.5.87l-7.35,4.24A.45.45,0,0,1,497.89,211.87Z"/><path class="cls-109" d="M454,237.2a.51.51,0,0,1-.25-.06l-3.47-2a.51.51,0,0,1-.18-.69.49.49,0,0,1,.68-.18l3.22,1.86,3.21-1.86a.49.49,0,0,1,.68.18.51.51,0,0,1-.18.69l-3.46,2A.57.57,0,0,1,454,237.2Z"/><path class="cls-110" d="M445.94,232.55a.47.47,0,0,1-.25-.07l-7.35-4.25a.5.5,0,0,1,.5-.86l7.35,4.25a.49.49,0,0,1,.19.68A.5.5,0,0,1,445.94,232.55ZM434,225.65a.47.47,0,0,1-.25-.07l-7.36-4.25a.5.5,0,0,1,.5-.86l7.36,4.24a.51.51,0,0,1,.18.69A.5.5,0,0,1,434,225.65ZM422,218.75a.55.55,0,0,1-.25-.07l-7.36-4.25a.5.5,0,0,1,.5-.86l7.36,4.24a.51.51,0,0,1,.18.69A.5.5,0,0,1,422,218.75Zm-12-6.91a.57.57,0,0,1-.25-.06l-7.35-4.25a.5.5,0,1,1,.5-.86l7.35,4.24a.5.5,0,0,1,.19.68A.51.51,0,0,1,410.08,211.84Z"/><path class="cls-111" d="M398.13,204.94a.54.54,0,0,1-.25-.06l-3.46-2a.5.5,0,0,1-.25-.44.48.48,0,0,1,.25-.43l3.46-2a.5.5,0,1,1,.5.86l-2.71,1.57,2.71,1.57a.5.5,0,0,1-.25.93Z"/><path class="cls-112" d="M400.82,199.38a.5.5,0,0,1-.25-.93l3.47-2a.5.5,0,0,1,.5,0l3.46,2a.49.49,0,0,1,.18.68.5.5,0,0,1-.68.19l-3.21-1.86-3.22,1.86A.51.51,0,0,1,400.82,199.38Z"/><path class="cls-113" d="M445.63,221.24a.45.45,0,0,1-.25-.07l-7.77-4.48a.5.5,0,1,1,.5-.86l7.77,4.48a.5.5,0,0,1-.25.93ZM433,214a.59.59,0,0,1-.25-.07L425,209.4a.5.5,0,0,1,.5-.86l7.77,4.48a.51.51,0,0,1,.18.69A.5.5,0,0,1,433,214Zm-12.62-7.29a.45.45,0,0,1-.25-.07l-7.77-4.48a.5.5,0,1,1,.5-.87l7.77,4.49a.5.5,0,0,1-.25.93Z"/><path class="cls-114" d="M454,226.05a.52.52,0,0,1-.32-.11l-3.41-2a.51.51,0,0,1-.18-.69.49.49,0,0,1,.68-.18L454,225l3.2-1.85a.5.5,0,0,1,.68.19.49.49,0,0,1-.18.68l-3.45,2A.57.57,0,0,1,454,226.05Z"/><path class="cls-115" d="M462.27,221.25a.5.5,0,0,1-.25-.93l7.77-4.49a.51.51,0,0,1,.68.19.49.49,0,0,1-.18.68l-7.77,4.49A.57.57,0,0,1,462.27,221.25ZM474.9,214a.51.51,0,0,1-.44-.25.51.51,0,0,1,.19-.68l7.77-4.49a.51.51,0,0,1,.68.19.49.49,0,0,1-.18.68l-7.77,4.49A.57.57,0,0,1,474.9,214Zm12.62-7.29a.5.5,0,0,1-.43-.25.5.5,0,0,1,.18-.68l7.77-4.49a.52.52,0,0,1,.69.19.5.5,0,0,1-.19.68l-7.77,4.49A.51.51,0,0,1,487.52,206.67Z"/><path class="cls-116" d="M507.08,199.38a.57.57,0,0,1-.25-.06l-3.21-1.86-3.22,1.86a.51.51,0,0,1-.68-.19.49.49,0,0,1,.18-.68l3.47-2a.5.5,0,0,1,.5,0l3.46,2a.5.5,0,0,1-.25.93Z"/><path class="cls-117" d="M537.2,291.78a.5.5,0,0,1-.5-.5v-4a.5.5,0,0,1,.5-.5.51.51,0,0,1,.5.5v4A.5.5,0,0,1,537.2,291.78Z"/><path class="cls-118" d="M537.2,352.76a.5.5,0,0,1-.5-.5v-7.51a.5.5,0,0,1,1,0v7.51A.5.5,0,0,1,537.2,352.76Zm0-12.2a.5.5,0,0,1-.5-.5v-7.5a.5.5,0,1,1,1,0v7.5A.5.5,0,0,1,537.2,340.56Zm0-12.19a.5.5,0,0,1-.5-.5v-7.51a.5.5,0,0,1,.5-.5.5.5,0,0,1,.5.5v7.51A.5.5,0,0,1,537.2,328.37Zm0-12.2a.5.5,0,0,1-.5-.5v-7.5a.5.5,0,0,1,.5-.5.5.5,0,0,1,.5.5v7.5A.5.5,0,0,1,537.2,316.17Zm0-12.19a.5.5,0,0,1-.5-.5V296a.5.5,0,0,1,.5-.5.51.51,0,0,1,.5.5v7.51A.51.51,0,0,1,537.2,304Z"/><path class="cls-119" d="M537.2,361.45a.55.55,0,0,1-.25-.07l-3.46-2a.51.51,0,0,1-.19-.68.52.52,0,0,1,.69-.19l2.71,1.57V357a.5.5,0,0,1,1,0v4a.52.52,0,0,1-.25.43A.55.55,0,0,1,537.2,361.45Z"/><path class="cls-120" d="M529.88,357.22a.43.43,0,0,1-.25-.07l-6.18-3.57a.5.5,0,1,1,.5-.86l6.18,3.56a.51.51,0,0,1,.18.69A.5.5,0,0,1,529.88,357.22Zm-10-5.8a.47.47,0,0,1-.25-.07l-6.17-3.56a.5.5,0,1,1,.5-.87l6.17,3.57a.49.49,0,0,1,.19.68A.5.5,0,0,1,519.83,351.42Zm-10-5.8a.57.57,0,0,1-.25-.06L503.37,342a.5.5,0,0,1-.19-.68.52.52,0,0,1,.69-.19l6.17,3.57a.5.5,0,0,1-.25.93Zm-10-5.79a.59.59,0,0,1-.25-.07l-6.17-3.57a.5.5,0,0,1-.19-.68.51.51,0,0,1,.69-.18l6.17,3.56a.51.51,0,0,1,.19.69A.5.5,0,0,1,499.75,339.83Z"/><path class="cls-121" d="M489.71,334a.47.47,0,0,1-.25-.07L486,332a.5.5,0,1,1,.5-.86l3.46,2a.49.49,0,0,1,.19.68A.51.51,0,0,1,489.71,334Z"/><path class="cls-122" d="M689,348.87a.5.5,0,0,1-.43-.25.51.51,0,0,1,.18-.69l2.72-1.56-2.72-1.57a.5.5,0,0,1,.5-.87l3.47,2a.5.5,0,0,1,0,.87l-3.47,2A.55.55,0,0,1,689,348.87Z"/><path class="cls-123" d="M683.31,352.15a.5.5,0,0,1-.25-.93l3.5-2a.5.5,0,1,1,.5.86l-3.5,2A.45.45,0,0,1,683.31,352.15Z"/><path class="cls-124" d="M677.66,355.42a.52.52,0,0,1-.25-.07l-3.46-2a.5.5,0,1,1,.5-.87l3.21,1.86,3.21-1.86a.5.5,0,0,1,.5.87l-3.46,2A.59.59,0,0,1,677.66,355.42Z"/><path class="cls-125" d="M669.49,350.69a.45.45,0,0,1-.25-.07l-3.46-2a.48.48,0,0,1-.25-.43v-4a.5.5,0,0,1,.5-.5.5.5,0,0,1,.5.5v3.71l3.21,1.86a.5.5,0,0,1-.25.93Z"/><path class="cls-126" d="M666,342.16a.5.5,0,0,1-.5-.5v-4.05a.5.5,0,0,1,.5-.5.51.51,0,0,1,.5.5v4.05A.51.51,0,0,1,666,342.16Z"/><path class="cls-127" d="M666,335.59a.5.5,0,0,1-.5-.5v-4a.5.5,0,0,1,.75-.44l3.46,2a.51.51,0,0,1,.18.69.49.49,0,0,1-.68.18L666.53,332v3.14A.51.51,0,0,1,666,335.59Z"/><path class="cls-128" d="M683.58,341.73a.47.47,0,0,1-.25-.07l-8.67-5a.5.5,0,1,1,.5-.86l8.67,5a.5.5,0,0,1,.19.68A.51.51,0,0,1,683.58,341.73Z"/><path class="cls-129" d="M548.71,270.45a.57.57,0,0,1-.28-.08.51.51,0,0,1-.14-.7l1.92-2.89-3-1.73a.5.5,0,0,1-.19-.68.52.52,0,0,1,.69-.19l3.46,2a.51.51,0,0,1,.24.32.52.52,0,0,1-.07.39l-2.22,3.34A.49.49,0,0,1,548.71,270.45Z"/><path class="cls-130" d="M542,280.56a.53.53,0,0,1-.27-.08.49.49,0,0,1-.14-.69l4.13-6.23a.5.5,0,0,1,.69-.14.51.51,0,0,1,.14.7l-4.13,6.22A.52.52,0,0,1,542,280.56Z"/><path class="cls-131" d="M537.2,287.78a.45.45,0,0,1-.25-.07l-3.47-2a.5.5,0,1,1,.5-.86l3.06,1.76,2-2.94a.5.5,0,1,1,.84.56l-2.22,3.33A.49.49,0,0,1,537.2,287.78Z"/><path class="cls-132" d="M529.87,283.55a.47.47,0,0,1-.25-.07l-6.18-3.56a.5.5,0,0,1,.5-.87l6.18,3.57a.5.5,0,0,1-.25.93Zm-10-5.8a.57.57,0,0,1-.25-.06l-6.18-3.57a.49.49,0,0,1-.18-.68.51.51,0,0,1,.68-.19l6.18,3.57a.5.5,0,0,1,.18.68A.48.48,0,0,1,519.83,277.75Zm-10-5.79a.47.47,0,0,1-.25-.07l-6.18-3.57a.5.5,0,0,1,.5-.86L510,271a.5.5,0,0,1-.25.93Zm-10-5.8a.47.47,0,0,1-.25-.07l-6.18-3.56a.5.5,0,0,1,.5-.87l6.18,3.57a.5.5,0,0,1-.25.93Z"/><path class="cls-133" d="M489.71,260.36a.57.57,0,0,1-.25-.06l-3.46-2a.51.51,0,0,1-.24-.32.48.48,0,0,1,.07-.39l2.22-3.33a.48.48,0,0,1,.69-.14.5.5,0,0,1,.14.69L487,257.7l3,1.73a.5.5,0,0,1-.25.93Z"/><path class="cls-134" d="M491.05,251.14a.48.48,0,0,1-.28-.08.5.5,0,0,1-.14-.69l4.14-6.23a.5.5,0,0,1,.69-.14.51.51,0,0,1,.14.7l-4.14,6.22A.49.49,0,0,1,491.05,251.14Z"/><path class="cls-135" d="M497.77,241a.57.57,0,0,1-.28-.08.51.51,0,0,1-.14-.7l2.22-3.33a.49.49,0,0,1,.66-.15l3.47,2a.5.5,0,0,1,.18.68.5.5,0,0,1-.68.18l-3.06-1.76-2,2.94A.49.49,0,0,1,497.77,241Z"/><path class="cls-136" d="M543.6,262.89a.43.43,0,0,1-.25-.07l-6.18-3.57a.5.5,0,1,1,.5-.86l6.18,3.57a.5.5,0,0,1-.25.93Zm-10-5.8a.45.45,0,0,1-.25-.07l-6.18-3.56a.51.51,0,0,1-.18-.69.49.49,0,0,1,.68-.18l6.18,3.57a.5.5,0,0,1-.25.93Zm-10-5.8a.57.57,0,0,1-.25-.06l-6.18-3.57a.49.49,0,0,1-.18-.68.51.51,0,0,1,.68-.19l6.18,3.57a.5.5,0,0,1-.25.93Zm-10-5.79a.47.47,0,0,1-.25-.07l-6.17-3.57a.5.5,0,0,1-.19-.68.51.51,0,0,1,.69-.18l6.17,3.56a.52.52,0,0,1,.19.69A.52.52,0,0,1,513.48,245.5Z"/><path class="cls-137" d="M692.46,346.87h0a.51.51,0,0,1-.5-.5v-4a.5.5,0,0,1,.5-.5h0a.5.5,0,0,1,.5.5v4A.5.5,0,0,1,692.46,346.87Z"/><path class="cls-138" d="M692.46,338h0a.51.51,0,0,1-.5-.5v-7.73a.5.5,0,0,1,.5-.5h0a.5.5,0,0,1,.5.5v7.73A.5.5,0,0,1,692.46,338Zm0-12.56h0a.5.5,0,0,1-.5-.5v-7.73a.5.5,0,0,1,.5-.5h0a.5.5,0,0,1,.5.5V325A.51.51,0,0,1,692.47,325.48Z"/><path class="cls-139" d="M692.47,312.92a.5.5,0,0,1-.5-.5v-4a.5.5,0,0,1,.5-.5.5.5,0,0,1,.5.5v4A.51.51,0,0,1,692.47,312.92Z"/><path class="cls-140" d="M677.65,355.41a.5.5,0,0,1-.5-.5v-4a.5.5,0,0,1,.5-.5.5.5,0,0,1,.5.5v4A.5.5,0,0,1,677.65,355.41Z"/><path class="cls-141" d="M677.65,346.58a.5.5,0,0,1-.5-.5v-7.73a.51.51,0,0,1,.5-.5.5.5,0,0,1,.5.5v7.73A.5.5,0,0,1,677.65,346.58Zm0-12.55a.51.51,0,0,1-.5-.5V325.8a.5.5,0,0,1,.5-.5.5.5,0,0,1,.5.5v7.73A.5.5,0,0,1,677.65,334Z"/><path class="cls-142" d="M677.65,321.47a.5.5,0,0,1-.5-.5v-4a.5.5,0,0,1,.5-.5.5.5,0,0,1,.5.5v4A.5.5,0,0,1,677.65,321.47Z"/><path class="cls-143" d="M750.43,116.26A.5.5,0,0,1,750,116a.5.5,0,0,1,.18-.68l2.72-1.57-2.72-1.56a.51.51,0,0,1-.18-.69.5.5,0,0,1,.68-.18l3.47,2a.5.5,0,0,1,.25.43.52.52,0,0,1-.25.44l-3.47,2A.51.51,0,0,1,750.43,116.26Z"/><path class="cls-144" d="M598.75,203.83a.52.52,0,0,1-.44-.25.51.51,0,0,1,.19-.68l7.18-4.15a.5.5,0,0,1,.5.87L599,203.76A.47.47,0,0,1,598.75,203.83Zm11.67-6.73a.5.5,0,0,1-.44-.25.51.51,0,0,1,.19-.69l7.18-4.14a.5.5,0,1,1,.5.86L610.67,197A.47.47,0,0,1,610.42,197.1Zm11.66-6.74a.5.5,0,0,1-.25-.93l7.18-4.15a.51.51,0,0,1,.69.18.52.52,0,0,1-.19.69l-7.18,4.14A.45.45,0,0,1,622.08,190.36Zm11.67-6.74a.5.5,0,0,1-.25-.93l7.18-4.14a.5.5,0,1,1,.5.86L634,183.56A.54.54,0,0,1,633.75,183.62Zm11.67-6.73a.5.5,0,0,1-.25-.93l7.18-4.15a.49.49,0,0,1,.68.18.51.51,0,0,1-.18.69l-7.18,4.14A.47.47,0,0,1,645.42,176.89Zm11.67-6.74a.5.5,0,0,1-.25-.93l7.18-4.15a.5.5,0,0,1,.5.87l-7.18,4.14A.47.47,0,0,1,657.09,170.15Zm11.67-6.73a.51.51,0,0,1-.44-.25.52.52,0,0,1,.19-.69l7.18-4.14a.5.5,0,0,1,.5.86L669,163.35A.59.59,0,0,1,668.76,163.42Zm11.66-6.74a.5.5,0,0,1-.25-.93l7.19-4.15a.49.49,0,0,1,.68.19.5.5,0,0,1-.18.68l-7.19,4.14A.43.43,0,0,1,680.42,156.68Zm11.67-6.74a.5.5,0,0,1-.25-.93l7.18-4.14a.51.51,0,0,1,.69.18.5.5,0,0,1-.19.68l-7.18,4.15A.54.54,0,0,1,692.09,149.94Zm11.67-6.73a.5.5,0,0,1-.25-.93l7.18-4.15a.51.51,0,0,1,.69.18.52.52,0,0,1-.19.69L704,143.14A.45.45,0,0,1,703.76,143.21Zm11.67-6.74a.5.5,0,0,1-.25-.93l7.18-4.15a.5.5,0,0,1,.5.87l-7.18,4.14A.47.47,0,0,1,715.43,136.47Zm11.67-6.73a.5.5,0,0,1-.43-.25.51.51,0,0,1,.18-.69l7.18-4.14a.5.5,0,1,1,.5.86l-7.18,4.15A.59.59,0,0,1,727.1,129.74ZM738.77,123a.51.51,0,0,1-.44-.25.51.51,0,0,1,.19-.68l7.18-4.15a.5.5,0,0,1,.5.87L739,122.93A.47.47,0,0,1,738.77,123Z"/><path class="cls-145" d="M590.79,208.42a.57.57,0,0,1-.25-.06l-3.46-2a.51.51,0,0,1-.18-.69.49.49,0,0,1,.68-.18l3.21,1.86,3.22-1.86a.49.49,0,0,1,.68.18.51.51,0,0,1-.18.69l-3.47,2A.51.51,0,0,1,590.79,208.42Z"/><path class="cls-146" d="M582.84,203.83a.47.47,0,0,1-.25-.07l-7.18-4.14a.49.49,0,0,1-.18-.68.51.51,0,0,1,.68-.19l7.18,4.15a.5.5,0,0,1,.19.68A.51.51,0,0,1,582.84,203.83Zm-11.66-6.73a.52.52,0,0,1-.25-.07l-7.18-4.15a.5.5,0,0,1-.19-.68.51.51,0,0,1,.69-.18l7.18,4.14a.51.51,0,0,1,.18.69A.5.5,0,0,1,571.18,197.1Zm-11.67-6.74a.45.45,0,0,1-.25-.07l-7.18-4.14a.51.51,0,0,1-.18-.69.49.49,0,0,1,.68-.18l7.18,4.15a.5.5,0,0,1-.25.93Zm-11.67-6.74a.47.47,0,0,1-.25-.07l-7.18-4.14a.5.5,0,0,1-.18-.68.51.51,0,0,1,.68-.19l7.18,4.15a.5.5,0,0,1-.25.93Zm-11.67-6.74a.57.57,0,0,1-.25-.06l-7.18-4.15a.5.5,0,1,1,.5-.86l7.18,4.14a.5.5,0,0,1,.19.68A.51.51,0,0,1,536.17,176.88Zm-11.66-6.73a.43.43,0,0,1-.25-.07l-7.18-4.14a.5.5,0,1,1,.5-.87l7.18,4.15a.5.5,0,0,1-.25.93Zm-11.67-6.74a.45.45,0,0,1-.25-.07l-7.18-4.14a.5.5,0,0,1-.18-.68.5.5,0,0,1,.68-.19l7.18,4.15a.5.5,0,0,1-.25.93Zm-11.67-6.74a.57.57,0,0,1-.25-.06l-7.18-4.15a.5.5,0,0,1,.5-.86l7.18,4.14a.5.5,0,0,1-.25.93Zm-11.67-6.73a.47.47,0,0,1-.25-.07l-7.18-4.15a.5.5,0,0,1,.5-.86l7.18,4.14a.52.52,0,0,1,.19.69A.52.52,0,0,1,489.5,149.94Zm-11.66-6.74a.45.45,0,0,1-.25-.07L470.41,139a.5.5,0,0,1-.19-.68.52.52,0,0,1,.69-.19l7.18,4.15a.5.5,0,0,1-.25.93Zm-11.67-6.74a.54.54,0,0,1-.25-.06l-7.18-4.15a.5.5,0,0,1,.5-.86l7.18,4.14a.5.5,0,0,1,.18.68A.48.48,0,0,1,466.17,136.46Zm-11.67-6.73a.47.47,0,0,1-.25-.07l-7.18-4.15a.5.5,0,1,1,.5-.86l7.18,4.14a.51.51,0,0,1,.18.69A.5.5,0,0,1,454.5,129.73ZM442.83,123a.47.47,0,0,1-.25-.07l-7.18-4.14a.5.5,0,0,1,.5-.87l7.18,4.15a.51.51,0,0,1,.19.68A.52.52,0,0,1,442.83,123Z"/><path class="cls-147" d="M431.17,116.25a.51.51,0,0,1-.25-.06l-3.47-2a.5.5,0,0,1,0-.87l3.47-2a.5.5,0,0,1,.68.18.51.51,0,0,1-.18.69l-2.72,1.56,2.72,1.57a.5.5,0,0,1,.18.68A.5.5,0,0,1,431.17,116.25Z"/><path class="cls-148" d="M435.65,109.66a.5.5,0,0,1-.25-.93l7.18-4.15a.5.5,0,0,1,.5.87l-7.18,4.14A.45.45,0,0,1,435.65,109.66Zm11.67-6.74a.51.51,0,0,1-.44-.25.51.51,0,0,1,.19-.68l7.17-4.15a.51.51,0,0,1,.69.19.5.5,0,0,1-.19.68l-7.17,4.15A.57.57,0,0,1,447.32,102.92ZM459,96.18a.5.5,0,0,1-.25-.93l7.18-4.14a.5.5,0,0,1,.5.86l-7.18,4.15A.54.54,0,0,1,459,96.18Zm11.67-6.73a.5.5,0,0,1-.25-.94l7.17-4.14a.5.5,0,1,1,.5.86l-7.17,4.15A.59.59,0,0,1,470.65,89.45Zm11.66-6.74a.5.5,0,0,1-.25-.93l7.18-4.15a.49.49,0,0,1,.68.18.51.51,0,0,1-.18.69l-7.18,4.14A.45.45,0,0,1,482.31,82.71ZM494,76a.5.5,0,0,1-.43-.25.5.5,0,0,1,.18-.68l7.18-4.15a.51.51,0,0,1,.69.18.52.52,0,0,1-.19.69l-7.18,4.14A.43.43,0,0,1,494,76Zm11.67-6.74a.5.5,0,0,1-.25-.93l7.18-4.15a.5.5,0,0,1,.68.19.49.49,0,0,1-.18.68l-7.18,4.15A.57.57,0,0,1,505.64,69.23Zm11.66-6.74a.5.5,0,0,1-.25-.93l7.18-4.14a.5.5,0,1,1,.5.86l-7.18,4.15A.54.54,0,0,1,517.3,62.49ZM529,55.76a.5.5,0,0,1-.43-.25.51.51,0,0,1,.18-.69l7.18-4.14a.5.5,0,0,1,.5.86l-7.18,4.15A.59.59,0,0,1,529,55.76ZM540.63,49a.5.5,0,0,1-.43-.25.51.51,0,0,1,.18-.69l7.18-4.14a.5.5,0,0,1,.5.86L540.88,49A.45.45,0,0,1,540.63,49Zm11.67-6.74a.5.5,0,0,1-.25-.93l7.18-4.15a.5.5,0,0,1,.68.18.51.51,0,0,1-.18.69l-7.18,4.14A.47.47,0,0,1,552.3,42.28ZM564,35.54a.5.5,0,0,1-.25-.93l7.18-4.15a.5.5,0,0,1,.5.87l-7.18,4.14A.45.45,0,0,1,564,35.54Zm11.67-6.74a.5.5,0,0,1-.25-.93l7.18-4.15a.5.5,0,0,1,.5.87l-7.18,4.15A.57.57,0,0,1,575.63,28.8Z"/><path class="cls-149" d="M587.29,22.07a.5.5,0,0,1-.43-.25.51.51,0,0,1,.18-.69l3.46-2a.5.5,0,0,1,.5,0l3.47,2a.5.5,0,0,1-.5.87l-3.22-1.86L587.54,22A.55.55,0,0,1,587.29,22.07Z"/><path class="cls-150" d="M746.26,109.85a.45.45,0,0,1-.25-.07l-6.68-3.85a.5.5,0,1,1,.5-.87l6.68,3.86a.5.5,0,0,1-.25.93Zm-10.86-6.27a.45.45,0,0,1-.25-.07l-6.68-3.85a.5.5,0,1,1,.5-.87l6.68,3.86a.5.5,0,0,1-.25.93Zm-10.86-6.27a.45.45,0,0,1-.25-.07l-6.68-3.86a.49.49,0,0,1-.19-.68.51.51,0,0,1,.69-.18l6.68,3.86a.5.5,0,0,1-.25.93ZM713.68,91a.45.45,0,0,1-.25-.07l-6.68-3.86a.49.49,0,0,1-.19-.68.51.51,0,0,1,.69-.18l6.68,3.86a.5.5,0,0,1-.25.93Zm-10.86-6.27a.45.45,0,0,1-.25-.07l-6.68-3.86a.49.49,0,0,1-.19-.68.51.51,0,0,1,.69-.18l6.68,3.86a.5.5,0,0,1-.25.93ZM692,78.5a.45.45,0,0,1-.25-.07L685,74.57a.5.5,0,1,1,.5-.86l6.68,3.86a.5.5,0,0,1-.25.93ZM681.1,72.23a.45.45,0,0,1-.25-.07l-6.68-3.86a.49.49,0,0,1-.19-.68.51.51,0,0,1,.69-.18l6.68,3.86a.5.5,0,0,1-.25.93ZM670.24,66a.45.45,0,0,1-.25-.07L663.31,62a.5.5,0,0,1-.19-.68.51.51,0,0,1,.69-.18L670.49,65a.5.5,0,0,1-.25.93Zm-10.86-6.27a.45.45,0,0,1-.25-.07l-6.68-3.86a.5.5,0,1,1,.5-.86l6.68,3.85a.51.51,0,0,1,.18.69A.5.5,0,0,1,659.38,59.69Zm-10.86-6.27a.45.45,0,0,1-.25-.07l-6.68-3.86a.5.5,0,0,1-.19-.68.51.51,0,0,1,.69-.18l6.68,3.85a.51.51,0,0,1,.18.69A.5.5,0,0,1,648.52,53.42Zm-10.86-6.27a.55.55,0,0,1-.25-.07l-6.68-3.86a.5.5,0,1,1,.5-.86l6.68,3.85a.51.51,0,0,1,.18.69A.5.5,0,0,1,637.66,47.15ZM626.8,40.88a.55.55,0,0,1-.25-.07L619.87,37a.5.5,0,0,1-.19-.68.52.52,0,0,1,.69-.19l6.68,3.86a.51.51,0,0,1,.18.69A.5.5,0,0,1,626.8,40.88Zm-10.86-6.27a.55.55,0,0,1-.25-.07L609,30.68a.51.51,0,0,1-.19-.68.52.52,0,0,1,.69-.19l6.68,3.86a.51.51,0,0,1,.18.69A.5.5,0,0,1,615.94,34.61Zm-10.86-6.28a.54.54,0,0,1-.25-.06l-6.68-3.86a.51.51,0,0,1-.19-.68.52.52,0,0,1,.69-.19l6.68,3.86a.5.5,0,0,1,.18.68A.48.48,0,0,1,605.08,28.33Z"/><path class="cls-151" d="M427.7,118.25a.5.5,0,0,1-.5-.5v-4a.5.5,0,0,1,.5-.5.51.51,0,0,1,.5.5v4A.5.5,0,0,1,427.7,118.25Z"/><path class="cls-152" d="M427.7,124.84a.5.5,0,0,1-.5-.5v-4a.5.5,0,0,1,.5-.5.5.5,0,0,1,.5.5v4A.5.5,0,0,1,427.7,124.84Z"/><path class="cls-153" d="M431.16,133.37a.57.57,0,0,1-.25-.06l-3.46-2a.5.5,0,0,1-.25-.44v-4a.5.5,0,0,1,.5-.5.51.51,0,0,1,.5.5v3.71l3.21,1.86a.5.5,0,0,1-.25.93Z"/><path class="cls-154" d="M443.28,140.37a.47.47,0,0,1-.25-.07l-7.46-4.3a.5.5,0,0,1,.5-.87l7.46,4.31a.5.5,0,0,1-.25.93Z"/><path class="cls-155" d="M451.41,145.06a.54.54,0,0,1-.25-.06l-3.47-2a.51.51,0,0,1-.18-.69.49.49,0,0,1,.68-.18l3.47,2a.5.5,0,0,1-.25.93Z"/><path class="cls-156" d="M516.76,182.8a.59.59,0,0,1-.25-.07l-3.46-2a.51.51,0,0,1-.19-.68.52.52,0,0,1,.69-.19l3.46,2a.51.51,0,0,1,.18.69A.5.5,0,0,1,516.76,182.8Z"/><path class="cls-157" d="M583.08,221.09a.47.47,0,0,1-.25-.07L576,217.1a.51.51,0,0,1-.18-.69.49.49,0,0,1,.68-.18l6.8,3.93a.5.5,0,0,1-.25.93ZM572,214.71a.45.45,0,0,1-.25-.07l-6.8-3.93a.5.5,0,1,1,.5-.86l6.8,3.93a.5.5,0,0,1-.25.93Zm-11-6.38a.52.52,0,0,1-.25-.07l-6.81-3.93a.5.5,0,1,1,.5-.86l6.81,3.92a.51.51,0,0,1,.18.69A.5.5,0,0,1,561,208.33Zm-11.06-6.39a.57.57,0,0,1-.25-.06l-6.8-3.93a.5.5,0,0,1-.18-.68.5.5,0,0,1,.68-.19l6.8,3.93a.5.5,0,0,1-.25.93Zm-11-6.38a.45.45,0,0,1-.25-.07l-6.8-3.92a.5.5,0,1,1,.5-.87l6.8,3.93a.5.5,0,0,1-.25.93Zm-11.06-6.38a.47.47,0,0,1-.25-.07l-6.8-3.93a.5.5,0,1,1,.5-.86l6.8,3.93a.49.49,0,0,1,.19.68A.5.5,0,0,1,527.81,189.18Z"/><path class="cls-158" d="M590.77,225.54a.43.43,0,0,1-.22-.06l-3.47-2a.49.49,0,0,1-.18-.68.51.51,0,0,1,.68-.19l2.72,1.57v-3.13a.5.5,0,0,1,.5-.5.5.5,0,0,1,.5.5v4a.55.55,0,0,1-.25.45A.6.6,0,0,1,590.77,225.54Z"/><path class="cls-159" d="M590.8,219a.5.5,0,0,1-.5-.5v-4a.5.5,0,0,1,.5-.5.5.5,0,0,1,.5.5v4A.5.5,0,0,1,590.8,219Z"/><path class="cls-160" d="M590.8,212.43a.5.5,0,0,1-.5-.5v-4a.5.5,0,0,1,.5-.5.5.5,0,0,1,.5.5v4A.51.51,0,0,1,590.8,212.43Z"/><path class="cls-161" d="M753.89,118.26h0a.5.5,0,0,1-.5-.5v-4a.5.5,0,0,1,.5-.5h0a.5.5,0,0,1,.5.5v4A.5.5,0,0,1,753.89,118.26Z"/><path class="cls-162" d="M753.87,124.83h0a.51.51,0,0,1-.5-.5v-4a.5.5,0,0,1,.5-.5h0a.5.5,0,0,1,.5.5v4A.5.5,0,0,1,753.87,124.83Z"/><path class="cls-163" d="M750.39,133.35a.5.5,0,0,1-.43-.25.5.5,0,0,1,.18-.68l3.22-1.86v-3.71a.5.5,0,0,1,.5-.5h0a.5.5,0,0,1,.5.5v4a.5.5,0,0,1-.25.43l-3.47,2A.43.43,0,0,1,750.39,133.35Z"/><path class="cls-164" d="M598.75,221a.5.5,0,0,1-.44-.25.51.51,0,0,1,.19-.69l7.17-4.14a.51.51,0,0,1,.69.18.49.49,0,0,1-.19.68L599,220.88A.47.47,0,0,1,598.75,221Zm11.66-6.74a.5.5,0,0,1-.25-.93l7.18-4.15a.49.49,0,0,1,.68.18.51.51,0,0,1-.18.69l-7.18,4.14A.45.45,0,0,1,610.41,214.21Zm11.67-6.74a.51.51,0,0,1-.44-.25.5.5,0,0,1,.19-.68l7.17-4.15a.51.51,0,0,1,.69.19.5.5,0,0,1-.19.68l-7.17,4.15A.57.57,0,0,1,622.08,207.47Zm11.66-6.74a.5.5,0,0,1-.25-.93l7.18-4.14a.5.5,0,1,1,.5.86L634,200.67A.54.54,0,0,1,633.74,200.73ZM645.41,194a.52.52,0,0,1-.44-.25.52.52,0,0,1,.19-.69l7.17-4.14a.51.51,0,0,1,.69.18.5.5,0,0,1-.19.68l-7.17,4.15A.59.59,0,0,1,645.41,194Zm11.66-6.74a.5.5,0,0,1-.43-.25.51.51,0,0,1,.18-.69l7.18-4.14a.5.5,0,0,1,.5.86l-7.18,4.15A.45.45,0,0,1,657.07,187.26Zm11.67-6.74a.52.52,0,0,1-.44-.25.5.5,0,0,1,.19-.68l7.18-4.15a.5.5,0,1,1,.5.86L669,180.45A.47.47,0,0,1,668.74,180.52Zm11.66-6.74a.5.5,0,0,1-.25-.93l7.18-4.15a.49.49,0,0,1,.68.18.51.51,0,0,1-.18.69l-7.18,4.14A.45.45,0,0,1,680.4,173.78ZM692.07,167a.5.5,0,0,1-.25-.93L699,162a.5.5,0,0,1,.5.87L692.32,167A.47.47,0,0,1,692.07,167Zm11.66-6.74a.5.5,0,0,1-.25-.93l7.18-4.15a.5.5,0,0,1,.5.87L704,160.24A.54.54,0,0,1,703.73,160.3Zm11.67-6.73a.5.5,0,0,1-.43-.25.51.51,0,0,1,.18-.69l7.18-4.14a.5.5,0,1,1,.5.86l-7.18,4.15A.59.59,0,0,1,715.4,153.57Zm11.66-6.74a.5.5,0,0,1-.43-.25.51.51,0,0,1,.18-.69l7.18-4.14a.5.5,0,1,1,.5.86l-7.18,4.15A.43.43,0,0,1,727.06,146.83Zm11.67-6.74a.5.5,0,0,1-.25-.93l7.18-4.15a.49.49,0,0,1,.68.18.51.51,0,0,1-.18.69L739,140A.47.47,0,0,1,738.73,140.09Z"/><path class="cls-165" d="M590.81,225.52a.48.48,0,0,1-.24-.06.52.52,0,0,1-.28-.42v-4a.5.5,0,0,1,.5-.5.5.5,0,0,1,.5.5v3.13l2.72-1.56a.5.5,0,0,1,.5.86l-3.42,2A.54.54,0,0,1,590.81,225.52Z"/><path class="cls-166" d="M590.79,219a.51.51,0,0,1-.5-.5v-4.06a.51.51,0,0,1,.5-.5.5.5,0,0,1,.5.5v4.06A.5.5,0,0,1,590.79,219Z"/><path class="cls-167" d="M590.79,212.42a.5.5,0,0,1-.5-.5v-4a.51.51,0,0,1,.28-.45l3.44-2a.5.5,0,0,1,.5.86l-3.22,1.86v3.71A.5.5,0,0,1,590.79,212.42Z"/><path class="cls-168" d="M598.85,203.77a.5.5,0,0,1-.25-.93l7.34-4.24a.5.5,0,1,1,.5.86l-7.34,4.25A.57.57,0,0,1,598.85,203.77Zm11.93-6.89a.5.5,0,0,1-.25-.93l7.35-4.24a.49.49,0,0,1,.68.18.51.51,0,0,1-.18.69L611,196.82A.54.54,0,0,1,610.78,196.88ZM622.72,190a.51.51,0,0,1-.44-.25.51.51,0,0,1,.19-.68l7.34-4.24a.5.5,0,1,1,.5.86L623,189.92A.47.47,0,0,1,622.72,190Zm11.93-6.89a.5.5,0,0,1-.25-.93l7.35-4.24a.5.5,0,0,1,.5.86L634.9,183A.54.54,0,0,1,634.65,183.1Z"/><path class="cls-169" d="M646.58,176.21a.5.5,0,0,1-.43-.25.5.5,0,0,1,.18-.68l3.47-2a.49.49,0,0,1,.68.18.51.51,0,0,1-.18.69l-3.47,2A.43.43,0,0,1,646.58,176.21Z"/><path class="cls-170" d="M608.54,104.14a.47.47,0,0,1-.25-.07.49.49,0,0,1-.18-.68l1.75-3-3-1.75a.49.49,0,0,1-.18-.68.5.5,0,0,1,.68-.19l3.46,2a.53.53,0,0,1,.24.31.56.56,0,0,1,0,.38l-2,3.46A.5.5,0,0,1,608.54,104.14Z"/><path class="cls-171" d="M604,111.93a.45.45,0,0,1-.25-.07.5.5,0,0,1-.19-.68l2.73-4.71a.54.54,0,0,1,.7-.23.46.46,0,0,1,.21.64l-2.77,4.8A.5.5,0,0,1,604,111.93Z"/><path class="cls-172" d="M597.82,121a.52.52,0,0,1-.44-.25.51.51,0,0,1,.19-.68l2.71-1.57-.22-.12a.53.53,0,0,1-.24-.31.57.57,0,0,1,0-.38l2-3.46a.51.51,0,0,1,.69-.18.5.5,0,0,1,.18.68l-1.75,3,.54.31a.5.5,0,0,1,.25.43.48.48,0,0,1-.25.43l-3.46,2A.47.47,0,0,1,597.82,121Z"/><path class="cls-173" d="M592.09,124.27a.52.52,0,0,1-.27-.07l-3.45-2a.5.5,0,1,1,.5-.86l3.2,1.84,3.23-1.86a.5.5,0,1,1,.5.86l-3.4,2A.49.49,0,0,1,592.09,124.27Z"/><path class="cls-174" d="M585,120.2a.47.47,0,0,1-.25-.07L579,116.81a.5.5,0,1,1,.5-.87l5.75,3.33a.5.5,0,0,1,.19.68A.51.51,0,0,1,585,120.2Zm-9.35-5.41a.54.54,0,0,1-.25-.06l-5.76-3.33a.5.5,0,0,1,.5-.86l5.76,3.32a.5.5,0,0,1,.18.68A.48.48,0,0,1,575.67,114.79Z"/><path class="cls-175" d="M566.31,109.39a.47.47,0,0,1-.25-.07l-3.46-2a.49.49,0,0,1,0-.86l3.46-2a.5.5,0,1,1,.5.86l-2.71,1.57,2.71,1.57a.5.5,0,0,1-.25.93Z"/><path class="cls-176" d="M571,102.71a.51.51,0,0,1-.44-.25.51.51,0,0,1,.19-.68l7.41-4.28a.5.5,0,0,1,.5.86l-7.41,4.28A.47.47,0,0,1,571,102.71ZM602.45,96a.45.45,0,0,1-.25-.07l-7.41-4.28a.49.49,0,0,1-.19-.68.51.51,0,0,1,.69-.18l7.41,4.28a.5.5,0,0,1-.25.93ZM583,95.75a.5.5,0,0,1-.25-.93l7.41-4.28a.5.5,0,1,1,.5.86l-7.41,4.29A.54.54,0,0,1,583,95.75Z"/><path class="cls-177" d="M621.22,256.64a.52.52,0,0,1-.25-.07l-3.47-2a.51.51,0,0,1-.18-.69.5.5,0,0,1,.68-.18l2.72,1.57v-3.13a.5.5,0,0,1,.5-.5.5.5,0,0,1,.5.5v4a.52.52,0,0,1-.25.43A.59.59,0,0,1,621.22,256.64Z"/><path class="cls-178" d="M608.4,257.86a.52.52,0,0,1-.25-.07l-2-1.14a.5.5,0,0,1-.25-.43v-4a.5.5,0,0,1,.5-.5.5.5,0,0,1,.5.5v3.71l1,.56v-1.08a.5.5,0,0,1,.25-.44l5.78-3.34a.5.5,0,0,1,.5,0l3.46,2a.5.5,0,1,1-.5.86l-3.21-1.86-5.28,3.05v1.67a.5.5,0,0,1-.25.43A.59.59,0,0,1,608.4,257.86Z"/><path class="cls-179" d="M606.43,247.44a.5.5,0,0,1-.5-.5v-8.43a.5.5,0,0,1,.5-.5.5.5,0,0,1,.5.5v8.43A.5.5,0,0,1,606.43,247.44Zm0-13.7a.5.5,0,0,1-.5-.5V224.8a.5.5,0,0,1,.5-.5.51.51,0,0,1,.5.5v8.44A.51.51,0,0,1,606.43,233.74ZM608,220.31l-.17,0a.5.5,0,0,1-.3-.64l2.14-5.88s0,0,0,0l.72-2a.5.5,0,1,1,.94.34l-.71,1.95s0,0,0,.06L608.48,220A.48.48,0,0,1,608,220.31Z"/><path class="cls-180" d="M612.68,207.43l-.17,0a.5.5,0,0,1-.3-.64l1.37-3.76a.47.47,0,0,1,.42-.33.5.5,0,0,1,.48.25l2,3.46a.52.52,0,0,1-.19.69.51.51,0,0,1-.68-.19l-1.46-2.53-1,2.75A.5.5,0,0,1,612.68,207.43Z"/><path class="cls-181" d="M621.22,247.31a.5.5,0,0,1-.5-.5v-8.53a.5.5,0,0,1,.5-.5.51.51,0,0,1,.5.5v8.53A.51.51,0,0,1,621.22,247.31Zm0-13.85a.5.5,0,0,1-.5-.5v-8.53a.5.5,0,0,1,.5-.5.51.51,0,0,1,.5.5V233A.51.51,0,0,1,621.22,233.46Zm0-13.86a.5.5,0,0,1-.5-.5v-3.34l-2.45-4.26a.5.5,0,1,1,.86-.5l2.52,4.38a.52.52,0,0,1,.07.25v3.47A.5.5,0,0,1,621.22,219.6Z"/><path class="cls-182" d="M486.24,332a.51.51,0,0,1-.5-.5v-4a.5.5,0,0,1,.5-.5.5.5,0,0,1,.5.5v4A.5.5,0,0,1,486.24,332Z"/><path class="cls-183" d="M486.24,323.33a.51.51,0,0,1-.5-.5v-7.51a.51.51,0,0,1,.5-.5.5.5,0,0,1,.5.5v7.51A.5.5,0,0,1,486.24,323.33Zm0-12.2a.5.5,0,0,1-.5-.5v-7.5a.5.5,0,0,1,.5-.5.5.5,0,0,1,.5.5v7.5A.5.5,0,0,1,486.24,311.13Zm0-12.19a.5.5,0,0,1-.5-.5v-7.5a.5.5,0,0,1,.5-.5.5.5,0,0,1,.5.5v7.5A.5.5,0,0,1,486.24,298.94Zm0-12.19a.5.5,0,0,1-.5-.5v-7.5a.5.5,0,0,1,.5-.5.5.5,0,0,1,.5.5v7.5A.5.5,0,0,1,486.24,286.75Zm0-12.19a.51.51,0,0,1-.5-.5v-7.51a.51.51,0,0,1,.5-.5.5.5,0,0,1,.5.5v7.51A.5.5,0,0,1,486.24,274.56Z"/><path class="cls-184" d="M486.24,262.36a.5.5,0,0,1-.5-.5v-4a.51.51,0,0,1,.5-.5.5.5,0,0,1,.5.5v4A.5.5,0,0,1,486.24,262.36Z"/><path class="cls-185" d="M864,241.39a.5.5,0,0,1-.5-.5v-4a.5.5,0,0,1,.5-.5.5.5,0,0,1,.5.5v4A.51.51,0,0,1,864,241.39Z"/><path class="cls-186" d="M860.53,249.79a.51.51,0,0,1-.44-.25.5.5,0,0,1,.19-.68l3.21-1.86v-3.59a.5.5,0,0,1,.5-.5.5.5,0,0,1,.5.5v4a.5.5,0,0,1-.27.44.45.45,0,0,1-.3.05l-3.14,1.82A.47.47,0,0,1,860.53,249.79Z"/><path class="cls-187" d="M851.47,255a.51.51,0,0,1-.44-.25.5.5,0,0,1,.19-.68l5.57-3.22a.5.5,0,1,1,.5.86L851.72,255A.57.57,0,0,1,851.47,255Z"/><path class="cls-188" d="M844.52,259.19a.56.56,0,0,1-.27-.08l-.12-.08-3.33-1.91a.5.5,0,0,1,.5-.87l3.09,1.78,3.34-1.93a.5.5,0,0,1,.5.87L845,258.84a.46.46,0,0,1-.23.28A.42.42,0,0,1,844.52,259.19Z"/><path class="cls-189" d="M839.07,256a.57.57,0,0,1-.25-.06l-3.46-2a.5.5,0,1,1,.5-.87l3.46,2a.51.51,0,0,1,.19.68A.51.51,0,0,1,839.07,256Z"/><path class="cls-190" d="M892.22,283A.45.45,0,0,1,892,283l-3.46-2a.51.51,0,0,1-.18-.69.49.49,0,0,1,.68-.18l3.46,2a.5.5,0,0,1-.25.93Z"/><path class="cls-191" d="M1079,339.69a.45.45,0,0,1-.25-.07l-6.78-3.94a.5.5,0,0,1,.5-.86l6.78,3.94a.5.5,0,0,1-.25.93Zm-11-6.4a.59.59,0,0,1-.25-.07l-6.77-4a.5.5,0,1,1,.5-.86l6.78,3.94a.51.51,0,0,1,.18.69A.51.51,0,0,1,1068,333.29Zm-11-6.41a.47.47,0,0,1-.25-.07l-6.78-3.94a.52.52,0,0,1-.18-.69.51.51,0,0,1,.69-.18l6.78,3.94a.52.52,0,0,1,.18.69A.51.51,0,0,1,1057,326.88Zm-11-6.41a.47.47,0,0,1-.25-.07l-6.78-3.94a.51.51,0,0,1-.18-.69.52.52,0,0,1,.69-.18l6.77,4a.5.5,0,0,1-.25.93Zm-11-6.41a.45.45,0,0,1-.25-.07l-6.78-3.94a.5.5,0,0,1,.5-.86l6.78,3.94a.5.5,0,0,1-.25.93Zm-94.26-2.89a.45.45,0,0,1-.25-.07l-.17-.1a.5.5,0,0,1-.19-.68.51.51,0,0,1,.69-.18l0,0,7.46-.55a.52.52,0,0,1,.54.46.5.5,0,0,1-.47.54l-7.61.56Zm12.5-.92a.5.5,0,0,1,0-1l7.82-.57a.51.51,0,0,1,.53.46.5.5,0,0,1-.46.54l-7.82.57Zm12.71-.93a.5.5,0,0,1,0-1l7.82-.57a.51.51,0,0,1,.53.46.5.5,0,0,1-.46.54l-7.82.57Zm-29.62-.71a.45.45,0,0,1-.25-.07l-6.79-3.93a.51.51,0,0,1-.18-.69.51.51,0,0,1,.69-.18l6.78,3.94a.5.5,0,0,1-.25.93Zm42.33-.22a.5.5,0,0,1,0-1l7.82-.57a.5.5,0,1,1,.07,1l-7.82.58Zm45.33-.74a.54.54,0,0,1-.25-.06l-3.82-2.23-3.11.23a.5.5,0,0,1-.07-1l3.26-.23a.49.49,0,0,1,.29.06l4,2.3a.51.51,0,0,1,.18.69A.49.49,0,0,1,1024,307.65Zm-32.63-.19a.5.5,0,0,1-.5-.47.51.51,0,0,1,.47-.53l7.82-.58a.52.52,0,0,1,.53.47.5.5,0,0,1-.46.53l-7.82.58Zm12.71-.93a.5.5,0,0,1,0-1l7.82-.58a.52.52,0,0,1,.54.47.5.5,0,0,1-.46.53l-7.82.57Zm-78.76-4.32a.54.54,0,0,1-.25-.06l-6.78-3.94a.5.5,0,0,1-.19-.68.51.51,0,0,1,.69-.18l6.78,3.93a.51.51,0,0,1,.18.69A.49.49,0,0,1,925.28,302.21Zm-11-6.39a.45.45,0,0,1-.25-.07l-6.78-3.93a.5.5,0,1,1,.5-.87l6.78,3.94a.5.5,0,0,1-.25.93Zm-11-6.39a.55.55,0,0,1-.25-.07l-6.78-3.94a.5.5,0,1,1,.5-.86l6.78,3.93a.51.51,0,0,1,.18.69A.5.5,0,0,1,903.24,289.43Z"/><path class="cls-192" d="M1086.71,344.17a.45.45,0,0,1-.25-.07l-3.46-2a.5.5,0,0,1-.18-.68.51.51,0,0,1,.68-.19l3.46,2a.5.5,0,0,1-.25.93Z"/><path class="cls-193" d="M844.52,259a.5.5,0,0,1-.5-.5v-4a.5.5,0,0,1,.5-.5.5.5,0,0,1,.5.5v4A.51.51,0,0,1,844.52,259Z"/><path class="cls-194" d="M844.52,251a.5.5,0,0,1-.5-.5V244.1a.5.5,0,0,1,.5-.5.5.5,0,0,1,.5.5v6.42A.5.5,0,0,1,844.52,251Zm0-10.43a.5.5,0,0,1-.5-.5v-6.43a.5.5,0,0,1,.5-.5.51.51,0,0,1,.5.5v6.43A.51.51,0,0,1,844.52,240.59Z"/><path class="cls-195" d="M844.52,230.15a.5.5,0,0,1-.5-.5v-4a.5.5,0,0,1,.5-.5.5.5,0,0,1,.5.5v4A.5.5,0,0,1,844.52,230.15Z"/><path class="cls-196" d="M729.44,248.22a.47.47,0,0,1-.25-.07l-3.46-2a.49.49,0,0,1-.18-.68.5.5,0,0,1,.68-.19l3.46,2a.52.52,0,0,1,.19.69A.52.52,0,0,1,729.44,248.22Z"/><path class="cls-197" d="M737.3,252.76a.59.59,0,0,1-.25-.07l-3.46-2a.5.5,0,0,1,.5-.87l3.46,2a.51.51,0,0,1,.19.69A.5.5,0,0,1,737.3,252.76Z"/><path class="cls-196" d="M729.44,248.22a.47.47,0,0,1-.25-.07l-3.46-2a.49.49,0,0,1-.18-.68.5.5,0,0,1,.68-.19l3.46,2a.52.52,0,0,1,.19.69A.52.52,0,0,1,729.44,248.22Z"/><path class="cls-197" d="M737.3,252.76a.59.59,0,0,1-.25-.07l-3.46-2a.5.5,0,0,1,.5-.87l3.46,2a.51.51,0,0,1,.19.69A.5.5,0,0,1,737.3,252.76Z"/><path class="cls-198" d="M737.31,269.85a.55.55,0,0,1-.25-.07l-3.47-2a.5.5,0,0,1,.5-.87l3.47,2a.51.51,0,0,1,.18.69A.5.5,0,0,1,737.31,269.85Z"/><path class="cls-199" d="M728.51,264.77a.45.45,0,0,1-.25-.07l-8.54-4.92a.5.5,0,0,1-.18-.68.5.5,0,0,1,.68-.19l8.54,4.93a.5.5,0,0,1-.25.93Z"/><path class="cls-200" d="M714.64,256.77a.47.47,0,0,1-.25-.07l-3.46-2a.5.5,0,0,1-.19-.68.5.5,0,0,1,.69-.18l3.46,2a.51.51,0,0,1,.18.69A.5.5,0,0,1,714.64,256.77Z"/><path class="cls-201" d="M722.27,175.38a.55.55,0,0,1-.25-.07l-3.47-2a.5.5,0,0,1,.5-.87l3.47,2a.5.5,0,0,1,.18.68A.49.49,0,0,1,722.27,175.38Z"/><path class="cls-202" d="M736.13,183.38a.47.47,0,0,1-.25-.07l-8.53-4.92a.51.51,0,0,1-.18-.69.49.49,0,0,1,.68-.18l8.53,4.93a.5.5,0,0,1-.25.93Z"/><path class="cls-203" d="M744.93,188.46a.45.45,0,0,1-.25-.07l-3.47-2a.5.5,0,0,1,.5-.86l3.47,2a.5.5,0,0,1-.25.93Z"/><path class="cls-201" d="M722.27,175.38a.55.55,0,0,1-.25-.07l-3.47-2a.5.5,0,0,1,.5-.87l3.47,2a.5.5,0,0,1,.18.68A.49.49,0,0,1,722.27,175.38Z"/><path class="cls-202" d="M736.13,183.38a.47.47,0,0,1-.25-.07l-8.53-4.92a.51.51,0,0,1-.18-.69.49.49,0,0,1,.68-.18l8.53,4.93a.5.5,0,0,1-.25.93Z"/><path class="cls-203" d="M744.93,188.46a.45.45,0,0,1-.25-.07l-3.47-2a.5.5,0,0,1,.5-.86l3.47,2a.5.5,0,0,1-.25.93Z"/><path class="cls-204" d="M737.3,209.47a.47.47,0,0,1-.25-.07l-3.46-2a.5.5,0,0,1,.5-.87l3.46,2a.51.51,0,0,1,.19.69A.5.5,0,0,1,737.3,209.47Z"/><path class="cls-205" d="M728.51,204.38a.54.54,0,0,1-.25-.06l-8.54-4.93a.5.5,0,0,1,.5-.87l8.54,4.93a.5.5,0,0,1-.25.93Z"/><path class="cls-206" d="M714.64,196.37a.54.54,0,0,1-.25-.06l-3.46-2a.5.5,0,1,1,.5-.87l3.46,2a.5.5,0,0,1-.25.93Z"/></g></g></g></g></svg>