<?xml version="1.0" encoding="UTF-8"?>
<svg width="131px" height="48px" viewBox="0 0 131 48" version="1.1" xmlns="http://www.w3.org/2000/svg" xmlns:xlink="http://www.w3.org/1999/xlink">
    <!-- Generator: sketchtool 49 (51002) - http://www.bohemiancoding.com/sketch -->
    <title>0AA3BE46-825B-4922-9A7F-68A21DEB3DC7@3x</title>
    <desc>Created with sketchtool.</desc>
    <defs>
        <rect id="path-1" x="0" y="0" width="131" height="48"></rect>
    </defs>
    <g id="Main" stroke="none" stroke-width="1" fill="none" fill-rule="evenodd" opacity="0.659999967">
        <g id="Landing" transform="translate(-634.000000, -2651.000000)">
            <g id="Open-source" transform="translate(206.000000, 2503.000000)">
                <g id="Amazon-Logo" transform="translate(428.000000, 148.000000)">
                    <mask id="mask-2" fill="white">
                        <use xlink:href="#path-1"></use>
                    </mask>
                    <g id="SVGID_1_"></g>
                    <path d="M119.121471,17.7488372 C117.216424,17.7488372 116.20787,18.6418605 115.423439,20.5395349 L115.423439,18.4186047 C115.423439,18.1953488 115.199316,18.0837209 114.975192,18.0837209 L112.509837,18.0837209 C112.285714,18.0837209 112.061591,18.3069767 111.94953,18.5302326 L111.94953,32.372093 C111.94953,32.5953488 112.173653,32.8186047 112.397776,32.9302326 L115.087254,32.9302326 C115.423439,32.9302326 115.647562,32.7069767 115.647562,32.372093 L115.647562,24.8930233 C115.647562,24 115.759624,23.1069767 116.095808,22.2139535 C116.431993,21.544186 116.992301,21.0976744 117.664671,21.0976744 C119.569718,21.0976744 119.345595,23.3302326 119.345595,24.7813953 L119.345595,32.372093 C119.345595,32.5953488 119.569718,32.8186047 119.793841,32.8186047 L122.483319,32.8186047 C122.707442,32.8186047 122.931565,32.5953488 123.043627,32.372093 L123.043627,23.6651163 C123.043627,22.3255814 123.043627,20.427907 122.371257,19.3116279 C121.474765,18.1953488 120.354149,17.7488372 119.121471,17.7488372 Z M103.769033,33.1534884 C107.579127,33.1534884 109.932421,29.8046512 109.932421,25.5627907 C109.932421,21.2093023 107.803251,17.7488372 103.769033,17.7488372 C99.8468777,17.7488372 97.7177074,21.0976744 97.7177074,25.4511628 C97.6056459,29.6930233 99.8468777,33.1534884 103.769033,33.1534884 Z M103.769033,20.5395349 C104.665526,20.5395349 105.225834,20.8744186 105.562019,21.8790698 C105.898204,22.9953488 105.898204,24.3348837 105.898204,25.5627907 C105.898204,27.3488372 105.786142,30.2511628 103.769033,30.2511628 C101.639863,30.2511628 101.639863,26.5674419 101.639863,24.8930233 C101.639863,23.2186047 101.751925,20.5395349 103.769033,20.5395349 Z M68.9178785,32.372093 L68.9178785,23.6651163 C68.9178785,22.2139535 69.0299401,20.5395349 68.245509,19.3116279 C67.4610778,18.3069767 66.2284003,17.8604651 65.1077844,17.8604651 C63.5389222,17.8604651 62.0821215,18.6418605 61.4097519,20.427907 C60.6253208,18.6418605 59.6167665,17.8604651 57.9358426,17.8604651 C56.2549187,17.8604651 55.0222412,18.6418605 54.3498717,20.427907 L54.3498717,18.6418605 C54.3498717,18.4186047 54.1257485,18.1953488 53.9016253,18.1953488 L51.3242087,18.1953488 C50.988024,18.1953488 50.7639008,18.4186047 50.7639008,18.7534884 L50.7639008,32.372093 C50.7639008,32.5953488 50.988024,32.8186047 51.2121471,32.8186047 L53.9016253,32.8186047 C54.2378101,32.8186047 54.4619333,32.5953488 54.4619333,32.2604651 L54.4619333,24.8930233 C54.4619333,23.3302326 54.3498717,21.0976744 56.3669803,21.0976744 C58.2720274,21.0976744 58.0479042,23.3302326 58.0479042,24.8930233 L58.0479042,32.372093 C58.0479042,32.5953488 58.2720274,32.8186047 58.4961506,32.9302326 L61.1856287,32.9302326 C61.5218135,32.9302326 61.7459367,32.7069767 61.7459367,32.372093 L61.7459367,25.0046512 C61.7459367,24.2232558 61.7459367,23.1069767 61.9700599,22.3255814 C62.1941831,21.655814 62.9786142,21.2093023 63.5389222,21.2093023 C64.3233533,21.2093023 64.8836612,21.4325581 65.1077844,22.4372093 C65.219846,22.9953488 65.219846,24.4465116 65.219846,25.0046512 L65.219846,32.372093 C65.219846,32.5953488 65.4439692,32.8186047 65.6680924,32.9302326 L68.3575706,32.9302326 C68.5816938,32.8186047 68.9178785,32.5953488 68.9178785,32.372093 Z M95.924722,29.1348837 C94.3558597,28.2418605 92.5628743,28.0186047 90.8819504,28.0186047 L95.4764756,21.4325581 C95.924722,20.8744186 96.1488452,20.5395349 96.1488452,20.2046512 L96.1488452,18.5302326 C96.1488452,18.1953488 95.924722,17.972093 95.7005988,17.972093 L86.8477331,17.972093 C86.6236099,17.972093 86.3994867,18.1953488 86.3994867,18.5302326 L86.3994867,20.5395349 C86.3994867,20.8744186 86.6236099,21.0976744 86.8477331,21.0976744 L91.4422583,21.0976744 L86.1753636,28.6883721 C85.8391788,29.1348837 85.8391788,29.6930233 85.8391788,30.027907 L85.8391788,32.0372093 C85.8391788,32.372093 86.1753636,32.5953488 86.5115483,32.4837209 C89.5372113,30.9209302 93.1231822,31.0325581 95.924722,32.4837209 C96.2609068,32.7069767 96.5970915,32.372093 96.5970915,32.0372093 L96.5970915,29.9162791 C96.3729683,29.5813953 96.2609068,29.2465116 95.924722,29.1348837 Z M38.7733105,24.4465116 C37.0923867,25.227907 35.8597092,26.6790698 35.8597092,28.9116279 C35.8597092,31.7023256 37.6526946,33.1534884 39.8939264,33.1534884 C41.7989735,33.1534884 42.9195894,32.7069767 44.3763901,31.255814 C44.8246364,31.9255814 45.0487596,32.2604651 45.9452524,33.0418605 C46.1693755,33.1534884 46.3934987,33.1534884 46.6176219,32.9302326 C47.1779299,32.4837209 48.1864842,31.5906977 48.6347305,31.144186 C48.8588537,30.9209302 48.8588537,30.6976744 48.6347305,30.4744186 C48.1864842,29.8046512 47.6261762,29.2465116 47.6261762,28.0186047 L47.6261762,23.7767442 C47.6261762,21.9906977 47.7382378,20.3162791 46.5055603,19.0883721 C45.497006,18.0837209 43.7040205,17.7488372 42.471343,17.7488372 C39.8939264,17.7488372 37.0923867,18.7534884 36.4200171,21.8790698 C36.3079555,22.2139535 36.5320787,22.3255814 36.7562019,22.4372093 L39.3336185,22.772093 C39.5577417,22.772093 39.7818648,22.5488372 39.7818648,22.2139535 C40.005988,21.0976744 40.9024808,20.6511628 41.9110351,20.6511628 C42.471343,20.6511628 43.1437126,20.8744186 43.3678358,21.3209302 C43.7040205,21.8790698 43.7040205,22.6604651 43.7040205,23.2186047 L43.7040205,23.4418605 C42.2472198,23.6651163 40.2301112,23.7767442 38.7733105,24.4465116 Z M43.8160821,26.2325581 C43.8160821,27.2372093 43.8160821,28.1302326 43.3678358,29.1348837 C42.9195894,29.9162791 42.2472198,30.3627907 41.4627887,30.3627907 C40.4542344,30.3627907 39.7818648,29.5813953 39.7818648,28.3534884 C39.7818648,26.0093023 41.7989735,25.6744186 43.8160821,25.6744186 L43.8160821,26.2325581 Z M79.1154833,23.4418605 C77.546621,23.6651163 75.5295124,23.7767442 74.0727117,24.3348837 C72.3917879,25.1162791 71.1591104,26.5674419 71.1591104,28.8 C71.1591104,31.5906977 72.9520958,33.0418605 75.1933276,33.0418605 C77.0983747,33.0418605 78.2189906,32.5953488 79.6757913,31.144186 C80.1240376,31.8139535 80.3481608,32.1488372 81.2446536,32.9302326 C81.4687767,33.0418605 81.6928999,33.0418605 81.9170231,32.8186047 C82.4773311,32.372093 83.4858854,31.4790698 83.9341317,31.0325581 C84.1582549,30.8093023 84.1582549,30.5860465 83.9341317,30.3627907 C83.4858854,29.5813953 82.9255774,29.0232558 82.9255774,27.7953488 L82.9255774,23.5534884 C82.9255774,21.7674419 83.037639,20.0930233 81.6928999,18.8651163 C80.6843456,17.8604651 79.0034217,17.5255814 77.6586826,17.5255814 C75.081266,17.5255814 72.2797263,18.5302326 71.6073567,21.655814 C71.4952951,21.9906977 71.7194183,22.1023256 71.9435415,22.2139535 L74.5209581,22.5488372 C74.7450813,22.5488372 74.9692044,22.3255814 74.9692044,21.9906977 C75.1933276,20.8744186 76.0898204,20.427907 77.0983747,20.427907 C77.6586826,20.427907 78.3310522,20.6511628 78.5551754,21.0976744 C78.8913601,21.655814 78.8913601,22.4372093 78.8913601,22.9953488 L78.8913601,23.4418605 L79.1154833,23.4418605 Z M79.1154833,26.2325581 C79.1154833,27.2372093 79.1154833,28.1302326 78.667237,29.1348837 C78.2189906,29.9162791 77.546621,30.3627907 76.7621899,30.3627907 C75.7536356,30.3627907 75.081266,29.5813953 75.081266,28.3534884 C75.081266,26.0093023 77.0983747,25.6744186 79.1154833,25.6744186 L79.1154833,26.2325581 Z M62.1941831,37.9534884 C61.6338751,37.6186047 61.0735672,37.2837209 60.5132592,37.2837209 C60.0650128,37.2837209 59.6167665,37.3953488 59.2805817,37.6186047 C58.9443969,37.8418605 58.6082121,38.1767442 58.384089,38.6232558 L58.384089,33.6 L57.0393499,33.6 L57.0393499,47.6651163 L58.2720274,47.6651163 L58.2720274,46.4372093 C58.4961506,46.8837209 58.8323353,47.3302326 59.1685201,47.5534884 C59.5047049,47.7767442 59.9529512,47.8883721 60.4011976,47.8883721 C61.2976903,47.8883721 62.0821215,47.4418605 62.8665526,46.4372093 C63.5389222,45.544186 63.8751069,44.0930233 63.8751069,42.4186047 C63.8751069,41.3023256 63.7630453,40.2976744 63.4268606,39.5162791 C63.2027374,38.8465116 62.754491,38.2883721 62.1941831,37.9534884 Z M61.8579983,45.544186 C61.4097519,46.2139535 60.9615056,46.5488372 60.4011976,46.5488372 C59.9529512,46.5488372 59.6167665,46.4372093 59.2805817,46.1023256 C58.9443969,45.8790698 58.7202737,45.4325581 58.4961506,44.8744186 C58.2720274,44.3162791 58.2720274,43.5348837 58.2720274,42.5302326 C58.2720274,41.3023256 58.4961506,40.2976744 58.9443969,39.7395349 C59.3926433,39.0697674 59.8408896,38.7348837 60.4011976,38.7348837 C60.9615056,38.7348837 61.5218135,39.0697674 61.9700599,39.7395349 C62.4183062,40.4093023 62.5303678,41.3023256 62.5303678,42.6418605 C62.5303678,43.9813953 62.3062447,44.8744186 61.8579983,45.544186 Z M44.6005133,43.4232558 L44.1522669,45.4325581 L43.7040205,43.4232558 L42.5834046,37.5069767 L41.1266039,37.5069767 L39.8939264,43.5348837 L39.4456801,45.655814 L38.9974337,43.4232558 L37.7647562,37.5069767 L36.3079555,37.5069767 L38.7733105,47.7767442 L40.2301112,47.7767442 L41.7989735,39.9627907 L42.1351583,41.7488372 L43.4798973,47.8883721 L44.8246364,47.8883721 L47.2899914,37.6186047 L45.9452524,37.6186047 L44.6005133,43.4232558 Z M51.6603935,37.2837209 C50.5397776,37.2837209 49.7553464,37.7302326 48.9709153,38.7348837 C48.2985458,39.627907 47.8502994,40.9674419 47.8502994,42.7534884 C47.8502994,44.427907 48.1864842,45.7674419 48.8588537,46.6604651 C49.5312233,47.5534884 50.5397776,48 51.6603935,48 C52.5568862,48 53.3413174,47.6651163 53.9016253,47.1069767 C54.4619333,46.5488372 54.9101796,45.7674419 55.1343028,44.6511628 L53.7895637,44.427907 C53.3413174,45.8790698 52.6689478,46.5488372 51.6603935,46.5488372 C50.988024,46.5488372 50.427716,46.3255814 49.9794696,45.655814 C49.5312233,45.0976744 49.3071001,44.2046512 49.1950385,43.0883721 L55.1343028,43.0883721 L55.1343028,42.6418605 C55.1343028,40.9674419 54.798118,39.627907 54.1257485,38.6232558 C53.5654405,37.7302326 52.6689478,37.2837209 51.6603935,37.2837209 Z M49.4191617,41.6372093 C49.4191617,40.744186 49.6432849,39.9627907 50.0915312,39.5162791 C50.5397776,38.9581395 50.988024,38.7348837 51.6603935,38.7348837 C52.332763,38.7348837 52.893071,39.0697674 53.3413174,39.7395349 C53.6775021,40.1860465 53.7895637,40.855814 53.9016253,41.7488372 L49.4191617,41.7488372 L49.4191617,41.6372093 Z M85.7271172,37.2837209 C85.502994,37.5069767 85.1668092,37.9534884 84.8306245,38.7348837 L84.8306245,37.172093 L83.597947,37.172093 L83.597947,47.4418605 L84.9426861,47.4418605 L84.9426861,42.0837209 C84.9426861,41.3023256 85.0547476,40.6325581 85.1668092,39.9627907 C85.2788708,39.627907 85.502994,39.2930233 85.7271172,39.0697674 C85.9512404,38.8465116 86.2874251,38.7348837 86.5115483,38.7348837 C86.8477331,38.7348837 87.1839179,38.8465116 87.5201027,39.0697674 L87.968349,37.5069767 C87.5201027,37.172093 87.0718563,36.9488372 86.5115483,36.9488372 C86.2874251,36.9488372 86.063302,37.0604651 85.7271172,37.2837209 Z M111.27716,36.9488372 C110.156544,36.9488372 109.260051,37.3953488 108.587682,38.2883721 C107.915312,39.1813953 107.579127,40.5209302 107.579127,42.3069767 C107.579127,43.9813953 107.915312,45.3209302 108.587682,46.2139535 C109.260051,47.1069767 110.268606,47.5534884 111.389222,47.5534884 C112.285714,47.5534884 113.070145,47.3302326 113.630453,46.772093 C114.190761,46.2139535 114.639008,45.4325581 114.975192,44.3162791 L113.518392,44.0930233 C113.070145,45.544186 112.397776,46.2139535 111.389222,46.2139535 C110.716852,46.2139535 110.156544,45.9906977 109.708298,45.3209302 C109.260051,44.7627907 109.035928,43.8697674 108.923867,42.7534884 L114.975192,42.7534884 L114.975192,42.3069767 C114.975192,40.6325581 114.639008,39.2930233 113.966638,38.4 C113.070145,37.3953488 112.285714,36.9488372 111.27716,36.9488372 Z M108.923867,41.3023256 C108.923867,40.4093023 109.260051,39.7395349 109.708298,39.1813953 C110.156544,38.6232558 110.60479,38.4 111.27716,38.4 C111.94953,38.4 112.509837,38.7348837 112.958084,39.4046512 C113.294269,39.8511628 113.40633,40.5209302 113.518392,41.4139535 L108.923867,41.4139535 L108.923867,41.3023256 Z M121.698888,42.0837209 C121.362703,41.8604651 120.690334,41.5255814 119.569718,41.1906977 C118.785287,40.855814 118.224979,40.744186 118.112917,40.5209302 C117.888794,40.2976744 117.664671,39.9627907 117.664671,39.627907 C117.664671,39.2930233 117.776732,38.9581395 118.112917,38.6232558 C118.449102,38.4 118.897348,38.2883721 119.457656,38.2883721 C120.46621,38.2883721 121.13858,38.8465116 121.250642,39.9627907 L122.595381,39.7395349 C122.483319,39.0697674 122.371257,38.5116279 122.147134,38.0651163 C121.923011,37.7302326 121.586826,37.3953488 121.13858,37.172093 C120.690334,36.9488372 120.130026,36.8372093 119.569718,36.8372093 C118.561163,36.8372093 117.888794,37.0604651 117.328486,37.6186047 C116.768178,38.1767442 116.544055,38.8465116 116.544055,39.7395349 C116.544055,40.2976744 116.656116,40.6325581 116.768178,41.0790698 C116.992301,41.5255814 117.216424,41.7488372 117.664671,42.0837209 C118.000855,42.3069767 118.785287,42.6418605 119.793841,42.9767442 C120.578272,43.2 121.026518,43.4232558 121.250642,43.5348837 C121.474765,43.7581395 121.698888,44.0930233 121.698888,44.427907 C121.698888,44.8744186 121.586826,45.3209302 121.250642,45.544186 C120.914457,45.8790698 120.46621,45.9906977 119.905902,45.9906977 C119.345595,45.9906977 118.785287,45.8790698 118.449102,45.4325581 C118.112917,45.0976744 117.888794,44.5395349 117.776732,43.8697674 L116.431993,44.0930233 C116.768178,46.3255814 117.888794,47.3302326 119.793841,47.3302326 C120.802395,47.3302326 121.698888,46.9953488 122.259196,46.4372093 C122.819504,45.8790698 123.155689,44.9860465 123.155689,44.0930233 C123.155689,43.5348837 123.043627,43.0883721 122.819504,42.7534884 C122.259196,42.6418605 122.035073,42.3069767 121.698888,42.0837209 Z M104.665526,45.544186 C104.329341,45.9906977 103.881095,46.2139535 103.320787,46.2139535 C102.648417,46.2139535 102.088109,45.8790698 101.639863,45.3209302 C101.191617,44.6511628 100.967494,43.7581395 100.967494,42.3069767 C100.967494,40.9674419 101.191617,39.9627907 101.639863,39.4046512 C102.088109,38.7348837 102.648417,38.4 103.320787,38.4 C103.769033,38.4 104.105218,38.6232558 104.441403,38.9581395 C104.777588,39.2930233 105.001711,39.8511628 105.113772,40.5209302 L106.458512,40.2976744 C106.34645,39.1813953 105.898204,38.4 105.337896,37.8418605 C104.777588,37.2837209 104.105218,37.0604651 103.208725,37.0604651 C102.088109,37.0604651 101.191617,37.5069767 100.519247,38.4 C99.8468777,39.2930233 99.5106929,40.6325581 99.5106929,42.4186047 C99.5106929,44.2046512 99.8468777,45.544186 100.519247,46.4372093 C101.191617,47.3302326 102.088109,47.7767442 103.096664,47.7767442 C103.993157,47.7767442 104.665526,47.4418605 105.337896,46.772093 C106.010265,46.1023256 106.34645,45.2093023 106.458512,43.9813953 L105.113772,43.7581395 C105.337896,44.5395349 105.113772,45.2093023 104.665526,45.544186 Z M123.603935,38.0651163 L124.948674,38.0651163 L124.948674,41.5255814 L125.508982,41.5255814 L125.508982,38.0651163 L126.853721,38.0651163 L126.853721,37.6186047 L123.715997,37.6186047 L123.715997,38.0651163 L123.603935,38.0651163 Z M130.32763,37.6186047 L129.431138,40.4093023 C129.319076,40.6325581 129.319076,40.855814 129.207015,41.0790698 L128.982891,40.5209302 L128.086399,37.7302326 L127.301967,37.7302326 L127.301967,41.6372093 L127.750214,41.6372093 L127.750214,38.2883721 L128.87083,41.6372093 L129.319076,41.6372093 L130.439692,38.4 L130.439692,41.6372093 L131,41.6372093 L131,37.7302326 L130.32763,37.7302326 L130.32763,37.6186047 Z M72.3917879,42.0837209 C72.0556031,41.8604651 71.2711719,41.5255814 70.150556,41.1906977 C69.3661249,40.855814 68.8058169,40.744186 68.6937553,40.5209302 C68.4696322,40.2976744 68.245509,39.9627907 68.245509,39.627907 C68.245509,39.2930233 68.3575706,38.9581395 68.6937553,38.6232558 C69.0299401,38.4 69.4781865,38.2883721 70.0384944,38.2883721 C71.0470488,38.2883721 71.7194183,38.8465116 71.8314799,39.9627907 L73.176219,39.7395349 C73.0641574,39.0697674 72.9520958,38.5116279 72.7279726,38.0651163 C72.5038494,37.7302326 72.1676647,37.3953488 71.7194183,37.172093 C71.2711719,36.9488372 70.710864,36.8372093 70.150556,36.8372093 C69.2540633,36.8372093 68.4696322,37.0604651 67.9093242,37.6186047 C67.3490163,38.1767442 67.1248931,38.8465116 67.1248931,39.7395349 C67.1248931,40.2976744 67.2369547,40.6325581 67.4610778,41.0790698 C67.685201,41.5255814 67.9093242,41.7488372 68.3575706,42.0837209 C68.6937553,42.3069767 69.4781865,42.6418605 70.4867408,42.9767442 C71.2711719,43.2 71.6073567,43.4232558 71.8314799,43.5348837 C72.0556031,43.7581395 72.2797263,44.0930233 72.2797263,44.427907 C72.2797263,44.8744186 72.1676647,45.3209302 71.8314799,45.544186 C71.4952951,45.8790698 71.0470488,45.9906977 70.4867408,45.9906977 C69.9264328,45.9906977 69.3661249,45.8790698 69.0299401,45.4325581 C68.6937553,45.0976744 68.4696322,44.5395349 68.3575706,43.8697674 L67.0128315,44.0930233 C67.3490163,46.3255814 68.4696322,47.3302326 70.3746792,47.3302326 C71.3832335,47.3302326 72.1676647,46.9953488 72.8400342,46.4372093 C73.4003422,45.8790698 73.7365269,44.9860465 73.7365269,44.0930233 C73.7365269,43.5348837 73.6244654,43.0883721 73.4003422,42.7534884 C72.9520958,42.6418605 72.7279726,42.3069767 72.3917879,42.0837209 Z M96.5970915,47.3302326 L97.9418306,47.3302326 L97.9418306,37.0604651 L96.5970915,37.0604651 L96.5970915,47.3302326 Z M92.2266895,43.4232558 C92.0025663,44.2046512 91.7784431,44.8744186 91.6663815,45.3209302 C91.5543199,44.6511628 91.3301967,43.9813953 91.2181352,43.2 L89.4251497,37.0604651 L87.968349,37.0604651 L90.994012,47.3302326 L92.3387511,47.3302326 L95.364414,37.0604651 L93.9076133,37.0604651 L92.2266895,43.4232558 Z M78.3310522,36.9488372 C77.2104363,36.9488372 76.3139435,37.3953488 75.641574,38.2883721 C74.9692044,39.1813953 74.6330197,40.5209302 74.6330197,42.3069767 C74.6330197,43.9813953 74.9692044,45.3209302 75.641574,46.2139535 C76.3139435,47.1069767 77.2104363,47.5534884 78.4431138,47.5534884 C79.3396065,47.5534884 80.1240376,47.3302326 80.6843456,46.772093 C81.2446536,46.2139535 81.6928999,45.4325581 82.0290847,44.3162791 L80.572284,44.0930233 C80.1240376,45.544186 79.4516681,46.2139535 78.4431138,46.2139535 C77.7707442,46.2139535 77.2104363,45.9906977 76.7621899,45.3209302 C76.3139435,44.7627907 76.0898204,43.8697674 75.9777588,42.7534884 L82.0290847,42.7534884 L82.0290847,42.3069767 C82.0290847,40.6325581 81.6928999,39.2930233 81.0205304,38.4 C80.2360992,37.3953488 79.3396065,36.9488372 78.3310522,36.9488372 Z M75.9777588,41.3023256 C75.9777588,40.4093023 76.3139435,39.7395349 76.7621899,39.1813953 C77.2104363,38.6232558 77.6586826,38.4 78.3310522,38.4 C79.0034217,38.4 79.5637297,38.7348837 80.011976,39.4046512 C80.3481608,39.8511628 80.4602224,40.5209302 80.572284,41.4139535 L75.9777588,41.4139535 L75.9777588,41.3023256 Z M96.5970915,35.2744186 L97.9418306,35.2744186 L97.9418306,33.2651163 L96.5970915,33.2651163 L96.5970915,35.2744186 Z M16.5851155,27.9069767 L11.3182207,30.1395349 L16.1368691,32.1488372 L21.7399487,30.1395349 L16.5851155,27.9069767 Z M17.5936698,42.8651163 L24.5414885,40.0744186 L24.5414885,30.5860465 L17.5936698,33.1534884 L17.5936698,42.8651163 Z M8.62874251,40.5209302 L16.2489307,43.7581395 L16.2489307,33.4883721 L8.74080411,30.5860465 L8.62874251,40.5209302 Z M32.1616766,5.69302326 L25.4379812,2.90232558 L25.4379812,12.7255814 L31.9375535,14.6232558 L32.1616766,5.69302326 Z M37.9888794,2.23255814 L32.7219846,0 L27.4550898,2.23255814 L32.2737382,4.24186047 L37.9888794,2.23255814 Z M40.005988,3.46046512 L33.8426005,6.02790698 L33.8426005,15.7395349 L40.005988,12.9488372 L40.005988,3.46046512 Z M8.06843456,13.8418605 L2.80153978,16.0744186 L7.6201882,18.0837209 L13.2232678,16.0744186 L8.06843456,13.8418605 Z M0,26.455814 L7.6201882,29.6930233 L7.6201882,19.4232558 L0.112061591,16.5209302 L0,26.455814 Z M8.96492729,28.8 L15.9127459,26.0093023 L15.9127459,16.5209302 L8.96492729,19.2 L8.96492729,28.8 Z M24.4294269,19.0883721 L16.9213003,16.1860465 L16.8092387,26.1209302 L24.4294269,29.3581395 L24.4294269,19.0883721 Z M30.0325064,15.627907 L24.7656116,13.3953488 L19.4987169,15.627907 L24.3173653,17.6372093 L30.0325064,15.627907 Z M25.774166,28.4651163 L32.7219846,25.6744186 L32.7219846,16.1860465 L25.774166,18.7534884 L25.774166,28.4651163 Z M50.0915312,14.9581395 L57.0393499,12.1674419 L57.0393499,2.67906977 L50.0915312,5.24651163 L50.0915312,14.9581395 Z M54.3498717,2.23255814 L49.0829769,0 L43.8160821,2.23255814 L48.6347305,4.24186047 L54.3498717,2.23255814 Z M48.7467921,5.69302326 L41.2386655,2.79069767 L41.0145423,12.6139535 L48.6347305,15.8511628 L48.6347305,5.69302326 L48.7467921,5.69302326 Z" id="Shape" fill="#FFFFFF" fill-rule="nonzero" mask="url(#mask-2)"></path>
                </g>
            </g>
        </g>
    </g>
</svg>