<?xml version="1.0" encoding="UTF-8"?>
<svg width="87px" height="65px" viewBox="0 0 87 65" version="1.1" xmlns="http://www.w3.org/2000/svg" xmlns:xlink="http://www.w3.org/1999/xlink">
    <!-- Generator: sketchtool 49 (51002) - http://www.bohemiancoding.com/sketch -->
    <title>D16F94EE-5C95-4A69-82F8-D89F9EAE510F@3x</title>
    <desc>Created with sketchtool.</desc>
    <defs></defs>
    <g id="Main" stroke="none" stroke-width="1" fill="none" fill-rule="evenodd" opacity="0.600000024">
        <g id="Landing" transform="translate(-206.000000, -2641.000000)" fill="#FFFFFF">
            <g id="Open-source" transform="translate(206.000000, 2503.000000)">
                <g id="Digital-Ocean-Logo" transform="translate(0.000000, 138.000000)">
                    <g id="XMLID_690_" transform="translate(22.000000, 0.000000)">
                        <g id="XMLID_691_">
                            <g id="XMLID_44_">
                                <g id="XMLID_48_" fill-rule="nonzero">
                                    <path d="M22,43.8757062 L22,35.3740113 C30.9483146,35.3740113 37.894382,26.4497175 34.458427,16.9785311 C33.1977528,13.4983051 30.4044944,10.6892655 26.9191011,9.42146893 C17.5011236,5.99096045 8.62696629,12.9514124 8.62696629,21.9502825 C8.62696629,21.9502825 8.62696629,21.9502825 8.62696629,21.9502825 L0.197752809,21.9502825 C0.197752809,7.60677966 13.9910112,-3.57966102 28.9460674,1.11864407 C35.4719101,3.1819209 40.6876404,8.40225989 42.7146067,14.9649718 C47.3865169,30.0045198 36.2629213,43.8757062 22,43.8757062 Z" id="XMLID_49_"></path>
                                </g>
                                <polygon id="XMLID_47_" points="22.0247191 35.4237288 13.5955056 35.4237288 13.5955056 26.9468927 13.5955056 26.9468927 22.0247191 26.9468927 22.0247191 26.9468927"></polygon>
                                <polygon id="XMLID_46_" points="13.5955056 41.9118644 7.14382022 41.9118644 7.14382022 41.9118644 7.14382022 35.4237288 13.5955056 35.4237288"></polygon>
                                <path d="M7.14382022,35.4237288 L1.73033708,35.4237288 C1.73033708,35.4237288 1.73033708,35.4237288 1.73033708,35.4237288 L1.73033708,29.979661 C1.73033708,29.979661 1.73033708,29.979661 1.73033708,29.979661 L7.14382022,29.979661 C7.14382022,29.979661 7.14382022,29.979661 7.14382022,29.979661 L7.14382022,35.4237288 Z" id="XMLID_45_"></path>
                            </g>
                        </g>
                    </g>
                    <g id="XMLID_234_" transform="translate(0.000000, 50.000000)" fill-rule="nonzero">
                        <path d="M7.66779661,1.55084746 C6.58644068,0.762711864 5.21016949,0.381355932 3.63728814,0.381355932 L0.196610169,0.381355932 L0.196610169,11.6949153 L3.66186441,11.6949153 C5.23474576,11.6949153 6.61101695,11.2881356 7.69237288,10.4491525 C8.28220339,10.0169492 8.74915254,9.40677966 9.09322034,8.6440678 C9.41271186,7.88135593 9.58474576,6.96610169 9.58474576,5.97457627 C9.58474576,4.98305085 9.41271186,4.09322034 9.09322034,3.33050847 C8.74915254,2.56779661 8.28220339,1.95762712 7.66779661,1.55084746 Z M2.21186441,2.28813559 L3.29322034,2.28813559 C4.49745763,2.28813559 5.48050847,2.54237288 6.24237288,3.02542373 C7.0779661,3.55932203 7.49576271,4.55084746 7.49576271,5.97457627 C7.49576271,7.44915254 7.0779661,8.49152542 6.24237288,9.05084746 C5.52966102,9.53389831 4.54661017,9.78813559 3.31779661,9.78813559 L2.21186441,9.78813559 L2.21186441,2.28813559 Z" id="XMLID_677_"></path>
                        <path d="M11.9686441,0.228813559 C11.6245763,0.228813559 11.3542373,0.355932203 11.1084746,0.584745763 C10.8872881,0.813559322 10.7644068,1.09322034 10.7644068,1.44915254 C10.7644068,1.80508475 10.8872881,2.08474576 11.1084746,2.33898305 C11.329661,2.56779661 11.6245763,2.69491525 11.9686441,2.69491525 C12.2881356,2.69491525 12.5830508,2.56779661 12.8288136,2.33898305 C13.05,2.11016949 13.1728814,1.80508475 13.1728814,1.44915254 C13.1728814,1.09322034 13.05,0.813559322 12.8288136,0.584745763 C12.5830508,0.355932203 12.2881356,0.228813559 11.9686441,0.228813559 Z" id="XMLID_676_"></path>
                        <rect id="XMLID_675_" x="10.9855932" y="3.71186441" width="1.94152542" height="7.98305085"></rect>
                        <path d="M19.9805085,4.37288136 C19.390678,3.83898305 18.7516949,3.50847458 18.0389831,3.50847458 C16.9576271,3.50847458 16.0728814,3.88983051 15.3847458,4.65254237 C14.6966102,5.38983051 14.3279661,6.3559322 14.3279661,7.52542373 C14.3279661,8.6440678 14.6720339,9.61016949 15.3601695,10.3728814 C16.0483051,11.1101695 16.9576271,11.4915254 18.0144068,11.4915254 C18.7516949,11.4915254 19.4152542,11.2881356 19.9313559,10.8559322 L19.9313559,11.0338983 C19.9313559,11.6949153 19.759322,12.2033898 19.4152542,12.559322 C19.0711864,12.9152542 18.6042373,13.0932203 18.0144068,13.0932203 C17.129661,13.0932203 16.5644068,12.7372881 15.8762712,11.7711864 L14.5491525,13.0932203 L14.5737288,13.1440678 C14.8686441,13.5508475 15.2864407,13.9576271 15.8762712,14.3389831 C16.4415254,14.720339 17.1788136,14.9237288 18.0389831,14.9237288 C19.1940678,14.9237288 20.1279661,14.5677966 20.8161017,13.8305085 C21.5042373,13.0932203 21.8483051,12.1271186 21.8483051,10.9322034 L21.8483051,3.68644068 L19.9313559,3.68644068 L19.9313559,4.37288136 L19.9805085,4.37288136 Z M19.4644068,9.10169492 C19.120339,9.50847458 18.6779661,9.68644068 18.1372881,9.68644068 C17.5720339,9.68644068 17.1542373,9.48305085 16.8101695,9.10169492 C16.4661017,8.69491525 16.3186441,8.18644068 16.3186441,7.55084746 C16.3186441,6.88983051 16.490678,6.38135593 16.8101695,5.97457627 C17.129661,5.56779661 17.5966102,5.38983051 18.1372881,5.38983051 C18.7025424,5.38983051 19.120339,5.59322034 19.4644068,5.97457627 C19.8084746,6.38135593 19.9805085,6.91525424 19.9805085,7.55084746 C19.9805085,8.18644068 19.8084746,8.69491525 19.4644068,9.10169492 Z" id="XMLID_670_"></path>
                        <rect id="XMLID_668_" x="23.5440678" y="3.71186441" width="1.94152542" height="7.98305085"></rect>
                        <path d="M24.5271186,0.228813559 C24.1830508,0.228813559 23.9127119,0.355932203 23.6669492,0.584745763 C23.4457627,0.813559322 23.3228814,1.09322034 23.3228814,1.44915254 C23.3228814,1.80508475 23.4457627,2.08474576 23.6669492,2.33898305 C23.8881356,2.56779661 24.1830508,2.69491525 24.5271186,2.69491525 C24.8466102,2.69491525 25.1415254,2.56779661 25.3872881,2.33898305 C25.6084746,2.11016949 25.7313559,1.80508475 25.7313559,1.44915254 C25.7313559,1.09322034 25.6084746,0.813559322 25.3872881,0.584745763 C25.1415254,0.355932203 24.8711864,0.228813559 24.5271186,0.228813559 Z" id="XMLID_660_"></path>
                        <path d="M29.7372881,1.55084746 L27.820339,1.55084746 L27.820339,3.71186441 L26.7144068,3.71186441 L26.7144068,5.54237288 L27.820339,5.54237288 L27.820339,8.84745763 C27.820339,9.88983051 28.0169492,10.6271186 28.4101695,11.059322 C28.8033898,11.4915254 29.5161017,11.6949153 30.4991525,11.6949153 C30.8186441,11.6949153 31.1381356,11.6949153 31.4330508,11.6694915 L31.5313559,11.6694915 L31.5313559,9.83898305 L30.8677966,9.86440678 C30.4008475,9.86440678 30.1059322,9.78813559 29.9584746,9.61016949 C29.8110169,9.43220339 29.7372881,9.07627119 29.7372881,8.54237288 L29.7372881,5.51694915 L31.5559322,5.51694915 L31.5559322,3.68644068 L29.7372881,3.68644068 L29.7372881,1.55084746 Z" id="XMLID_652_"></path>
                        <rect id="XMLID_642_" x="40.6491525" y="0.355932203" width="1.94152542" height="11.3389831"></rect>
                        <path d="M62.2025424,8.84745763 C61.8584746,9.25423729 61.4898305,9.61016949 61.2194915,9.78813559 C60.9491525,9.96610169 60.6050847,10.0677966 60.2118644,10.0677966 C59.6466102,10.0677966 59.179661,9.86440678 58.8110169,9.40677966 C58.4423729,8.97457627 58.2457627,8.38983051 58.2457627,7.72881356 C58.2457627,7.04237288 58.4423729,6.48305085 58.8110169,6.05084746 C59.179661,5.61864407 59.6466102,5.38983051 60.2118644,5.38983051 C60.8262712,5.38983051 61.4898305,5.79661017 62.0550847,6.48305085 L63.3330508,5.21186441 C62.4974576,4.09322034 61.440678,3.55932203 60.1627119,3.55932203 C59.1059322,3.55932203 58.1720339,3.96610169 57.4101695,4.75423729 C56.6483051,5.54237288 56.279661,6.53389831 56.279661,7.72881356 C56.279661,8.92372881 56.6728814,9.91525424 57.4101695,10.7033898 C58.1720339,11.4915254 59.0813559,11.8983051 60.1627119,11.8983051 C61.5635593,11.8983051 62.6940678,11.2627119 63.4805085,10.1186441 L62.2025424,8.84745763 Z" id="XMLID_448_"></path>
                        <path d="M70.1898305,4.83050847 C69.9194915,4.42372881 69.5508475,4.11864407 69.0838983,3.88983051 C68.6169492,3.66101695 68.0762712,3.53389831 67.4864407,3.53389831 C66.4050847,3.53389831 65.520339,3.94067797 64.8567797,4.75423729 C64.2177966,5.56779661 63.8737288,6.55932203 63.8737288,7.75423729 C63.8737288,8.97457627 64.2423729,9.96610169 64.9305085,10.7288136 C65.6432203,11.4915254 66.5771186,11.8728814 67.7322034,11.8728814 C69.0347458,11.8728814 70.1161017,11.3135593 70.9271186,10.2457627 L70.9762712,10.1949153 L69.6983051,8.92372881 C69.5754237,9.07627119 69.4033898,9.22881356 69.2559322,9.38135593 C69.059322,9.55932203 68.8872881,9.71186441 68.690678,9.81355932 C68.3957627,9.96610169 68.0762712,10.0423729 67.7076271,10.0423729 C67.1669492,10.0423729 66.7245763,9.88983051 66.3805085,9.55932203 C66.0610169,9.25423729 65.8644068,8.84745763 65.8152542,8.33898305 L70.9516949,8.33898305 L70.9762712,7.60169492 C70.9762712,7.09322034 70.9025424,6.58474576 70.779661,6.12711864 C70.6567797,5.66949153 70.4601695,5.23728814 70.1898305,4.83050847 Z M65.9381356,6.71186441 C66.0364407,6.33050847 66.2084746,6 66.4542373,5.77118644 C66.7245763,5.49152542 67.0686441,5.36440678 67.4618644,5.36440678 C67.9288136,5.36440678 68.2974576,5.49152542 68.5432203,5.77118644 C68.7644068,6.02542373 68.9118644,6.33050847 68.9364407,6.71186441 L65.9381356,6.71186441 Z" id="XMLID_445_"></path>
                        <path d="M77.6364407,4.3220339 C77.0466102,3.81355932 76.2355932,3.53389831 75.2279661,3.53389831 C74.5889831,3.53389831 73.9745763,3.68644068 73.4338983,3.96610169 C72.9177966,4.22033898 72.4262712,4.6779661 72.1067797,5.23728814 L72.1313559,5.26271186 L73.3847458,6.48305085 C73.9008475,5.6440678 74.4661017,5.33898305 75.2279661,5.33898305 C75.6457627,5.33898305 75.9652542,5.44067797 76.2355932,5.66949153 C76.4813559,5.89830508 76.6288136,6.1779661 76.6288136,6.53389831 L76.6288136,6.91525424 C76.1372881,6.76271186 75.670339,6.68644068 75.2033898,6.68644068 C74.2449153,6.68644068 73.4584746,6.91525424 72.8686441,7.37288136 C72.2788136,7.83050847 71.9838983,8.51694915 71.9838983,9.38135593 C71.9838983,10.1440678 72.229661,10.7288136 72.7457627,11.1864407 C73.2618644,11.6186441 73.8762712,11.8474576 74.6135593,11.8474576 C75.3508475,11.8474576 76.0389831,11.5423729 76.6779661,11.0084746 L76.6779661,11.6694915 L78.5949153,11.6694915 L78.5949153,6.53389831 C78.5211864,5.59322034 78.2262712,4.83050847 77.6364407,4.3220339 Z M74.1957627,8.6440678 C74.4169492,8.49152542 74.7364407,8.41525424 75.129661,8.41525424 C75.5966102,8.41525424 76.0881356,8.51694915 76.6042373,8.69491525 L76.6042373,9.48305085 C76.1864407,9.88983051 75.6211864,10.0932203 74.9330508,10.0932203 C74.5889831,10.0932203 74.3432203,10.0169492 74.1466102,9.86440678 C73.9745763,9.71186441 73.8762712,9.53389831 73.8762712,9.27966102 C73.8762712,9 73.9745763,8.79661017 74.1957627,8.6440678 Z" id="XMLID_442_"></path>
                        <path d="M85.9923729,4.47457627 C85.4516949,3.83898305 84.6898305,3.53389831 83.7313559,3.53389831 C82.9694915,3.53389831 82.3305085,3.76271186 81.8635593,4.22033898 L81.8635593,3.73728814 L79.9711864,3.73728814 L79.9711864,11.6949153 L81.9127119,11.6949153 L81.9127119,7.29661017 C81.9127119,6.68644068 82.0601695,6.20338983 82.3305085,5.87288136 C82.6008475,5.54237288 82.9694915,5.36440678 83.4855932,5.36440678 C83.9279661,5.36440678 84.2474576,5.51694915 84.4932203,5.8220339 C84.7389831,6.12711864 84.8618644,6.55932203 84.8618644,7.06779661 L84.8618644,11.6949153 L86.8033898,11.6949153 L86.8033898,7.06779661 C86.8033898,5.97457627 86.5330508,5.08474576 85.9923729,4.47457627 Z" id="XMLID_393_"></path>
                        <path d="M38.2161017,4.3220339 C37.6262712,3.81355932 36.8152542,3.53389831 35.8076271,3.53389831 C35.1686441,3.53389831 34.5542373,3.68644068 34.0135593,3.96610169 C33.4974576,4.22033898 33.0059322,4.6779661 32.6864407,5.23728814 L32.7110169,5.26271186 L33.9644068,6.48305085 C34.4805085,5.6440678 35.0457627,5.33898305 35.8076271,5.33898305 C36.2254237,5.33898305 36.5449153,5.44067797 36.8152542,5.66949153 C37.0610169,5.89830508 37.2084746,6.1779661 37.2084746,6.53389831 L37.2084746,6.91525424 C36.7169492,6.76271186 36.25,6.68644068 35.7830508,6.68644068 C34.8245763,6.68644068 34.0381356,6.91525424 33.4483051,7.37288136 C32.8584746,7.83050847 32.5635593,8.51694915 32.5635593,9.38135593 C32.5635593,10.1440678 32.809322,10.7288136 33.3254237,11.1864407 C33.8415254,11.6186441 34.4559322,11.8474576 35.1932203,11.8474576 C35.9305085,11.8474576 36.6186441,11.5423729 37.2576271,11.0084746 L37.2576271,11.6694915 L39.1745763,11.6694915 L39.1745763,6.53389831 C39.1008475,5.59322034 38.8059322,4.83050847 38.2161017,4.3220339 Z M34.7754237,8.6440678 C34.9966102,8.49152542 35.3161017,8.41525424 35.709322,8.41525424 C36.1762712,8.41525424 36.6677966,8.51694915 37.1838983,8.69491525 L37.1838983,9.48305085 C36.7661017,9.88983051 36.2008475,10.0932203 35.5127119,10.0932203 C35.1686441,10.0932203 34.9228814,10.0169492 34.7262712,9.86440678 C34.5542373,9.71186441 34.4559322,9.53389831 34.4559322,9.27966102 C34.4559322,9 34.5542373,8.79661017 34.7754237,8.6440678 Z" id="XMLID_320_"></path>
                        <path d="M49.6440678,11.8728814 C46.5228814,11.8728814 43.9915254,9.25423729 43.9915254,6.02542373 C43.9915254,2.79661017 46.5228814,0.177966102 49.6440678,0.177966102 C52.7652542,0.177966102 55.2966102,2.79661017 55.2966102,6.02542373 C55.2966102,9.25423729 52.7652542,11.8728814 49.6440678,11.8728814 Z M49.6440678,2.23728814 C47.6288136,2.23728814 45.9822034,3.94067797 45.9822034,6.02542373 C45.9822034,8.11016949 47.6288136,9.81355932 49.6440678,9.81355932 C51.659322,9.81355932 53.3059322,8.11016949 53.3059322,6.02542373 C53.3059322,3.94067797 51.659322,2.23728814 49.6440678,2.23728814 Z" id="XMLID_235_"></path>
                    </g>
                </g>
            </g>
        </g>
    </g>
</svg>