<svg xmlns="http://www.w3.org/2000/svg" viewBox="0 0 675.26 446.59"><defs><style>.cls-1,.cls-10,.cls-11,.cls-12,.cls-13,.cls-14,.cls-15,.cls-16,.cls-17,.cls-18,.cls-19,.cls-2,.cls-20,.cls-21,.cls-22,.cls-23,.cls-24,.cls-25,.cls-26,.cls-27,.cls-28,.cls-29,.cls-3,.cls-30,.cls-31,.cls-32,.cls-33,.cls-4,.cls-5,.cls-6,.cls-7,.cls-8,.cls-9{fill:none;stroke-linecap:round;stroke-linejoin:round;}.cls-1,.cls-10,.cls-11,.cls-12,.cls-13,.cls-14,.cls-15,.cls-16,.cls-17,.cls-18,.cls-19,.cls-2,.cls-20,.cls-21,.cls-22,.cls-23,.cls-24,.cls-25,.cls-26,.cls-27,.cls-28,.cls-29,.cls-30,.cls-31,.cls-32,.cls-33,.cls-4,.cls-5,.cls-6,.cls-7,.cls-8,.cls-9{stroke:#363a4d;}.cls-2{fill-rule:evenodd;}.cls-3{stroke:#7e39d7;}.cls-4{stroke-dasharray:7.83 4.89;}.cls-5{stroke-dasharray:7.84 4.9;}.cls-6{stroke-dasharray:4.89 3.06;}.cls-7{stroke-dasharray:7.84 4.9;}.cls-8{stroke-dasharray:4.95 3.09;}.cls-9{stroke-dasharray:7.84 4.9;}.cls-10{stroke-dasharray:8.63 5.39;}.cls-11{stroke-dasharray:7.84 4.9;}.cls-12{stroke-dasharray:7.63 4.77;}.cls-13{stroke-dasharray:6.26 3.91;}.cls-14{stroke-dasharray:5.6 3.5;}.cls-15{stroke-dasharray:8.43 5.27;}.cls-16{stroke-dasharray:5.59 3.5;}.cls-17{stroke-dasharray:8.43 5.27;}.cls-18{stroke-dasharray:6.38 3.99;}.cls-19{stroke-dasharray:4.08 2.55;}.cls-20{stroke-dasharray:6.17 3.86;}.cls-21{stroke-dasharray:6.17 3.86;}.cls-22{stroke-dasharray:6.38 3.99;}.cls-23{stroke-dasharray:4.08 2.55;}.cls-24{stroke-dasharray:0.38 0.24;}.cls-25{stroke-dasharray:9.33 5.83;}.cls-26{stroke-dasharray:4.92 3.08;}.cls-27{stroke-dasharray:4.92 3.08 4.92 3.08;}.cls-28{stroke-dasharray:4.18 2.61;}.cls-29{stroke-dasharray:4.18 2.61 4.18 2.61;}.cls-30{stroke-dasharray:6.33 3.95;}.cls-31{stroke-dasharray:3.87 2.42;}.cls-32{stroke-dasharray:8.06 5.04;}.cls-33{stroke-dasharray:8 5;}</style></defs><title>Asset 2</title><g id="Layer_2" data-name="Layer 2"><g id="E4"><g id="R"><g id="line"><g id="LWPOLYLINE"><polygon class="cls-1" points="417.5 128.68 417.5 198.69 417.49 198.69 407.29 192.34 407.29 122.33 417.49 128.69 417.5 128.68"/><line class="cls-1" x1="448.06" y1="181.04" x2="456.33" y2="186.19"/></g><path class="cls-1" d="M486.58,88.79,467,100.1,417.5,128.67v70L448.06,181l2.45-1.42h0l5.81,6.56,5.22-12.94h0l9.74-5.63,2.15-1.24,14.9-8.6v-70Zm-38.59,63a13,13,0,0,0,.19,5.16,26,26,0,0,1-5.93,2.32l-.42.11L439,162.43l-1.4,1.53,1-3.4.27-.9-.68-.07c-3.31-.33-5.56-2.09-6.35-5a11.44,11.44,0,0,1,0-5.66,22.21,22.21,0,0,1,1.57-4.63,37.45,37.45,0,0,1,8.51-11.5,37,37,0,0,1,6.81-5,21.73,21.73,0,0,1,8.51-2.93l1,0c3.44,0,6,1.56,7.1,4.34l-.08.05a35.36,35.36,0,0,0-4.36,2.93l0,0a39.16,39.16,0,0,0-8.39,9A26.78,26.78,0,0,0,448,151.75Zm30.25-10.27a23.94,23.94,0,0,1-2.17,4.17h0c-.63,1-1.35,2-2.17,3l-.62.81.25.59c.2.53.43,1,.64,1.55a16.28,16.28,0,0,0-2.89.2l-.34.06-.33.27a29.19,29.19,0,0,1-8.56,5.43c-3,1.13-5.63,1.29-7.61.53a5.19,5.19,0,0,1-2-1.36c-1.4-1.49-1.88-3.95-1.3-6.75.69-3.63,3.13-8,6.5-11.62,4.58-5,10.31-8.22,14.93-8.51,2.72-.15,4.85.79,5.95,2.68S479.64,138,478.24,141.48Z"/><polygon class="cls-1" points="488.35 87.75 488.35 87.78 486.58 88.8 466.99 100.11 417.5 128.68 417.49 128.69 407.29 122.33 414.87 117.95 447.62 99.03 456.38 93.97 462.49 90.44 475.96 82.67 478.15 81.39 479.99 82.53 481.06 83.2 488.35 87.75"/><path class="cls-1" d="M478.24,141.48a23.94,23.94,0,0,1-2.17,4.17h0c-.63,1-1.35,2-2.17,3l-.62.81.25.59c.2.53.43,1,.64,1.55a16.28,16.28,0,0,0-2.89.2l-.34.06-.33.27a29.19,29.19,0,0,1-8.56,5.43c-3,1.13-5.63,1.29-7.61.53a5.19,5.19,0,0,1-2-1.36c-1.4-1.49-1.88-3.95-1.3-6.75.69-3.63,3.13-8,6.5-11.62,4.58-5,10.31-8.22,14.93-8.51,2.72-.15,4.85.79,5.95,2.68S479.64,138,478.24,141.48Z"/><path class="cls-1" d="M465.33,129.19l-.08.05a35.36,35.36,0,0,0-4.36,2.93l0,0a39.16,39.16,0,0,0-8.39,9A26.78,26.78,0,0,0,448,151.75a13,13,0,0,0,.19,5.16,26,26,0,0,1-5.93,2.32l-.42.11L439,162.43l-1.4,1.53,1-3.4.27-.9-.68-.07c-3.31-.33-5.56-2.09-6.35-5a11.44,11.44,0,0,1,0-5.66,22.21,22.21,0,0,1,1.57-4.63,37.45,37.45,0,0,1,8.51-11.5,37,37,0,0,1,6.81-5,21.73,21.73,0,0,1,8.51-2.93l1,0C461.67,124.8,464.23,126.41,465.33,129.19Z"/><path class="cls-2" d="M399.16,292.65l-21,11.81a6.15,6.15,0,0,0-3,4.69v2.62c0,1.66,1.35,2.25,3,1.31l21-11.81a6.12,6.12,0,0,0,3-4.69V294C402.15,292.3,400.81,291.71,399.16,292.65Z"/><g id="LWPOLYLINE-2" data-name="LWPOLYLINE"><polygon class="cls-1" points="351.18 266.9 351.18 336.92 351.17 336.92 340.97 330.56 340.97 260.56 351.17 266.92 351.18 266.9"/><line class="cls-1" x1="381.74" y1="319.27" x2="390.01" y2="324.42"/></g><g id="LWPOLYLINE-3" data-name="LWPOLYLINE"><polygon class="cls-1" points="422.03 225.97 422.03 226 417.44 228.66 389.72 244.66 374.85 253.25 355.65 264.32 351.4 266.77 351.18 266.9 351.17 266.92 340.97 260.56 345.06 258.2 364.24 247.13 379.06 238.56 406.82 222.51 411.83 219.63 422.03 225.97"/></g><path class="cls-1" d="M374.85,253.24l-19.2,11.08-4.25,2.45-.22.13v70l30.56-17.64,2.45-1.42h0l5.81,6.56,5.22-12.94h0l.48-.28,4.48-2.59,6.93-4,9.14-5.27L422,296V226l-4.59,2.65-27.72,16m22.62,13-15,8.53m-36.44,30c0-3.7,7.42-9.86,11.13-12s11.12-4.59,11.12-.89v2.78L360.88,299Zm41.27.38a6.12,6.12,0,0,1-3,4.69l-21,11.81c-1.65.94-3,.35-3-1.31v-2.62a6.15,6.15,0,0,1,3-4.69l21-11.81c1.65-.94,3-.35,3,1.31ZM372,281.4c-3.07,1.79-5.56.74-5.56-2.33a11.77,11.77,0,0,1,5.56-8.79c3.07-1.78,5.56-.74,5.56,2.34a8.63,8.63,0,0,1-1,3.77A12.2,12.2,0,0,1,372,281.4Z"/><path class="cls-1" d="M366.45,279.07a11.77,11.77,0,0,1,5.56-8.79c3.07-1.78,5.56-.74,5.56,2.34a8.63,8.63,0,0,1-1,3.77,12.2,12.2,0,0,1-4.55,5C368.94,283.19,366.45,282.14,366.45,279.07Z"/><path class="cls-1" d="M383.13,286.08,360.88,299V296.2c0-3.7,7.42-9.86,11.13-12s11.12-4.59,11.12-.89Z"/><path class="cls-1" d="M402.15,294v2.62a6.12,6.12,0,0,1-3,4.69l-21,11.81c-1.65.94-3,.35-3-1.31v-2.62a6.15,6.15,0,0,1,3-4.69l21-11.81C400.81,291.71,402.15,292.3,402.15,294Z"/><line class="cls-1" x1="374.85" y1="253.24" x2="389.72" y2="244.65"/><line class="cls-1" x1="412.34" y1="257.68" x2="397.32" y2="266.21"/><path class="cls-1" d="M372,284.19c-3.71,2.15-11.13,8.31-11.13,12V299l22.25-12.9V283.3C383.13,279.6,375.72,282,372,284.19Zm0-13.91a11.77,11.77,0,0,0-5.56,8.79c0,3.07,2.49,4.12,5.56,2.33a12.2,12.2,0,0,0,4.55-5,8.63,8.63,0,0,0,1-3.77C377.57,269.54,375.08,268.5,372,270.28Z"/><path class="cls-2" d="M413.37,257.09l-1,.59m-15,8.53-7,4"/><path class="cls-2" d="M406.3,267.34l-16,9.1"/><g id="LWPOLYLINE-4" data-name="LWPOLYLINE"><polyline class="cls-1" points="191.64 309.88 191.64 319.74 201.84 326.08 201.85 326.08"/><line class="cls-1" x1="215.77" y1="318.08" x2="224.04" y2="323.23"/></g><g id="LWPOLYLINE-5" data-name="LWPOLYLINE"><polygon class="cls-1" points="342.11 146.13 280.63 181.6 265.76 190.19 265.75 190.19 263.9 191.26 230.18 210.72 201.85 227.07 201.84 227.09 191.64 220.74 219.57 204.6 255.15 184.06 270.03 175.47 331.91 139.75 342.11 146.13"/></g><path class="cls-1" d="M318.54,177.21a6.41,6.41,0,0,1-3.13,4.91c-1.73,1-3.14.38-3.14-1.35a6.46,6.46,0,0,1,3.14-4.92C317.14,174.87,318.54,175.47,318.54,177.21Z"/><path class="cls-1" d="M327.66,171.45a6.41,6.41,0,0,1-3.13,4.92c-1.73,1-3.14.38-3.14-1.35a6.44,6.44,0,0,1,3.14-4.92C326.26,169.12,327.66,169.72,327.66,171.45Z"/><path class="cls-1" d="M324.53,170.1c1.73-1,3.13-.38,3.13,1.35a6.41,6.41,0,0,1-3.13,4.92c-1.73,1-3.14.38-3.14-1.35A6.44,6.44,0,0,1,324.53,170.1Zm-9.12,5.75c1.73-1,3.13-.38,3.13,1.36a6.41,6.41,0,0,1-3.13,4.91c-1.73,1-3.14.38-3.14-1.35A6.46,6.46,0,0,1,315.41,175.85ZM329.17,240l-7.78,4.49L216.26,305.21V248.46l112.91-65.17Zm-48.53-58.43-14.88,8.58h0l-1.85,1.07-62,35.83v99l13.92-8,2.46-1.41,5.81,6.56,5.23-12.94,103-59.48,9.87-5.7v-99Z"/><polygon class="cls-1" points="329.17 183.29 329.17 240.04 321.39 244.53 216.26 305.21 216.26 248.47 329.17 183.29"/><line class="cls-1" x1="329.17" y1="212.35" x2="216.27" y2="277.53"/><line class="cls-1" x1="329.17" y1="226.49" x2="216.27" y2="291.66"/><line class="cls-1" x1="329.17" y1="198.21" x2="216.27" y2="263.39"/><polygon class="cls-1" points="329.17 183.29 329.17 240.04 321.39 244.53 216.26 305.21 216.26 248.47 329.17 183.29"/><line class="cls-1" x1="216.26" y1="305.23" x2="216.26" y2="248.49"/><line class="cls-1" x1="238.84" y1="292.2" x2="238.84" y2="235.45"/><line class="cls-1" x1="261.43" y1="279.16" x2="261.43" y2="222.41"/><line class="cls-1" x1="284.01" y1="266.12" x2="284.01" y2="209.37"/><line class="cls-1" x1="306.59" y1="253.08" x2="306.59" y2="196.34"/><line class="cls-1" x1="329.17" y1="240.05" x2="329.17" y2="183.3"/><path class="cls-2" d="M315.41,175.85a6.46,6.46,0,0,0-3.14,4.92c0,1.73,1.41,2.33,3.14,1.35a6.41,6.41,0,0,0,3.13-4.91C318.54,175.47,317.14,174.87,315.41,175.85Z"/><path class="cls-2" d="M324.53,170.1a6.44,6.44,0,0,0-3.14,4.92c0,1.73,1.41,2.33,3.14,1.35a6.41,6.41,0,0,0,3.13-4.92C327.66,169.72,326.26,169.12,324.53,170.1Z"/><path class="cls-2" d="M306.57,182.3l-12.47,7.08"/><path class="cls-2" d="M306.58,186l-18.53,10.53"/><path class="cls-2" d="M220.67,249c1.08-.61,2-.23,2,.84a4,4,0,0,1-2,3c-1.07.61-1.94.23-1.94-.84A4,4,0,0,1,220.67,249Z"/><path class="cls-2" d="M242.76,251c1.07-.61,1.94-.23,1.94.84a4,4,0,0,1-1.94,3c-1.08.61-1.95.23-1.95-.84A4,4,0,0,1,242.76,251Z"/><path class="cls-2" d="M288.17,252.88c1.08-.61,1.95-.24,1.95.83a4,4,0,0,1-1.95,3c-1.07.61-1.94.24-1.94-.84A4,4,0,0,1,288.17,252.88Z"/><path class="cls-2" d="M294.23,249.31c1.08-.61,1.95-.23,1.95.84a4,4,0,0,1-1.95,3c-1.07.61-1.94.23-1.94-.84A4,4,0,0,1,294.23,249.31Z"/><g id="line_l"><g id="LINE-2" data-name="LINE"><line class="cls-1" x1="674.76" y1="220.09" x2="674.76" y2="237.28"/><line class="cls-1" x1="674.76" y1="220.09" x2="674.76" y2="237.28"/><line class="cls-1" x1="674.76" y1="220.09" x2="674.76" y2="220.09"/><line class="cls-1" x1="674.76" y1="237.28" x2="674.76" y2="237.28"/></g><g id="LINE-3" data-name="LINE"><line class="cls-1" x1="674.76" y1="237.28" x2="510.99" y2="331.84"/><line class="cls-1" x1="674.76" y1="237.28" x2="510.99" y2="331.84"/><line class="cls-1" x1="674.76" y1="237.28" x2="674.76" y2="237.28"/><line class="cls-1" x1="510.99" y1="331.84" x2="510.99" y2="331.84"/></g><g id="LINE-4" data-name="LINE"><line class="cls-1" x1="510.99" y1="314.64" x2="510.99" y2="314.64"/></g><g id="LINE-5" data-name="LINE"><line class="cls-1" x1="510.99" y1="331.84" x2="510.99" y2="331.84"/></g><g id="LINE-6" data-name="LINE"><line class="cls-1" x1="476.88" y1="312.14" x2="476.88" y2="312.14"/><line class="cls-1" x1="510.99" y1="331.84" x2="510.99" y2="331.84"/></g><g id="LINE-7" data-name="LINE"><line class="cls-1" x1="510.99" y1="314.64" x2="674.76" y2="220.09"/></g><g id="LINE-8" data-name="LINE"><line class="cls-1" x1="510.99" y1="314.64" x2="674.76" y2="220.09"/></g><g id="LINE-9" data-name="LINE"><line class="cls-1" x1="510.99" y1="314.64" x2="674.76" y2="220.09"/></g><g id="LINE-10" data-name="LINE"><polyline class="cls-1" points="422.03 263.27 510.98 314.63 510.98 314.64 510.98 331.83 422.03 280.46"/></g><g id="LINE-11" data-name="LINE"><polyline class="cls-1" points="346.99 220.16 346.99 237.16 364.24 247.13 345.06 258.2 332.24 250.81 342.11 245.1 342.11 217.38"/><polygon class="cls-1" points="379.06 238.56 364.24 247.13 346.99 237.16 346.99 220.16 379.06 238.56"/></g><g id="LINE-12" data-name="LINE"><line class="cls-1" x1="510.98" y1="125.49" x2="488.35" y2="138.55"/><line class="cls-1" x1="407.29" y1="185.35" x2="346.99" y2="220.16"/></g><g id="LINE-13" data-name="LINE"><polyline class="cls-1" points="510.98 125.5 575.57 162.79 589.01 170.56 603.91 179.16 617.35 186.93 617.36 186.94 618.08 187.34 631.53 195.12 646.42 203.72 659.87 211.49 674.76 220.09"/></g><g id="LINE-14" data-name="LINE"><line class="cls-1" x1="476.88" y1="351.53" x2="313.11" y2="446.09"/><line class="cls-1" x1="476.88" y1="351.53" x2="313.11" y2="446.09"/><line class="cls-1" x1="476.88" y1="351.53" x2="476.88" y2="351.53"/><line class="cls-1" x1="313.11" y1="446.09" x2="313.11" y2="446.09"/></g><g id="LINE-15" data-name="LINE"><line class="cls-1" x1="313.11" y1="428.89" x2="149.33" y2="334.34"/><line class="cls-1" x1="313.11" y1="428.89" x2="149.33" y2="334.34"/><line class="cls-1" x1="313.11" y1="428.89" x2="313.11" y2="428.89"/><line class="cls-1" x1="149.33" y1="334.34" x2="149.33" y2="334.34"/></g><g id="LINE-16" data-name="LINE"><line class="cls-1" x1="149.33" y1="351.49" x2="313.11" y2="446.09"/><line class="cls-1" x1="149.33" y1="351.49" x2="313.11" y2="446.09"/><line class="cls-1" x1="149.33" y1="351.49" x2="149.33" y2="351.49"/><line class="cls-1" x1="313.11" y1="446.09" x2="313.11" y2="446.09"/></g><g id="LINE-17" data-name="LINE"><line class="cls-1" x1="313.11" y1="428.89" x2="313.11" y2="446.09"/></g><g id="LINE-18" data-name="LINE"><line class="cls-1" x1="313.11" y1="428.89" x2="476.88" y2="334.34"/></g><g id="LINE-19" data-name="LINE"><line class="cls-1" x1="313.11" y1="428.89" x2="476.88" y2="334.34"/></g><g id="LINE-20" data-name="LINE"><polyline class="cls-1" points="201.85 227.09 230.18 210.74 263.9 191.26 230.18 210.72 201.85 227.07 201.84 227.09 191.64 220.74"/><line class="cls-1" x1="191.64" y1="309.88" x2="191.64" y2="220.87"/><line class="cls-1" x1="191.64" y1="309.88" x2="149.33" y2="334.29"/></g><g id="LINE-21" data-name="LINE"><line class="cls-1" x1="476.88" y1="334.34" x2="476.88" y2="351.53"/></g><g id="LINE-22" data-name="LINE"><line class="cls-1" x1="149.33" y1="334.34" x2="149.33" y2="351.49"/></g><g id="LINE-23" data-name="LINE"><polyline class="cls-1" points="407.29 163.13 342.11 200.75 342.11 183.56 407.29 145.94"/><line class="cls-1" x1="417.5" y1="140.03" x2="417.5" y2="157.22"/></g><g id="LINE-24" data-name="LINE"><polygon class="cls-1" points="270.03 175.47 255.15 184.06 158.52 128.16 158.52 111.03 270.03 175.47"/></g><g id="LINE-25" data-name="LINE"><polyline class="cls-1" points="225.74 61.73 264.11 83.88 264.11 101.06 264.03 101.02 210.87 70.33"/><polyline class="cls-1" points="158.52 100.63 193.25 80.53 210.87 70.33"/><line class="cls-1" x1="313.05" y1="11.19" x2="296.52" y2="20.76"/></g><g id="LINE-26" data-name="LINE"><path class="cls-1" d="M296.52,20.76,277,9.45h0L264.1,2,193.25,43l.33.19,32.16,18.57,38.37,22.15L335,43ZM285.74,56.3,266.13,45q-3.51-2-5.41-3.3a7.34,7.34,0,0,1,0,1.26c0,.47-.17,2-.45,4.67L255,47.12l.33-2.5.83-6.28,3.74-2.15,5,2.89,25.36,14.64Z"/><path class="cls-1" d="M290.22,53.72l-4.48,2.58L266.13,45q-3.51-2-5.41-3.3a7.34,7.34,0,0,1,0,1.26c0,.47-.17,2-.45,4.67L255,47.12l.33-2.5.83-6.28,3.74-2.15,5,2.89Z"/><line class="cls-1" x1="442.61" y1="86.12" x2="437.43" y2="83.13"/><line class="cls-1" x1="373.83" y1="46.34" x2="313.05" y2="11.19"/><line class="cls-1" x1="456.38" y1="93.97" x2="442.61" y2="86.12"/></g><g id="LINE-27" data-name="LINE"><line class="cls-1" x1="476.88" y1="334.33" x2="416.27" y2="299.33"/></g><g id="LWPOLYLINE-6" data-name="LWPOLYLINE"><line class="cls-1" x1="525.16" y1="239.35" x2="525.16" y2="255.72"/></g><g id="LWPOLYLINE-7" data-name="LWPOLYLINE"><polyline class="cls-1" points="539.33 264.7 553.5 272.89 581.85 256.53 581.85 239.35 553.5 222.98 525.16 239.35 553.5 255.72 581.85 239.35"/></g><g id="LWPOLYLINE-8" data-name="LWPOLYLINE"><line class="cls-1" x1="553.5" y1="255.72" x2="553.5" y2="272.89"/></g><g id="LWPOLYLINE-9" data-name="LWPOLYLINE"><polyline class="cls-1" points="482.65 263.89 482.65 281.07 510.99 297.44 539.33 281.07 539.33 263.9 510.99 247.53 482.65 263.89 510.99 280.26 539.33 263.9"/></g><g id="LWPOLYLINE-10" data-name="LWPOLYLINE"><line class="cls-1" x1="510.99" y1="280.26" x2="510.99" y2="297.44"/></g><g id="LWPOLYLINE-11" data-name="LWPOLYLINE"><polygon class="cls-1" points="100.07 220.96 71.35 237.5 43.01 221.13 57.19 212.95 57.19 212.94 63.37 209.37 71.35 204.77 100.07 220.96"/></g><g id="LWPOLYLINE-12" data-name="LWPOLYLINE"><polygon class="cls-1" points="57.18 245.69 28.84 262.06 0.5 245.69 14.67 237.5 28.13 229.72 28.14 229.72 28.14 229.72 28.84 229.31 29.54 229.72 43.01 237.5 57.18 245.69"/><polygon class="cls-1" points="28.84 262.05 28.84 279.22 0.5 262.85 0.5 245.68 28.84 262.05"/></g><g id="LWPOLYLINE-13" data-name="LWPOLYLINE"><polygon class="cls-1" points="100.08 220.96 100.08 238.1 71.42 254.64 71.35 254.6 71.35 237.5 100.07 220.96 100.08 220.96"/><polygon class="cls-1" points="57.18 245.68 57.18 262.86 28.84 279.22 28.84 262.05 57.18 245.68"/><line class="cls-1" x1="71.42" y1="254.64" x2="71.35" y2="254.69"/></g><g id="LWPOLYLINE-14" data-name="LWPOLYLINE"><polygon class="cls-1" points="28.84 212.96 28.84 229.31 28.14 229.72 28.14 229.72 28.13 229.72 0.5 213.88 0.5 196.59 28.84 212.96"/></g><g id="LWPOLYLINE-15" data-name="LWPOLYLINE"><polygon class="cls-1" points="57.19 196.59 28.84 212.96 0.5 196.59 21.15 184.66 28.85 180.22 36.53 184.66 57.19 196.59"/><polygon class="cls-1" points="71.35 237.5 71.35 254.6 57.18 246.49 57.18 245.68 43.01 237.5 43.01 221.13 71.35 237.5"/><polygon class="cls-1" points="57.19 196.59 57.19 212.96 43.01 221.13 43.01 221.94 29.54 229.72 28.84 229.31 28.84 212.96 57.19 196.59"/></g><g id="LINE-28" data-name="LINE"><line class="cls-1" x1="674.76" y1="220.09" x2="674.76" y2="237.28"/><line class="cls-1" x1="674.76" y1="220.09" x2="674.76" y2="237.28"/><line class="cls-1" x1="674.76" y1="220.09" x2="674.76" y2="220.09"/><line class="cls-1" x1="674.76" y1="237.28" x2="674.76" y2="237.28"/></g><g id="LINE-29" data-name="LINE"><line class="cls-1" x1="674.76" y1="237.28" x2="510.99" y2="331.84"/><line class="cls-1" x1="674.76" y1="237.28" x2="510.99" y2="331.84"/><line class="cls-1" x1="674.76" y1="237.28" x2="674.76" y2="237.28"/><line class="cls-1" x1="510.99" y1="331.84" x2="510.99" y2="331.84"/></g><g id="LINE-30" data-name="LINE"><line class="cls-1" x1="510.99" y1="314.64" x2="510.99" y2="314.64"/></g><g id="LINE-31" data-name="LINE"><line class="cls-1" x1="510.99" y1="331.84" x2="510.99" y2="331.84"/></g><g id="LINE-32" data-name="LINE"><line class="cls-1" x1="476.88" y1="312.14" x2="476.88" y2="312.14"/><line class="cls-1" x1="510.99" y1="331.84" x2="510.99" y2="331.84"/></g><g id="LINE-33" data-name="LINE"><line class="cls-1" x1="510.99" y1="314.64" x2="674.76" y2="220.09"/></g><g id="LINE-34" data-name="LINE"><line class="cls-1" x1="510.99" y1="314.64" x2="674.76" y2="220.09"/></g><g id="LINE-35" data-name="LINE"><line class="cls-1" x1="510.99" y1="314.64" x2="674.76" y2="220.09"/></g><g id="LINE-36" data-name="LINE"><polyline class="cls-1" points="422.03 263.27 510.98 314.63 510.98 314.64 510.98 331.83 422.03 280.46"/></g><g id="LINE-37" data-name="LINE"><polyline class="cls-1" points="346.99 220.16 346.99 237.16 364.24 247.13 345.06 258.2 332.24 250.81 342.11 245.1 342.11 217.38"/><polygon class="cls-1" points="379.06 238.56 364.24 247.13 346.99 237.16 346.99 220.16 379.06 238.56"/></g><g id="LINE-38" data-name="LINE"><line class="cls-1" x1="510.98" y1="125.49" x2="488.35" y2="138.55"/><line class="cls-1" x1="407.29" y1="185.35" x2="346.99" y2="220.16"/></g><g id="LINE-39" data-name="LINE"><polyline class="cls-1" points="510.98 125.5 575.57 162.79 589.01 170.56 603.91 179.16 617.35 186.93 617.36 186.94 618.08 187.34 631.53 195.12 646.42 203.72 659.87 211.49 674.76 220.09"/></g><g id="LINE-40" data-name="LINE"><line class="cls-1" x1="476.88" y1="351.53" x2="313.11" y2="446.09"/><line class="cls-1" x1="476.88" y1="351.53" x2="313.11" y2="446.09"/><line class="cls-1" x1="476.88" y1="351.53" x2="476.88" y2="351.53"/><line class="cls-1" x1="313.11" y1="446.09" x2="313.11" y2="446.09"/></g><g id="LINE-41" data-name="LINE"><line class="cls-1" x1="313.11" y1="428.89" x2="149.33" y2="334.34"/><line class="cls-1" x1="313.11" y1="428.89" x2="149.33" y2="334.34"/><line class="cls-1" x1="313.11" y1="428.89" x2="313.11" y2="428.89"/><line class="cls-1" x1="149.33" y1="334.34" x2="149.33" y2="334.34"/></g><g id="LINE-42" data-name="LINE"><line class="cls-1" x1="149.33" y1="351.49" x2="313.11" y2="446.09"/><line class="cls-1" x1="149.33" y1="351.49" x2="313.11" y2="446.09"/><line class="cls-1" x1="149.33" y1="351.49" x2="149.33" y2="351.49"/><line class="cls-1" x1="313.11" y1="446.09" x2="313.11" y2="446.09"/></g><g id="LINE-43" data-name="LINE"><line class="cls-1" x1="313.11" y1="428.89" x2="313.11" y2="446.09"/></g><g id="LINE-44" data-name="LINE"><line class="cls-1" x1="313.11" y1="428.89" x2="476.88" y2="334.34"/></g><g id="LINE-45" data-name="LINE"><line class="cls-1" x1="313.11" y1="428.89" x2="476.88" y2="334.34"/></g><g id="LINE-46" data-name="LINE"><polyline class="cls-1" points="201.85 227.09 230.18 210.74 263.9 191.26 230.18 210.72 201.85 227.07 201.84 227.09 191.64 220.74"/><line class="cls-1" x1="191.64" y1="309.88" x2="191.64" y2="220.87"/><line class="cls-1" x1="191.64" y1="309.88" x2="149.33" y2="334.29"/></g><g id="LINE-47" data-name="LINE"><line class="cls-1" x1="476.88" y1="334.34" x2="476.88" y2="351.53"/></g><g id="LINE-48" data-name="LINE"><line class="cls-1" x1="149.33" y1="334.34" x2="149.33" y2="351.49"/></g><g id="LINE-49" data-name="LINE"><polyline class="cls-1" points="407.29 163.13 342.11 200.75 342.11 183.56 407.29 145.94"/><line class="cls-1" x1="417.5" y1="140.03" x2="417.5" y2="157.22"/></g><g id="LINE-50" data-name="LINE"><polygon class="cls-1" points="270.03 175.47 255.15 184.06 158.52 128.16 158.52 111.03 270.03 175.47"/></g><g id="LINE-51" data-name="LINE"><polyline class="cls-1" points="225.74 61.73 264.11 83.88 264.11 101.06 264.03 101.02 210.87 70.33"/><polyline class="cls-1" points="158.52 100.63 193.25 80.53 210.87 70.33"/><line class="cls-1" x1="313.05" y1="11.19" x2="296.52" y2="20.76"/></g><g id="LINE-52" data-name="LINE"><path class="cls-1" d="M296.52,20.76,277,9.45h0L264.1,2,193.25,43l.33.19,32.16,18.57,38.37,22.15L335,43ZM285.74,56.3,266.13,45q-3.51-2-5.41-3.3a7.34,7.34,0,0,1,0,1.26c0,.47-.17,2-.45,4.67L255,47.12l.33-2.5.83-6.28,3.74-2.15,5,2.89,25.36,14.64Z"/><path class="cls-1" d="M290.22,53.72l-4.48,2.58L266.13,45q-3.51-2-5.41-3.3a7.34,7.34,0,0,1,0,1.26c0,.47-.17,2-.45,4.67L255,47.12l.33-2.5.83-6.28,3.74-2.15,5,2.89Z"/><line class="cls-1" x1="442.61" y1="86.12" x2="437.43" y2="83.13"/><line class="cls-1" x1="373.83" y1="46.34" x2="313.05" y2="11.19"/><line class="cls-1" x1="456.38" y1="93.97" x2="442.61" y2="86.12"/></g><g id="LINE-53" data-name="LINE"><line class="cls-1" x1="476.88" y1="334.33" x2="416.27" y2="299.33"/></g><g id="LWPOLYLINE-16" data-name="LWPOLYLINE"><line class="cls-1" x1="525.16" y1="239.35" x2="525.16" y2="255.72"/></g><g id="LWPOLYLINE-17" data-name="LWPOLYLINE"><polyline class="cls-1" points="539.33 264.7 553.5 272.89 581.85 256.53 581.85 239.35 553.5 222.98 525.16 239.35 553.5 255.72 581.85 239.35"/></g><g id="LWPOLYLINE-18" data-name="LWPOLYLINE"><line class="cls-1" x1="553.5" y1="255.72" x2="553.5" y2="272.89"/></g><g id="LWPOLYLINE-19" data-name="LWPOLYLINE"><polyline class="cls-1" points="482.65 263.89 482.65 281.07 510.99 297.44 539.33 281.07 539.33 263.9 510.99 247.53 482.65 263.89 510.99 280.26 539.33 263.9"/></g><g id="LWPOLYLINE-20" data-name="LWPOLYLINE"><line class="cls-1" x1="510.99" y1="280.26" x2="510.99" y2="297.44"/></g><g id="LWPOLYLINE-21" data-name="LWPOLYLINE"><polygon class="cls-1" points="100.07 220.96 71.35 237.5 43.01 221.13 57.19 212.95 57.19 212.94 63.37 209.37 71.35 204.77 100.07 220.96"/></g><g id="LWPOLYLINE-22" data-name="LWPOLYLINE"><polygon class="cls-1" points="57.18 245.69 28.84 262.06 0.5 245.69 14.67 237.5 28.13 229.72 28.14 229.72 28.14 229.72 28.84 229.31 29.54 229.72 43.01 237.5 57.18 245.69"/><polygon class="cls-1" points="28.84 262.05 28.84 279.22 0.5 262.85 0.5 245.68 28.84 262.05"/></g><g id="LWPOLYLINE-23" data-name="LWPOLYLINE"><polygon class="cls-1" points="100.08 220.96 100.08 238.1 71.42 254.64 71.35 254.6 71.35 237.5 100.07 220.96 100.08 220.96"/><polygon class="cls-1" points="57.18 245.68 57.18 262.86 28.84 279.22 28.84 262.05 57.18 245.68"/><line class="cls-1" x1="71.42" y1="254.64" x2="71.35" y2="254.69"/></g><g id="LWPOLYLINE-24" data-name="LWPOLYLINE"><polygon class="cls-1" points="28.84 212.96 28.84 229.31 28.14 229.72 28.14 229.72 28.13 229.72 0.5 213.88 0.5 196.59 28.84 212.96"/></g><g id="LWPOLYLINE-25" data-name="LWPOLYLINE"><polygon class="cls-1" points="57.19 196.59 28.84 212.96 0.5 196.59 21.15 184.66 28.85 180.22 36.53 184.66 57.19 196.59"/><polygon class="cls-1" points="71.35 237.5 71.35 254.6 57.18 246.49 57.18 245.68 43.01 237.5 43.01 221.13 71.35 237.5"/><polygon class="cls-1" points="57.19 196.59 57.19 212.96 43.01 221.13 43.01 221.94 29.54 229.72 28.84 229.31 28.84 212.96 57.19 196.59"/></g></g><g id="LWPOLYLINE-26" data-name="LWPOLYLINE"><polyline class="cls-1" points="193.25 43.16 193.25 60.16 210.87 70.33"/><polyline class="cls-1" points="264.11 101.06 317.13 70.44 334.95 60.15 334.95 60.13 334.96 60.13"/></g><g id="LWPOLYLINE-27" data-name="LWPOLYLINE"><line class="cls-1" x1="206.17" y1="50.34" x2="277.02" y2="9.42"/></g><g id="LINE-54" data-name="LINE"><line class="cls-1" x1="334.96" y1="42.95" x2="334.96" y2="60.14"/></g><g id="LINE-55" data-name="LINE"><line class="cls-1" x1="116.17" y1="207.78" x2="116.18" y2="224.98"/></g><g id="LINE-56" data-name="LINE"><line class="cls-1" x1="45.32" y1="166.89" x2="45.32" y2="184.07"/></g><g id="LWPOLYLINE-28" data-name="LWPOLYLINE"><polyline class="cls-1" points="187.03 184.05 116.18 224.98 45.32 184.07"/></g><g id="LWPOLYLINE-29" data-name="LWPOLYLINE"><polyline class="cls-1" points="141.5 140.59 187.02 166.88 116.17 207.79 45.32 166.88 77.46 148.31"/></g><g id="LINE-57" data-name="LINE"><line class="cls-1" x1="187.03" y1="166.87" x2="187.03" y2="184.05"/></g><g id="LWPOLYLINE-30" data-name="LWPOLYLINE"><polygon class="cls-1" points="87.67 101.67 87.67 171.69 87.66 171.69 77.46 165.34 77.46 95.33 87.66 101.69 87.67 101.67"/><line class="cls-1" x1="118.23" y1="154.04" x2="126.5" y2="159.19"/></g><path class="cls-1" d="M156.75,61.79,137.16,73.1,87.67,101.67v70L118.23,154l2.45-1.42h0l5.81,6.56,5.22-12.94h0l9.74-5.63,0,0,2.12-1.22,14.9-8.6v-70Z"/><polygon class="cls-1" points="158.52 60.74 158.52 60.77 156.75 61.8 137.16 73.11 87.67 101.67 87.66 101.69 77.46 95.33 85.04 90.95 117.79 72.03 126.55 66.97 132.66 63.45 146.13 55.66 148.32 54.4 150.16 55.53 151.23 56.2 158.52 60.74"/><path class="cls-1" d="M125.59,130.14a4.28,4.28,0,0,0,.26.42A4.28,4.28,0,0,1,125.59,130.14Zm0-6.77a.63.63,0,0,0,.09-.25Z"/><path class="cls-1" d="M134.11,93.43l-1.53.88V97a5.14,5.14,0,0,1-2.45,3.89c-1.36.79-2.46.32-2.46-1V97.16l-12.86,7.45v2.67a5.11,5.11,0,0,1-2.46,3.89c-1.36.78-2.46.32-2.46-1v-2.68l-1.53.89c-2.42,1.4-4.39,4.51-4.39,6.94v24.55c0,2.43,2,3.26,4.39,1.86l18.07-10.46-.12-.1a4,4,0,0,1-.32-.38l-.14-.19a4.28,4.28,0,0,1-.26-.42l-.09-.2a4.2,4.2,0,0,1-.22-.53c0-.08,0-.16-.08-.25l-.06-.24-.06-.26a1.55,1.55,0,0,1,0-.21c0-.1,0-.2-.05-.31s0-.11,0-.17,0-.32,0-.48v-.1a2.44,2.44,0,0,1,0-.27c0-.15,0-.3,0-.45s0-.14,0-.21l0-.29a1.94,1.94,0,0,1,0-.24c0-.09,0-.18,0-.26l0-.23c0-.09,0-.18.05-.26s0-.16,0-.24.07-.33.11-.49a4925265389440.33,4925265389440.33,0,0,0,.14-.5,1.66,1.66,0,0,1,.06-.21c0-.12.07-.24.11-.36l-.06.09a.77.77,0,0,1-.22.19.29.29,0,0,1-.17.06l-3.89.2-3.89,4.31a.48.48,0,0,1-.39.19c-.11,0-.17-.12-.14-.27l.74-4.78-3.15-1.25c-.1,0-.14-.16-.09-.32a.77.77,0,0,1,.29-.42l4.35-3.15,2-5.08a.82.82,0,0,1,.33-.4c.14-.08.27-.07.33,0l1.94,2.82,4.36-1.88c.14-.06.25,0,.29.07a.48.48,0,0,1-.09.43l-3.15,4.9.74,3.92a.19.19,0,0,1,0,.08v0l.12-.35a17.83,17.83,0,0,1,1-2.24c.06-.11.11-.22.17-.32l.15-.26c0-.08.09-.15.14-.23.2-.34.41-.68.64-1l.23-.33a21.32,21.32,0,0,1,1.62-2l.24-.26.48-.49a3.34,3.34,0,0,1,.33-.32c.25-.25.52-.48.78-.71l.23-.19a3.65,3.65,0,0,1,.31-.24l.19-.16.75-.53a2.92,2.92,0,0,1,.32-.21l.18-.12.37-.22a12.89,12.89,0,0,1,1.44-.72l.21-.08.2-.08.41-.14.5-.14a.53.53,0,0,1,.12,0,2.74,2.74,0,0,1,.39-.09l.11,0a3.47,3.47,0,0,1,.45-.06l.54,0h.19V95.29C138.51,92.86,136.54,92,134.11,93.43Zm4.3,5.73a.77.77,0,0,1-.36.58l-.27.16L104.7,119l-.27.16c-.2.12-.37,0-.37-.16"/><path class="cls-1" d="M114.81,101.65v5.63a5.11,5.11,0,0,1-2.46,3.89c-1.36.78-2.46.32-2.46-1v-5.64a5.09,5.09,0,0,1,2.46-3.88,2,2,0,0,1,1.74-.29A1.33,1.33,0,0,1,114.81,101.65Z"/><path class="cls-1" d="M132.58,91.35V97a5.14,5.14,0,0,1-2.45,3.89c-1.36.79-2.46.32-2.46-1V94.2a5.12,5.12,0,0,1,2.46-3.89,2,2,0,0,1,1.74-.28A1.32,1.32,0,0,1,132.58,91.35Z"/><path class="cls-1" d="M125.67,123.12l-.09.25A.63.63,0,0,0,125.67,123.12Z"/><path class="cls-1" d="M138.51,111.46h-.19l-.54,0a3.47,3.47,0,0,0-.45.06l-.11,0a2.74,2.74,0,0,0-.39.09.53.53,0,0,0-.12,0l-.5.14-.41.14-.2.08-.21.08a12.89,12.89,0,0,0-1.44.72l-.37.22-.18.12a2.92,2.92,0,0,0-.32.21l-.75.53-.19.16a3.65,3.65,0,0,0-.31.24l-.23.19c-.26.23-.53.46-.78.71a3.34,3.34,0,0,0-.33.32l-.48.49-.24.26a21.32,21.32,0,0,0-1.62,2l-.23.33c-.23.33-.44.67-.64,1,0,.08-.1.15-.14.23l-.15.26c-.06.1-.11.21-.17.32a17.83,17.83,0,0,0-1,2.24l-.12.35v0h0a.63.63,0,0,1-.09.25h0c0,.13-.08.25-.11.37a1.66,1.66,0,0,0-.06.21,4925265389440.33,4925265389440.33,0,0,1-.14.5c0,.16-.07.33-.11.49s0,.16,0,.24,0,.17-.05.26l0,.23c0,.08,0,.17,0,.26a1.94,1.94,0,0,0,0,.24l0,.29c0,.07,0,.14,0,.21s0,.3,0,.45a2.44,2.44,0,0,0,0,.27v.1c0,.16,0,.33,0,.48s0,.12,0,.17,0,.21.05.31a1.55,1.55,0,0,0,0,.21l.06.26.06.24c0,.09,0,.17.08.25a4.2,4.2,0,0,0,.22.53l.09.2a4.28,4.28,0,0,0,.26.42l.14.19a4,4,0,0,0,.32.38l.12.1c1.67,1.58,4.47,1.47,7.52-.3,5-2.88,9-9.27,9-14.26C143,113.47,141.27,111.48,138.51,111.46Zm1,3.74-6,10.87a.74.74,0,0,1-.28.3.32.32,0,0,1-.22.06l-4.58-.72"/><path class="cls-1" d="M128.45,125.71l4.58.72a.32.32,0,0,0,.22-.06.74.74,0,0,0,.28-.3l6-10.87"/><path class="cls-1" d="M125.58,123.37a.63.63,0,0,0,.09-.25Z"/><path class="cls-1" d="M128.07,114.21l-3.15,4.9.74,3.92a.19.19,0,0,1,0,.08h0l-.09.25h0l-.06.1a.77.77,0,0,1-.22.19.29.29,0,0,1-.17.06l-3.89.2-3.89,4.31a.48.48,0,0,1-.39.19c-.11,0-.17-.12-.14-.27l.74-4.78-3.15-1.25c-.1,0-.14-.16-.09-.32a.77.77,0,0,1,.29-.42l4.35-3.15,2-5.08a.82.82,0,0,1,.33-.4c.14-.08.27-.07.33,0l1.94,2.82,4.36-1.88c.14-.06.25,0,.29.07A.48.48,0,0,1,128.07,114.21Z"/><path class="cls-1" d="M138.41,99.16a.77.77,0,0,1-.36.58l-.27.16L104.7,119l-.27.16"/><g id="LWPOLYLINE-31" data-name="LWPOLYLINE"><polygon class="cls-3" points="417.5 128.68 417.5 198.69 417.49 198.69 407.29 192.34 407.29 122.33 417.49 128.69 417.5 128.68"/><line class="cls-3" x1="448.06" y1="181.04" x2="456.33" y2="186.19"/></g><path class="cls-3" d="M486.58,88.79,467,100.1,417.5,128.67v70L448.06,181l2.45-1.42h0l5.81,6.56,5.22-12.94h0l9.74-5.63,2.15-1.24,14.9-8.6v-70Zm-38.59,63a13,13,0,0,0,.19,5.16,26,26,0,0,1-5.93,2.32l-.42.11L439,162.43l-1.4,1.53,1-3.4.27-.9-.68-.07c-3.31-.33-5.56-2.09-6.35-5a11.44,11.44,0,0,1,0-5.66,22.21,22.21,0,0,1,1.57-4.63,37.45,37.45,0,0,1,8.51-11.5,37,37,0,0,1,6.81-5,21.73,21.73,0,0,1,8.51-2.93l1,0c3.44,0,6,1.56,7.1,4.34l-.08.05a35.36,35.36,0,0,0-4.36,2.93l0,0a39.16,39.16,0,0,0-8.39,9A26.78,26.78,0,0,0,448,151.75Zm30.25-10.27a23.94,23.94,0,0,1-2.17,4.17h0c-.63,1-1.35,2-2.17,3l-.62.81.25.59c.2.53.43,1,.64,1.55a16.28,16.28,0,0,0-2.89.2l-.34.06-.33.27a29.19,29.19,0,0,1-8.56,5.43c-3,1.13-5.63,1.29-7.61.53a5.19,5.19,0,0,1-2-1.36c-1.4-1.49-1.88-3.95-1.3-6.75.69-3.63,3.13-8,6.5-11.62,4.58-5,10.31-8.22,14.93-8.51,2.72-.15,4.85.79,5.95,2.68S479.64,138,478.24,141.48Z"/><polygon class="cls-3" points="488.35 87.75 488.35 87.78 486.58 88.8 466.99 100.11 417.5 128.68 417.49 128.69 407.29 122.33 414.87 117.95 447.62 99.03 456.38 93.97 462.49 90.44 475.96 82.67 478.15 81.39 479.99 82.53 481.06 83.2 488.35 87.75"/><path class="cls-3" d="M478.24,141.48a23.94,23.94,0,0,1-2.17,4.17h0c-.63,1-1.35,2-2.17,3l-.62.81.25.59c.2.53.43,1,.64,1.55a16.28,16.28,0,0,0-2.89.2l-.34.06-.33.27a29.19,29.19,0,0,1-8.56,5.43c-3,1.13-5.63,1.29-7.61.53a5.19,5.19,0,0,1-2-1.36c-1.4-1.49-1.88-3.95-1.3-6.75.69-3.63,3.13-8,6.5-11.62,4.58-5,10.31-8.22,14.93-8.51,2.72-.15,4.85.79,5.95,2.68S479.64,138,478.24,141.48Z"/><path class="cls-3" d="M465.33,129.19l-.08.05a35.36,35.36,0,0,0-4.36,2.93l0,0a39.16,39.16,0,0,0-8.39,9A26.78,26.78,0,0,0,448,151.75a13,13,0,0,0,.19,5.16,26,26,0,0,1-5.93,2.32l-.42.11L439,162.43l-1.4,1.53,1-3.4.27-.9-.68-.07c-3.31-.33-5.56-2.09-6.35-5a11.44,11.44,0,0,1,0-5.66,22.21,22.21,0,0,1,1.57-4.63,37.45,37.45,0,0,1,8.51-11.5,37,37,0,0,1,6.81-5,21.73,21.73,0,0,1,8.51-2.93l1,0C461.67,124.8,464.23,126.41,465.33,129.19Z"/><path class="cls-3" d="M399.16,292.65l-21,11.81a6.15,6.15,0,0,0-3,4.69v2.62c0,1.66,1.35,2.25,3,1.31l21-11.81a6.12,6.12,0,0,0,3-4.69V294C402.15,292.3,400.81,291.71,399.16,292.65Z"/><g id="LWPOLYLINE-32" data-name="LWPOLYLINE"><polygon class="cls-3" points="351.18 266.9 351.18 336.92 351.17 336.92 340.97 330.56 340.97 260.56 351.17 266.92 351.18 266.9"/><line class="cls-3" x1="381.74" y1="319.27" x2="390.01" y2="324.42"/></g><g id="LWPOLYLINE-33" data-name="LWPOLYLINE"><polygon class="cls-3" points="422.03 225.97 422.03 226 417.44 228.66 389.72 244.66 374.85 253.25 355.65 264.32 351.4 266.77 351.18 266.9 351.17 266.92 340.97 260.56 345.06 258.2 364.24 247.13 379.06 238.56 406.82 222.51 411.83 219.63 422.03 225.97"/></g><path class="cls-3" d="M374.85,253.24l-19.2,11.08-4.25,2.45-.22.13v70l30.56-17.64,2.45-1.42h0l5.81,6.56,5.22-12.94h0l.48-.28,4.48-2.59,6.93-4,9.14-5.27L422,296V226l-4.59,2.65-27.72,16m22.62,13-15,8.53m-36.44,30c0-3.7,7.42-9.86,11.13-12s11.12-4.59,11.12-.89v2.78L360.88,299Zm41.27.38a6.12,6.12,0,0,1-3,4.69l-21,11.81c-1.65.94-3,.35-3-1.31v-2.62a6.15,6.15,0,0,1,3-4.69l21-11.81c1.65-.94,3-.35,3,1.31ZM372,281.4c-3.07,1.79-5.56.74-5.56-2.33a11.77,11.77,0,0,1,5.56-8.79c3.07-1.78,5.56-.74,5.56,2.34a8.63,8.63,0,0,1-1,3.77A12.2,12.2,0,0,1,372,281.4Z"/><path class="cls-3" d="M366.45,279.07a11.77,11.77,0,0,1,5.56-8.79c3.07-1.78,5.56-.74,5.56,2.34a8.63,8.63,0,0,1-1,3.77,12.2,12.2,0,0,1-4.55,5C368.94,283.19,366.45,282.14,366.45,279.07Z"/><path class="cls-3" d="M383.13,286.08,360.88,299V296.2c0-3.7,7.42-9.86,11.13-12s11.12-4.59,11.12-.89Z"/><path class="cls-3" d="M402.15,294v2.62a6.12,6.12,0,0,1-3,4.69l-21,11.81c-1.65.94-3,.35-3-1.31v-2.62a6.15,6.15,0,0,1,3-4.69l21-11.81C400.81,291.71,402.15,292.3,402.15,294Z"/><line class="cls-3" x1="374.85" y1="253.24" x2="389.72" y2="244.65"/><line class="cls-3" x1="412.34" y1="257.68" x2="397.32" y2="266.21"/><path class="cls-3" d="M372,284.19c-3.71,2.15-11.13,8.31-11.13,12V299l22.25-12.9V283.3C383.13,279.6,375.72,282,372,284.19Zm0-13.91a11.77,11.77,0,0,0-5.56,8.79c0,3.07,2.49,4.12,5.56,2.33a12.2,12.2,0,0,0,4.55-5,8.63,8.63,0,0,0,1-3.77C377.57,269.54,375.08,268.5,372,270.28Z"/><path class="cls-3" d="M413.37,257.09l-1,.59m-15,8.53-7,4"/><path class="cls-3" d="M406.3,267.34l-16,9.1"/><g id="LWPOLYLINE-34" data-name="LWPOLYLINE"><polyline class="cls-3" points="191.64 309.88 191.64 319.74 201.84 326.08 201.85 326.08"/><line class="cls-3" x1="215.77" y1="318.08" x2="224.04" y2="323.23"/></g><g id="LWPOLYLINE-35" data-name="LWPOLYLINE"><polygon class="cls-3" points="342.11 146.13 280.63 181.6 265.76 190.19 265.75 190.19 263.9 191.26 230.18 210.72 201.85 227.07 201.84 227.09 191.64 220.74 219.57 204.6 255.15 184.06 270.03 175.47 331.91 139.75 342.11 146.13"/></g><path class="cls-3" d="M318.54,177.21a6.41,6.41,0,0,1-3.13,4.91c-1.73,1-3.14.38-3.14-1.35a6.46,6.46,0,0,1,3.14-4.92C317.14,174.87,318.54,175.47,318.54,177.21Z"/><path class="cls-3" d="M327.66,171.45a6.41,6.41,0,0,1-3.13,4.92c-1.73,1-3.14.38-3.14-1.35a6.44,6.44,0,0,1,3.14-4.92C326.26,169.12,327.66,169.72,327.66,171.45Z"/><path class="cls-3" d="M324.53,170.1c1.73-1,3.13-.38,3.13,1.35a6.41,6.41,0,0,1-3.13,4.92c-1.73,1-3.14.38-3.14-1.35A6.44,6.44,0,0,1,324.53,170.1Zm-9.12,5.75c1.73-1,3.13-.38,3.13,1.36a6.41,6.41,0,0,1-3.13,4.91c-1.73,1-3.14.38-3.14-1.35A6.46,6.46,0,0,1,315.41,175.85ZM329.17,240l-7.78,4.49L216.26,305.21V248.46l112.91-65.17Zm-48.53-58.43-14.88,8.58h0l-1.85,1.07-62,35.83v99l13.92-8,2.46-1.41,5.81,6.56,5.23-12.94,103-59.48,9.87-5.7v-99Z"/><polygon class="cls-3" points="329.17 183.29 329.17 240.04 321.39 244.53 216.26 305.21 216.26 248.47 329.17 183.29"/><line class="cls-3" x1="329.17" y1="212.35" x2="216.27" y2="277.53"/><line class="cls-3" x1="329.17" y1="226.49" x2="216.27" y2="291.66"/><line class="cls-3" x1="329.17" y1="198.21" x2="216.27" y2="263.39"/><polygon class="cls-3" points="329.17 183.29 329.17 240.04 321.39 244.53 216.26 305.21 216.26 248.47 329.17 183.29"/><line class="cls-3" x1="216.26" y1="305.23" x2="216.26" y2="248.49"/><line class="cls-3" x1="238.84" y1="292.2" x2="238.84" y2="235.45"/><line class="cls-3" x1="261.43" y1="279.16" x2="261.43" y2="222.41"/><line class="cls-3" x1="284.01" y1="266.12" x2="284.01" y2="209.37"/><line class="cls-3" x1="306.59" y1="253.08" x2="306.59" y2="196.34"/><line class="cls-3" x1="329.17" y1="240.05" x2="329.17" y2="183.3"/><path class="cls-3" d="M315.41,175.85a6.46,6.46,0,0,0-3.14,4.92c0,1.73,1.41,2.33,3.14,1.35a6.41,6.41,0,0,0,3.13-4.91C318.54,175.47,317.14,174.87,315.41,175.85Z"/><path class="cls-3" d="M324.53,170.1a6.44,6.44,0,0,0-3.14,4.92c0,1.73,1.41,2.33,3.14,1.35a6.41,6.41,0,0,0,3.13-4.92C327.66,169.72,326.26,169.12,324.53,170.1Z"/><path class="cls-3" d="M306.57,182.3l-12.47,7.08"/><path class="cls-3" d="M306.58,186l-18.53,10.53"/><path class="cls-3" d="M220.67,249c1.08-.61,2-.23,2,.84a4,4,0,0,1-2,3c-1.07.61-1.94.23-1.94-.84A4,4,0,0,1,220.67,249Z"/><path class="cls-3" d="M242.76,251c1.07-.61,1.94-.23,1.94.84a4,4,0,0,1-1.94,3c-1.08.61-1.95.23-1.95-.84A4,4,0,0,1,242.76,251Z"/><path class="cls-3" d="M288.17,252.88c1.08-.61,1.95-.24,1.95.83a4,4,0,0,1-1.95,3c-1.07.61-1.94.24-1.94-.84A4,4,0,0,1,288.17,252.88Z"/><path class="cls-3" d="M294.23,249.31c1.08-.61,1.95-.23,1.95.84a4,4,0,0,1-1.95,3c-1.07.61-1.94.23-1.94-.84A4,4,0,0,1,294.23,249.31Z"/><g id="line_l-2" data-name="line_l"><g id="LINE-58" data-name="LINE"><line class="cls-3" x1="674.76" y1="220.09" x2="674.76" y2="237.28"/><line class="cls-3" x1="674.76" y1="220.09" x2="674.76" y2="237.28"/><line class="cls-3" x1="674.76" y1="220.09" x2="674.76" y2="220.09"/><line class="cls-3" x1="674.76" y1="237.28" x2="674.76" y2="237.28"/></g><g id="LINE-59" data-name="LINE"><line class="cls-3" x1="674.76" y1="237.28" x2="510.99" y2="331.84"/><line class="cls-3" x1="674.76" y1="237.28" x2="510.99" y2="331.84"/><line class="cls-3" x1="674.76" y1="237.28" x2="674.76" y2="237.28"/><line class="cls-3" x1="510.99" y1="331.84" x2="510.99" y2="331.84"/></g><g id="LINE-60" data-name="LINE"><line class="cls-3" x1="510.99" y1="314.64" x2="510.99" y2="314.64"/></g><g id="LINE-61" data-name="LINE"><line class="cls-3" x1="510.99" y1="331.84" x2="510.99" y2="331.84"/></g><g id="LINE-62" data-name="LINE"><line class="cls-3" x1="476.88" y1="312.14" x2="476.88" y2="312.14"/><line class="cls-3" x1="510.99" y1="331.84" x2="510.99" y2="331.84"/></g><g id="LINE-63" data-name="LINE"><line class="cls-3" x1="510.99" y1="314.64" x2="674.76" y2="220.09"/></g><g id="LINE-64" data-name="LINE"><line class="cls-3" x1="510.99" y1="314.64" x2="674.76" y2="220.09"/></g><g id="LINE-65" data-name="LINE"><line class="cls-3" x1="510.99" y1="314.64" x2="674.76" y2="220.09"/></g><g id="LINE-66" data-name="LINE"><polyline class="cls-3" points="422.03 263.27 510.98 314.63 510.98 314.64 510.98 331.83 422.03 280.46"/></g><g id="LINE-67" data-name="LINE"><polyline class="cls-3" points="346.99 220.16 346.99 237.16 364.24 247.13 345.06 258.2 332.24 250.81 342.11 245.1 342.11 217.38"/><polygon class="cls-3" points="379.06 238.56 364.24 247.13 346.99 237.16 346.99 220.16 379.06 238.56"/></g><g id="LINE-68" data-name="LINE"><line class="cls-3" x1="510.98" y1="125.49" x2="488.35" y2="138.55"/><line class="cls-3" x1="407.29" y1="185.35" x2="346.99" y2="220.16"/></g><g id="LINE-69" data-name="LINE"><polyline class="cls-3" points="510.98 125.5 575.57 162.79 589.01 170.56 603.91 179.16 617.35 186.93 617.36 186.94 618.08 187.34 631.53 195.12 646.42 203.72 659.87 211.49 674.76 220.09"/></g><g id="LINE-70" data-name="LINE"><line class="cls-3" x1="476.88" y1="351.53" x2="313.11" y2="446.09"/><line class="cls-3" x1="476.88" y1="351.53" x2="313.11" y2="446.09"/><line class="cls-3" x1="476.88" y1="351.53" x2="476.88" y2="351.53"/><line class="cls-3" x1="313.11" y1="446.09" x2="313.11" y2="446.09"/></g><g id="LINE-71" data-name="LINE"><line class="cls-3" x1="313.11" y1="428.89" x2="149.33" y2="334.34"/><line class="cls-3" x1="313.11" y1="428.89" x2="149.33" y2="334.34"/><line class="cls-3" x1="313.11" y1="428.89" x2="313.11" y2="428.89"/><line class="cls-3" x1="149.33" y1="334.34" x2="149.33" y2="334.34"/></g><g id="LINE-72" data-name="LINE"><line class="cls-3" x1="149.33" y1="351.49" x2="313.11" y2="446.09"/><line class="cls-3" x1="149.33" y1="351.49" x2="313.11" y2="446.09"/><line class="cls-3" x1="149.33" y1="351.49" x2="149.33" y2="351.49"/><line class="cls-3" x1="313.11" y1="446.09" x2="313.11" y2="446.09"/></g><g id="LINE-73" data-name="LINE"><line class="cls-3" x1="313.11" y1="428.89" x2="313.11" y2="446.09"/></g><g id="LINE-74" data-name="LINE"><line class="cls-3" x1="313.11" y1="428.89" x2="476.88" y2="334.34"/></g><g id="LINE-75" data-name="LINE"><line class="cls-3" x1="313.11" y1="428.89" x2="476.88" y2="334.34"/></g><g id="LINE-76" data-name="LINE"><polyline class="cls-3" points="201.85 227.09 230.18 210.74 263.9 191.26 230.18 210.72 201.85 227.07 201.84 227.09 191.64 220.74"/><line class="cls-3" x1="191.64" y1="309.88" x2="191.64" y2="220.87"/><line class="cls-3" x1="191.64" y1="309.88" x2="149.33" y2="334.29"/></g><g id="LINE-77" data-name="LINE"><line class="cls-3" x1="476.88" y1="334.34" x2="476.88" y2="351.53"/></g><g id="LINE-78" data-name="LINE"><line class="cls-3" x1="149.33" y1="334.34" x2="149.33" y2="351.49"/></g><g id="LINE-79" data-name="LINE"><polyline class="cls-3" points="407.29 163.13 342.11 200.75 342.11 183.56 407.29 145.94"/><line class="cls-3" x1="417.5" y1="140.03" x2="417.5" y2="157.22"/></g><g id="LINE-80" data-name="LINE"><polygon class="cls-3" points="270.03 175.47 255.15 184.06 158.52 128.16 158.52 111.03 270.03 175.47"/></g><g id="LINE-81" data-name="LINE"><polyline class="cls-3" points="225.74 61.73 264.11 83.88 264.11 101.06 264.03 101.02 210.87 70.33"/><polyline class="cls-3" points="158.52 100.63 193.25 80.53 210.87 70.33"/><line class="cls-3" x1="313.05" y1="11.19" x2="296.52" y2="20.76"/></g><g id="LINE-82" data-name="LINE"><path class="cls-3" d="M296.52,20.76,277,9.45h0L264.1,2,193.25,43l.33.19,32.16,18.57,38.37,22.15L335,43ZM285.74,56.3,266.13,45q-3.51-2-5.41-3.3a7.34,7.34,0,0,1,0,1.26c0,.47-.17,2-.45,4.67L255,47.12l.33-2.5.83-6.28,3.74-2.15,5,2.89,25.36,14.64Z"/><path class="cls-3" d="M290.22,53.72l-4.48,2.58L266.13,45q-3.51-2-5.41-3.3a7.34,7.34,0,0,1,0,1.26c0,.47-.17,2-.45,4.67L255,47.12l.33-2.5.83-6.28,3.74-2.15,5,2.89Z"/><line class="cls-3" x1="442.61" y1="86.12" x2="437.43" y2="83.13"/><line class="cls-3" x1="373.83" y1="46.34" x2="313.05" y2="11.19"/><line class="cls-3" x1="456.38" y1="93.97" x2="442.61" y2="86.12"/></g><g id="LINE-83" data-name="LINE"><line class="cls-3" x1="476.88" y1="334.33" x2="416.27" y2="299.33"/></g><g id="LWPOLYLINE-36" data-name="LWPOLYLINE"><line class="cls-3" x1="525.16" y1="239.35" x2="525.16" y2="255.72"/></g><g id="LWPOLYLINE-37" data-name="LWPOLYLINE"><polyline class="cls-3" points="539.33 264.7 553.5 272.89 581.85 256.53 581.85 239.35 553.5 222.98 525.16 239.35 553.5 255.72 581.85 239.35"/></g><g id="LWPOLYLINE-38" data-name="LWPOLYLINE"><line class="cls-3" x1="553.5" y1="255.72" x2="553.5" y2="272.89"/></g><g id="LWPOLYLINE-39" data-name="LWPOLYLINE"><polyline class="cls-3" points="482.65 263.89 482.65 281.07 510.99 297.44 539.33 281.07 539.33 263.9 510.99 247.53 482.65 263.89 510.99 280.26 539.33 263.9"/></g><g id="LWPOLYLINE-40" data-name="LWPOLYLINE"><line class="cls-3" x1="510.99" y1="280.26" x2="510.99" y2="297.44"/></g><g id="LWPOLYLINE-41" data-name="LWPOLYLINE"><polygon class="cls-3" points="100.07 220.96 71.35 237.5 43.01 221.13 57.19 212.95 57.19 212.94 63.37 209.37 71.35 204.77 100.07 220.96"/></g><g id="LWPOLYLINE-42" data-name="LWPOLYLINE"><polygon class="cls-3" points="57.18 245.69 28.84 262.06 0.5 245.69 14.67 237.5 28.13 229.72 28.14 229.72 28.14 229.72 28.84 229.31 29.54 229.72 43.01 237.5 57.18 245.69"/><polygon class="cls-3" points="28.84 262.05 28.84 279.22 0.5 262.85 0.5 245.68 28.84 262.05"/></g><g id="LWPOLYLINE-43" data-name="LWPOLYLINE"><polygon class="cls-3" points="100.08 220.96 100.08 238.1 71.42 254.64 71.35 254.6 71.35 237.5 100.07 220.96 100.08 220.96"/><polygon class="cls-3" points="57.18 245.68 57.18 262.86 28.84 279.22 28.84 262.05 57.18 245.68"/><line class="cls-3" x1="71.42" y1="254.64" x2="71.35" y2="254.69"/></g><g id="LWPOLYLINE-44" data-name="LWPOLYLINE"><polygon class="cls-3" points="28.84 212.96 28.84 229.31 28.14 229.72 28.14 229.72 28.13 229.72 0.5 213.88 0.5 196.59 28.84 212.96"/></g><g id="LWPOLYLINE-45" data-name="LWPOLYLINE"><polygon class="cls-3" points="57.19 196.59 28.84 212.96 0.5 196.59 21.15 184.66 28.85 180.22 36.53 184.66 57.19 196.59"/><polygon class="cls-3" points="71.35 237.5 71.35 254.6 57.18 246.49 57.18 245.68 43.01 237.5 43.01 221.13 71.35 237.5"/><polygon class="cls-3" points="57.19 196.59 57.19 212.96 43.01 221.13 43.01 221.94 29.54 229.72 28.84 229.31 28.84 212.96 57.19 196.59"/></g><g id="LINE-84" data-name="LINE"><line class="cls-3" x1="674.76" y1="220.09" x2="674.76" y2="237.28"/><line class="cls-3" x1="674.76" y1="220.09" x2="674.76" y2="237.28"/><line class="cls-3" x1="674.76" y1="220.09" x2="674.76" y2="220.09"/><line class="cls-3" x1="674.76" y1="237.28" x2="674.76" y2="237.28"/></g><g id="LINE-85" data-name="LINE"><line class="cls-3" x1="674.76" y1="237.28" x2="510.99" y2="331.84"/><line class="cls-3" x1="674.76" y1="237.28" x2="510.99" y2="331.84"/><line class="cls-3" x1="674.76" y1="237.28" x2="674.76" y2="237.28"/><line class="cls-3" x1="510.99" y1="331.84" x2="510.99" y2="331.84"/></g><g id="LINE-86" data-name="LINE"><line class="cls-3" x1="510.99" y1="314.64" x2="510.99" y2="314.64"/></g><g id="LINE-87" data-name="LINE"><line class="cls-3" x1="510.99" y1="331.84" x2="510.99" y2="331.84"/></g><g id="LINE-88" data-name="LINE"><line class="cls-3" x1="476.88" y1="312.14" x2="476.88" y2="312.14"/><line class="cls-3" x1="510.99" y1="331.84" x2="510.99" y2="331.84"/></g><g id="LINE-89" data-name="LINE"><line class="cls-3" x1="510.99" y1="314.64" x2="674.76" y2="220.09"/></g><g id="LINE-90" data-name="LINE"><line class="cls-3" x1="510.99" y1="314.64" x2="674.76" y2="220.09"/></g><g id="LINE-91" data-name="LINE"><line class="cls-3" x1="510.99" y1="314.64" x2="674.76" y2="220.09"/></g><g id="LINE-92" data-name="LINE"><polyline class="cls-3" points="422.03 263.27 510.98 314.63 510.98 314.64 510.98 331.83 422.03 280.46"/></g><g id="LINE-93" data-name="LINE"><polyline class="cls-3" points="346.99 220.16 346.99 237.16 364.24 247.13 345.06 258.2 332.24 250.81 342.11 245.1 342.11 217.38"/><polygon class="cls-3" points="379.06 238.56 364.24 247.13 346.99 237.16 346.99 220.16 379.06 238.56"/></g><g id="LINE-94" data-name="LINE"><line class="cls-3" x1="510.98" y1="125.49" x2="488.35" y2="138.55"/><line class="cls-3" x1="407.29" y1="185.35" x2="346.99" y2="220.16"/></g><g id="LINE-95" data-name="LINE"><polyline class="cls-3" points="510.98 125.5 575.57 162.79 589.01 170.56 603.91 179.16 617.35 186.93 617.36 186.94 618.08 187.34 631.53 195.12 646.42 203.72 659.87 211.49 674.76 220.09"/></g><g id="LINE-96" data-name="LINE"><line class="cls-3" x1="476.88" y1="351.53" x2="313.11" y2="446.09"/><line class="cls-3" x1="476.88" y1="351.53" x2="313.11" y2="446.09"/><line class="cls-3" x1="476.88" y1="351.53" x2="476.88" y2="351.53"/><line class="cls-3" x1="313.11" y1="446.09" x2="313.11" y2="446.09"/></g><g id="LINE-97" data-name="LINE"><line class="cls-3" x1="313.11" y1="428.89" x2="149.33" y2="334.34"/><line class="cls-3" x1="313.11" y1="428.89" x2="149.33" y2="334.34"/><line class="cls-3" x1="313.11" y1="428.89" x2="313.11" y2="428.89"/><line class="cls-3" x1="149.33" y1="334.34" x2="149.33" y2="334.34"/></g><g id="LINE-98" data-name="LINE"><line class="cls-3" x1="149.33" y1="351.49" x2="313.11" y2="446.09"/><line class="cls-3" x1="149.33" y1="351.49" x2="313.11" y2="446.09"/><line class="cls-3" x1="149.33" y1="351.49" x2="149.33" y2="351.49"/><line class="cls-3" x1="313.11" y1="446.09" x2="313.11" y2="446.09"/></g><g id="LINE-99" data-name="LINE"><line class="cls-3" x1="313.11" y1="428.89" x2="313.11" y2="446.09"/></g><g id="LINE-100" data-name="LINE"><line class="cls-3" x1="313.11" y1="428.89" x2="476.88" y2="334.34"/></g><g id="LINE-101" data-name="LINE"><line class="cls-3" x1="313.11" y1="428.89" x2="476.88" y2="334.34"/></g><g id="LINE-102" data-name="LINE"><polyline class="cls-3" points="201.85 227.09 230.18 210.74 263.9 191.26 230.18 210.72 201.85 227.07 201.84 227.09 191.64 220.74"/><line class="cls-3" x1="191.64" y1="309.88" x2="191.64" y2="220.87"/><line class="cls-3" x1="191.64" y1="309.88" x2="149.33" y2="334.29"/></g><g id="LINE-103" data-name="LINE"><line class="cls-3" x1="476.88" y1="334.34" x2="476.88" y2="351.53"/></g><g id="LINE-104" data-name="LINE"><line class="cls-3" x1="149.33" y1="334.34" x2="149.33" y2="351.49"/></g><g id="LINE-105" data-name="LINE"><polyline class="cls-3" points="407.29 163.13 342.11 200.75 342.11 183.56 407.29 145.94"/><line class="cls-3" x1="417.5" y1="140.03" x2="417.5" y2="157.22"/></g><g id="LINE-106" data-name="LINE"><polygon class="cls-3" points="270.03 175.47 255.15 184.06 158.52 128.16 158.52 111.03 270.03 175.47"/></g><g id="LINE-107" data-name="LINE"><polyline class="cls-3" points="225.74 61.73 264.11 83.88 264.11 101.06 264.03 101.02 210.87 70.33"/><polyline class="cls-3" points="158.52 100.63 193.25 80.53 210.87 70.33"/><line class="cls-3" x1="313.05" y1="11.19" x2="296.52" y2="20.76"/></g><g id="LINE-108" data-name="LINE"><path class="cls-3" d="M296.52,20.76,277,9.45h0L264.1,2,193.25,43l.33.19,32.16,18.57,38.37,22.15L335,43ZM285.74,56.3,266.13,45q-3.51-2-5.41-3.3a7.34,7.34,0,0,1,0,1.26c0,.47-.17,2-.45,4.67L255,47.12l.33-2.5.83-6.28,3.74-2.15,5,2.89,25.36,14.64Z"/><path class="cls-3" d="M290.22,53.72l-4.48,2.58L266.13,45q-3.51-2-5.41-3.3a7.34,7.34,0,0,1,0,1.26c0,.47-.17,2-.45,4.67L255,47.12l.33-2.5.83-6.28,3.74-2.15,5,2.89Z"/><line class="cls-3" x1="442.61" y1="86.12" x2="437.43" y2="83.13"/><line class="cls-3" x1="373.83" y1="46.34" x2="313.05" y2="11.19"/><line class="cls-3" x1="456.38" y1="93.97" x2="442.61" y2="86.12"/></g><g id="LINE-109" data-name="LINE"><line class="cls-3" x1="476.88" y1="334.33" x2="416.27" y2="299.33"/></g><g id="LWPOLYLINE-46" data-name="LWPOLYLINE"><line class="cls-3" x1="525.16" y1="239.35" x2="525.16" y2="255.72"/></g><g id="LWPOLYLINE-47" data-name="LWPOLYLINE"><polyline class="cls-3" points="539.33 264.7 553.5 272.89 581.85 256.53 581.85 239.35 553.5 222.98 525.16 239.35 553.5 255.72 581.85 239.35"/></g><g id="LWPOLYLINE-48" data-name="LWPOLYLINE"><line class="cls-3" x1="553.5" y1="255.72" x2="553.5" y2="272.89"/></g><g id="LWPOLYLINE-49" data-name="LWPOLYLINE"><polyline class="cls-3" points="482.65 263.89 482.65 281.07 510.99 297.44 539.33 281.07 539.33 263.9 510.99 247.53 482.65 263.89 510.99 280.26 539.33 263.9"/></g><g id="LWPOLYLINE-50" data-name="LWPOLYLINE"><line class="cls-3" x1="510.99" y1="280.26" x2="510.99" y2="297.44"/></g><g id="LWPOLYLINE-51" data-name="LWPOLYLINE"><polygon class="cls-3" points="100.07 220.96 71.35 237.5 43.01 221.13 57.19 212.95 57.19 212.94 63.37 209.37 71.35 204.77 100.07 220.96"/></g><g id="LWPOLYLINE-52" data-name="LWPOLYLINE"><polygon class="cls-3" points="57.18 245.69 28.84 262.06 0.5 245.69 14.67 237.5 28.13 229.72 28.14 229.72 28.14 229.72 28.84 229.31 29.54 229.72 43.01 237.5 57.18 245.69"/><polygon class="cls-3" points="28.84 262.05 28.84 279.22 0.5 262.85 0.5 245.68 28.84 262.05"/></g><g id="LWPOLYLINE-53" data-name="LWPOLYLINE"><polygon class="cls-3" points="100.08 220.96 100.08 238.1 71.42 254.64 71.35 254.6 71.35 237.5 100.07 220.96 100.08 220.96"/><polygon class="cls-3" points="57.18 245.68 57.18 262.86 28.84 279.22 28.84 262.05 57.18 245.68"/><line class="cls-3" x1="71.42" y1="254.64" x2="71.35" y2="254.69"/></g><g id="LWPOLYLINE-54" data-name="LWPOLYLINE"><polygon class="cls-3" points="28.84 212.96 28.84 229.31 28.14 229.72 28.14 229.72 28.13 229.72 0.5 213.88 0.5 196.59 28.84 212.96"/></g><g id="LWPOLYLINE-55" data-name="LWPOLYLINE"><polygon class="cls-3" points="57.19 196.59 28.84 212.96 0.5 196.59 21.15 184.66 28.85 180.22 36.53 184.66 57.19 196.59"/><polygon class="cls-3" points="71.35 237.5 71.35 254.6 57.18 246.49 57.18 245.68 43.01 237.5 43.01 221.13 71.35 237.5"/><polygon class="cls-3" points="57.19 196.59 57.19 212.96 43.01 221.13 43.01 221.94 29.54 229.72 28.84 229.31 28.84 212.96 57.19 196.59"/></g><g id="LINE-110" data-name="LINE"><line class="cls-3" x1="674.76" y1="220.09" x2="674.76" y2="237.28"/><line class="cls-3" x1="674.76" y1="220.09" x2="674.76" y2="237.28"/><line class="cls-3" x1="674.76" y1="220.09" x2="674.76" y2="220.09"/><line class="cls-3" x1="674.76" y1="237.28" x2="674.76" y2="237.28"/></g><g id="LINE-111" data-name="LINE"><line class="cls-3" x1="674.76" y1="237.28" x2="510.99" y2="331.84"/><line class="cls-3" x1="674.76" y1="237.28" x2="510.99" y2="331.84"/><line class="cls-3" x1="674.76" y1="237.28" x2="674.76" y2="237.28"/><line class="cls-3" x1="510.99" y1="331.84" x2="510.99" y2="331.84"/></g><g id="LINE-112" data-name="LINE"><line class="cls-3" x1="510.99" y1="314.64" x2="510.99" y2="314.64"/></g><g id="LINE-113" data-name="LINE"><line class="cls-3" x1="510.99" y1="331.84" x2="510.99" y2="331.84"/></g><g id="LINE-114" data-name="LINE"><line class="cls-3" x1="476.88" y1="312.14" x2="476.88" y2="312.14"/><line class="cls-3" x1="510.99" y1="331.84" x2="510.99" y2="331.84"/></g><g id="LINE-115" data-name="LINE"><line class="cls-3" x1="510.99" y1="314.64" x2="674.76" y2="220.09"/></g><g id="LINE-116" data-name="LINE"><line class="cls-3" x1="510.99" y1="314.64" x2="674.76" y2="220.09"/></g><g id="LINE-117" data-name="LINE"><line class="cls-3" x1="510.99" y1="314.64" x2="674.76" y2="220.09"/></g><g id="LINE-118" data-name="LINE"><polyline class="cls-3" points="422.03 263.27 510.98 314.63 510.98 314.64 510.98 331.83 422.03 280.46"/></g><g id="LINE-119" data-name="LINE"><polyline class="cls-3" points="346.99 220.16 346.99 237.16 364.24 247.13 345.06 258.2 332.24 250.81 342.11 245.1 342.11 217.38"/><polygon class="cls-3" points="379.06 238.56 364.24 247.13 346.99 237.16 346.99 220.16 379.06 238.56"/></g><g id="LINE-120" data-name="LINE"><line class="cls-3" x1="510.98" y1="125.49" x2="488.35" y2="138.55"/><line class="cls-3" x1="407.29" y1="185.35" x2="346.99" y2="220.16"/></g><g id="LINE-121" data-name="LINE"><polyline class="cls-3" points="510.98 125.5 575.57 162.79 589.01 170.56 603.91 179.16 617.35 186.93 617.36 186.94 618.08 187.34 631.53 195.12 646.42 203.72 659.87 211.49 674.76 220.09"/></g><g id="LINE-122" data-name="LINE"><line class="cls-3" x1="476.88" y1="351.53" x2="313.11" y2="446.09"/><line class="cls-3" x1="476.88" y1="351.53" x2="313.11" y2="446.09"/><line class="cls-3" x1="476.88" y1="351.53" x2="476.88" y2="351.53"/><line class="cls-3" x1="313.11" y1="446.09" x2="313.11" y2="446.09"/></g><g id="LINE-123" data-name="LINE"><line class="cls-3" x1="313.11" y1="428.89" x2="149.33" y2="334.34"/><line class="cls-3" x1="313.11" y1="428.89" x2="149.33" y2="334.34"/><line class="cls-3" x1="313.11" y1="428.89" x2="313.11" y2="428.89"/><line class="cls-3" x1="149.33" y1="334.34" x2="149.33" y2="334.34"/></g><g id="LINE-124" data-name="LINE"><line class="cls-3" x1="149.33" y1="351.49" x2="313.11" y2="446.09"/><line class="cls-3" x1="149.33" y1="351.49" x2="313.11" y2="446.09"/><line class="cls-3" x1="149.33" y1="351.49" x2="149.33" y2="351.49"/><line class="cls-3" x1="313.11" y1="446.09" x2="313.11" y2="446.09"/></g><g id="LINE-125" data-name="LINE"><line class="cls-3" x1="313.11" y1="428.89" x2="313.11" y2="446.09"/></g><g id="LINE-126" data-name="LINE"><line class="cls-3" x1="313.11" y1="428.89" x2="476.88" y2="334.34"/></g><g id="LINE-127" data-name="LINE"><line class="cls-3" x1="313.11" y1="428.89" x2="476.88" y2="334.34"/></g><g id="LINE-128" data-name="LINE"><polyline class="cls-3" points="201.85 227.09 230.18 210.74 263.9 191.26 230.18 210.72 201.85 227.07 201.84 227.09 191.64 220.74"/><line class="cls-3" x1="191.64" y1="309.88" x2="191.64" y2="220.87"/><line class="cls-3" x1="191.64" y1="309.88" x2="149.33" y2="334.29"/></g><g id="LINE-129" data-name="LINE"><line class="cls-3" x1="476.88" y1="334.34" x2="476.88" y2="351.53"/></g><g id="LINE-130" data-name="LINE"><line class="cls-3" x1="149.33" y1="334.34" x2="149.33" y2="351.49"/></g><g id="LINE-131" data-name="LINE"><polyline class="cls-3" points="407.29 163.13 342.11 200.75 342.11 183.56 407.29 145.94"/><line class="cls-3" x1="417.5" y1="140.03" x2="417.5" y2="157.22"/></g><g id="LINE-132" data-name="LINE"><polygon class="cls-3" points="270.03 175.47 255.15 184.06 158.52 128.16 158.52 111.03 270.03 175.47"/></g><g id="LINE-133" data-name="LINE"><polyline class="cls-3" points="225.74 61.73 264.11 83.88 264.11 101.06 264.03 101.02 210.87 70.33"/><polyline class="cls-3" points="158.52 100.63 193.25 80.53 210.87 70.33"/><line class="cls-3" x1="313.05" y1="11.19" x2="296.52" y2="20.76"/></g><g id="LINE-134" data-name="LINE"><path class="cls-3" d="M296.52,20.76,277,9.45h0L264.1,2,193.25,43l.33.19,32.16,18.57,38.37,22.15L335,43ZM285.74,56.3,266.13,45q-3.51-2-5.41-3.3a7.34,7.34,0,0,1,0,1.26c0,.47-.17,2-.45,4.67L255,47.12l.33-2.5.83-6.28,3.74-2.15,5,2.89,25.36,14.64Z"/><path class="cls-3" d="M290.22,53.72l-4.48,2.58L266.13,45q-3.51-2-5.41-3.3a7.34,7.34,0,0,1,0,1.26c0,.47-.17,2-.45,4.67L255,47.12l.33-2.5.83-6.28,3.74-2.15,5,2.89Z"/><line class="cls-3" x1="442.61" y1="86.12" x2="437.43" y2="83.13"/><line class="cls-3" x1="373.83" y1="46.34" x2="313.05" y2="11.19"/><line class="cls-3" x1="456.38" y1="93.97" x2="442.61" y2="86.12"/></g><g id="LINE-135" data-name="LINE"><line class="cls-3" x1="476.88" y1="334.33" x2="416.27" y2="299.33"/></g><g id="LWPOLYLINE-56" data-name="LWPOLYLINE"><line class="cls-3" x1="525.16" y1="239.35" x2="525.16" y2="255.72"/></g><g id="LWPOLYLINE-57" data-name="LWPOLYLINE"><polyline class="cls-3" points="539.33 264.7 553.5 272.89 581.85 256.53 581.85 239.35 553.5 222.98 525.16 239.35 553.5 255.72 581.85 239.35"/></g><g id="LWPOLYLINE-58" data-name="LWPOLYLINE"><line class="cls-3" x1="553.5" y1="255.72" x2="553.5" y2="272.89"/></g><g id="LWPOLYLINE-59" data-name="LWPOLYLINE"><polyline class="cls-3" points="482.65 263.89 482.65 281.07 510.99 297.44 539.33 281.07 539.33 263.9 510.99 247.53 482.65 263.89 510.99 280.26 539.33 263.9"/></g><g id="LWPOLYLINE-60" data-name="LWPOLYLINE"><line class="cls-3" x1="510.99" y1="280.26" x2="510.99" y2="297.44"/></g><g id="LWPOLYLINE-61" data-name="LWPOLYLINE"><polygon class="cls-3" points="100.07 220.96 71.35 237.5 43.01 221.13 57.19 212.95 57.19 212.94 63.37 209.37 71.35 204.77 100.07 220.96"/></g><g id="LWPOLYLINE-62" data-name="LWPOLYLINE"><polygon class="cls-3" points="57.18 245.69 28.84 262.06 0.5 245.69 14.67 237.5 28.13 229.72 28.14 229.72 28.14 229.72 28.84 229.31 29.54 229.72 43.01 237.5 57.18 245.69"/><polygon class="cls-3" points="28.84 262.05 28.84 279.22 0.5 262.85 0.5 245.68 28.84 262.05"/></g><g id="LWPOLYLINE-63" data-name="LWPOLYLINE"><polygon class="cls-3" points="100.08 220.96 100.08 238.1 71.42 254.64 71.35 254.6 71.35 237.5 100.07 220.96 100.08 220.96"/><polygon class="cls-3" points="57.18 245.68 57.18 262.86 28.84 279.22 28.84 262.05 57.18 245.68"/><line class="cls-3" x1="71.42" y1="254.64" x2="71.35" y2="254.69"/></g><g id="LWPOLYLINE-64" data-name="LWPOLYLINE"><polygon class="cls-3" points="28.84 212.96 28.84 229.31 28.14 229.72 28.14 229.72 28.13 229.72 0.5 213.88 0.5 196.59 28.84 212.96"/></g><g id="LWPOLYLINE-65" data-name="LWPOLYLINE"><polygon class="cls-3" points="57.19 196.59 28.84 212.96 0.5 196.59 21.15 184.66 28.85 180.22 36.53 184.66 57.19 196.59"/><polygon class="cls-3" points="71.35 237.5 71.35 254.6 57.18 246.49 57.18 245.68 43.01 237.5 43.01 221.13 71.35 237.5"/><polygon class="cls-3" points="57.19 196.59 57.19 212.96 43.01 221.13 43.01 221.94 29.54 229.72 28.84 229.31 28.84 212.96 57.19 196.59"/></g></g><g id="LWPOLYLINE-66" data-name="LWPOLYLINE"><polyline class="cls-3" points="193.25 43.16 193.25 60.16 210.87 70.33"/><polyline class="cls-3" points="264.11 101.06 317.13 70.44 334.95 60.15 334.95 60.13 334.96 60.13"/></g><g id="LWPOLYLINE-67" data-name="LWPOLYLINE"><line class="cls-3" x1="206.17" y1="50.34" x2="277.02" y2="9.42"/></g><g id="LINE-136" data-name="LINE"><line class="cls-3" x1="334.96" y1="42.95" x2="334.96" y2="60.14"/></g><g id="LINE-137" data-name="LINE"><line class="cls-3" x1="116.17" y1="207.78" x2="116.18" y2="224.98"/></g><g id="LINE-138" data-name="LINE"><line class="cls-3" x1="45.32" y1="166.89" x2="45.32" y2="184.07"/></g><g id="LWPOLYLINE-68" data-name="LWPOLYLINE"><polyline class="cls-3" points="187.03 184.05 116.18 224.98 45.32 184.07"/></g><g id="LWPOLYLINE-69" data-name="LWPOLYLINE"><polyline class="cls-3" points="141.5 140.59 187.02 166.88 116.17 207.79 45.32 166.88 77.46 148.31"/></g><g id="LINE-139" data-name="LINE"><line class="cls-3" x1="187.03" y1="166.87" x2="187.03" y2="184.05"/></g><g id="LWPOLYLINE-70" data-name="LWPOLYLINE"><polygon class="cls-3" points="87.67 101.67 87.67 171.69 87.66 171.69 77.46 165.34 77.46 95.33 87.66 101.69 87.67 101.67"/><line class="cls-3" x1="118.23" y1="154.04" x2="126.5" y2="159.19"/></g><path class="cls-3" d="M156.75,61.79,137.16,73.1,87.67,101.67v70L118.23,154l2.45-1.42h0l5.81,6.56,5.22-12.94h0l9.74-5.63,0,0,2.12-1.22,14.9-8.6v-70Z"/><polygon class="cls-3" points="158.52 60.74 158.52 60.77 156.75 61.8 137.16 73.11 87.67 101.67 87.66 101.69 77.46 95.33 85.04 90.95 117.79 72.03 126.55 66.97 132.66 63.45 146.13 55.66 148.32 54.4 150.16 55.53 151.23 56.2 158.52 60.74"/><path class="cls-3" d="M125.59,130.14a4.28,4.28,0,0,0,.26.42A4.28,4.28,0,0,1,125.59,130.14Zm0-6.77a.63.63,0,0,0,.09-.25Z"/><path class="cls-3" d="M134.11,93.43l-1.53.88V97a5.14,5.14,0,0,1-2.45,3.89c-1.36.79-2.46.32-2.46-1V97.16l-12.86,7.45v2.67a5.11,5.11,0,0,1-2.46,3.89c-1.36.78-2.46.32-2.46-1v-2.68l-1.53.89c-2.42,1.4-4.39,4.51-4.39,6.94v24.55c0,2.43,2,3.26,4.39,1.86l18.07-10.46-.12-.1a4,4,0,0,1-.32-.38l-.14-.19a4.28,4.28,0,0,1-.26-.42l-.09-.2a4.2,4.2,0,0,1-.22-.53c0-.08,0-.16-.08-.25l-.06-.24-.06-.26a1.55,1.55,0,0,1,0-.21c0-.1,0-.2-.05-.31s0-.11,0-.17,0-.32,0-.48v-.1a2.44,2.44,0,0,1,0-.27c0-.15,0-.3,0-.45s0-.14,0-.21l0-.29a1.94,1.94,0,0,1,0-.24c0-.09,0-.18,0-.26l0-.23c0-.09,0-.18.05-.26s0-.16,0-.24.07-.33.11-.49a4925265389440.33,4925265389440.33,0,0,0,.14-.5,1.66,1.66,0,0,1,.06-.21c0-.12.07-.24.11-.36l-.06.09a.77.77,0,0,1-.22.19.29.29,0,0,1-.17.06l-3.89.2-3.89,4.31a.48.48,0,0,1-.39.19c-.11,0-.17-.12-.14-.27l.74-4.78-3.15-1.25c-.1,0-.14-.16-.09-.32a.77.77,0,0,1,.29-.42l4.35-3.15,2-5.08a.82.82,0,0,1,.33-.4c.14-.08.27-.07.33,0l1.94,2.82,4.36-1.88c.14-.06.25,0,.29.07a.48.48,0,0,1-.09.43l-3.15,4.9.74,3.92a.19.19,0,0,1,0,.08v0l.12-.35a17.83,17.83,0,0,1,1-2.24c.06-.11.11-.22.17-.32l.15-.26c0-.08.09-.15.14-.23.2-.34.41-.68.64-1l.23-.33a21.32,21.32,0,0,1,1.62-2l.24-.26.48-.49a3.34,3.34,0,0,1,.33-.32c.25-.25.52-.48.78-.71l.23-.19a3.65,3.65,0,0,1,.31-.24l.19-.16.75-.53a2.92,2.92,0,0,1,.32-.21l.18-.12.37-.22a12.89,12.89,0,0,1,1.44-.72l.21-.08.2-.08.41-.14.5-.14a.53.53,0,0,1,.12,0,2.74,2.74,0,0,1,.39-.09l.11,0a3.47,3.47,0,0,1,.45-.06l.54,0h.19V95.29C138.51,92.86,136.54,92,134.11,93.43Zm4.3,5.73a.77.77,0,0,1-.36.58l-.27.16L104.7,119l-.27.16c-.2.12-.37,0-.37-.16"/><path class="cls-3" d="M114.81,101.65v5.63a5.11,5.11,0,0,1-2.46,3.89c-1.36.78-2.46.32-2.46-1v-5.64a5.09,5.09,0,0,1,2.46-3.88,2,2,0,0,1,1.74-.29A1.33,1.33,0,0,1,114.81,101.65Z"/><path class="cls-3" d="M132.58,91.35V97a5.14,5.14,0,0,1-2.45,3.89c-1.36.79-2.46.32-2.46-1V94.2a5.12,5.12,0,0,1,2.46-3.89,2,2,0,0,1,1.74-.28A1.32,1.32,0,0,1,132.58,91.35Z"/><path class="cls-3" d="M125.67,123.12l-.09.25A.63.63,0,0,0,125.67,123.12Z"/><path class="cls-3" d="M138.51,111.46h-.19l-.54,0a3.47,3.47,0,0,0-.45.06l-.11,0a2.74,2.74,0,0,0-.39.09.53.53,0,0,0-.12,0l-.5.14-.41.14-.2.08-.21.08a12.89,12.89,0,0,0-1.44.72l-.37.22-.18.12a2.92,2.92,0,0,0-.32.21l-.75.53-.19.16a3.65,3.65,0,0,0-.31.24l-.23.19c-.26.23-.53.46-.78.71a3.34,3.34,0,0,0-.33.32l-.48.49-.24.26a21.32,21.32,0,0,0-1.62,2l-.23.33c-.23.33-.44.67-.64,1,0,.08-.1.15-.14.23l-.15.26c-.06.1-.11.21-.17.32a17.83,17.83,0,0,0-1,2.24l-.12.35v0h0a.63.63,0,0,1-.09.25h0c0,.13-.08.25-.11.37a1.66,1.66,0,0,0-.06.21,4925265389440.33,4925265389440.33,0,0,1-.14.5c0,.16-.07.33-.11.49s0,.16,0,.24,0,.17-.05.26l0,.23c0,.08,0,.17,0,.26a1.94,1.94,0,0,0,0,.24l0,.29c0,.07,0,.14,0,.21s0,.3,0,.45a2.44,2.44,0,0,0,0,.27v.1c0,.16,0,.33,0,.48s0,.12,0,.17,0,.21.05.31a1.55,1.55,0,0,0,0,.21l.06.26.06.24c0,.09,0,.17.08.25a4.2,4.2,0,0,0,.22.53l.09.2a4.28,4.28,0,0,0,.26.42l.14.19a4,4,0,0,0,.32.38l.12.1c1.67,1.58,4.47,1.47,7.52-.3,5-2.88,9-9.27,9-14.26C143,113.47,141.27,111.48,138.51,111.46Zm1,3.74-6,10.87a.74.74,0,0,1-.28.3.32.32,0,0,1-.22.06l-4.58-.72"/><path class="cls-3" d="M128.45,125.71l4.58.72a.32.32,0,0,0,.22-.06.74.74,0,0,0,.28-.3l6-10.87"/><path class="cls-3" d="M125.58,123.37a.63.63,0,0,0,.09-.25Z"/><path class="cls-3" d="M128.07,114.21l-3.15,4.9.74,3.92a.19.19,0,0,1,0,.08h0l-.09.25h0l-.06.1a.77.77,0,0,1-.22.19.29.29,0,0,1-.17.06l-3.89.2-3.89,4.31a.48.48,0,0,1-.39.19c-.11,0-.17-.12-.14-.27l.74-4.78-3.15-1.25c-.1,0-.14-.16-.09-.32a.77.77,0,0,1,.29-.42l4.35-3.15,2-5.08a.82.82,0,0,1,.33-.4c.14-.08.27-.07.33,0l1.94,2.82,4.36-1.88c.14-.06.25,0,.29.07A.48.48,0,0,1,128.07,114.21Z"/><path class="cls-3" d="M138.41,99.16a.77.77,0,0,1-.36.58l-.27.16L104.7,119l-.27.16"/></g><g id="dash"><polyline class="cls-1" points="177.75 272.44 181.21 274.44 177.75 276.44"/><line class="cls-4" x1="173.51" y1="278.89" x2="120.54" y2="309.47"/><polyline class="cls-1" points="118.42 310.69 114.95 312.69 111.49 310.7"/><polyline class="cls-5" points="107.25 308.25 82.57 294.02 67.38 285.26 67.27 285.2 54.2 277.67"/><polyline class="cls-1" points="52.08 276.44 48.61 274.44 52.08 272.45"/><line class="cls-5" x1="56.32" y1="270" x2="109.37" y2="239.42"/><polyline class="cls-1" points="111.49 238.19 114.95 236.19 118.42 238.19"/><polyline class="cls-4" points="122.66 240.64 131.92 245.99 148.83 255.75 175.63 271.22"/><polyline class="cls-1" points="177.75 276.44 181.21 274.44 181.21 278.44"/><line class="cls-6" x1="181.21" y1="281.5" x2="181.21" y2="287.93"/><polyline class="cls-1" points="181.21 289.46 181.21 293.46 177.77 295.49"/><polyline class="cls-7" points="173.55 297.98 171.72 299.06 120.54 328.6"/><polyline class="cls-1" points="118.42 329.82 114.95 331.82 114.95 327.82"/><line class="cls-8" x1="114.95" y1="324.73" x2="114.95" y2="318.24"/><polyline class="cls-1" points="114.95 316.69 114.95 312.69 118.42 310.69"/><line class="cls-4" x1="122.66" y1="308.25" x2="175.63" y2="277.67"/><line class="cls-1" x1="48.6" y1="274.46" x2="48.6" y2="278.46"/><line class="cls-8" x1="48.6" y1="281.55" x2="48.6" y2="288.05"/><polyline class="cls-1" points="48.6 289.59 48.6 293.59 52.06 295.59"/><line class="cls-9" x1="56.31" y1="298.03" x2="109.37" y2="328.61"/><line class="cls-1" x1="111.49" y1="329.83" x2="114.95" y2="331.83"/><line class="cls-1" x1="191.64" y1="264.98" x2="188.18" y2="262.99"/><polyline class="cls-10" points="183.5 260.29 165.4 249.85 137.25 233.62"/><polyline class="cls-1" points="134.91 232.27 131.44 230.28 134.91 228.28"/><line class="cls-11" x1="139.15" y1="225.83" x2="192.2" y2="195.25"/><polyline class="cls-1" points="194.32 194.02 197.78 192.03 201.25 194.03"/><line class="cls-12" x1="205.38" y1="196.41" x2="214.05" y2="201.41"/><polyline class="cls-1" points="216.11 202.6 219.57 204.6 216.11 206.6"/><line class="cls-13" x1="212.72" y1="208.56" x2="196.8" y2="217.76"/><line class="cls-1" x1="195.11" y1="218.73" x2="191.64" y2="220.73"/><line class="cls-1" x1="334.95" y1="60.14" x2="334.95" y2="64.14"/><line class="cls-14" x1="334.95" y1="67.64" x2="334.95" y2="74.98"/><polyline class="cls-1" points="334.95 76.73 334.95 80.73 331.49 82.73"/><line class="cls-15" x1="326.92" y1="85.35" x2="269.79" y2="118.18"/><polyline class="cls-1" points="267.51 119.49 264.04 121.48 264.04 117.48"/><line class="cls-14" x1="264.04" y1="113.98" x2="264.04" y2="106.64"/><line class="cls-1" x1="264.04" y1="104.89" x2="264.04" y2="100.89"/><line class="cls-1" x1="317.13" y1="70.44" x2="320.59" y2="72.43"/><line class="cls-16" x1="323.62" y1="74.18" x2="329.98" y2="77.85"/><line class="cls-1" x1="331.49" y1="78.72" x2="334.96" y2="80.72"/><line class="cls-1" x1="193.26" y1="60.15" x2="193.26" y2="64.15"/><line class="cls-14" x1="193.26" y1="67.65" x2="193.26" y2="75"/><line class="cls-1" x1="193.26" y1="76.75" x2="193.26" y2="80.75"/><line class="cls-1" x1="193.26" y1="80.75" x2="196.72" y2="82.74"/><line class="cls-17" x1="201.29" y1="85.37" x2="258.34" y2="118.19"/><line class="cls-1" x1="260.63" y1="119.51" x2="264.09" y2="121.5"/><g id="LWPOLYLINE-71" data-name="LWPOLYLINE"><line class="cls-1" x1="618.08" y1="185.7" x2="618.08" y2="189.7"/><line class="cls-1" x1="618.08" y1="198.07" x2="618.08" y2="202.07"/></g><g id="LWPOLYLINE-72" data-name="LWPOLYLINE"><line class="cls-1" x1="632.25" y1="211.06" x2="635.71" y2="213.06"/><polyline class="cls-1" points="642.96 217.25 646.42 219.25 649.88 217.25"/><line class="cls-18" x1="653.34" y1="215.25" x2="669.57" y2="205.88"/><polyline class="cls-1" points="671.3 204.88 674.76 202.88 674.76 198.88"/><line class="cls-19" x1="674.76" y1="196.33" x2="674.76" y2="190.98"/><polyline class="cls-1" points="674.76 189.71 674.76 185.71 671.3 183.71"/><line class="cls-18" x1="667.84" y1="181.71" x2="651.61" y2="172.34"/><polyline class="cls-1" points="649.89 171.34 646.42 169.34 642.96 171.34"/><line class="cls-18" x1="639.5" y1="173.33" x2="623.27" y2="182.71"/><polyline class="cls-1" points="621.54 183.7 618.08 185.7 621.54 187.7"/><line class="cls-18" x1="625" y1="189.7" x2="641.23" y2="199.07"/><polyline class="cls-1" points="642.96 200.07 646.42 202.07 649.88 200.07"/><line class="cls-18" x1="653.34" y1="198.08" x2="669.57" y2="188.71"/><line class="cls-1" x1="671.3" y1="187.71" x2="674.76" y2="185.71"/></g><g id="LWPOLYLINE-73" data-name="LWPOLYLINE"><line class="cls-1" x1="646.42" y1="202.07" x2="646.42" y2="206.07"/><line class="cls-19" x1="646.42" y1="208.62" x2="646.42" y2="213.97"/><line class="cls-1" x1="646.42" y1="215.25" x2="646.42" y2="219.25"/></g><g id="LWPOLYLINE-74" data-name="LWPOLYLINE"><line class="cls-1" x1="575.56" y1="210.25" x2="575.56" y2="214.25"/><line class="cls-19" x1="575.56" y1="216.8" x2="575.56" y2="222.15"/><polyline class="cls-1" points="575.56 223.42 575.56 227.42 579.03 229.42"/><line class="cls-18" x1="582.48" y1="231.42" x2="598.71" y2="240.79"/><polyline class="cls-1" points="600.44 241.79 603.9 243.79 607.37 241.79"/><line class="cls-18" x1="610.82" y1="239.8" x2="627.06" y2="230.42"/><polyline class="cls-1" points="628.78 229.43 632.25 227.43 632.25 223.43"/><line class="cls-19" x1="632.25" y1="220.88" x2="632.25" y2="215.53"/><polyline class="cls-1" points="632.25 214.25 632.25 210.25 628.78 208.25"/><line class="cls-18" x1="625.33" y1="206.26" x2="609.1" y2="196.88"/><polyline class="cls-1" points="607.37 195.88 603.91 193.88 600.44 195.88"/><line class="cls-18" x1="596.99" y1="197.88" x2="580.76" y2="207.25"/><polyline class="cls-1" points="579.03 208.25 575.56 210.25 579.03 212.25"/><line class="cls-18" x1="582.48" y1="214.24" x2="598.71" y2="223.62"/><polyline class="cls-1" points="600.44 224.62 603.9 226.62 607.37 224.62"/><line class="cls-18" x1="610.82" y1="222.62" x2="627.06" y2="213.25"/><line class="cls-1" x1="628.78" y1="212.25" x2="632.25" y2="210.25"/></g><g id="LWPOLYLINE-75" data-name="LWPOLYLINE"><line class="cls-1" x1="603.9" y1="226.62" x2="603.9" y2="230.62"/><line class="cls-19" x1="603.9" y1="233.17" x2="603.9" y2="238.52"/><line class="cls-1" x1="603.9" y1="239.79" x2="603.9" y2="243.79"/></g><g id="LWPOLYLINE-76" data-name="LWPOLYLINE"><line class="cls-1" x1="533.06" y1="185.69" x2="533.06" y2="189.69"/><line class="cls-19" x1="533.06" y1="192.24" x2="533.06" y2="197.59"/><polyline class="cls-1" points="533.05 198.87 533.05 202.87 536.52 204.87"/><line class="cls-18" x1="539.97" y1="206.86" x2="556.2" y2="216.24"/><polyline class="cls-1" points="557.93 217.24 561.39 219.24 564.86 217.24"/><line class="cls-1" x1="572.1" y1="213.06" x2="575.56" y2="211.06"/></g><g id="LWPOLYLINE-77" data-name="LWPOLYLINE"><line class="cls-1" x1="589.74" y1="202.07" x2="589.74" y2="198.07"/><polyline class="cls-1" points="589.74 189.7 589.74 185.7 586.27 183.7"/><line class="cls-18" x1="582.82" y1="181.7" x2="566.59" y2="172.33"/><polyline class="cls-1" points="564.86 171.33 561.4 169.33 557.93 171.33"/><line class="cls-18" x1="554.48" y1="173.32" x2="538.25" y2="182.7"/><polyline class="cls-1" points="536.52 183.69 533.05 185.69 536.52 187.69"/><line class="cls-18" x1="539.97" y1="189.69" x2="556.2" y2="199.07"/><polyline class="cls-1" points="557.93 200.06 561.39 202.06 564.86 200.06"/><line class="cls-18" x1="568.31" y1="198.07" x2="584.55" y2="188.7"/><line class="cls-1" x1="586.27" y1="187.7" x2="589.74" y2="185.7"/></g><g id="LWPOLYLINE-78" data-name="LWPOLYLINE"><line class="cls-1" x1="561.39" y1="202.06" x2="561.39" y2="206.06"/><line class="cls-19" x1="561.39" y1="208.61" x2="561.39" y2="213.96"/><line class="cls-1" x1="561.39" y1="215.24" x2="561.39" y2="219.24"/></g><g id="LWPOLYLINE-79" data-name="LWPOLYLINE"><line class="cls-1" x1="575.57" y1="161.15" x2="575.57" y2="165.15"/><line class="cls-1" x1="575.57" y1="173.52" x2="575.57" y2="177.52"/></g><g id="LWPOLYLINE-80" data-name="LWPOLYLINE"><line class="cls-1" x1="589.74" y1="186.5" x2="593.2" y2="188.51"/><line class="cls-1" x1="599.75" y1="192.29" x2="603.21" y2="194.29"/></g><g id="LWPOLYLINE-81" data-name="LWPOLYLINE"><line class="cls-1" x1="604.61" y1="194.29" x2="608.07" y2="192.29"/><line class="cls-1" x1="614.62" y1="188.51" x2="618.08" y2="186.51"/></g><g id="LWPOLYLINE-82" data-name="LWPOLYLINE"><line class="cls-1" x1="632.25" y1="177.52" x2="632.25" y2="173.52"/><polyline class="cls-1" points="632.25 165.15 632.25 161.15 628.79 159.15"/><line class="cls-18" x1="625.34" y1="157.16" x2="609.1" y2="147.78"/><polyline class="cls-1" points="607.38 146.78 603.91 144.78 600.45 146.78"/><line class="cls-18" x1="596.99" y1="148.78" x2="580.76" y2="158.15"/><polyline class="cls-1" points="579.03 159.15 575.57 161.15 579.03 163.15"/><line class="cls-18" x1="582.49" y1="165.14" x2="598.72" y2="174.52"/><polyline class="cls-1" points="600.45 175.52 603.91 177.52 607.37 175.52"/><line class="cls-18" x1="610.83" y1="173.52" x2="627.06" y2="164.15"/><line class="cls-1" x1="628.79" y1="163.15" x2="632.25" y2="161.15"/></g><g id="LWPOLYLINE-83" data-name="LWPOLYLINE"><line class="cls-1" x1="603.91" y1="177.52" x2="603.91" y2="181.52"/><line class="cls-1" x1="603.91" y1="189.89" x2="603.91" y2="193.89"/></g><g id="LINE-140" data-name="LINE"><line class="cls-1" x1="533.06" y1="202.87" x2="536.52" y2="200.87"/><line class="cls-18" x1="539.97" y1="198.87" x2="556.21" y2="189.5"/><line class="cls-1" x1="557.93" y1="188.5" x2="561.4" y2="186.5"/></g><g id="LINE-141" data-name="LINE"><line class="cls-1" x1="576.27" y1="177.92" x2="579.73" y2="175.92"/><line class="cls-20" x1="583.07" y1="173.99" x2="598.78" y2="164.92"/><line class="cls-1" x1="600.45" y1="163.96" x2="603.91" y2="161.96"/></g><g id="LINE-142" data-name="LINE"><line class="cls-1" x1="603.91" y1="161.96" x2="607.38" y2="163.96"/><line class="cls-21" x1="610.72" y1="165.89" x2="626.42" y2="174.96"/><line class="cls-1" x1="628.09" y1="175.92" x2="631.55" y2="177.92"/></g><g id="LINE-143" data-name="LINE"><line class="cls-1" x1="646.42" y1="186.51" x2="649.89" y2="188.51"/><line class="cls-18" x1="653.34" y1="190.51" x2="669.57" y2="199.88"/><line class="cls-1" x1="671.3" y1="200.88" x2="674.76" y2="202.88"/></g><g id="LINE-144" data-name="LINE"><line class="cls-1" x1="603.91" y1="144.78" x2="603.91" y2="148.78"/><line class="cls-19" x1="603.91" y1="151.33" x2="603.91" y2="156.68"/><line class="cls-1" x1="603.91" y1="157.96" x2="603.91" y2="161.96"/></g><g id="LINE-145" data-name="LINE"><line class="cls-1" x1="646.42" y1="169.34" x2="646.42" y2="173.34"/><line class="cls-19" x1="646.42" y1="175.89" x2="646.42" y2="181.24"/><line class="cls-1" x1="646.42" y1="182.51" x2="646.42" y2="186.51"/></g><g id="LINE-146" data-name="LINE"><line class="cls-1" x1="646.42" y1="186.51" x2="642.96" y2="188.51"/><line class="cls-20" x1="639.62" y1="190.44" x2="623.91" y2="199.51"/><line class="cls-1" x1="622.24" y1="200.47" x2="618.78" y2="202.47"/></g><g id="LINE-147" data-name="LINE"><line class="cls-1" x1="603.91" y1="211.06" x2="600.45" y2="213.06"/><line class="cls-22" x1="596.99" y1="215.05" x2="580.76" y2="224.42"/><line class="cls-1" x1="579.03" y1="225.42" x2="575.56" y2="227.42"/></g><g id="LINE-148" data-name="LINE"><line class="cls-1" x1="561.4" y1="169.33" x2="561.4" y2="173.33"/><line class="cls-19" x1="561.4" y1="175.88" x2="561.4" y2="181.23"/><line class="cls-1" x1="561.4" y1="182.5" x2="561.4" y2="186.5"/></g><g id="LINE-149" data-name="LINE"><line class="cls-1" x1="561.4" y1="186.5" x2="564.86" y2="188.5"/><line class="cls-21" x1="568.2" y1="190.43" x2="583.9" y2="199.5"/><line class="cls-1" x1="585.58" y1="200.47" x2="589.04" y2="202.47"/></g><g id="LINE-150" data-name="LINE"><line class="cls-1" x1="603.91" y1="211.06" x2="607.37" y2="213.06"/><line class="cls-18" x1="610.82" y1="215.05" x2="627.06" y2="224.43"/><line class="cls-1" x1="628.78" y1="225.43" x2="632.25" y2="227.43"/></g><g id="LINE-151" data-name="LINE"><line class="cls-1" x1="603.91" y1="193.89" x2="603.91" y2="197.89"/><line class="cls-23" x1="603.91" y1="200.43" x2="603.91" y2="205.78"/><line class="cls-1" x1="603.91" y1="207.06" x2="603.91" y2="211.06"/></g><polyline class="cls-1" points="100.83 276.94 97.37 274.94 93.64 277.1 93.11 281.06"/><line class="cls-24" x1="93.08" y1="281.3" x2="93.01" y2="281.79"/><path class="cls-1" d="M93,281.91l-.53,4,5.34.49c.28-2.64.43-4.2.46-4.68a8.26,8.26,0,0,0,0-1.25c.88.58,2,1.29,3.39,2.11"/><line class="cls-25" x1="106.67" y1="285.48" x2="117.27" y2="291.6"/><polyline class="cls-1" points="119.8 293.06 123.27 295.06 127.74 292.48 124.28 290.48"/><line class="cls-26" x1="121.61" y1="288.94" x2="116.02" y2="285.71"/><line class="cls-27" x1="114.69" y1="284.94" x2="102.17" y2="277.71"/><polyline class="cls-1" points="138 281.95 140.3 285.23 145.13 282.43 142.78 279.2"/><line class="cls-28" x1="141.23" y1="277.09" x2="137.99" y2="272.66"/><line class="cls-29" x1="137.22" y1="271.6" x2="129.97" y2="261.68"/><polyline class="cls-1" points="129.2 260.62 129.16 260.57 125.76 258.6 122.29 260.6"/><line class="cls-30" x1="118.87" y1="262.58" x2="111.68" y2="266.73"/><polyline class="cls-1" points="109.97 267.72 106.5 269.72 110.8 272.2 114.27 270.2"/><line class="cls-31" x1="116.36" y1="268.99" x2="120.76" y2="266.45"/><polyline class="cls-1" points="121.81 265.84 125.28 263.84 127.58 267.12"/><line class="cls-32" x1="130.47" y1="271.24" x2="136.55" y2="279.89"/><line class="cls-33" x1="61.77" y1="281.53" x2="128.7" y2="243.71"/><g id="R-2" data-name="R"><g id="line-152" data-name="line"><path class="cls-1" d="M450.66,9.29l2.3,1.43A17.37,17.37,0,0,0,450.66,9.29Z"/><path class="cls-1" d="M471.8,29.42A10,10,0,0,0,467.48,28a16.26,16.26,0,0,0-6.77.93,31.75,31.75,0,0,0-.51-5.6,10.07,10.07,0,0,1,4.24,1.48Z"/><path class="cls-1" d="M437.43,83.13,456,72.57l1-.56"/><path class="cls-1" d="M450.57,9.24h0l.07,0h0"/><path class="cls-1" d="M457,72c11-6.76,19.79-20.83,19.79-32,0-5-1.78-8.58-4.72-10.48l-.24-.16A10,10,0,0,0,467.48,28a16.38,16.38,0,0,0-6.76.92,32.67,32.67,0,0,0-.52-5.59c-1-5.64-3.56-9.91-7.22-12.64"/><line class="cls-1" x1="366.86" y1="76.87" x2="356.51" y2="70.4"/><polyline class="cls-1" points="389.45 51.38 389.44 51.4 379.14 44.98"/><path class="cls-1" d="M450.57,9.24h0l.07,0h0"/><path class="cls-1" d="M450.66,9.29l2.3,1.43A17.37,17.37,0,0,0,450.66,9.29Z"/><path class="cls-1" d="M471.8,29.42A10,10,0,0,0,467.48,28a16.26,16.26,0,0,0-6.77.93,31.75,31.75,0,0,0-.51-5.6,10.07,10.07,0,0,1,4.24,1.48Z"/><path class="cls-1" d="M437.43,83.13,456,72.57l1-.56"/><path class="cls-1" d="M450.57,9.24h0l.07,0h0"/><path class="cls-1" d="M457,72c11-6.76,19.79-20.83,19.79-32,0-5-1.78-8.58-4.72-10.48l-.24-.16A10,10,0,0,0,467.48,28a16.38,16.38,0,0,0-6.76.92,32.67,32.67,0,0,0-.52-5.59c-1-5.64-3.56-9.91-7.22-12.64"/><line class="cls-1" x1="366.86" y1="76.87" x2="356.51" y2="70.4"/><polyline class="cls-1" points="389.45 51.38 389.44 51.4 379.14 44.98"/><path class="cls-1" d="M450.57,9.24h0l.07,0h0"/></g><polyline class="cls-1" points="367.02 76.99 367.01 77 356.81 70.65"/></g><path class="cls-1" d="M450.56,9.24a17,17,0,0,0-2.88-1.16c-6.67-2-15.41-.61-25,4.82-9.89,5.61-18.89,14.5-25.64,24.52a82.17,82.17,0,0,0-7.63,14,16.42,16.42,0,0,0-4.5,1.35c-.63.28-1.27.61-1.92,1-8.22,4.66-15,14.65-16,23.17h0c-10.69,8.21-18.73,22.2-18.73,33.51a15.82,15.82,0,0,0,2.26,8.75,10.34,10.34,0,0,0,2.7,2.81l-10.76-6.83c-3-2.22-4.76-6.11-4.76-11.42,0-11.32,8.06-25.34,18.77-33.53,1-8.54,7.82-18.52,16-23.19.46-.26.91-.5,1.36-.71a17,17,0,0,1,5.06-1.61A81.39,81.39,0,0,1,386.37,31c6.76-10.12,15.83-19.11,25.79-24.77,11.08-6.29,21-7.21,28-3.59h0c.71.37,7,4.37,7.4,4.62l-.69-.34Z"/><path class="cls-1" d="M437.43,83.13c-24.12,13.69-63.37,36-65.89,37.4-6.9,3.93-13.11,4.45-17.38,2.1l-1-.61a10.34,10.34,0,0,1-2.7-2.81,15.82,15.82,0,0,1-2.26-8.75c0-11.31,8-25.3,18.73-33.51h0c1-8.52,7.82-18.51,16-23.17.65-.37,1.29-.7,1.92-1"/></g></g></g></g></svg>