<?xml version="1.0" encoding="UTF-8"?>
<svg width="133px" height="44px" viewBox="0 0 133 44" version="1.1" xmlns="http://www.w3.org/2000/svg" xmlns:xlink="http://www.w3.org/1999/xlink">
    <!-- Generator: sketchtool 49 (51002) - http://www.bohemiancoding.com/sketch -->
    <title>AF27C1CB-21A0-4323-A86B-7420912A4E92@3x</title>
    <desc>Created with sketchtool.</desc>
    <defs></defs>
    <g id="Main" stroke="none" stroke-width="1" fill="none" fill-rule="evenodd" opacity="0.659999967">
        <g id="Landing" transform="translate(-857.000000, -2653.000000)" fill="#FFFFFF" fill-rule="nonzero">
            <g id="Open-source" transform="translate(206.000000, 2503.000000)">
                <g id="Microsoft-Logo-" transform="translate(651.000000, 150.000000)">
                    <path d="M59.5695067,10.5735356 C59.5937568,9.68299732 59.571305,8.79181012 59.5022422,7.90358681 L59.5695067,7.90358681 C59.6601355,8.38831071 59.8029573,8.8619755 59.9955157,9.31643469 L64.7040359,19.6624861 L65.4887892,19.6624861 L70.1524664,9.16068768 C70.3467162,8.73380714 70.4897012,8.28573833 70.5784753,7.8257133 L70.6457399,7.8257133 C70.5784753,8.88256802 70.5,9.79480051 70.5,10.4956621 L70.5,19.7181101 L72.1367713,19.7181101 L72.1367713,6.06799704 L70.1524664,6.06799704 L65.7802691,15.5685647 C65.6012342,16.1442929 65.387853,16.7089456 65.1412556,17.2595322 L65.073991,17.2595322 C64.8947538,16.7056343 64.6813462,16.1632035 64.4349776,15.6353134 L60.1524664,6.06799704 L58,6.06799704 L58,19.7181101 L59.5695067,19.7181101 L59.5695067,10.5735356 Z M75.1300448,19.7181101 L76.6995516,19.7181101 L76.6995516,9.93942273 L75.1300448,9.93942273 L75.1300448,19.7181101 Z M75.9147982,7.40297142 C76.1834575,7.41896031 76.4456832,7.31731395 76.632287,7.12485175 C76.8417765,6.93260009 76.9352323,6.64595192 76.8789238,6.36836627 C76.884312,6.08355965 76.7846387,5.8066148 76.5986547,5.58963122 C76.419989,5.38568477 76.1518334,5.28173981 75.8811659,5.31151156 C75.6125066,5.29552267 75.3502809,5.39716902 75.1636771,5.58963122 C74.9715104,5.77136942 74.8691055,6.02745063 74.8834081,6.29049277 C74.8531256,6.57879986 74.9561964,6.86518496 75.1636771,7.06922782 C75.3368777,7.30455665 75.6225455,7.43148668 75.9147982,7.40297142 Z M80.9147982,19.3621169 C81.6470357,19.7923782 82.4854889,20.0119398 83.3363229,19.9962297 C84.2905834,20.0337989 85.2346624,19.7899111 86.0493274,19.2953682 L86.1165919,19.2953682 L86.1165919,17.7490228 C85.4290737,18.2946244 84.5753956,18.5926891 83.6950673,18.5945066 C82.7847285,18.6105355 81.9082592,18.2521673 81.2735426,17.6044006 C80.6124512,16.8758098 80.2767865,15.9126569 80.3430493,14.9344519 C80.2883137,13.9138968 80.6202235,12.9099307 81.2735426,12.1198809 C81.911438,11.422323 82.8246908,11.0362527 83.7735426,11.0630262 C84.6208597,11.0730443 85.4438917,11.3452843 86.1278027,11.8417612 L86.1278027,10.2175424 C85.432565,9.87330187 84.6622856,9.70514001 83.8856502,9.72805179 C82.4713506,9.66433703 81.0968764,10.2026252 80.1076233,11.2076484 C79.1386984,12.2622606 78.6272143,13.6530591 78.6838565,15.0790741 C78.651795,15.9592497 78.8487015,16.8327864 79.2556054,17.6155254 C79.6402547,18.3352425 80.2134618,18.9386434 80.9147982,19.3621169 Z M93.044843,11.5747663 L93.044843,9.93942273 C92.7450691,9.83968258 92.4304993,9.79079046 92.1143498,9.79480051 C91.5355462,9.76655418 90.9697161,9.97109723 90.544843,10.3621646 C90.0839696,10.7929164 89.7406869,11.3325981 89.5470852,11.9307595 L89.4798206,11.9307595 L89.4798206,9.93942273 L87.9103139,9.93942273 L87.9103139,19.7959836 L89.4798206,19.7959836 L89.4798206,14.7898296 C89.4320747,13.8999243 89.6546899,13.0162926 90.1188341,12.2533783 C90.4746391,11.6462906 91.1263912,11.2700743 91.8340807,11.2632723 C92.2581207,11.2328675 92.6812063,11.3339403 93.044843,11.5525168 L93.044843,11.5747663 Z M98.044843,19.9517306 C99.3795305,19.9935722 100.671416,19.4815872 101.609865,18.5388827 C102.555867,17.5325273 103.04597,16.1860356 102.966368,14.8120792 C103.050799,13.4389129 102.619439,12.083413 101.755605,11.0074022 C100.871757,10.0774167 99.6087489,9.59820523 98.3251121,9.70580222 C96.9448181,9.64905469 95.6021433,10.1602691 94.6143498,11.1186501 C93.6548899,12.1482329 93.1643566,13.5240661 93.2578475,14.9233271 C93.1883955,16.2637518 93.6512553,17.5777781 94.5470852,18.5833818 C95.4561449,19.5146986 96.7293267,20.0062534 98.0336323,19.929481 L98.044843,19.9517306 Z M95.8026906,12.064257 C96.4160475,11.4112442 97.2799289,11.0473147 98.1793722,11.0630262 C99.073264,11.0302511 99.9356909,11.3929527 100.533632,12.0531322 C101.151344,12.8581804 101.454046,13.8581321 101.38565,14.8677031 C101.441424,15.8449933 101.165088,16.8125862 100.600897,17.6155254 C100.011686,18.287743 99.1431734,18.6530042 98.2466368,18.6056314 C97.3334428,18.6370278 96.4509455,18.2761948 95.8251121,17.6155254 C95.1505536,16.8636877 94.8144689,15.8712024 94.8946188,14.8677031 C94.838674,13.8543926 95.1443105,12.8539212 95.7578475,12.0420074 L95.8026906,12.064257 Z M107.742152,14.1557168 C107.210918,13.9309239 106.706976,13.6472975 106.23991,13.310233 C105.994267,13.0395603 105.865455,12.6840494 105.881166,12.320127 C105.898074,11.9334712 106.081874,11.5727439 106.38565,11.330021 C106.774354,11.0962531 107.220371,10.9730959 107.674888,10.9740279 C108.480506,10.950255 109.270596,11.1972246 109.91704,11.6748894 L109.91704,10.1507937 C109.243425,9.81726065 108.493779,9.66387992 107.742152,9.70580222 C106.832059,9.67066874 105.941211,9.97194789 105.242152,10.551286 C104.625454,11.0523766 104.260838,11.7963427 104.244395,12.5871219 C104.224427,13.2005832 104.427347,13.8007275 104.816143,14.2780895 C105.335644,14.8146255 105.972321,15.2256719 106.67713,15.4795664 C107.252251,15.6949362 107.789506,15.9990483 108.269058,16.3806741 C108.500766,16.6286817 108.628981,16.9547137 108.627803,17.2929066 C108.627803,18.2051391 108.056054,18.627881 106.766816,18.627881 C105.829012,18.6361896 104.918881,18.3127906 104.199552,17.7156485 L104.199552,19.406616 C104.947159,19.7911844 105.779082,19.9861042 106.621076,19.9739801 C107.569144,20.0429324 108.509963,19.7660161 109.266816,19.1952451 C109.910544,18.7108496 110.28151,17.9497893 110.264574,17.1482844 C110.261363,16.538419 110.060947,15.9456839 109.692825,15.4573168 C109.141315,14.8930547 108.476827,14.44967 107.742152,14.1557168 Z M116.452915,9.70580222 C115.084616,9.63734953 113.747737,10.1277994 112.753363,11.0630262 C111.793903,12.0926089 111.30337,13.4684421 111.396861,14.8677031 C111.327409,16.2081278 111.790269,17.5221542 112.686099,18.5277579 C113.572082,19.4644884 114.822802,19.9755411 116.116592,19.929481 C117.451279,19.9713226 118.743165,19.4593377 119.681614,18.5166331 C120.627616,17.5102777 121.117719,16.1637861 121.038117,14.7898296 C121.086763,13.4212655 120.659229,12.0777899 119.827354,10.9851527 C118.952102,10.0791559 117.713971,9.60974341 116.452915,9.70580222 Z M118.695067,17.6600246 C118.105857,18.3322421 117.237344,18.6975033 116.340807,18.6501305 C115.403328,18.6804812 114.500364,18.2976283 113.874439,17.6044006 C113.199881,16.8525629 112.863796,15.8600776 112.943946,14.8565784 C112.887452,13.8483743 113.188943,12.8524231 113.795964,12.0420074 C114.421798,11.3813379 115.304295,11.020505 116.217489,11.0519014 C117.111381,11.0191263 117.973807,11.3818279 118.571749,12.0420074 C119.189461,12.8470556 119.492163,13.8470073 119.423767,14.8565784 C119.521002,15.8345671 119.249388,16.8135999 118.661435,17.6044006 L118.695067,17.6600246 Z M132.932735,11.2743971 L132.932735,9.93942273 L130.432735,9.93942273 L130.432735,7.04697825 L128.863229,7.53646885 L128.863229,9.92829795 L124.872197,9.92829795 L124.872197,8.38195263 C124.872197,7.04697825 125.376682,6.3461167 126.508969,6.3461167 C126.900028,6.34588788 127.285101,6.44141804 127.630045,6.62423636 L127.630045,5.14463976 C127.263997,5.04969489 126.887312,5.00110143 126.508969,5.00001754 C125.620877,4.99711407 124.770246,5.35485494 124.154709,5.99012353 C123.571775,6.64927763 123.266702,7.50569464 123.302691,8.38195263 L123.302691,9.92829795 L121.587444,9.92829795 L121.587444,11.2632723 L123.302691,11.2632723 L123.302691,19.7181101 L124.939462,19.7181101 L124.939462,11.2743971 L128.930493,11.2743971 L128.930493,17.0481613 C128.930493,18.9504998 129.782511,19.929481 131.497758,19.929481 C132.014377,19.9683477 132.532258,19.8724692 133,19.6513613 L133,18.316387 C132.710762,18.5227258 132.357448,18.6212103 132.002242,18.5945066 C131.581709,18.641297 131.16426,18.4838828 130.881166,18.1717647 C130.617802,17.7487197 130.492513,17.2552906 130.522422,16.7589168 L130.522422,11.2743971 L132.932735,11.2743971 Z" id="Shape"></path>
                    <path d="M62.2797111,25 L57,38.7653501 L58.7826121,38.7653501 L60.1564725,34.9285533 L66.1514993,34.9285533 L67.6275475,38.7653501 L69.4328681,38.7653501 L64.0169064,25 L62.2797111,25 Z M60.6901207,33.4476843 L62.8587762,27.5466459 C62.9543635,27.2458964 63.0264847,26.9383514 63.0745063,26.6267121 L63.1426316,26.6267121 C63.1607593,26.9400687 63.2218735,27.2495413 63.3242991,27.5466459 L65.5951426,33.4364656 L60.6901207,33.4476843 Z M78.4026999,28.9602026 L70.6591236,28.9602026 L70.6591236,30.3064471 L76.00696,30.3064471 L70.1368296,38.2829458 L70.1368296,38.7653501 L78.3799915,38.7653501 L78.3799915,37.4191056 L72.4757984,37.4191056 L78.4708252,29.3304198 L78.4026999,29.3304198 L78.4026999,28.9602026 Z M88.0197221,28.9602026 L86.4301316,28.9602026 L86.4301316,34.7041792 C86.4904701,35.5167759 86.2300434,36.3208962 85.7034617,36.94792 C85.2153876,37.5078584 84.4981586,37.8209912 83.7505363,37.8005416 C82.0928206,37.8005416 81.2980253,36.7347646 81.2980253,34.6817418 L81.2980253,28.9041091 L79.7084349,28.9041091 L79.7084349,34.7939288 C79.7084349,37.5649488 80.9346904,38.9785055 83.319076,38.9785055 C84.6239409,39.0656927 85.8528707,38.3654976 86.4301316,37.2059502 L86.4982569,37.2059502 L86.4982569,38.7653501 L88.0197221,38.7653501 L88.0197221,28.9602026 Z M95.116108,28.7694846 C94.5298979,28.7409998 93.9568273,28.9472697 93.5265175,29.3416385 C93.0530781,29.7702993 92.6975572,30.3107266 92.4932837,30.9122571 L92.4251584,30.9122571 L92.4251584,28.9041091 L90.835568,28.9041091 L90.835568,38.843881 L92.4251584,38.843881 L92.4251584,33.8066828 C92.3768015,32.9092647 92.6022653,32.0181732 93.0723488,31.2488183 C93.4327068,30.6366054 94.0927989,30.257213 94.8095441,30.2503536 C95.2378127,30.2163251 95.6662265,30.3143114 96.0357996,30.5308212 L96.0357996,28.9041091 C95.7387606,28.8097951 95.4280632,28.7643153 95.116108,28.7694846 Z M100.872696,28.6685163 C100.033366,28.6598698 99.2080296,28.881216 98.4883106,29.3079824 C97.7755374,29.7644475 97.2023704,30.4044736 96.8305948,31.1590686 C96.4519271,32.0075718 96.2547841,32.9242313 96.2515297,33.8515577 C96.170887,35.2219663 96.6078511,36.5731806 97.4777852,37.6434797 C98.3132226,38.5740303 99.5369643,39.0709356 100.793217,38.9897242 C102.021649,39.0632808 103.241007,38.7404245 104.267607,38.0697905 L104.267607,36.5216093 C103.384047,37.2172095 102.28627,37.5932829 101.156552,37.5873862 C100.27746,37.6355147 99.4164734,37.3276384 98.772166,36.7347646 C98.1716847,36.0580823 97.8620933,35.1766178 97.9092455,34.2778684 L104.994277,34.2778684 L104.994277,33.4925591 C105.053591,32.2358116 104.650245,31.0003632 103.858855,30.0147608 C103.125936,29.1361882 102.024638,28.6396923 100.872696,28.6685163 Z M97.9773708,32.7857808 C98.0898857,32.0142427 98.4431274,31.2965832 98.9878961,30.7327579 C99.4806935,30.2335872 100.155604,29.9506788 100.861342,29.9474486 C101.552768,29.9238271 102.21738,30.2129312 102.666663,30.7327579 C103.120997,31.3201099 103.350266,32.0473971 103.313853,32.7857808 L97.9773708,32.7857808 Z" id="Shape"></path>
                    <g id="Group">
                        <polygon id="Shape" points="18.1052632 21.4358974 18.1052632 4.03897436 0 6.56615385 0 21.4358974"></polygon>
                        <polygon id="Shape" points="43 21.4358974 43 0.564102564 19.2368421 3.88102564 19.2368421 21.4358974"></polygon>
                        <polygon id="Shape" points="0 22.5641026 0 37.5241026 18.1052632 40.0512821 18.1052632 22.5641026"></polygon>
                        <polygon id="Shape" points="19.2368421 22.5641026 19.2368421 40.2092308 43 43.5148718 43 22.5641026"></polygon>
                    </g>
                </g>
            </g>
        </g>
    </g>
</svg>