<?xml version="1.0" encoding="UTF-8"?>
<svg width="150px" height="41px" viewBox="0 0 150 41" version="1.1" xmlns="http://www.w3.org/2000/svg" xmlns:xlink="http://www.w3.org/1999/xlink">
    <!-- Generator: sketchtool 49 (51002) - http://www.bohemiancoding.com/sketch -->
    <title>A5B7C9DB-2166-4DC2-973E-66F97BA55E0A@3x</title>
    <desc>Created with sketchtool.</desc>
    <defs></defs>
    <g id="Main" stroke="none" stroke-width="1" fill="none" fill-rule="evenodd" opacity="0.600000024">
        <g id="Landing" transform="translate(-395.000000, -2653.000000)" fill="#FFFFFF" fill-rule="nonzero">
            <g id="Open-source" transform="translate(206.000000, 2503.000000)">
                <g id="Google-Logo" transform="translate(189.000000, 150.000000)">
                    <path d="M90.000703,27.9097705 L90.0632023,28.971808 L90.000703,28.971808 C89.4214501,28.1320868 88.4542004,27.6357327 87.4257332,27.6504357 C85.3570645,27.8928941 83.8039128,29.6335707 83.8199367,31.6915898 C83.8359607,33.7496089 85.4160331,35.466474 87.4882324,35.6774633 C88.4975027,35.6709787 89.4381683,35.1716352 90.000703,34.3437418 L90.0632023,34.3437418 L90.0632023,35.4057793 L91.3756869,35.4057793 L91.3756869,24.3655291 L90.000703,24.3655291 L90.000703,27.9097705 Z M87.7382295,34.4301867 C87.0229676,34.4159641 86.3481439,34.0996842 85.8845345,33.5613874 C85.420925,33.0230905 85.2129561,32.3143599 85.3132579,31.6145524 C85.1600163,30.6831113 85.5774523,29.7500569 86.3778233,29.2350322 C87.1781943,28.7200075 88.2107657,28.7200075 89.0111367,29.2350322 C89.8115077,29.7500569 90.2289437,30.6831113 90.0757021,31.6145524 C90.1913497,33.030472 89.1324752,34.2748026 87.7007299,34.4054881 L87.7382295,34.4301867 Z M71.0009256,27.6257372 C69.3423644,27.560165 67.8102522,28.498056 67.131358,29.9945146 C66.4524637,31.4909732 66.7633617,33.2449542 67.9165751,34.4244437 C69.0697885,35.6039332 70.8333234,35.9716513 72.3706339,35.353168 C73.9079444,34.7346848 74.9097671,33.2544216 74.9008799,31.6145524 C74.9527642,30.565449 74.5632203,29.541849 73.8245845,28.7863833 C73.0859488,28.0309177 72.0639812,27.6108447 71.0009256,27.6257372 Z M71.0009256,34.3931389 C69.8413635,34.5212159 68.722176,33.9286512 68.1880122,32.9038147 C67.6538484,31.8789781 67.815653,30.6347262 68.5946843,29.7765702 C69.3737157,28.9184141 70.6081705,28.6245913 71.6973052,29.0380896 C72.7864399,29.4515879 73.5040435,30.4865246 73.5008963,31.639251 C73.5452398,32.3346978 73.305788,33.0187176 72.8360324,33.5385059 C72.3662767,34.0582942 71.70536,34.3705393 71.0009256,34.4054881 L71.0009256,34.3931389 Z M64.6010006,35.39343 L66.0384837,35.39343 L66.0384837,24.3655291 L64.6010006,24.3655291 L64.6010006,35.39343 Z M81.2508055,32.0220784 C81.3371239,33.209995 80.4396993,34.2452954 79.2383291,34.3437418 C78.1758415,34.3437418 77.3508512,33.7756752 77.3508512,32.2073175 L77.3508512,27.8109763 L75.9633675,27.8109763 L75.9633675,32.454303 C75.9633675,34.3313925 76.9008565,35.6527647 78.8508336,35.6527647 C79.8187772,35.6282776 80.7141042,35.1399371 81.2508055,34.3437418 L81.2508055,35.4675256 L82.6882887,35.4675256 L82.6882887,27.9097705 L81.2508055,27.9097705 L81.2508055,32.0220784 Z M59.1510644,34.2696461 C56.7883663,34.1458014 54.9368805,32.2169983 54.9368805,29.8794795 C54.9368805,27.5419608 56.7883663,25.6131577 59.1510644,25.489313 C60.3401266,25.4422063 61.4812396,25.9554789 62.2260284,26.8724315 L63.2260167,25.9338868 C62.2071856,24.7619797 60.714588,24.097045 59.1510644,24.1185436 C57.6033143,24.1014445 56.1147948,24.7055917 55.0262082,25.7927038 C53.9376216,26.879816 53.3421656,28.3568218 53.3761321,29.8856542 C53.3232797,31.4142207 53.9147194,32.8959389 55.0093967,33.9774291 C56.104074,35.0589192 57.6038594,35.643234 59.1510644,35.5910184 C60.8323976,35.6204324 62.4399849,34.9100314 63.538513,33.6521825 L62.5385248,32.6518914 C61.720763,33.6764825 60.4717715,34.2729653 59.1510644,34.2696461 Z M117.375382,34.3313925 C116.75039,34.3313925 116.375394,33.9609143 116.375394,33.0964652 L116.375394,29.1446978 L118.250372,29.1446978 L118.250372,27.9097705 L116.375394,27.9097705 L116.375394,25.5634086 L114.925411,25.5634086 L114.925411,27.9097705 L113.612926,27.9097705 L113.612926,29.1446978 L114.925411,29.1446978 L114.925411,33.0964652 C114.858539,33.769603 115.100359,34.4369449 115.584458,34.9152123 C116.068557,35.3934796 116.744036,35.6323866 117.425382,35.5663198 C117.808895,35.5759071 118.190733,35.5130342 118.550368,35.3810807 L118.050374,34.1461534 C117.856046,34.288682 117.616935,34.358676 117.375382,34.3437418 L117.375382,34.3313925 Z M109.537974,27.6257372 C108.229701,27.5364955 107.003259,28.2605408 106.46301,29.4410804 L107.775495,30.0091469 C108.194436,29.2442706 109.07033,28.8399497 109.932963,29.0132388 C110.795596,29.1865279 111.442118,29.8966774 111.525451,30.7624526 L111.525451,30.9476917 C110.871013,30.6633905 110.165328,30.5121941 109.450475,30.5031178 C107.687996,30.5031178 106.125514,31.4416626 106.125514,33.133513 C106.151431,33.8455958 106.464644,34.5178348 106.995327,35.0003672 C107.526009,35.4828996 108.230045,35.7356101 108.950481,35.7021618 C109.959211,35.719212 110.905026,35.2192964 111.450452,34.3807896 L111.512951,34.3807896 L111.512951,35.4428271 L112.887935,35.4428271 L112.887935,30.8859453 C112.93706,29.9963438 112.596357,29.1288716 111.952744,28.5048301 C111.30913,27.8807886 110.424843,27.5605233 109.525474,27.6257372 L109.537974,27.6257372 Z M109.225478,34.3313925 C108.475487,34.3313925 107.662996,33.9609143 107.662996,33.0964652 C107.662996,32.2320161 108.21299,31.6145524 109.712972,31.6145524 C110.360495,31.5857981 111.000243,31.7632892 111.537951,32.1208726 C111.484812,33.3548517 110.463074,34.3317187 109.212978,34.3437418 L109.225478,34.3313925 Z M121.725331,26.9218286 C121.701023,26.5796034 121.821906,26.2428109 122.05901,25.9921659 C122.296114,25.7415209 122.628068,25.5996148 122.975317,25.6004564 C123.189338,25.605337 123.400851,25.6471298 123.600309,25.7239491 L124.100303,24.4890218 C123.762552,24.3566215 123.401037,24.2935934 123.037816,24.3037827 C122.323115,24.2464457 121.6179,24.4950615 121.101392,24.9864481 C120.584883,25.4778347 120.306813,26.1646797 120.337848,26.8724315 L120.337848,27.8109763 L118.937864,27.8109763 L118.937864,29.1446978 L120.312848,29.1446978 L120.312848,35.4181285 L121.750331,35.4181285 L121.750331,29.1446978 L123.750308,29.1446978 L123.750308,27.8109763 L121.762831,27.8109763 L121.725331,26.9218286 Z M127.975258,27.6751343 C126.3159,27.6299873 124.795668,28.5867859 124.135768,30.0916202 C123.475867,31.5964545 123.809067,33.3465569 124.977297,34.5116705 C126.145526,35.676784 127.913741,36.0224918 129.443092,35.3847884 C130.972442,34.7470849 131.955229,33.2542741 131.925212,31.6145524 C131.976945,30.5676191 131.589077,29.5459988 130.853196,28.7909302 C130.117314,28.0358616 129.098655,27.6142808 128.037757,27.6257372 L127.975258,27.6751343 Z M127.975258,34.442536 C126.815696,34.570613 125.696508,33.9780483 125.162345,32.9532118 C124.628181,31.9283752 124.789985,30.6841233 125.569017,29.8259673 C126.348048,28.9678112 127.582503,28.6739884 128.671638,29.0874867 C129.760772,29.500985 130.478376,30.5359217 130.475229,31.6886481 C130.540068,33.0964563 129.46021,34.3000811 128.037757,34.4054881 L127.975258,34.442536 Z M103.438046,35.4428271 L105.000527,35.4428271 L105.000527,24.3655291 L103.513045,24.3655291 L103.438046,35.4428271 Z M147.187533,27.662785 C146.109428,27.6410992 145.102484,28.1927257 144.550064,29.10765 C144.147452,28.1723903 143.188833,27.5922474 142.162592,27.662785 C141.279965,27.7388335 140.482128,28.2126804 140.000117,28.9471094 L139.937618,28.9471094 L139.937618,27.9097705 L138.437635,27.9097705 L138.437635,35.6280662 L139.875119,35.6280662 L139.875119,31.4293133 C139.806496,30.2693898 140.658516,29.2549652 141.825096,29.10765 C142.887583,29.10765 143.525076,29.6139702 143.525076,31.1823279 L143.525076,35.5663198 L144.962559,35.5663198 L144.962559,31.367567 C144.893936,30.2076434 145.745956,29.1932188 146.912536,29.0459036 C147.975024,29.0459036 148.612516,29.5522238 148.612516,31.1205815 L148.612516,35.5045735 L150,35.5045735 L150,30.8241989 C150,28.9471094 149.18751,27.6257372 147.300032,27.6257372 L147.187533,27.662785 Z M98.9380983,24.4025769 L95.1881422,24.4025769 L95.1881422,35.3193344 L96.6256254,35.3193344 L96.6256254,30.8859453 L98.9505981,30.8859453 C100.773116,30.8859453 102.250559,29.4263004 102.250559,27.6257372 C102.250559,25.825174 100.773116,24.3655291 98.9505981,24.3655291 L98.9380983,24.4025769 Z M99.0005975,29.6016209 L96.7256242,29.6016209 L96.7256242,25.6869013 L99.1130962,25.6869013 C100.200394,25.6869013 101.081823,26.5577122 101.081823,27.6319118 C101.081823,28.7061115 100.200394,29.5769224 99.1130962,29.5769224 L99.0005975,29.6016209 Z M134.500182,29.1446978 L134.437682,29.1446978 L134.437682,27.9097705 L133.062698,27.9097705 L133.062698,35.4304778 L134.500182,35.4304778 L134.500182,31.2687728 C134.448271,30.7183435 134.627777,30.1710475 134.996581,29.7553026 C135.365385,29.3395576 135.891022,29.0919586 136.450159,29.0706022 C136.70534,29.0706022 136.958762,29.1123303 137.20015,29.1940949 L137.762643,27.8727227 C137.424892,27.7403224 137.063377,27.6772942 136.700156,27.6874836 C135.745228,27.7179911 134.891407,28.2835433 134.500182,29.1446978 Z M65.6259886,11.0283141 L59.8010568,11.0283141 L59.8010568,12.7572124 L63.9385084,12.7572124 C63.8819262,13.5651547 63.5516968,14.3307577 63.0010193,14.9306844 C62.1604479,15.7728595 60.9968723,16.2219058 59.8010568,16.1656117 C57.2329628,16.1656117 55.1511113,14.1088394 55.1511113,11.5716821 C55.1511113,9.03452487 57.2329628,6.97775253 59.8010568,6.97775253 C60.9641866,6.96040194 62.0856247,7.40535319 62.9135204,8.21267984 L64.1635057,6.97775253 C63.0172932,5.83766028 61.4524419,5.20500315 59.8260565,5.22415575 C56.2914755,5.22415575 53.4261315,8.0549822 53.4261315,11.5469836 C53.4261315,15.038985 56.2914755,17.8698114 59.8260565,17.8698114 C61.4135835,17.9552408 62.9635592,17.3729497 64.0925278,16.2669937 C65.2214964,15.1610377 65.8240017,13.6347234 65.7509871,12.0656531 C65.7408991,11.7168693 65.6990642,11.3696897 65.6259886,11.0283141 Z M90.2881996,10.6948837 C89.7419684,10.0933767 88.9558864,9.75925271 88.1382248,9.78103753 C85.8600769,9.78103753 84.0132731,11.6055936 84.0132731,13.8562977 C84.0132731,16.1070017 85.8600769,17.9315578 88.1382248,17.9315578 C88.9588978,17.9553865 89.7474223,17.6156951 90.2881996,17.0053623 L90.2881996,17.5981274 C90.2881996,19.1541358 89.4507094,19.9815371 88.1132251,19.9815371 C87.1955363,19.9581722 86.3842421,19.3863555 86.0632491,18.5366722 L84.5132673,19.1911837 C85.0860031,20.6721858 86.5209982,21.6532988 88.125725,21.6610383 C90.2257004,21.6610383 92.0006796,20.426111 92.0006796,17.4128883 L92.0006796,10.028023 L90.2881996,10.028023 L90.2881996,10.6948837 Z M88.2382236,16.3261523 C86.8575279,16.3261523 85.7382529,15.2203607 85.7382529,13.8562977 C85.7382529,12.4922346 86.8575279,11.386443 88.2382236,11.386443 C88.8612457,11.4209896 89.443693,11.7028227 89.8532667,12.1679259 C90.2628404,12.633029 90.4647735,13.2419215 90.4131982,13.8562977 C90.4757233,14.473032 90.277678,15.0878993 89.8658888,15.5555184 C89.4540996,16.0231374 88.8651248,16.3019933 88.2382236,16.3261523 Z M79.3383279,9.79338681 C77.6666121,9.77837185 76.1510343,10.7617006 75.500738,12.2832705 C74.8504417,13.8048404 75.1940387,15.5637241 76.370759,16.7369345 C77.5474793,17.9101449 79.3245978,18.2656511 80.8705953,17.6371107 C82.4165929,17.0085704 83.4257109,15.5202925 83.42578,13.8686469 C83.449595,12.7872267 83.0278426,11.7426194 82.257199,10.9742744 C81.4865553,10.2059294 80.4331062,9.77973552 79.3383279,9.79338681 Z M79.3383279,16.3261523 C78.3129657,16.4074484 77.341864,15.8599412 76.8911378,14.9464263 C76.4404115,14.0329114 76.602077,12.939884 77.2985371,12.1919817 C77.9949973,11.4440793 79.0840688,11.1939872 80.043013,11.5617459 C81.0019572,11.9295047 81.6350044,12.8400359 81.638301,13.8562977 C81.6722407,14.4870314 81.4473533,15.1046461 81.0144934,15.5694781 C80.5816335,16.03431 79.977363,16.3070969 79.3383279,16.3261523 Z M70.4134325,17.9439071 C72.0851483,17.958922 73.6007261,16.9755933 74.2510224,15.4540234 C74.9013187,13.9324534 74.5577217,12.1735697 73.3810014,11.0003594 C72.2042811,9.82714898 70.4271626,9.47164275 68.8811651,10.1001831 C67.3351675,10.7287235 66.3260495,12.2170014 66.3259804,13.8686469 C66.3090872,14.9469345 66.7334842,15.9863039 67.5029814,16.751181 C68.2724786,17.5160581 69.3219141,17.9416723 70.4134325,17.9315578 L70.4134325,17.9439071 Z M70.4134325,11.386443 C71.4387947,11.3051469 72.4098964,11.8526541 72.8606226,12.766169 C73.3113489,13.6796839 73.1496834,14.7727113 72.4532233,15.5206137 C71.7567632,16.268516 70.6676916,16.5186081 69.7087474,16.1508494 C68.7498032,15.7830906 68.116756,14.8725594 68.1134594,13.8562977 C68.0759907,13.2246844 68.2996731,12.6051041 68.7332682,12.1394827 C69.1668632,11.6738612 69.7732166,11.4020972 70.4134325,11.386443 Z M93.2256652,17.6845723 L95.0006444,17.6845723 L95.0006444,5.68107885 L93.2256652,5.68107885 L93.2256652,17.6845723 Z M103.225548,12.3867342 C102.744544,10.8740643 101.342517,9.83148771 99.7380889,9.79338681 C98.6722742,9.80512961 97.6577664,10.2473355 96.9304964,11.0171665 C96.2032264,11.7869975 95.8265746,12.8173639 95.888134,13.8686469 C95.8575969,14.9434176 96.2702704,15.984341 97.0315247,16.7527238 C97.792779,17.5211066 98.8373062,17.9510294 99.9255867,17.9439071 C101.293366,17.9447301 102.570331,17.2675571 103.325547,16.1409132 L101.938063,15.2147177 C101.514797,15.9137496 100.750077,16.340776 99.9255867,16.3385016 C99.0738392,16.3636904 98.2921005,15.8748793 97.9506098,15.1035743 L103.400546,12.8560065 L103.225548,12.3867342 Z M97.6631132,13.7328049 C97.6221194,13.1368774 97.8256044,12.549725 98.2277067,12.1036805 C98.6298091,11.657636 99.1966909,11.390235 99.8005882,11.3617445 C100.436774,11.3149293 101.037017,11.6579937 101.31307,12.2261936 L97.6631132,13.7328049 Z M16.176568,32.6518914 L30.2264033,32.6518914 L37.251321,20.5002066 L30.2264033,8.34852185 L16.176568,8.34852185 L9.15165027,20.5002066 L16.176568,32.6518914 Z M23.2014857,13.4611209 C26.0909432,13.4260612 28.71568,15.1186718 29.8461038,17.7460273 C30.9765277,20.3733827 30.3887375,23.4150874 28.3580913,25.4462149 C26.3274452,27.4773424 23.2561495,28.095591 20.5829928,27.011334 C17.9098362,25.927077 16.164286,23.3550713 16.1640681,20.5002066 C16.143286,16.637858 19.2920833,13.4883143 23.2014857,13.4611209 Z M15.5640751,33.7139289 L3.75171354,13.2141355 L0.41425264,18.9318489 C-0.138084213,19.901825 -0.138084213,21.086239 0.41425264,22.056215 L10.4141355,39.4439916 C10.970267,40.405855 12.0053707,40.9996427 13.1266037,41 L25.3639603,41 L29.5639111,33.7139289 L15.5640751,33.7139289 Z M45.9887187,18.8948011 L39.8762903,8.34852185 L31.451389,8.34852185 L38.4763067,20.5002066 L26.6389454,41 L33.2513679,41 C34.3688341,40.9977844 35.399336,40.4038998 35.9513363,39.4439916 L45.9512191,22.056215 C46.513573,21.0888551 46.513573,19.8992088 45.9512191,18.9318489 L45.9887187,18.8948011 Z M15.5640751,7.28648436 L39.3137969,7.28648436 L36.0013357,1.55642163 C35.4425664,0.579067981 34.3873844,-0.0179834156 33.2513679,0.000413214805 L13.1641033,0.000413214805 C12.046637,0.00262879907 11.0161351,0.596513402 10.4641349,1.55642163 L4.33920665,12.152098 L8.5516573,19.4381691 L15.5640751,7.28648436 Z" id="Shape"></path>
                </g>
            </g>
        </g>
    </g>
</svg>