<?xml version="1.0" encoding="UTF-8"?>
<svg width="26px" height="24px" viewBox="0 0 26 24" version="1.1" xmlns="http://www.w3.org/2000/svg" xmlns:xlink="http://www.w3.org/1999/xlink">
    <!-- Generator: sketchtool 49 (51002) - http://www.bohemiancoding.com/sketch -->
    <title>4CA69127-4A6B-4F60-9C0C-D49BAD40FBA1@3x</title>
    <desc>Created with sketchtool.</desc>
    <defs></defs>
    <g id="Main" stroke="none" stroke-width="1" fill="none" fill-rule="evenodd" stroke-linecap="round" stroke-linejoin="round">
        <g id="Landing" transform="translate(-449.000000, -1391.000000)" stroke-width="2">
            <g id="Block-features" transform="translate(67.000000, 1391.000000)">
                <g id="Icon-automation" transform="translate(383.000000, 1.000000)">
                    <path d="M14.2004727,8.19918 L17.4437455,13.80918" id="Stroke-997" stroke="#5E5F69"></path>
                    <path d="M6.5772,13.80962 L9.80192727,8.19962" id="Stroke-998" stroke="#5E5F69"></path>
                    <path d="M15.2727273,17.6 L8.72727273,17.6" id="Stroke-999" stroke="#5E5F69"></path>
                    <path d="M0,17.6 C0,15.1701 1.95381818,13.2 4.36363636,13.2 C6.77345455,13.2 8.72727273,15.1701 8.72727273,17.6 C8.72727273,20.0299 6.77345455,22 4.36363636,22 C1.95381818,22 0,20.0299 0,17.6 L0,17.6 Z" id="Stroke-1011" stroke="#5E5F69"></path>
                    <path d="M15.2727273,17.6 C15.2727273,15.1701 17.2265455,13.2 19.6363636,13.2 C22.0461818,13.2 24,15.1701 24,17.6 C24,20.0299 22.0461818,22 19.6363636,22 C17.2265455,22 15.2727273,20.0299 15.2727273,17.6 L15.2727273,17.6 Z" id="Stroke-1012" stroke="#5E5F69"></path>
                    <path d="M7.63636364,4.4 C7.63636364,1.9701 9.59018182,0 12,0 C14.4098182,0 16.3636364,1.9701 16.3636364,4.4 C16.3636364,6.8299 14.4098182,8.8 12,8.8 C9.59018182,8.8 7.63636364,6.8299 7.63636364,4.4 L7.63636364,4.4 Z" id="Stroke-1013" stroke="#FFFFFF"></path>
                </g>
            </g>
        </g>
    </g>
</svg>