<svg xmlns="http://www.w3.org/2000/svg" xmlns:xlink="http://www.w3.org/1999/xlink" viewBox="0 0 1097.78 552.68"><defs><style>.cls-1,.cls-10,.cls-11,.cls-12,.cls-13,.cls-14,.cls-15,.cls-16,.cls-17,.cls-18,.cls-19,.cls-2,.cls-20,.cls-21,.cls-22,.cls-23,.cls-24,.cls-25,.cls-26,.cls-27,.cls-28,.cls-29,.cls-3,.cls-30,.cls-31,.cls-32,.cls-33,.cls-34,.cls-35,.cls-36,.cls-37,.cls-38,.cls-39,.cls-4,.cls-40,.cls-41,.cls-42,.cls-43,.cls-44,.cls-45,.cls-46,.cls-47,.cls-48,.cls-49,.cls-5,.cls-6,.cls-7,.cls-8,.cls-9{fill:none;stroke-linecap:round;stroke-linejoin:round;}.cls-1,.cls-10,.cls-11,.cls-12,.cls-13,.cls-14,.cls-15,.cls-16,.cls-17,.cls-18,.cls-19,.cls-2,.cls-20,.cls-21,.cls-22,.cls-23,.cls-24,.cls-25,.cls-26,.cls-27,.cls-28,.cls-29,.cls-3,.cls-30,.cls-31,.cls-32,.cls-33,.cls-34,.cls-35,.cls-36,.cls-37,.cls-38,.cls-39,.cls-4,.cls-40,.cls-41,.cls-42,.cls-43,.cls-44,.cls-45,.cls-46,.cls-47,.cls-5,.cls-6,.cls-7,.cls-8,.cls-9{stroke:#363a4d;}.cls-2{stroke-dasharray:7.04 4.4;}.cls-3{stroke-dasharray:8.29 5.18;}.cls-4{stroke-dasharray:7.29 4.55;}.cls-5{stroke-dasharray:7.73 4.83;}.cls-6{stroke-dasharray:7.95 4.97;}.cls-7{stroke-dasharray:4.04 2.53;}.cls-8{stroke-dasharray:7.94 4.96;}.cls-9{stroke-dasharray:8.29 5.18;}.cls-10{stroke-dasharray:7.94 4.97;}.cls-11{stroke-dasharray:8.29 5.18;}.cls-12{stroke-dasharray:8.29 5.18;}.cls-13{stroke-dasharray:4.05 2.53;}.cls-14{stroke-dasharray:8.05 5.03;}.cls-15{stroke-dasharray:4.04 2.53;}.cls-16{stroke-dasharray:8.29 5.18;}.cls-17{stroke-dasharray:4.05 2.53;}.cls-18{stroke-dasharray:8.29 5.18;}.cls-19{stroke-dasharray:7.83 4.89;}.cls-20{stroke-dasharray:7.4 4.63;}.cls-21{stroke-dasharray:7.35 4.6;}.cls-22{stroke-dasharray:6.5 4.06;}.cls-23{stroke-dasharray:6.37 3.98;}.cls-24{stroke-dasharray:6.35 3.97;}.cls-25{stroke-dasharray:6.37 3.98;}.cls-26{stroke-dasharray:6.35 3.97;}.cls-27{stroke-dasharray:8.66 5.41;}.cls-28{stroke-dasharray:8.26 5.16;}.cls-29{stroke-dasharray:8.67 5.42;}.cls-30{stroke-dasharray:7.26 4.54;}.cls-31{stroke-dasharray:7.22 4.51;}.cls-32{stroke-dasharray:7.26 4.54;}.cls-33{stroke-dasharray:8.68 5.42;}.cls-34{stroke-dasharray:5.76 3.6;}.cls-35{stroke-dasharray:8.67 5.42;}.cls-36{stroke-dasharray:5.76 3.6;}.cls-37{stroke-dasharray:8.05 5.03;}.cls-38{stroke-dasharray:4.41 2.76;}.cls-39{stroke-dasharray:6.37 3.98;}.cls-40{stroke-dasharray:6.37 3.98;}.cls-41{stroke-dasharray:5.81 3.63;}.cls-42{stroke-dasharray:8.25 5.16;}.cls-43{stroke-dasharray:6.37 3.98;}.cls-44{stroke-dasharray:6.38 3.98;}.cls-45{stroke-dasharray:6.38 3.98;}.cls-46{stroke-dasharray:6.38 3.98;}.cls-47{fill-rule:evenodd;}.cls-48{stroke:url(#new);}.cls-49{stroke:url(#new-30);}</style><linearGradient id="new" x1="176.75" y1="173.46" x2="567.82" y2="173.46" gradientUnits="userSpaceOnUse"><stop offset="0.2" stop-color="#363a4d"/><stop offset="0.8" stop-color="#7e39d7"/></linearGradient><linearGradient id="new-30" x1="0" y1="277.4" x2="1097.78" y2="277.4" xlink:href="#new"/></defs><title>Asset 2</title><g id="Layer_2" data-name="Layer 2"><g id="C1"><g id="R"><g id="dash"><line class="cls-1" x1="343.36" y1="115.58" x2="346.83" y2="113.58"/><line class="cls-2" x1="350.64" y1="111.38" x2="388.39" y2="89.58"/><line class="cls-1" x1="390.29" y1="88.47" x2="393.75" y2="86.47"/><line class="cls-1" x1="506.46" y1="210.03" x2="509.92" y2="208.03"/><line class="cls-3" x1="514.41" y1="205.44" x2="663.86" y2="119.17"/><line class="cls-1" x1="666.1" y1="117.87" x2="669.56" y2="115.87"/><line class="cls-1" x1="474.81" y1="39.82" x2="478.27" y2="37.81"/><line class="cls-4" x1="482.2" y1="35.51" x2="500.69" y2="24.73"/><polyline class="cls-1" points="502.66 23.58 506.12 21.56 509.58 23.56"/><polyline class="cls-5" points="513.77 25.98 578.68 63.4 664.01 112.67"/><line class="cls-1" x1="666.1" y1="113.87" x2="669.56" y2="115.87"/><line class="cls-1" x1="372.14" y1="132.47" x2="375.61" y2="134.47"/><polyline class="cls-6" points="379.91 136.96 416.25 157.94 500.84 206.79"/><line class="cls-1" x1="502.99" y1="208.03" x2="506.46" y2="210.03"/><polyline class="cls-1" points="354.24 122.07 357.68 124.12 354.21 126.12"/><polyline class="cls-1" points="346.83 130.38 343.37 132.38 343.37 128.38"/><polyline class="cls-1" points="343.37 119.57 343.37 115.57 346.8 117.62"/><polyline class="cls-1" points="666.1 117.87 669.57 115.87 669.56 119.87"/><line class="cls-7" x1="669.55" y1="122.39" x2="669.54" y2="127.7"/><polyline class="cls-1" points="669.53 128.96 669.52 132.96 666.06 134.96"/><line class="cls-8" x1="661.77" y1="137.44" x2="518.74" y2="220.06"/><polyline class="cls-1" points="516.59 221.3 513.13 223.3 506.45 219.45 506.45 215.45"/><polyline class="cls-1" points="506.45 214.03 506.45 210.03 509.92 208.03"/><line class="cls-9" x1="514.41" y1="205.44" x2="663.86" y2="119.17"/><line class="cls-1" x1="743.56" y1="158.67" x2="747.02" y2="160.67"/><polyline class="cls-10" points="751.32 163.16 762.89 169.84 860.97 226.47"/><line class="cls-1" x1="863.12" y1="227.71" x2="866.58" y2="229.71"/><line class="cls-1" x1="703.48" y1="323.87" x2="700.02" y2="321.87"/><polyline class="cls-11" points="695.53 319.28 675.05 307.45 546.1 233"/><polyline class="cls-1" points="543.86 231.7 540.39 229.7 543.86 227.7"/><line class="cls-12" x1="548.34" y1="225.11" x2="697.74" y2="138.81"/><polyline class="cls-1" points="699.98 137.51 703.45 135.51 706.91 137.51"/><line class="cls-1" x1="709.56" y1="139.04" x2="713.02" y2="141.04"/><line class="cls-1" x1="540.39" y1="229.7" x2="540.39" y2="233.7"/><line class="cls-13" x1="540.39" y1="236.23" x2="540.39" y2="241.55"/><polyline class="cls-1" points="540.39 242.82 540.39 246.82 543.86 248.82"/><line class="cls-1" x1="703.48" y1="323.87" x2="703.48" y2="327.87"/><line class="cls-13" x1="703.48" y1="330.4" x2="703.48" y2="335.72"/><polyline class="cls-1" points="703.49 336.99 703.49 340.99 700.02 338.99"/><line class="cls-14" x1="695.66" y1="336.47" x2="584.52" y2="272.3"/><line class="cls-1" x1="582.34" y1="271.04" x2="578.87" y2="269.04"/><polyline class="cls-1" points="863.12 231.71 866.58 229.71 866.57 233.71"/><line class="cls-15" x1="866.57" y1="236.24" x2="866.56" y2="241.54"/><polyline class="cls-1" points="866.55 242.8 866.54 246.8 863.08 248.8"/><line class="cls-16" x1="858.59" y1="251.39" x2="709.19" y2="337.69"/><polyline class="cls-1" points="706.95 338.99 703.48 340.99 703.48 336.99"/><line class="cls-17" x1="703.48" y1="334.46" x2="703.48" y2="329.14"/><polyline class="cls-1" points="703.48 327.87 703.48 323.87 706.95 321.87"/><line class="cls-18" x1="711.44" y1="319.28" x2="860.88" y2="233.01"/><line class="cls-1" x1="208.77" y1="282.79" x2="205.31" y2="284.8"/><polyline class="cls-19" points="201.08 287.25 157.07 312.78 77.78 306.97 16.64 342.54"/><line class="cls-1" x1="14.53" y1="343.77" x2="11.07" y2="345.78"/><line class="cls-1" x1="433.55" y1="395.56" x2="437.02" y2="393.55"/><line class="cls-20" x1="441.02" y1="391.24" x2="501.48" y2="356.27"/><polyline class="cls-1" points="503.49 355.11 506.95 353.11 510.41 355.11"/><line class="cls-21" x1="514.39" y1="357.4" x2="574.51" y2="392.07"/><line class="cls-1" x1="576.5" y1="393.22" x2="579.97" y2="395.21"/><line class="cls-1" x1="675" y1="307.48" x2="678.47" y2="305.49"/><line class="cls-22" x1="681.99" y1="303.47" x2="698.56" y2="293.95"/><polyline class="cls-1" points="700.32 292.94 703.79 290.95 707.25 292.95"/><line class="cls-23" x1="710.71" y1="294.94" x2="726.92" y2="304.3"/><line class="cls-1" x1="728.65" y1="305.3" x2="732.11" y2="307.3"/><line class="cls-1" x1="748.36" y1="297.93" x2="744.9" y2="295.93"/><line class="cls-24" x1="741.46" y1="293.94" x2="725.29" y2="284.61"/><polyline class="cls-1" points="723.58 283.62 720.11 281.62 723.58 279.62"/><line class="cls-25" x1="727.02" y1="277.63" x2="743.24" y2="268.27"/><polyline class="cls-1" points="744.97 267.27 748.43 265.27 751.89 267.27"/><line class="cls-26" x1="755.33" y1="269.26" x2="771.5" y2="278.59"/><line class="cls-1" x1="773.22" y1="279.58" x2="776.68" y2="281.58"/><line class="cls-1" x1="416.25" y1="157.94" x2="419.72" y2="155.95"/><line class="cls-27" x1="424.41" y1="153.24" x2="483" y2="119.46"/><polyline class="cls-1" points="485.34 118.11 488.81 116.11 485.34 114.11"/><line class="cls-28" x1="480.87" y1="111.54" x2="459.85" y2="99.41"/><line class="cls-1" x1="457.61" y1="98.12" x2="454.14" y2="96.12"/><polyline class="cls-1" points="575.34 40.42 578.8 42.42 575.34 44.42"/><line class="cls-29" x1="570.64" y1="47.13" x2="511.93" y2="80.98"/><polyline class="cls-1" points="509.58 82.34 506.12 84.33 502.65 82.33"/><line class="cls-30" x1="498.72" y1="80.06" x2="480.24" y2="69.4"/><polyline class="cls-1" points="478.28 68.26 474.81 66.26 474.81 62.26"/><line class="cls-31" x1="474.81" y1="57.75" x2="474.81" y2="24.83"/><polyline class="cls-1" points="474.81 22.57 474.81 18.57 478.28 16.57"/><line class="cls-32" x1="482.21" y1="14.3" x2="500.69" y2="3.64"/><polyline class="cls-1" points="502.65 2.5 506.12 0.5 509.58 2.5"/><line class="cls-33" x1="514.28" y1="5.21" x2="572.99" y2="39.07"/><polyline class="cls-1" points="575.34 44.42 578.8 42.42 578.79 46.42"/><line class="cls-34" x1="578.77" y1="50.02" x2="578.74" y2="57.58"/><polyline class="cls-1" points="578.73 59.38 578.72 63.38 575.25 65.38"/><line class="cls-35" x1="570.56" y1="68.09" x2="511.92" y2="101.94"/><polyline class="cls-1" points="509.58 103.29 506.12 105.29 506.12 101.29"/><line class="cls-36" x1="506.12" y1="97.69" x2="506.12" y2="90.13"/><polyline class="cls-1" points="506.12 88.33 506.12 84.33 509.58 82.34"/><line class="cls-29" x1="514.28" y1="79.63" x2="572.99" y2="45.78"/><polyline class="cls-1" points="502.65 82.33 506.12 84.33 506.12 88.33"/><line class="cls-36" x1="506.12" y1="91.93" x2="506.12" y2="99.49"/><polyline class="cls-1" points="506.12 101.29 506.12 105.29 502.65 103.3"/><line class="cls-37" x1="498.3" y1="100.78" x2="477.83" y2="88.97"/><polyline class="cls-1" points="475.65 87.71 472.19 85.71 474.81 84.19 474.81 80.19"/><line class="cls-38" x1="474.81" y1="77.44" x2="474.81" y2="71.64"/><polyline class="cls-1" points="474.81 70.26 474.81 66.26 478.28 68.26"/><line class="cls-30" x1="482.21" y1="70.53" x2="500.69" y2="81.2"/><polyline class="cls-1" points="596.54 158.03 596.53 158.03 593.08 156.03"/><line class="cls-39" x1="589.63" y1="154.04" x2="573.41" y2="144.67"/><polyline class="cls-1" points="571.68 143.68 568.22 141.68 571.68 139.68"/><line class="cls-40" x1="575.14" y1="137.68" x2="591.35" y2="128.32"/><polyline class="cls-1" points="593.08 127.33 596.54 125.33 600 127.33"/><line class="cls-23" x1="603.46" y1="129.32" x2="619.67" y2="138.68"/><line class="cls-1" x1="621.4" y1="139.68" x2="624.86" y2="141.68"/><line class="cls-1" x1="641.11" y1="132.31" x2="637.65" y2="130.31"/><line class="cls-24" x1="634.21" y1="128.32" x2="618.04" y2="118.99"/><polyline class="cls-1" points="616.33 118 612.86 116 616.33 114"/><line class="cls-25" x1="619.77" y1="112" x2="635.99" y2="102.64"/><line class="cls-1" x1="637.72" y1="101.65" x2="641.18" y2="99.65"/><line class="cls-1" x1="506.12" y1="0.5" x2="506.12" y2="4.5"/><line class="cls-41" x1="506.12" y1="8.13" x2="506.12" y2="15.75"/><line class="cls-1" x1="506.12" y1="17.57" x2="506.12" y2="21.57"/><line class="cls-1" x1="499.65" y1="223.22" x2="496.19" y2="221.22"/><line class="cls-42" x1="491.72" y1="218.65" x2="377.84" y2="152.94"/><line class="cls-1" x1="375.61" y1="151.65" x2="372.14" y2="149.65"/><line class="cls-1" x1="236.77" y1="281.87" x2="240.23" y2="279.87"/><line class="cls-40" x1="243.68" y1="277.88" x2="259.9" y2="268.52"/><polyline class="cls-1" points="261.63 267.52 265.09 265.52 268.55 267.52"/><line class="cls-23" x1="272" y1="269.52" x2="288.22" y2="278.88"/><polyline class="cls-1" points="289.94 279.87 293.41 281.87 289.94 283.87"/><line class="cls-23" x1="286.5" y1="285.87" x2="270.28" y2="295.23"/><line class="cls-1" x1="268.55" y1="296.22" x2="265.09" y2="298.22"/><line class="cls-1" x1="353.88" y1="298.09" x2="350.42" y2="296.09"/><line class="cls-43" x1="346.97" y1="294.1" x2="330.75" y2="284.74"/><polyline class="cls-1" points="329.02 283.74 325.56 281.74 329.02 279.74"/><line class="cls-44" x1="332.47" y1="277.75" x2="348.69" y2="268.38"/><polyline class="cls-1" points="350.42 267.38 353.88 265.38 357.34 267.38"/><line class="cls-45" x1="360.79" y1="269.38" x2="377.01" y2="278.75"/><line class="cls-1" x1="378.74" y1="279.74" x2="382.2" y2="281.74"/><line class="cls-1" x1="281" y1="307.45" x2="284.46" y2="305.45"/><line class="cls-46" x1="287.91" y1="303.46" x2="304.13" y2="294.09"/><polyline class="cls-1" points="305.86 293.1 309.32 291.09 312.78 293.1"/><line class="cls-45" x1="316.23" y1="295.09" x2="332.45" y2="304.46"/><line class="cls-1" x1="334.18" y1="305.45" x2="337.64" y2="307.45"/></g><g id="line"><polyline class="cls-1" points="222.99 291.01 167.05 322.93 166.57 323.2"/><polyline class="cls-1" points="237.52 299.39 152.19 348.65 151.73 348.91"/><ellipse class="cls-1" cx="6.49" cy="347.7" rx="5.99" ry="3.46"/><ellipse class="cls-1" cx="162.81" cy="325.37" rx="5.99" ry="3.46"/><ellipse class="cls-1" cx="148.01" cy="351.13" rx="5.99" ry="3.46"/><ellipse class="cls-1" cx="125.06" cy="433.52" rx="5.99" ry="3.46"/><polyline class="cls-1" points="129.63 430.82 197.63 391.56 197.62 340.15 252.77 308.29"/><ellipse class="cls-1" cx="899" cy="108.4" rx="5.99" ry="3.46"/><ellipse class="cls-1" cx="956.79" cy="6.08" rx="5.99" ry="3.46"/><ellipse class="cls-1" cx="1091.29" cy="99.24" rx="5.99" ry="3.46"/><ellipse class="cls-1" cx="868.04" cy="160.72" rx="5.99" ry="3.46"/><ellipse class="cls-1" cx="882.85" cy="134.96" rx="5.99" ry="3.46"/><polyline class="cls-1" points="952.96 8.45 952.69 8.6 819.79 85.51 819.8 136.92 762.75 169.92"/><polyline class="cls-1" points="821.47 203.55 906.72 154.32 951.24 180.03 1085.37 102.8"/><line class="cls-1" x1="807.25" y1="195.33" x2="863.8" y2="163.17"/><line class="cls-1" x1="792.72" y1="186.95" x2="878.67" y2="137.45"/><line class="cls-1" x1="777.88" y1="178.38" x2="895.13" y2="110.79"/><polyline class="cls-1" points="408.74 398.35 322.97 447.88 278.44 422.17 175.87 481.19"/><polyline class="cls-1" points="422.96 406.56 367.72 438.13 367.24 438.4"/><polyline class="cls-1" points="437.48 414.95 352.85 463.85 352.4 464.11"/><ellipse class="cls-1" cx="171.79" cy="483.85" rx="5.99" ry="3.46"/><ellipse class="cls-1" cx="363.48" cy="440.58" rx="5.99" ry="3.46"/><ellipse class="cls-1" cx="348.67" cy="466.34" rx="5.99" ry="3.46"/><ellipse class="cls-1" cx="325.72" cy="548.72" rx="5.99" ry="3.46"/><polyline class="cls-1" points="329.15 546.71 397.15 507.45 397.14 456.04 452.89 423.84"/><polygon class="cls-1" points="506.46 437.65 506.46 454.77 343.36 360.6 343.36 343.49 506.46 437.65"/><polyline class="cls-1" points="669.56 343.5 669.52 360.58 506.46 454.77 506.46 437.65"/><line class="cls-1" x1="323.67" y1="143.76" x2="309.28" y2="135.45"/><line class="cls-1" x1="468.48" y1="227.37" x2="372.14" y2="171.75"/><line class="cls-1" x1="309.28" y1="135.45" x2="258.48" y2="164.8"/><polyline class="cls-1" points="177.43 211.62 146.28 229.62 146.24 229.64 309.32 323.81"/><polygon class="cls-1" points="309.33 323.81 309.33 340.93 146.23 246.76 146.23 229.64 309.33 323.81"/><polygon class="cls-1" points="309.32 323.81 407.25 267.27 407.25 284.36 309.32 340.92 309.32 323.81"/><polygon class="cls-1" points="506.32 252.08 506.32 273.29 488.31 262.92 488.31 241.68 506.32 252.08"/><polygon class="cls-1" points="534.64 235.73 506.32 252.08 488.31 241.68 488.31 229.77 499.65 223.22 506.32 219.37 506.45 219.45 513.13 223.3 534.64 235.73"/><polygon class="cls-1" points="534.64 235.73 534.64 254.14 522.24 261.31 522.24 264.13 506.32 273.29 506.32 252.08 534.64 235.73"/><polygon class="cls-1" points="578.88 261.31 550.55 277.66 522.24 261.31 534.64 254.14 543.86 248.82 550.55 244.95 578.88 261.31"/><polygon class="cls-1" points="578.88 261.31 578.88 282.55 571.45 286.84 550.55 298.9 550.55 277.66 578.88 261.31"/><polyline class="cls-1" points="407.25 306.81 343.37 343.48 433.56 395.55 506.45 437.65 579.97 395.21 669.57 343.49 571.45 286.84"/><g id="LWPOLYLINE"><polygon class="cls-1" points="672.71 176.58 672.71 246.59 672.7 246.59 662.5 240.24 662.5 170.24 672.7 176.59 672.71 176.58"/><line class="cls-1" x1="703.26" y1="228.94" x2="711.53" y2="234.09"/></g><g id="LWPOLYLINE-2" data-name="LWPOLYLINE"><polygon class="cls-1" points="743.55 135.65 743.55 135.68 672.71 176.58 672.7 176.59 662.5 170.24 713.02 141.04 733.36 129.3 743.55 135.65"/></g><path class="cls-1" d="M672.71,176.58v70l30.56-17.64,2.44-1.42h0l5.81,6.56,5.21-12.94h0l26.78-15.47v-70Zm54.37-1.92a32.36,32.36,0,0,1-1.14,8.16c-2.85,11-11,24.15-23.64,31.42-4.93,2.83-9.51,4-13.38,3.67.7-.32,1.38-.67,2.08-1.07a35.91,35.91,0,0,0,10.79-10c-3.81,2.12-7,1.38-8.15-1.52a12.62,12.62,0,0,0,1.63-.78,15,15,0,0,0,2.29-1.63c-4,1.47-7-.42-7-4.74v-.11a8.53,8.53,0,0,0,3.94-1.15c-2.33-.26-3.88-2.1-3.88-5.2a13,13,0,0,1,1.19-5.17c4.29,2.92,10.71,2.8,18-1a7,7,0,0,1-.24-1.91,15.86,15.86,0,0,1,3-8.51,18.11,18.11,0,0,1,5.68-5.4c2.5-1.44,4.77-1.65,6.35-.82a38.15,38.15,0,0,0,5.55-5.32,19.42,19.42,0,0,1-3.84,7.13,35.12,35.12,0,0,0,5-4.27h.09a39.69,39.69,0,0,1-4.36,7.11C727.08,173.9,727.08,174.28,727.08,174.66Z"/><path class="cls-1" d="M727.06,173.53c0,.37,0,.75,0,1.13a32.36,32.36,0,0,1-1.14,8.16c-2.85,11-11,24.15-23.64,31.42-4.93,2.83-9.51,4-13.38,3.67.7-.32,1.38-.67,2.08-1.07a35.91,35.91,0,0,0,10.79-10c-3.81,2.12-7,1.38-8.15-1.52a12.62,12.62,0,0,0,1.63-.78,15,15,0,0,0,2.29-1.63c-4,1.47-7-.42-7-4.74v-.11a8.53,8.53,0,0,0,3.94-1.15c-2.33-.26-3.88-2.1-3.88-5.2a13,13,0,0,1,1.19-5.17c4.29,2.92,10.71,2.8,18-1a7,7,0,0,1-.24-1.91,15.86,15.86,0,0,1,3-8.51,18.11,18.11,0,0,1,5.68-5.4c2.5-1.44,4.77-1.65,6.35-.82a38.15,38.15,0,0,0,5.55-5.32,19.42,19.42,0,0,1-3.84,7.13,35.12,35.12,0,0,0,5-4.27h.09A39.69,39.69,0,0,1,727.06,173.53Z"/><polygon class="cls-1" points="550.55 277.66 550.55 298.9 522.27 283.09 522.24 261.31 550.55 277.66"/><g id="line_l"><g id="LWPOLYLINE-3" data-name="LWPOLYLINE"><polygon class="cls-1" points="301.3 168.93 301.3 218.94 301.29 218.94 291.08 212.59 291.08 162.59 301.29 168.94 301.3 168.93"/><line class="cls-1" x1="343.75" y1="194.42" x2="352.02" y2="199.57"/></g><g id="LWPOLYLINE-4" data-name="LWPOLYLINE"><line class="cls-1" x1="342.79" y1="132.72" x2="343.36" y2="132.38"/><polyline class="cls-1" points="343.37 132.38 357.68 124.12 361.94 121.65 372.14 128 372.14 128.03 301.3 168.93 301.29 168.94 291.08 162.59 323.68 143.76 342.8 132.72"/></g><path class="cls-1" d="M301.29,168.93v50l42.45-24.51,2.45-1.42h0l5.8,6.56,5.22-12.94h0l14.9-8.6V128Zm51.63,5.49a6.31,6.31,0,0,1-3.07,4.8l-24.54,13.85c-1.68,1-3.06.36-3.06-1.33V173.35a6.27,6.27,0,0,1,3.05-4.79l20.9-11.79,3.64-2.06c1.68-1,3.07-.36,3.07,1.33Z"/><g id="LWPOLYLINE-5" data-name="LWPOLYLINE"><polygon class="cls-1" points="187.47 182.26 187.47 232.27 187.46 232.27 177.25 225.92 177.25 175.92 187.46 182.27 187.47 182.26"/><line class="cls-1" x1="201.38" y1="224.26" x2="209.65" y2="229.41"/></g><g id="LWPOLYLINE-6" data-name="LWPOLYLINE"><polygon class="cls-1" points="258.31 141.33 258.31 141.36 187.47 182.26 187.46 182.27 177.25 175.92 248.12 134.98 258.31 141.33"/></g><polygon class="cls-1" points="258.31 141.36 258.31 191.36 214.88 216.47 214.88 216.47 214.88 216.47 209.66 229.41 203.84 222.85 203.84 222.84 201.38 224.26 187.47 232.26 187.47 182.26 258.31 141.36"/><g id="LWPOLYLINE-7" data-name="LWPOLYLINE"><polygon class="cls-1" points="496.47 146.76 496.47 186.77 496.46 186.77 486.26 180.42 486.26 140.42 496.46 146.77 496.47 146.76"/><line class="cls-1" x1="527.02" y1="169.12" x2="535.29" y2="174.27"/></g><g id="LWPOLYLINE-8" data-name="LWPOLYLINE"><polygon class="cls-1" points="567.32 105.83 567.32 105.86 496.47 146.76 496.46 146.77 486.26 140.42 557.12 99.48 567.32 105.83"/></g><polygon class="cls-1" points="567.32 105.86 567.32 145.86 540.53 161.33 540.52 161.33 535.3 174.27 529.49 167.71 529.48 167.7 527.03 169.12 496.47 186.76 496.47 146.76 567.32 105.86"/><g id="LWPOLYLINE-9" data-name="LWPOLYLINE"><polygon class="cls-1" points="403.96 55.09 403.96 125.1 403.95 125.1 393.75 118.75 393.75 48.75 403.95 55.1 403.96 55.09"/><line class="cls-1" x1="434.52" y1="107.46" x2="442.79" y2="112.61"/></g><g id="LWPOLYLINE-10" data-name="LWPOLYLINE"><polygon class="cls-1" points="474.81 14.16 474.81 14.19 403.96 55.09 403.95 55.1 393.75 48.75 464.62 7.81 474.81 14.16"/></g><path class="cls-1" d="M404,55.09v70l30.56-17.64L437,106h0l5.81,6.56L448,99.66h0l6.12-3.54,18.05-10.41,2.62-1.52v-70Zm48.87-2.83-4.14,2.44c-3.25,1.89-3.88,3.75-3.88,5.91v4.75l7.74-4.54-1,8.06-6.74,4V91.92l-8.06,4.74V77.54l-6.77,4V74.05l6.77-4v-5.5c0-6.37,4.08-12.24,10-15.74,2.86-1.68,5.33-2.92,6-3.25Z"/><g id="LWPOLYLINE-11" data-name="LWPOLYLINE"><polygon class="cls-1" points="417.46 269.09 417.46 339.1 417.45 339.1 407.25 332.75 407.25 262.75 417.45 269.1 417.46 269.09"/><line class="cls-1" x1="448.02" y1="321.46" x2="456.29" y2="326.61"/></g><g id="LWPOLYLINE-12" data-name="LWPOLYLINE"><polygon class="cls-1" points="488.31 228.16 488.31 228.19 417.46 269.09 417.45 269.1 407.25 262.75 468.49 227.37 478.12 221.81 488.31 228.16"/></g><path class="cls-1" d="M417.46,269.09v70L448,321.45l2.46-1.42h0l5.81,6.56,5.23-12.94h0l26.79-15.47v-70Zm36.79-3.91c5-2.92,9.12-1.21,9.12,3.83s-4.08,11.49-9.12,14.42-9.13,1.21-9.13-3.83S449.21,268.1,454.25,265.18Zm18.25,25.91L436,312.26V307.7c0-6.07,12.17-16.18,18.25-19.71s18.25-7.53,18.25-1.46Z"/><path class="cls-1" d="M444.81,60.61v4.75l7.74-4.54-1,8.06-6.74,4V91.92l-8.06,4.74V77.54l-6.77,4V74.05l6.77-4v-5.5c0-6.37,4.08-12.24,10-15.74,2.86-1.68,5.33-2.92,6-3.25v6.66l-4.14,2.44C445.44,56.59,444.81,58.45,444.81,60.61Z"/><path class="cls-1" d="M524.23,148.78c2.15,3,5.6,4.41,9.82,4.12l3.28-5.18a2.75,2.75,0,0,1,1.52-1.24,21,21,0,0,0,5.32-2.24c.82-.47,1.49-.19,1.49.63v5.2a3.09,3.09,0,0,1-1.49,2.35c-14,8.12-25.34,3.36-25.34-10.63a3.13,3.13,0,0,1,1.49-2.36l5.22-3c.82-.48,1.49-.2,1.49.62a12.79,12.79,0,0,0,.85,4.83,2.05,2.05,0,0,1-.37,1.74Z"/><path class="cls-1" d="M349.85,154.71l-3.64,2.06-20.9,11.79a6.27,6.27,0,0,0-3.05,4.79v18.39c0,1.69,1.38,2.29,3.06,1.33l24.54-13.85a6.31,6.31,0,0,0,3.07-4.8V156C352.92,154.35,351.53,153.75,349.85,154.71Zm0,6.12-12.27,14.59-12.27-.73v-3.06l12.27.73,11.65-13.85h0l.62-.74Z"/><polygon class="cls-1" points="349.86 157.77 349.86 160.83 337.58 175.42 325.31 174.69 325.31 171.63 337.58 172.36 349.23 158.51 349.24 158.51 349.86 157.77"/><path class="cls-47" d="M208.32,193c2.34-1.35,4.23-.55,4.23,1.79s-1.89,5.31-4.23,6.66-4.22.55-4.22-1.78S206,194.32,208.32,193Z"/><path class="cls-47" d="M224.17,183.82c2.33-1.35,4.22-.55,4.22,1.78s-1.89,5.32-4.22,6.67-4.23.55-4.23-1.79S221.83,185.17,224.17,183.82Z"/><path class="cls-47" d="M240,174.66c2.34-1.35,4.23-.55,4.23,1.79s-1.89,5.31-4.23,6.66-4.22.55-4.22-1.78S237.68,176,240,174.66Z"/><path class="cls-1" d="M454.25,288C448.17,291.52,436,301.63,436,307.7v4.56l36.5-21.17v-4.56C472.5,280.46,460.34,284.46,454.25,288Zm0-22.81c-5,2.92-9.13,9.37-9.13,14.42s4.09,6.75,9.13,3.83,9.12-9.38,9.12-14.42S459.29,262.26,454.25,265.18Z"/><g id="LWPOLYLINE-13" data-name="LWPOLYLINE"><polygon class="cls-48" points="301.3 168.93 301.3 218.94 301.29 218.94 291.08 212.59 291.08 162.59 301.29 168.94 301.3 168.93"/><line class="cls-48" x1="343.75" y1="194.42" x2="352.02" y2="199.57"/></g><g id="LWPOLYLINE-14" data-name="LWPOLYLINE"><line class="cls-48" x1="342.79" y1="132.72" x2="343.36" y2="132.38"/><polyline class="cls-48" points="343.37 132.38 357.68 124.12 361.94 121.65 372.14 128 372.14 128.03 301.3 168.93 301.29 168.94 291.08 162.59 323.68 143.76 342.8 132.72"/></g><path class="cls-48" d="M301.29,168.93v50l42.45-24.51,2.45-1.42h0l5.8,6.56,5.22-12.94h0l14.9-8.6V128Zm51.63,5.49a6.31,6.31,0,0,1-3.07,4.8l-24.54,13.85c-1.68,1-3.06.36-3.06-1.33V173.35a6.27,6.27,0,0,1,3.05-4.79l20.9-11.79,3.64-2.06c1.68-1,3.07-.36,3.07,1.33Z"/><g id="LWPOLYLINE-15" data-name="LWPOLYLINE"><polygon class="cls-48" points="187.47 182.26 187.47 232.27 187.46 232.27 177.25 225.92 177.25 175.92 187.46 182.27 187.47 182.26"/><line class="cls-48" x1="201.38" y1="224.26" x2="209.65" y2="229.41"/></g><g id="LWPOLYLINE-16" data-name="LWPOLYLINE"><polygon class="cls-48" points="258.31 141.33 258.31 141.36 187.47 182.26 187.46 182.27 177.25 175.92 248.12 134.98 258.31 141.33"/></g><polygon class="cls-48" points="258.31 141.36 258.31 191.36 214.88 216.47 214.88 216.47 214.88 216.47 209.66 229.41 203.84 222.85 203.84 222.84 201.38 224.26 187.47 232.26 187.47 182.26 258.31 141.36"/><g id="LWPOLYLINE-17" data-name="LWPOLYLINE"><polygon class="cls-48" points="496.47 146.76 496.47 186.77 496.46 186.77 486.26 180.42 486.26 140.42 496.46 146.77 496.47 146.76"/><line class="cls-48" x1="527.02" y1="169.12" x2="535.29" y2="174.27"/></g><g id="LWPOLYLINE-18" data-name="LWPOLYLINE"><polygon class="cls-48" points="567.32 105.83 567.32 105.86 496.47 146.76 496.46 146.77 486.26 140.42 557.12 99.48 567.32 105.83"/></g><polygon class="cls-48" points="567.32 105.86 567.32 145.86 540.53 161.33 540.52 161.33 535.3 174.27 529.49 167.71 529.48 167.7 527.03 169.12 496.47 186.76 496.47 146.76 567.32 105.86"/><g id="LWPOLYLINE-19" data-name="LWPOLYLINE"><polygon class="cls-48" points="403.96 55.09 403.96 125.1 403.95 125.1 393.75 118.75 393.75 48.75 403.95 55.1 403.96 55.09"/><line class="cls-48" x1="434.52" y1="107.46" x2="442.79" y2="112.61"/></g><g id="LWPOLYLINE-20" data-name="LWPOLYLINE"><polygon class="cls-48" points="474.81 14.16 474.81 14.19 403.96 55.09 403.95 55.1 393.75 48.75 464.62 7.81 474.81 14.16"/></g><path class="cls-48" d="M404,55.09v70l30.56-17.64L437,106h0l5.81,6.56L448,99.66h0l6.12-3.54,18.05-10.41,2.62-1.52v-70Zm48.87-2.83-4.14,2.44c-3.25,1.89-3.88,3.75-3.88,5.91v4.75l7.74-4.54-1,8.06-6.74,4V91.92l-8.06,4.74V77.54l-6.77,4V74.05l6.77-4v-5.5c0-6.37,4.08-12.24,10-15.74,2.86-1.68,5.33-2.92,6-3.25Z"/><g id="LWPOLYLINE-21" data-name="LWPOLYLINE"><polygon class="cls-48" points="417.46 269.09 417.46 339.1 417.45 339.1 407.25 332.75 407.25 262.75 417.45 269.1 417.46 269.09"/><line class="cls-48" x1="448.02" y1="321.46" x2="456.29" y2="326.61"/></g><g id="LWPOLYLINE-22" data-name="LWPOLYLINE"><polygon class="cls-48" points="488.31 228.16 488.31 228.19 417.46 269.09 417.45 269.1 407.25 262.75 468.49 227.37 478.12 221.81 488.31 228.16"/></g><path class="cls-48" d="M417.46,269.09v70L448,321.45l2.46-1.42h0l5.81,6.56,5.23-12.94h0l26.79-15.47v-70Zm36.79-3.91c5-2.92,9.12-1.21,9.12,3.83s-4.08,11.49-9.12,14.42-9.13,1.21-9.13-3.83S449.21,268.1,454.25,265.18Zm18.25,25.91L436,312.26V307.7c0-6.07,12.17-16.18,18.25-19.71s18.25-7.53,18.25-1.46Z"/><path class="cls-48" d="M444.81,60.61v4.75l7.74-4.54-1,8.06-6.74,4V91.92l-8.06,4.74V77.54l-6.77,4V74.05l6.77-4v-5.5c0-6.37,4.08-12.24,10-15.74,2.86-1.68,5.33-2.92,6-3.25v6.66l-4.14,2.44C445.44,56.59,444.81,58.45,444.81,60.61Z"/><path class="cls-48" d="M524.23,148.78c2.15,3,5.6,4.41,9.82,4.12l3.28-5.18a2.75,2.75,0,0,1,1.52-1.24,21,21,0,0,0,5.32-2.24c.82-.47,1.49-.19,1.49.63v5.2a3.09,3.09,0,0,1-1.49,2.35c-14,8.12-25.34,3.36-25.34-10.63a3.13,3.13,0,0,1,1.49-2.36l5.22-3c.82-.48,1.49-.2,1.49.62a12.79,12.79,0,0,0,.85,4.83,2.05,2.05,0,0,1-.37,1.74Z"/><path class="cls-48" d="M349.85,154.71l-3.64,2.06-20.9,11.79a6.27,6.27,0,0,0-3.05,4.79v18.39c0,1.69,1.38,2.29,3.06,1.33l24.54-13.85a6.31,6.31,0,0,0,3.07-4.8V156C352.92,154.35,351.53,153.75,349.85,154.71Zm0,6.12-12.27,14.59-12.27-.73v-3.06l12.27.73,11.65-13.85h0l.62-.74Z"/><polygon class="cls-48" points="349.86 157.77 349.86 160.83 337.58 175.42 325.31 174.69 325.31 171.63 337.58 172.36 349.23 158.51 349.24 158.51 349.86 157.77"/><path class="cls-48" d="M208.32,193c2.34-1.35,4.23-.55,4.23,1.79s-1.89,5.31-4.23,6.66-4.22.55-4.22-1.78S206,194.32,208.32,193Z"/><path class="cls-48" d="M224.17,183.82c2.33-1.35,4.22-.55,4.22,1.78s-1.89,5.32-4.22,6.67-4.23.55-4.23-1.79S221.83,185.17,224.17,183.82Z"/><path class="cls-48" d="M240,174.66c2.34-1.35,4.23-.55,4.23,1.79s-1.89,5.31-4.23,6.66-4.22.55-4.22-1.78S237.68,176,240,174.66Z"/><path class="cls-48" d="M454.25,288C448.17,291.52,436,301.63,436,307.7v4.56l36.5-21.17v-4.56C472.5,280.46,460.34,284.46,454.25,288Zm0-22.81c-5,2.92-9.13,9.37-9.13,14.42s4.09,6.75,9.13,3.83,9.12-9.38,9.12-14.42S459.29,262.26,454.25,265.18Z"/></g><polyline class="cls-49" points="222.99 291.01 167.05 322.93 166.57 323.2"/><polyline class="cls-49" points="237.52 299.39 152.19 348.65 151.73 348.91"/><ellipse class="cls-49" cx="6.49" cy="347.7" rx="5.99" ry="3.46"/><ellipse class="cls-49" cx="162.81" cy="325.37" rx="5.99" ry="3.46"/><ellipse class="cls-49" cx="148.01" cy="351.13" rx="5.99" ry="3.46"/><ellipse class="cls-49" cx="125.06" cy="433.52" rx="5.99" ry="3.46"/><polyline class="cls-49" points="129.63 430.82 197.63 391.56 197.62 340.15 252.77 308.29"/><ellipse class="cls-49" cx="899" cy="108.4" rx="5.99" ry="3.46"/><ellipse class="cls-49" cx="956.79" cy="6.08" rx="5.99" ry="3.46"/><ellipse class="cls-49" cx="1091.29" cy="99.24" rx="5.99" ry="3.46"/><ellipse class="cls-49" cx="868.04" cy="160.72" rx="5.99" ry="3.46"/><ellipse class="cls-49" cx="882.85" cy="134.96" rx="5.99" ry="3.46"/><polyline class="cls-49" points="952.96 8.45 952.69 8.6 819.79 85.51 819.8 136.92 762.75 169.92"/><polyline class="cls-49" points="821.47 203.55 906.72 154.32 951.24 180.03 1085.37 102.8"/><line class="cls-49" x1="807.25" y1="195.33" x2="863.8" y2="163.17"/><line class="cls-49" x1="792.72" y1="186.95" x2="878.67" y2="137.45"/><line class="cls-49" x1="777.88" y1="178.38" x2="895.13" y2="110.79"/><polyline class="cls-49" points="408.74 398.35 322.97 447.88 278.44 422.17 175.87 481.19"/><polyline class="cls-49" points="422.96 406.56 367.72 438.13 367.24 438.4"/><polyline class="cls-49" points="437.48 414.95 352.85 463.85 352.4 464.11"/><ellipse class="cls-49" cx="171.79" cy="483.85" rx="5.99" ry="3.46"/><ellipse class="cls-49" cx="363.48" cy="440.58" rx="5.99" ry="3.46"/><ellipse class="cls-49" cx="348.67" cy="466.34" rx="5.99" ry="3.46"/><ellipse class="cls-49" cx="325.72" cy="548.72" rx="5.99" ry="3.46"/><polyline class="cls-49" points="329.15 546.71 397.15 507.45 397.14 456.04 452.89 423.84"/><polygon class="cls-49" points="506.46 437.65 506.46 454.77 343.36 360.6 343.36 343.49 506.46 437.65"/><polyline class="cls-49" points="669.56 343.5 669.52 360.58 506.46 454.77 506.46 437.65"/><line class="cls-49" x1="323.67" y1="143.76" x2="309.28" y2="135.45"/><line class="cls-49" x1="468.48" y1="227.37" x2="372.14" y2="171.75"/><line class="cls-49" x1="309.28" y1="135.45" x2="258.48" y2="164.8"/><polyline class="cls-49" points="177.43 211.62 146.28 229.62 146.24 229.64 309.32 323.81"/><polygon class="cls-49" points="309.33 323.81 309.33 340.93 146.23 246.76 146.23 229.64 309.33 323.81"/><polygon class="cls-49" points="309.32 323.81 407.25 267.27 407.25 284.36 309.32 340.92 309.32 323.81"/><polygon class="cls-49" points="506.32 252.08 506.32 273.29 488.31 262.92 488.31 241.68 506.32 252.08"/><polygon class="cls-49" points="534.64 235.73 506.32 252.08 488.31 241.68 488.31 229.77 499.65 223.22 506.32 219.37 506.45 219.45 513.13 223.3 534.64 235.73"/><polygon class="cls-49" points="534.64 235.73 534.64 254.14 522.24 261.31 522.24 264.13 506.32 273.29 506.32 252.08 534.64 235.73"/><polygon class="cls-49" points="578.88 261.31 550.55 277.66 522.24 261.31 534.64 254.14 543.86 248.82 550.55 244.95 578.88 261.31"/><polygon class="cls-49" points="578.88 261.31 578.88 282.55 571.45 286.84 550.55 298.9 550.55 277.66 578.88 261.31"/><polyline class="cls-49" points="407.25 306.81 343.37 343.48 433.56 395.55 506.45 437.65 579.97 395.21 669.57 343.49 571.45 286.84"/><g id="LWPOLYLINE-23" data-name="LWPOLYLINE"><polygon class="cls-49" points="672.71 176.58 672.71 246.59 672.7 246.59 662.5 240.24 662.5 170.24 672.7 176.59 672.71 176.58"/><line class="cls-49" x1="703.26" y1="228.94" x2="711.53" y2="234.09"/></g><g id="LWPOLYLINE-24" data-name="LWPOLYLINE"><polygon class="cls-49" points="743.55 135.65 743.55 135.68 672.71 176.58 672.7 176.59 662.5 170.24 713.02 141.04 733.36 129.3 743.55 135.65"/></g><path class="cls-49" d="M672.71,176.58v70l30.56-17.64,2.44-1.42h0l5.81,6.56,5.21-12.94h0l26.78-15.47v-70Zm54.37-1.92a32.36,32.36,0,0,1-1.14,8.16c-2.85,11-11,24.15-23.64,31.42-4.93,2.83-9.51,4-13.38,3.67.7-.32,1.38-.67,2.08-1.07a35.91,35.91,0,0,0,10.79-10c-3.81,2.12-7,1.38-8.15-1.52a12.62,12.62,0,0,0,1.63-.78,15,15,0,0,0,2.29-1.63c-4,1.47-7-.42-7-4.74v-.11a8.53,8.53,0,0,0,3.94-1.15c-2.33-.26-3.88-2.1-3.88-5.2a13,13,0,0,1,1.19-5.17c4.29,2.92,10.71,2.8,18-1a7,7,0,0,1-.24-1.91,15.86,15.86,0,0,1,3-8.51,18.11,18.11,0,0,1,5.68-5.4c2.5-1.44,4.77-1.65,6.35-.82a38.15,38.15,0,0,0,5.55-5.32,19.42,19.42,0,0,1-3.84,7.13,35.12,35.12,0,0,0,5-4.27h.09a39.69,39.69,0,0,1-4.36,7.11C727.08,173.9,727.08,174.28,727.08,174.66Z"/><path class="cls-49" d="M727.06,173.53c0,.37,0,.75,0,1.13a32.36,32.36,0,0,1-1.14,8.16c-2.85,11-11,24.15-23.64,31.42-4.93,2.83-9.51,4-13.38,3.67.7-.32,1.38-.67,2.08-1.07a35.91,35.91,0,0,0,10.79-10c-3.81,2.12-7,1.38-8.15-1.52a12.62,12.62,0,0,0,1.63-.78,15,15,0,0,0,2.29-1.63c-4,1.47-7-.42-7-4.74v-.11a8.53,8.53,0,0,0,3.94-1.15c-2.33-.26-3.88-2.1-3.88-5.2a13,13,0,0,1,1.19-5.17c4.29,2.92,10.71,2.8,18-1a7,7,0,0,1-.24-1.91,15.86,15.86,0,0,1,3-8.51,18.11,18.11,0,0,1,5.68-5.4c2.5-1.44,4.77-1.65,6.35-.82a38.15,38.15,0,0,0,5.55-5.32,19.42,19.42,0,0,1-3.84,7.13,35.12,35.12,0,0,0,5-4.27h.09A39.69,39.69,0,0,1,727.06,173.53Z"/><polygon class="cls-49" points="550.55 277.66 550.55 298.9 522.27 283.09 522.24 261.31 550.55 277.66"/><g id="line_l-2" data-name="line_l"><g id="LWPOLYLINE-25" data-name="LWPOLYLINE"><polygon class="cls-49" points="301.3 168.93 301.3 218.94 301.29 218.94 291.08 212.59 291.08 162.59 301.29 168.94 301.3 168.93"/><line class="cls-49" x1="343.75" y1="194.42" x2="352.02" y2="199.57"/></g><g id="LWPOLYLINE-26" data-name="LWPOLYLINE"><line class="cls-49" x1="342.79" y1="132.72" x2="343.36" y2="132.38"/><polyline class="cls-49" points="343.37 132.38 357.68 124.12 361.94 121.65 372.14 128 372.14 128.03 301.3 168.93 301.29 168.94 291.08 162.59 323.68 143.76 342.8 132.72"/></g><path class="cls-49" d="M301.29,168.93v50l42.45-24.51,2.45-1.42h0l5.8,6.56,5.22-12.94h0l14.9-8.6V128Zm51.63,5.49a6.31,6.31,0,0,1-3.07,4.8l-24.54,13.85c-1.68,1-3.06.36-3.06-1.33V173.35a6.27,6.27,0,0,1,3.05-4.79l20.9-11.79,3.64-2.06c1.68-1,3.07-.36,3.07,1.33Z"/><g id="LWPOLYLINE-27" data-name="LWPOLYLINE"><polygon class="cls-49" points="187.47 182.26 187.47 232.27 187.46 232.27 177.25 225.92 177.25 175.92 187.46 182.27 187.47 182.26"/><line class="cls-49" x1="201.38" y1="224.26" x2="209.65" y2="229.41"/></g><g id="LWPOLYLINE-28" data-name="LWPOLYLINE"><polygon class="cls-49" points="258.31 141.33 258.31 141.36 187.47 182.26 187.46 182.27 177.25 175.92 248.12 134.98 258.31 141.33"/></g><polygon class="cls-49" points="258.31 141.36 258.31 191.36 214.88 216.47 214.88 216.47 214.88 216.47 209.66 229.41 203.84 222.85 203.84 222.84 201.38 224.26 187.47 232.26 187.47 182.26 258.31 141.36"/><g id="LWPOLYLINE-29" data-name="LWPOLYLINE"><polygon class="cls-49" points="496.47 146.76 496.47 186.77 496.46 186.77 486.26 180.42 486.26 140.42 496.46 146.77 496.47 146.76"/><line class="cls-49" x1="527.02" y1="169.12" x2="535.29" y2="174.27"/></g><g id="LWPOLYLINE-30" data-name="LWPOLYLINE"><polygon class="cls-49" points="567.32 105.83 567.32 105.86 496.47 146.76 496.46 146.77 486.26 140.42 557.12 99.48 567.32 105.83"/></g><polygon class="cls-49" points="567.32 105.86 567.32 145.86 540.53 161.33 540.52 161.33 535.3 174.27 529.49 167.71 529.48 167.7 527.03 169.12 496.47 186.76 496.47 146.76 567.32 105.86"/><g id="LWPOLYLINE-31" data-name="LWPOLYLINE"><polygon class="cls-49" points="403.96 55.09 403.96 125.1 403.95 125.1 393.75 118.75 393.75 48.75 403.95 55.1 403.96 55.09"/><line class="cls-49" x1="434.52" y1="107.46" x2="442.79" y2="112.61"/></g><g id="LWPOLYLINE-32" data-name="LWPOLYLINE"><polygon class="cls-49" points="474.81 14.16 474.81 14.19 403.96 55.09 403.95 55.1 393.75 48.75 464.62 7.81 474.81 14.16"/></g><path class="cls-49" d="M404,55.09v70l30.56-17.64L437,106h0l5.81,6.56L448,99.66h0l6.12-3.54,18.05-10.41,2.62-1.52v-70Zm48.87-2.83-4.14,2.44c-3.25,1.89-3.88,3.75-3.88,5.91v4.75l7.74-4.54-1,8.06-6.74,4V91.92l-8.06,4.74V77.54l-6.77,4V74.05l6.77-4v-5.5c0-6.37,4.08-12.24,10-15.74,2.86-1.68,5.33-2.92,6-3.25Z"/><g id="LWPOLYLINE-33" data-name="LWPOLYLINE"><polygon class="cls-49" points="417.46 269.09 417.46 339.1 417.45 339.1 407.25 332.75 407.25 262.75 417.45 269.1 417.46 269.09"/><line class="cls-49" x1="448.02" y1="321.46" x2="456.29" y2="326.61"/></g><g id="LWPOLYLINE-34" data-name="LWPOLYLINE"><polygon class="cls-49" points="488.31 228.16 488.31 228.19 417.46 269.09 417.45 269.1 407.25 262.75 468.49 227.37 478.12 221.81 488.31 228.16"/></g><path class="cls-49" d="M417.46,269.09v70L448,321.45l2.46-1.42h0l5.81,6.56,5.23-12.94h0l26.79-15.47v-70Zm36.79-3.91c5-2.92,9.12-1.21,9.12,3.83s-4.08,11.49-9.12,14.42-9.13,1.21-9.13-3.83S449.21,268.1,454.25,265.18Zm18.25,25.91L436,312.26V307.7c0-6.07,12.17-16.18,18.25-19.71s18.25-7.53,18.25-1.46Z"/><path class="cls-49" d="M444.81,60.61v4.75l7.74-4.54-1,8.06-6.74,4V91.92l-8.06,4.74V77.54l-6.77,4V74.05l6.77-4v-5.5c0-6.37,4.08-12.24,10-15.74,2.86-1.68,5.33-2.92,6-3.25v6.66l-4.14,2.44C445.44,56.59,444.81,58.45,444.81,60.61Z"/><path class="cls-49" d="M524.23,148.78c2.15,3,5.6,4.41,9.82,4.12l3.28-5.18a2.75,2.75,0,0,1,1.52-1.24,21,21,0,0,0,5.32-2.24c.82-.47,1.49-.19,1.49.63v5.2a3.09,3.09,0,0,1-1.49,2.35c-14,8.12-25.34,3.36-25.34-10.63a3.13,3.13,0,0,1,1.49-2.36l5.22-3c.82-.48,1.49-.2,1.49.62a12.79,12.79,0,0,0,.85,4.83,2.05,2.05,0,0,1-.37,1.74Z"/><path class="cls-49" d="M349.85,154.71l-3.64,2.06-20.9,11.79a6.27,6.27,0,0,0-3.05,4.79v18.39c0,1.69,1.38,2.29,3.06,1.33l24.54-13.85a6.31,6.31,0,0,0,3.07-4.8V156C352.92,154.35,351.53,153.75,349.85,154.71Zm0,6.12-12.27,14.59-12.27-.73v-3.06l12.27.73,11.65-13.85h0l.62-.74Z"/><polygon class="cls-49" points="349.86 157.77 349.86 160.83 337.58 175.42 325.31 174.69 325.31 171.63 337.58 172.36 349.23 158.51 349.24 158.51 349.86 157.77"/><path class="cls-49" d="M208.32,193c2.34-1.35,4.23-.55,4.23,1.79s-1.89,5.31-4.23,6.66-4.22.55-4.22-1.78S206,194.32,208.32,193Z"/><path class="cls-49" d="M224.17,183.82c2.33-1.35,4.22-.55,4.22,1.78s-1.89,5.32-4.22,6.67-4.23.55-4.23-1.79S221.83,185.17,224.17,183.82Z"/><path class="cls-49" d="M240,174.66c2.34-1.35,4.23-.55,4.23,1.79s-1.89,5.31-4.23,6.66-4.22.55-4.22-1.78S237.68,176,240,174.66Z"/><path class="cls-49" d="M454.25,288C448.17,291.52,436,301.63,436,307.7v4.56l36.5-21.17v-4.56C472.5,280.46,460.34,284.46,454.25,288Zm0-22.81c-5,2.92-9.13,9.37-9.13,14.42s4.09,6.75,9.13,3.83,9.12-9.38,9.12-14.42S459.29,262.26,454.25,265.18Z"/><g id="LWPOLYLINE-35" data-name="LWPOLYLINE"><polygon class="cls-49" points="301.3 168.93 301.3 218.94 301.29 218.94 291.08 212.59 291.08 162.59 301.29 168.94 301.3 168.93"/><line class="cls-49" x1="343.75" y1="194.42" x2="352.02" y2="199.57"/></g><g id="LWPOLYLINE-36" data-name="LWPOLYLINE"><line class="cls-49" x1="342.79" y1="132.72" x2="343.36" y2="132.38"/><polyline class="cls-49" points="343.37 132.38 357.68 124.12 361.94 121.65 372.14 128 372.14 128.03 301.3 168.93 301.29 168.94 291.08 162.59 323.68 143.76 342.8 132.72"/></g><path class="cls-49" d="M301.29,168.93v50l42.45-24.51,2.45-1.42h0l5.8,6.56,5.22-12.94h0l14.9-8.6V128Zm51.63,5.49a6.31,6.31,0,0,1-3.07,4.8l-24.54,13.85c-1.68,1-3.06.36-3.06-1.33V173.35a6.27,6.27,0,0,1,3.05-4.79l20.9-11.79,3.64-2.06c1.68-1,3.07-.36,3.07,1.33Z"/><g id="LWPOLYLINE-37" data-name="LWPOLYLINE"><polygon class="cls-49" points="187.47 182.26 187.47 232.27 187.46 232.27 177.25 225.92 177.25 175.92 187.46 182.27 187.47 182.26"/><line class="cls-49" x1="201.38" y1="224.26" x2="209.65" y2="229.41"/></g><g id="LWPOLYLINE-38" data-name="LWPOLYLINE"><polygon class="cls-49" points="258.31 141.33 258.31 141.36 187.47 182.26 187.46 182.27 177.25 175.92 248.12 134.98 258.31 141.33"/></g><polygon class="cls-49" points="258.31 141.36 258.31 191.36 214.88 216.47 214.88 216.47 214.88 216.47 209.66 229.41 203.84 222.85 203.84 222.84 201.38 224.26 187.47 232.26 187.47 182.26 258.31 141.36"/><g id="LWPOLYLINE-39" data-name="LWPOLYLINE"><polygon class="cls-49" points="496.47 146.76 496.47 186.77 496.46 186.77 486.26 180.42 486.26 140.42 496.46 146.77 496.47 146.76"/><line class="cls-49" x1="527.02" y1="169.12" x2="535.29" y2="174.27"/></g><g id="LWPOLYLINE-40" data-name="LWPOLYLINE"><polygon class="cls-49" points="567.32 105.83 567.32 105.86 496.47 146.76 496.46 146.77 486.26 140.42 557.12 99.48 567.32 105.83"/></g><polygon class="cls-49" points="567.32 105.86 567.32 145.86 540.53 161.33 540.52 161.33 535.3 174.27 529.49 167.71 529.48 167.7 527.03 169.12 496.47 186.76 496.47 146.76 567.32 105.86"/><g id="LWPOLYLINE-41" data-name="LWPOLYLINE"><polygon class="cls-49" points="403.96 55.09 403.96 125.1 403.95 125.1 393.75 118.75 393.75 48.75 403.95 55.1 403.96 55.09"/><line class="cls-49" x1="434.52" y1="107.46" x2="442.79" y2="112.61"/></g><g id="LWPOLYLINE-42" data-name="LWPOLYLINE"><polygon class="cls-49" points="474.81 14.16 474.81 14.19 403.96 55.09 403.95 55.1 393.75 48.75 464.62 7.81 474.81 14.16"/></g><path class="cls-49" d="M404,55.09v70l30.56-17.64L437,106h0l5.81,6.56L448,99.66h0l6.12-3.54,18.05-10.41,2.62-1.52v-70Zm48.87-2.83-4.14,2.44c-3.25,1.89-3.88,3.75-3.88,5.91v4.75l7.74-4.54-1,8.06-6.74,4V91.92l-8.06,4.74V77.54l-6.77,4V74.05l6.77-4v-5.5c0-6.37,4.08-12.24,10-15.74,2.86-1.68,5.33-2.92,6-3.25Z"/><g id="LWPOLYLINE-43" data-name="LWPOLYLINE"><polygon class="cls-49" points="417.46 269.09 417.46 339.1 417.45 339.1 407.25 332.75 407.25 262.75 417.45 269.1 417.46 269.09"/><line class="cls-49" x1="448.02" y1="321.46" x2="456.29" y2="326.61"/></g><g id="LWPOLYLINE-44" data-name="LWPOLYLINE"><polygon class="cls-49" points="488.31 228.16 488.31 228.19 417.46 269.09 417.45 269.1 407.25 262.75 468.49 227.37 478.12 221.81 488.31 228.16"/></g><path class="cls-49" d="M417.46,269.09v70L448,321.45l2.46-1.42h0l5.81,6.56,5.23-12.94h0l26.79-15.47v-70Zm36.79-3.91c5-2.92,9.12-1.21,9.12,3.83s-4.08,11.49-9.12,14.42-9.13,1.21-9.13-3.83S449.21,268.1,454.25,265.18Zm18.25,25.91L436,312.26V307.7c0-6.07,12.17-16.18,18.25-19.71s18.25-7.53,18.25-1.46Z"/><path class="cls-49" d="M444.81,60.61v4.75l7.74-4.54-1,8.06-6.74,4V91.92l-8.06,4.74V77.54l-6.77,4V74.05l6.77-4v-5.5c0-6.37,4.08-12.24,10-15.74,2.86-1.68,5.33-2.92,6-3.25v6.66l-4.14,2.44C445.44,56.59,444.81,58.45,444.81,60.61Z"/><path class="cls-49" d="M524.23,148.78c2.15,3,5.6,4.41,9.82,4.12l3.28-5.18a2.75,2.75,0,0,1,1.52-1.24,21,21,0,0,0,5.32-2.24c.82-.47,1.49-.19,1.49.63v5.2a3.09,3.09,0,0,1-1.49,2.35c-14,8.12-25.34,3.36-25.34-10.63a3.13,3.13,0,0,1,1.49-2.36l5.22-3c.82-.48,1.49-.2,1.49.62a12.79,12.79,0,0,0,.85,4.83,2.05,2.05,0,0,1-.37,1.74Z"/><path class="cls-49" d="M349.85,154.71l-3.64,2.06-20.9,11.79a6.27,6.27,0,0,0-3.05,4.79v18.39c0,1.69,1.38,2.29,3.06,1.33l24.54-13.85a6.31,6.31,0,0,0,3.07-4.8V156C352.92,154.35,351.53,153.75,349.85,154.71Zm0,6.12-12.27,14.59-12.27-.73v-3.06l12.27.73,11.65-13.85h0l.62-.74Z"/><polygon class="cls-49" points="349.86 157.77 349.86 160.83 337.58 175.42 325.31 174.69 325.31 171.63 337.58 172.36 349.23 158.51 349.24 158.51 349.86 157.77"/><path class="cls-49" d="M208.32,193c2.34-1.35,4.23-.55,4.23,1.79s-1.89,5.31-4.23,6.66-4.22.55-4.22-1.78S206,194.32,208.32,193Z"/><path class="cls-49" d="M224.17,183.82c2.33-1.35,4.22-.55,4.22,1.78s-1.89,5.32-4.22,6.67-4.23.55-4.23-1.79S221.83,185.17,224.17,183.82Z"/><path class="cls-49" d="M240,174.66c2.34-1.35,4.23-.55,4.23,1.79s-1.89,5.31-4.23,6.66-4.22.55-4.22-1.78S237.68,176,240,174.66Z"/><path class="cls-49" d="M454.25,288C448.17,291.52,436,301.63,436,307.7v4.56l36.5-21.17v-4.56C472.5,280.46,460.34,284.46,454.25,288Zm0-22.81c-5,2.92-9.13,9.37-9.13,14.42s4.09,6.75,9.13,3.83,9.12-9.38,9.12-14.42S459.29,262.26,454.25,265.18Z"/><g id="LWPOLYLINE-45" data-name="LWPOLYLINE"><polygon class="cls-49" points="301.3 168.93 301.3 218.94 301.29 218.94 291.08 212.59 291.08 162.59 301.29 168.94 301.3 168.93"/><line class="cls-49" x1="343.75" y1="194.42" x2="352.02" y2="199.57"/></g><g id="LWPOLYLINE-46" data-name="LWPOLYLINE"><line class="cls-49" x1="342.79" y1="132.72" x2="343.36" y2="132.38"/><polyline class="cls-49" points="343.37 132.38 357.68 124.12 361.94 121.65 372.14 128 372.14 128.03 301.3 168.93 301.29 168.94 291.08 162.59 323.68 143.76 342.8 132.72"/></g><path class="cls-49" d="M301.29,168.93v50l42.45-24.51,2.45-1.42h0l5.8,6.56,5.22-12.94h0l14.9-8.6V128Zm51.63,5.49a6.31,6.31,0,0,1-3.07,4.8l-24.54,13.85c-1.68,1-3.06.36-3.06-1.33V173.35a6.27,6.27,0,0,1,3.05-4.79l20.9-11.79,3.64-2.06c1.68-1,3.07-.36,3.07,1.33Z"/><g id="LWPOLYLINE-47" data-name="LWPOLYLINE"><polygon class="cls-49" points="187.47 182.26 187.47 232.27 187.46 232.27 177.25 225.92 177.25 175.92 187.46 182.27 187.47 182.26"/><line class="cls-49" x1="201.38" y1="224.26" x2="209.65" y2="229.41"/></g><g id="LWPOLYLINE-48" data-name="LWPOLYLINE"><polygon class="cls-49" points="258.31 141.33 258.31 141.36 187.47 182.26 187.46 182.27 177.25 175.92 248.12 134.98 258.31 141.33"/></g><polygon class="cls-49" points="258.31 141.36 258.31 191.36 214.88 216.47 214.88 216.47 214.88 216.47 209.66 229.41 203.84 222.85 203.84 222.84 201.38 224.26 187.47 232.26 187.47 182.26 258.31 141.36"/><g id="LWPOLYLINE-49" data-name="LWPOLYLINE"><polygon class="cls-49" points="496.47 146.76 496.47 186.77 496.46 186.77 486.26 180.42 486.26 140.42 496.46 146.77 496.47 146.76"/><line class="cls-49" x1="527.02" y1="169.12" x2="535.29" y2="174.27"/></g><g id="LWPOLYLINE-50" data-name="LWPOLYLINE"><polygon class="cls-49" points="567.32 105.83 567.32 105.86 496.47 146.76 496.46 146.77 486.26 140.42 557.12 99.48 567.32 105.83"/></g><polygon class="cls-49" points="567.32 105.86 567.32 145.86 540.53 161.33 540.52 161.33 535.3 174.27 529.49 167.71 529.48 167.7 527.03 169.12 496.47 186.76 496.47 146.76 567.32 105.86"/><g id="LWPOLYLINE-51" data-name="LWPOLYLINE"><polygon class="cls-49" points="403.96 55.09 403.96 125.1 403.95 125.1 393.75 118.75 393.75 48.75 403.95 55.1 403.96 55.09"/><line class="cls-49" x1="434.52" y1="107.46" x2="442.79" y2="112.61"/></g><g id="LWPOLYLINE-52" data-name="LWPOLYLINE"><polygon class="cls-49" points="474.81 14.16 474.81 14.19 403.96 55.09 403.95 55.1 393.75 48.75 464.62 7.81 474.81 14.16"/></g><path class="cls-49" d="M404,55.09v70l30.56-17.64L437,106h0l5.81,6.56L448,99.66h0l6.12-3.54,18.05-10.41,2.62-1.52v-70Zm48.87-2.83-4.14,2.44c-3.25,1.89-3.88,3.75-3.88,5.91v4.75l7.74-4.54-1,8.06-6.74,4V91.92l-8.06,4.74V77.54l-6.77,4V74.05l6.77-4v-5.5c0-6.37,4.08-12.24,10-15.74,2.86-1.68,5.33-2.92,6-3.25Z"/><g id="LWPOLYLINE-53" data-name="LWPOLYLINE"><polygon class="cls-49" points="417.46 269.09 417.46 339.1 417.45 339.1 407.25 332.75 407.25 262.75 417.45 269.1 417.46 269.09"/><line class="cls-49" x1="448.02" y1="321.46" x2="456.29" y2="326.61"/></g><g id="LWPOLYLINE-54" data-name="LWPOLYLINE"><polygon class="cls-49" points="488.31 228.16 488.31 228.19 417.46 269.09 417.45 269.1 407.25 262.75 468.49 227.37 478.12 221.81 488.31 228.16"/></g><path class="cls-49" d="M417.46,269.09v70L448,321.45l2.46-1.42h0l5.81,6.56,5.23-12.94h0l26.79-15.47v-70Zm36.79-3.91c5-2.92,9.12-1.21,9.12,3.83s-4.08,11.49-9.12,14.42-9.13,1.21-9.13-3.83S449.21,268.1,454.25,265.18Zm18.25,25.91L436,312.26V307.7c0-6.07,12.17-16.18,18.25-19.71s18.25-7.53,18.25-1.46Z"/><path class="cls-49" d="M444.81,60.61v4.75l7.74-4.54-1,8.06-6.74,4V91.92l-8.06,4.74V77.54l-6.77,4V74.05l6.77-4v-5.5c0-6.37,4.08-12.24,10-15.74,2.86-1.68,5.33-2.92,6-3.25v6.66l-4.14,2.44C445.44,56.59,444.81,58.45,444.81,60.61Z"/><path class="cls-49" d="M524.23,148.78c2.15,3,5.6,4.41,9.82,4.12l3.28-5.18a2.75,2.75,0,0,1,1.52-1.24,21,21,0,0,0,5.32-2.24c.82-.47,1.49-.19,1.49.63v5.2a3.09,3.09,0,0,1-1.49,2.35c-14,8.12-25.34,3.36-25.34-10.63a3.13,3.13,0,0,1,1.49-2.36l5.22-3c.82-.48,1.49-.2,1.49.62a12.79,12.79,0,0,0,.85,4.83,2.05,2.05,0,0,1-.37,1.74Z"/><path class="cls-49" d="M349.85,154.71l-3.64,2.06-20.9,11.79a6.27,6.27,0,0,0-3.05,4.79v18.39c0,1.69,1.38,2.29,3.06,1.33l24.54-13.85a6.31,6.31,0,0,0,3.07-4.8V156C352.92,154.35,351.53,153.75,349.85,154.71Zm0,6.12-12.27,14.59-12.27-.73v-3.06l12.27.73,11.65-13.85h0l.62-.74Z"/><polygon class="cls-49" points="349.86 157.77 349.86 160.83 337.58 175.42 325.31 174.69 325.31 171.63 337.58 172.36 349.23 158.51 349.24 158.51 349.86 157.77"/><path class="cls-49" d="M208.32,193c2.34-1.35,4.23-.55,4.23,1.79s-1.89,5.31-4.23,6.66-4.22.55-4.22-1.78S206,194.32,208.32,193Z"/><path class="cls-49" d="M224.17,183.82c2.33-1.35,4.22-.55,4.22,1.78s-1.89,5.32-4.22,6.67-4.23.55-4.23-1.79S221.83,185.17,224.17,183.82Z"/><path class="cls-49" d="M240,174.66c2.34-1.35,4.23-.55,4.23,1.79s-1.89,5.31-4.23,6.66-4.22.55-4.22-1.78S237.68,176,240,174.66Z"/><path class="cls-49" d="M454.25,288C448.17,291.52,436,301.63,436,307.7v4.56l36.5-21.17v-4.56C472.5,280.46,460.34,284.46,454.25,288Zm0-22.81c-5,2.92-9.13,9.37-9.13,14.42s4.09,6.75,9.13,3.83,9.12-9.38,9.12-14.42S459.29,262.26,454.25,265.18Z"/></g></g></g></g></g></svg>