<svg xmlns="http://www.w3.org/2000/svg" viewBox="0 0 724.37 452.46"><defs><style>.cls-1,.cls-2,.cls-3,.cls-4,.cls-5,.cls-6{fill:none;stroke-linejoin:round;}.cls-1,.cls-2,.cls-6{stroke:#363a4d;}.cls-1,.cls-3,.cls-4,.cls-5,.cls-6{stroke-linecap:round;}.cls-3{stroke:#5c5c5c;}.cls-4{stroke:#231f20;}.cls-5{stroke:#7e39d7;}.cls-6{fill-rule:evenodd;}</style></defs><title>Asset 1</title><g id="Layer_2" data-name="Layer 2"><g id="E4"><g id="L"><g id="line"><g id="line_l"><g id="LINE-2" data-name="LINE"><line class="cls-1" x1="723.87" y1="225.96" x2="723.87" y2="243.15"/><line class="cls-1" x1="723.87" y1="225.96" x2="723.87" y2="243.15"/><line class="cls-1" x1="723.87" y1="225.96" x2="723.87" y2="225.96"/><line class="cls-1" x1="723.87" y1="243.15" x2="723.87" y2="243.15"/></g><g id="LINE-3" data-name="LINE"><line class="cls-1" x1="723.87" y1="243.15" x2="560.09" y2="337.71"/><line class="cls-1" x1="723.87" y1="243.15" x2="560.09" y2="337.71"/><line class="cls-1" x1="723.87" y1="243.15" x2="723.87" y2="243.15"/><line class="cls-1" x1="560.09" y1="337.71" x2="560.09" y2="337.71"/></g><g id="LINE-4" data-name="LINE"><line class="cls-1" x1="560.09" y1="320.51" x2="560.09" y2="320.51"/></g><g id="LINE-5" data-name="LINE"><line class="cls-1" x1="560.09" y1="337.71" x2="560.09" y2="337.71"/></g><g id="LINE-6" data-name="LINE"><line class="cls-1" x1="525.99" y1="318.01" x2="525.99" y2="318.01"/><line class="cls-1" x1="560.09" y1="337.71" x2="560.09" y2="337.71"/></g><g id="LINE-7" data-name="LINE"><line class="cls-1" x1="560.09" y1="320.51" x2="723.87" y2="225.96"/></g><g id="LINE-8" data-name="LINE"><line class="cls-1" x1="560.09" y1="320.51" x2="723.87" y2="225.96"/></g><g id="LINE-9" data-name="LINE"><line class="cls-1" x1="560.09" y1="320.51" x2="723.87" y2="225.96"/></g><g id="LINE-10" data-name="LINE"><polyline class="cls-1" points="447.46 272.66 560.09 337.71 560.09 320.51 447.46 255.48"/></g><g id="LINE-11" data-name="LINE"><polyline class="cls-1" points="468.39 184.31 440.18 200.6 440.17 200.6"/></g><g id="LINE-12" data-name="LINE"><line class="cls-1" x1="659.27" y1="188.64" x2="657.87" y2="187.83"/><line class="cls-1" x1="723.87" y1="225.95" x2="700.38" y2="212.38"/><line class="cls-1" x1="616.76" y1="164.1" x2="570.49" y2="137.37"/></g><g id="LINE-13" data-name="LINE"><line class="cls-1" x1="525.98" y1="357.4" x2="362.21" y2="451.96"/><line class="cls-1" x1="525.98" y1="357.4" x2="362.21" y2="451.96"/><line class="cls-1" x1="525.98" y1="357.4" x2="525.98" y2="357.4"/><line class="cls-1" x1="362.21" y1="451.96" x2="362.21" y2="451.96"/></g><g id="LINE-14" data-name="LINE"><line class="cls-1" x1="362.21" y1="434.76" x2="198.44" y2="340.21"/><line class="cls-1" x1="362.21" y1="434.76" x2="198.44" y2="340.21"/><line class="cls-1" x1="362.21" y1="434.76" x2="362.21" y2="434.76"/><line class="cls-1" x1="198.44" y1="340.21" x2="198.44" y2="340.21"/></g><g id="LINE-15" data-name="LINE"><line class="cls-1" x1="198.44" y1="357.36" x2="362.21" y2="451.96"/><line class="cls-1" x1="198.44" y1="357.36" x2="362.21" y2="451.96"/><line class="cls-1" x1="198.44" y1="357.36" x2="198.44" y2="357.36"/><line class="cls-1" x1="362.21" y1="451.96" x2="362.21" y2="451.96"/></g><g id="LINE-16" data-name="LINE"><line class="cls-1" x1="362.21" y1="434.76" x2="362.21" y2="451.96"/></g><g id="LINE-17" data-name="LINE"><line class="cls-1" x1="362.21" y1="434.76" x2="525.98" y2="340.21"/></g><g id="LINE-18" data-name="LINE"><line class="cls-1" x1="362.21" y1="434.76" x2="525.98" y2="340.21"/></g><g id="LINE-19" data-name="LINE"><line class="cls-1" x1="333.87" y1="262.04" x2="198.44" y2="340.17"/></g><g id="LINE-20" data-name="LINE"><line class="cls-1" x1="525.98" y1="340.21" x2="525.98" y2="357.4"/></g><g id="LINE-21" data-name="LINE"><line class="cls-1" x1="198.44" y1="340.21" x2="198.44" y2="357.36"/></g><g id="LINE-22" data-name="LINE"><path class="cls-1" d="M855.11,467.66a22,22,0,0,0,.17,2.76l-6.89,4-10.21,5.91-4,2.28L824,488.5,805.87,499l-10.21,5.89-22.41,12.94-10.59,6.11V506.71l97.42-56.25C857,456.19,855.11,462.23,855.11,467.66Z" transform="translate(-400.5 -300.5)"/></g><g id="LINE-23" data-name="LINE"><line class="cls-1" x1="362.16" y1="206.22" x2="362.16" y2="206.22"/></g><g id="LINE-24" data-name="LINE"><polygon class="cls-1" points="362.16 206.21 362.16 223.4 351.67 217.35 309.81 193.17 309.81 187.84 299.61 181.5 294.6 184.39 238.11 151.75 252.97 143.17 362.16 206.21"/></g><g id="LINE-25" data-name="LINE"><path class="cls-1" d="M799.31,418.45l5.87-3.39,28.34,16.36h0v17.16L805.17,465,791,456.77h0v16.36l-28.34,16.37-28.34-16.37V458.57m-14.17-1.79-1.9-1.18V416.15L691.81,431.4v17.18L720.15,465,727,461Z" transform="translate(-400.5 -300.5)"/></g><g id="LINE-26" data-name="LINE"><line class="cls-1" x1="560.09" y1="337.71" x2="447.46" y2="272.66"/><line class="cls-1" x1="525.99" y1="340.21" x2="430.41" y2="285.01"/></g><g id="LWPOLYLINE"><line class="cls-1" x1="376.33" y1="147.29" x2="376.33" y2="133.53"/></g><g id="LWPOLYLINE-2" data-name="LWPOLYLINE"><polyline class="cls-1" points="433.02 130.93 404.67 147.29 378.59 132.22"/></g><g id="LWPOLYLINE-3" data-name="LWPOLYLINE"><line class="cls-1" x1="404.67" y1="147.29" x2="404.67" y2="164.46"/></g><g id="LWPOLYLINE-4" data-name="LWPOLYLINE"><polyline class="cls-1" points="336.07 156.77 362.16 171.84 390.5 155.47"/><polyline class="cls-1" points="390.5 156.28 390.5 155.47 376.33 147.28 369.14 143.13"/></g><g id="LWPOLYLINE-5" data-name="LWPOLYLINE"><line class="cls-1" x1="362.16" y1="171.84" x2="362.16" y2="189.01"/></g><g id="LWPOLYLINE-6" data-name="LWPOLYLINE"><line class="cls-1" x1="317.75" y1="146.17" x2="291.31" y2="130.9"/></g><g id="LWPOLYLINE-7" data-name="LWPOLYLINE"><line class="cls-1" x1="319.65" y1="164.46" x2="319.65" y2="156.29"/></g><g id="LWPOLYLINE-8" data-name="LWPOLYLINE"><polygon class="cls-1" points="373.98 235.34 366.4 239.72 366.4 258.3 361.72 261 348.64 253.44 333.38 244.63 361.72 228.26 373.98 235.34"/><polygon class="cls-1" points="366.4 258.3 366.4 275.47 361.72 278.17 361.72 261 366.4 258.3"/><polygon class="cls-1" points="361.72 261 361.72 278.17 333.78 262.03 333.38 261.8 333.38 244.63 348.64 253.45 361.72 261"/></g><g id="LWPOLYLINE-9" data-name="LWPOLYLINE"><polyline class="cls-1" points="235.14 189.72 235.14 206.9 235.12 206.91 169.11 245.1"/><line class="cls-1" x1="164.29" y1="242.36" x2="164.28" y2="230.62"/><polyline class="cls-1" points="159.59 245.09 99.7 210.5 93.44 206.88 93.43 206.88 93.43 205.25 93.43 198 93.43 189.69"/></g><g id="LWPOLYLINE-10" data-name="LWPOLYLINE"><line class="cls-1" x1="93.43" y1="189.7" x2="126.75" y2="170.42"/><polyline class="cls-1" points="235.14 189.69 235.14 189.71 164.29 230.62 164.28 230.63"/></g><g id="LWPOLYLINE-11" data-name="LWPOLYLINE"><polygon class="cls-1" points="376.61 246.06 376.61 316.07 376.6 316.07 366.4 309.73 366.4 239.72 376.6 246.07 376.61 246.06"/><line class="cls-1" x1="407.17" y1="298.43" x2="415.44" y2="303.58"/></g><g id="LWPOLYLINE-12" data-name="LWPOLYLINE"><polygon class="cls-1" points="18.95 136.95 18.95 206.96 18.94 206.96 8.74 200.61 8.74 130.61 18.94 136.96 18.95 136.95"/><line class="cls-1" x1="32.87" y1="198.95" x2="41.14" y2="204.1"/></g><g id="LWPOLYLINE-13" data-name="LWPOLYLINE"><polygon class="cls-1" points="89.8 96.02 89.8 96.05 18.95 136.95 18.94 136.96 8.74 130.61 79.6 89.67 89.8 96.02"/></g><polygon class="cls-1" points="89.8 96.05 89.8 166.05 46.37 191.16 46.37 191.16 46.36 191.16 41.14 204.09 35.33 197.53 35.32 197.53 32.87 198.95 18.95 206.95 18.95 136.95 89.8 96.05"/><g id="LWPOLYLINE-14" data-name="LWPOLYLINE"><polyline class="cls-1" points="327.96 161.44 327.96 161.46 327.95 161.46 326.46 160.53"/><line class="cls-1" x1="317.75" y1="115.64" x2="317.75" y2="85.12"/><line class="cls-1" x1="358.51" y1="143.81" x2="366.78" y2="148.96"/></g><path class="cls-1" d="M760.33,373.55l-16.58,9.57L728.46,392v70l5.86-3.38,2.25-1.31L759,444.31l2.45-1.42h0l5.81,6.56,2.35-5.82,2.87-7.12h0l4.31-2.49,2.26-1.31,5.32-3.07,14.9-8.6V351Z" transform="translate(-400.5 -300.5)"/><g id="LWPOLYLINE-15" data-name="LWPOLYLINE"><polygon class="cls-1" points="238.96 228.78 238.96 298.79 238.95 298.79 230.61 293.6 228.75 292.44 228.75 222.44 238.95 228.78 238.96 228.78"/><line class="cls-1" x1="269.51" y1="281.14" x2="277.78" y2="286.29"/></g><g id="LWPOLYLINE-16" data-name="LWPOLYLINE"><polygon class="cls-1" points="309.81 187.84 309.81 187.88 305.22 190.53 239.18 228.65 238.96 228.78 238.95 228.78 228.75 222.44 294.6 184.38 299.61 181.5 309.81 187.84"/></g><polygon class="cls-1" points="309.81 187.88 309.81 257.88 294.91 266.48 287.98 270.48 283.5 273.06 283.02 273.35 283.01 273.35 277.79 286.29 271.98 279.73 271.97 279.71 269.52 281.13 238.96 298.77 238.96 228.78 239.18 228.65 305.22 190.53 309.81 187.88"/><polygon class="cls-2" points="228.75 279.5 228.75 281.69 164.33 318.86 98.06 280.6 159.59 245.09 164.29 242.37 164.33 242.34 169.11 245.1 228.75 279.5"/><polygon class="cls-2" points="230.61 293.6 230.59 299.73 164.33 337.99 164.33 318.86 228.75 281.69 228.75 292.44 230.61 293.6"/><polygon class="cls-2" points="164.33 318.86 164.33 337.99 98.06 299.73 98.06 280.6 164.33 318.86"/><polygon class="cls-1" points="447.46 205.16 447.46 275.17 432.56 283.76 430.41 285 420.67 290.63 420.66 290.63 415.44 303.57 409.63 297.01 409.62 297 407.17 298.43 376.61 316.06 376.61 246.06 445.69 206.19 447.46 205.16"/><polygon class="cls-1" points="447.46 205.13 447.46 205.16 445.69 206.19 376.61 246.06 376.6 246.07 366.4 239.72 373.98 235.34 406.73 216.43 421.6 207.84 435.07 200.06 437.26 198.78 439.1 199.93 440.17 200.59 447.46 205.13"/><polygon class="cls-1" points="398.81 50.54 359.83 73.05 343.25 82.62 327.96 91.45 318.2 85.39 317.75 85.1 332.63 76.51 349.21 66.92 388.61 44.16 398.81 50.54"/><polygon class="cls-2" points="626.64 245.19 560.3 283.45 494.04 245.19 560.3 206.94 626.64 245.19"/><line class="cls-2" x1="506.29" y1="252.07" x2="572.38" y2="213.92"/><polygon class="cls-2" points="626.64 245.19 626.56 264.32 560.3 302.58 560.3 283.45 626.64 245.19"/><polygon class="cls-2" points="560.3 283.45 560.3 302.58 494.04 264.32 494.04 245.19 560.3 283.45"/><g id="LWPOLYLINE-17" data-name="LWPOLYLINE"><polygon class="cls-1" points="673.44 161.66 673.44 178.03 659.27 186.22 659.27 187.03 657.87 187.84 645.8 194.81 645.1 194.4 645.1 178.03 673.44 161.66"/><polyline class="cls-1" points="616.76 161.66 645.1 145.29 673.44 161.66"/></g><g id="LWPOLYLINE-18" data-name="LWPOLYLINE"><polygon class="cls-1" points="715.95 186.22 715.95 203.4 700.38 212.38 687.61 219.76 687.61 202.59 715.95 186.22"/><polyline class="cls-1" points="673.44 178.03 687.61 169.85 715.95 186.22"/></g><g id="LWPOLYLINE-19" data-name="LWPOLYLINE"><polygon class="cls-1" points="687.61 202.59 687.61 219.76 673.44 211.57 673.44 210.76 659.27 202.59 659.27 186.22 687.61 202.59"/></g><g id="LWPOLYLINE-20" data-name="LWPOLYLINE"><polyline class="cls-1" points="644.39 194.81 616.75 210.76 645.09 227.13 673.44 210.76"/><polyline class="cls-1" points="616.75 210.76 616.75 227.94 645.09 244.31 673.44 227.94 673.44 211.57"/><line class="cls-1" x1="659.27" y1="202.58" x2="645.8" y2="194.8"/></g><g id="LWPOLYLINE-21" data-name="LWPOLYLINE"><line class="cls-1" x1="645.09" y1="227.13" x2="645.09" y2="244.31"/></g><g id="LWPOLYLINE-22" data-name="LWPOLYLINE"><polygon class="cls-1" points="645.1 178.03 645.1 194.4 644.4 194.81 644.39 194.81 616.76 178.84 616.76 161.66 645.1 178.03"/></g><path class="cls-1" d="M837.85,559.37a29.44,29.44,0,0,1-4.35,7.22l-.63.82.25.58c.21.53.44,1,.65,1.55a16.33,16.33,0,0,0-2.9.2l-.33.07-.33.27a29.26,29.26,0,0,1-8.56,5.42c-4.12,1.59-7.72,1.28-9.64-.82-1.39-1.5-1.87-3.95-1.29-6.76.69-3.63,3.13-8,6.5-11.62,4.58-5,10.3-8.22,14.92-8.51,2.73-.15,4.86.79,6,2.69S839.24,555.92,837.85,559.37Z" transform="translate(-400.5 -300.5)"/><path class="cls-1" d="M824.94,547.09l-.08,0a38.5,38.5,0,0,0-12.78,12,26.75,26.75,0,0,0-4.48,10.54,13,13,0,0,0,.19,5.15,25.41,25.41,0,0,1-5.94,2.32l-.41.11-2.81,3.09-1.4,1.54c.31-1.12.65-2.26,1-3.41l.27-.9-.69-.07c-3.31-.33-5.55-2.09-6.35-5-.81-2.64-.25-6.39,1.54-10.29a37.61,37.61,0,0,1,8.52-11.49,36.65,36.65,0,0,1,6.81-5,21.84,21.84,0,0,1,8.51-2.93h1C821.28,542.69,823.84,544.3,824.94,547.09Z" transform="translate(-400.5 -300.5)"/><path class="cls-1" d="M473.15,456.48V461L466,465.19l-29.35,17v-4.56c0-3.27,3.53-7.71,7.74-11.67h0c.9-.84,1.83-1.67,2.76-2.45l1.4-1.15q.69-.56,1.38-1.08c.69-.52,1.36-1,2-1.46.4-.28.78-.54,1.15-.78l.56-.36.52-.33.71-.42a39.68,39.68,0,0,1,10.62-4.17h0C469.69,452.87,473.15,453.24,473.15,456.48Z" transform="translate(-400.5 -300.5)"/><path class="cls-1" d="M464,439c0,.23,0,.46,0,.7a11.66,11.66,0,0,1-.31,2,16.1,16.1,0,0,1-1,3c-.12.26-.25.52-.38.78-.28.54-.58,1.07-.91,1.59-.07.11-.14.23-.22.34s-.28.42-.43.62c-.26.37-.53.72-.81,1.07a19.17,19.17,0,0,1-4.06,3.8c-.15.1-.3.21-.46.3l-.47.29c-5,2.92-9.13,1.21-9.13-3.83a15.81,15.81,0,0,1,2.81-8.21c.21-.32.42-.63.64-.93s.31-.42.47-.62.31-.4.48-.59.42-.5.65-.74a3.5,3.5,0,0,1,.27-.28c.16-.18.33-.35.5-.51a17.86,17.86,0,0,1,1.4-1.23c.24-.19.49-.37.74-.55h0a6.18,6.18,0,0,1,.53-.36,7.33,7.33,0,0,1,.63-.4c2.47-1.43,4.7-1.75,6.34-1.1S464,436.39,464,439Z" transform="translate(-400.5 -300.5)"/><path class="cls-1" d="M686.48,535.22c4-2.39,7.29-7.55,7.29-11.58s-3.24-5.36-7.29-3-7.3,7.56-7.3,11.59S682.44,537.61,686.48,535.22ZM667,546.72c4-2.38,7.28-7.55,7.28-11.57s-3.24-5.37-7.28-3-7.31,7.56-7.31,11.59S663,549.11,667,546.72Zm0,4.85c-5.68,3.35-17,12.91-17,18.56v6.06l34.1-20.13V550C684.05,544.35,672.67,548.22,667,551.57Zm19.48-11.5c-.7.42-1.51.94-2.36,1.52,2.83.37,4.8,1.94,4.8,5.53v6.07l14.61-8.63V538.5C703.53,532.84,692.16,536.72,686.48,540.07Z" transform="translate(-400.5 -300.5)"/><g id="LINE-27" data-name="LINE"><line class="cls-3" x1="723.87" y1="225.96" x2="723.87" y2="243.15"/><line class="cls-3" x1="723.87" y1="225.96" x2="723.87" y2="243.15"/><line class="cls-3" x1="723.87" y1="225.96" x2="723.87" y2="225.96"/><line class="cls-3" x1="723.87" y1="243.15" x2="723.87" y2="243.15"/></g><g id="LINE-28" data-name="LINE"><line class="cls-3" x1="723.87" y1="243.15" x2="560.09" y2="337.71"/><line class="cls-3" x1="723.87" y1="243.15" x2="560.09" y2="337.71"/><line class="cls-3" x1="723.87" y1="243.15" x2="723.87" y2="243.15"/><line class="cls-3" x1="560.09" y1="337.71" x2="560.09" y2="337.71"/></g><g id="LINE-29" data-name="LINE"><line class="cls-3" x1="560.09" y1="320.51" x2="560.09" y2="320.51"/></g><g id="LINE-30" data-name="LINE"><line class="cls-3" x1="560.09" y1="337.71" x2="560.09" y2="337.71"/></g><g id="LINE-31" data-name="LINE"><line class="cls-3" x1="525.99" y1="318.01" x2="525.99" y2="318.01"/><line class="cls-3" x1="560.09" y1="337.71" x2="560.09" y2="337.71"/></g><g id="LINE-32" data-name="LINE"><line class="cls-3" x1="560.09" y1="320.51" x2="723.87" y2="225.96"/></g><g id="LINE-33" data-name="LINE"><line class="cls-3" x1="560.09" y1="320.51" x2="723.87" y2="225.96"/></g><g id="LINE-34" data-name="LINE"><line class="cls-3" x1="560.09" y1="320.51" x2="723.87" y2="225.96"/></g><g id="LINE-35" data-name="LINE"><polyline class="cls-3" points="447.46 272.66 560.09 337.71 560.09 320.51 447.46 255.48"/></g><g id="LINE-36" data-name="LINE"><polyline class="cls-3" points="468.39 184.31 440.18 200.6 440.17 200.6"/></g><g id="LINE-37" data-name="LINE"><line class="cls-3" x1="659.27" y1="188.64" x2="657.87" y2="187.83"/><line class="cls-3" x1="723.87" y1="225.95" x2="700.38" y2="212.38"/><line class="cls-3" x1="616.76" y1="164.1" x2="570.49" y2="137.37"/></g><g id="LINE-38" data-name="LINE"><line class="cls-3" x1="525.98" y1="357.4" x2="362.21" y2="451.96"/><line class="cls-3" x1="525.98" y1="357.4" x2="362.21" y2="451.96"/><line class="cls-3" x1="525.98" y1="357.4" x2="525.98" y2="357.4"/><line class="cls-3" x1="362.21" y1="451.96" x2="362.21" y2="451.96"/></g><g id="LINE-39" data-name="LINE"><line class="cls-3" x1="362.21" y1="434.76" x2="198.44" y2="340.21"/><line class="cls-3" x1="362.21" y1="434.76" x2="198.44" y2="340.21"/><line class="cls-3" x1="362.21" y1="434.76" x2="362.21" y2="434.76"/><line class="cls-3" x1="198.44" y1="340.21" x2="198.44" y2="340.21"/></g><g id="LINE-40" data-name="LINE"><line class="cls-3" x1="198.44" y1="357.36" x2="362.21" y2="451.96"/><line class="cls-3" x1="198.44" y1="357.36" x2="362.21" y2="451.96"/><line class="cls-3" x1="198.44" y1="357.36" x2="198.44" y2="357.36"/><line class="cls-3" x1="362.21" y1="451.96" x2="362.21" y2="451.96"/></g><g id="LINE-41" data-name="LINE"><line class="cls-3" x1="362.21" y1="434.76" x2="362.21" y2="451.96"/></g><g id="LINE-42" data-name="LINE"><line class="cls-3" x1="362.21" y1="434.76" x2="525.98" y2="340.21"/></g><g id="LINE-43" data-name="LINE"><line class="cls-3" x1="362.21" y1="434.76" x2="525.98" y2="340.21"/></g><g id="LINE-44" data-name="LINE"><line class="cls-3" x1="333.87" y1="262.04" x2="198.44" y2="340.17"/></g><g id="LINE-45" data-name="LINE"><line class="cls-3" x1="525.98" y1="340.21" x2="525.98" y2="357.4"/></g><g id="LINE-46" data-name="LINE"><line class="cls-3" x1="198.44" y1="340.21" x2="198.44" y2="357.36"/></g><g id="LINE-47" data-name="LINE"><path class="cls-3" d="M855.11,467.66a22,22,0,0,0,.17,2.76l-6.89,4-10.21,5.91-4,2.28L824,488.5,805.87,499l-10.21,5.89-22.41,12.94-10.59,6.11V506.71l97.42-56.25C857,456.19,855.11,462.23,855.11,467.66Z" transform="translate(-400.5 -300.5)"/></g><g id="LINE-48" data-name="LINE"><line class="cls-3" x1="362.16" y1="206.22" x2="362.16" y2="206.22"/></g><g id="LINE-49" data-name="LINE"><polygon class="cls-3" points="362.16 206.21 362.16 223.4 351.67 217.35 309.81 193.17 309.81 187.84 299.61 181.5 294.6 184.39 238.11 151.75 252.97 143.17 362.16 206.21"/></g><g id="LINE-50" data-name="LINE"><path class="cls-3" d="M799.31,418.45l5.87-3.39,28.34,16.36h0v17.16L805.17,465,791,456.77h0v16.36l-28.34,16.37-28.34-16.37V458.57m-14.17-1.79-1.9-1.18V416.15L691.81,431.4v17.18L720.15,465,727,461Z" transform="translate(-400.5 -300.5)"/></g><g id="LINE-51" data-name="LINE"><line class="cls-3" x1="560.09" y1="337.71" x2="447.46" y2="272.66"/><line class="cls-3" x1="525.99" y1="340.21" x2="430.41" y2="285.01"/></g><g id="LWPOLYLINE-23" data-name="LWPOLYLINE"><line class="cls-3" x1="376.33" y1="147.29" x2="376.33" y2="133.53"/></g><g id="LWPOLYLINE-24" data-name="LWPOLYLINE"><polyline class="cls-3" points="433.02 130.93 404.67 147.29 378.59 132.22"/></g><g id="LWPOLYLINE-25" data-name="LWPOLYLINE"><line class="cls-3" x1="404.67" y1="147.29" x2="404.67" y2="164.46"/></g><g id="LWPOLYLINE-26" data-name="LWPOLYLINE"><polyline class="cls-3" points="336.07 156.77 362.16 171.84 390.5 155.47"/><polyline class="cls-3" points="390.5 156.28 390.5 155.47 376.33 147.28 369.14 143.13"/></g><g id="LWPOLYLINE-27" data-name="LWPOLYLINE"><line class="cls-3" x1="362.16" y1="171.84" x2="362.16" y2="189.01"/></g><g id="LWPOLYLINE-28" data-name="LWPOLYLINE"><line class="cls-3" x1="317.75" y1="146.17" x2="291.31" y2="130.9"/></g><g id="LWPOLYLINE-29" data-name="LWPOLYLINE"><line class="cls-3" x1="319.65" y1="164.46" x2="319.65" y2="156.29"/></g><g id="LWPOLYLINE-30" data-name="LWPOLYLINE"><polygon class="cls-3" points="373.98 235.34 366.4 239.72 366.4 258.3 361.72 261 348.64 253.44 333.38 244.63 361.72 228.26 373.98 235.34"/><polygon class="cls-3" points="366.4 258.3 366.4 275.47 361.72 278.17 361.72 261 366.4 258.3"/><polygon class="cls-3" points="361.72 261 361.72 278.17 333.78 262.03 333.38 261.8 333.38 244.63 348.64 253.45 361.72 261"/></g><g id="LWPOLYLINE-31" data-name="LWPOLYLINE"><polyline class="cls-3" points="235.14 189.72 235.14 206.9 235.12 206.91 169.11 245.1"/><line class="cls-3" x1="164.29" y1="242.36" x2="164.28" y2="230.62"/><polyline class="cls-3" points="159.59 245.09 99.7 210.5 93.44 206.88 93.43 206.88 93.43 205.25 93.43 198 93.43 189.69"/></g><g id="LWPOLYLINE-32" data-name="LWPOLYLINE"><line class="cls-3" x1="93.43" y1="189.7" x2="126.75" y2="170.42"/><polyline class="cls-3" points="235.14 189.69 235.14 189.71 164.29 230.62 164.28 230.63"/></g><g id="LWPOLYLINE-33" data-name="LWPOLYLINE"><polygon class="cls-3" points="376.61 246.06 376.61 316.07 376.6 316.07 366.4 309.73 366.4 239.72 376.6 246.07 376.61 246.06"/><line class="cls-3" x1="407.17" y1="298.43" x2="415.44" y2="303.58"/></g><g id="LWPOLYLINE-34" data-name="LWPOLYLINE"><polygon class="cls-3" points="18.95 136.95 18.95 206.96 18.94 206.96 8.74 200.61 8.74 130.61 18.94 136.96 18.95 136.95"/><line class="cls-3" x1="32.87" y1="198.95" x2="41.14" y2="204.1"/></g><g id="LWPOLYLINE-35" data-name="LWPOLYLINE"><polygon class="cls-3" points="89.8 96.02 89.8 96.05 18.95 136.95 18.94 136.96 8.74 130.61 79.6 89.67 89.8 96.02"/></g><polygon class="cls-3" points="89.8 96.05 89.8 166.05 46.37 191.16 46.37 191.16 46.36 191.16 41.14 204.09 35.33 197.53 35.32 197.53 32.87 198.95 18.95 206.95 18.95 136.95 89.8 96.05"/><g id="LWPOLYLINE-36" data-name="LWPOLYLINE"><polyline class="cls-3" points="327.96 161.44 327.96 161.46 327.95 161.46 326.46 160.53"/><line class="cls-3" x1="317.75" y1="115.64" x2="317.75" y2="85.12"/><line class="cls-3" x1="358.51" y1="143.81" x2="366.78" y2="148.96"/></g><path class="cls-3" d="M760.33,373.55l-16.58,9.57L728.46,392v70l5.86-3.38,2.25-1.31L759,444.31l2.45-1.42h0l5.81,6.56,2.35-5.82,2.87-7.12h0l4.31-2.49,2.26-1.31,5.32-3.07,14.9-8.6V351Z" transform="translate(-400.5 -300.5)"/><g id="LWPOLYLINE-37" data-name="LWPOLYLINE"><polygon class="cls-3" points="238.96 228.78 238.96 298.79 238.95 298.79 230.61 293.6 228.75 292.44 228.75 222.44 238.95 228.78 238.96 228.78"/><line class="cls-3" x1="269.51" y1="281.14" x2="277.78" y2="286.29"/></g><g id="LWPOLYLINE-38" data-name="LWPOLYLINE"><polygon class="cls-3" points="309.81 187.84 309.81 187.88 305.22 190.53 239.18 228.65 238.96 228.78 238.95 228.78 228.75 222.44 294.6 184.38 299.61 181.5 309.81 187.84"/></g><polygon class="cls-3" points="309.81 187.88 309.81 257.88 294.91 266.48 287.98 270.48 283.5 273.06 283.02 273.35 283.01 273.35 277.79 286.29 271.98 279.73 271.97 279.71 269.52 281.13 238.96 298.77 238.96 228.78 239.18 228.65 305.22 190.53 309.81 187.88"/><polygon class="cls-3" points="228.75 279.5 228.75 281.69 164.33 318.86 98.06 280.6 159.59 245.09 164.29 242.37 164.33 242.34 169.11 245.1 228.75 279.5"/><polygon class="cls-3" points="230.61 293.6 230.59 299.73 164.33 337.99 164.33 318.86 228.75 281.69 228.75 292.44 230.61 293.6"/><polygon class="cls-3" points="230.61 293.6 230.59 299.73 164.33 337.99 164.33 318.86 228.75 281.69 228.75 292.44 230.61 293.6"/><polygon class="cls-3" points="164.33 318.86 164.33 337.99 98.06 299.73 98.06 280.6 164.33 318.86"/><polygon class="cls-3" points="164.33 318.86 164.33 337.99 98.06 299.73 98.06 280.6 164.33 318.86"/><polygon class="cls-3" points="447.46 205.16 447.46 275.17 432.56 283.76 430.41 285 420.67 290.63 420.66 290.63 415.44 303.57 409.63 297.01 409.62 297 407.17 298.43 376.61 316.06 376.61 246.06 445.69 206.19 447.46 205.16"/><polygon class="cls-3" points="447.46 205.13 447.46 205.16 445.69 206.19 376.61 246.06 376.6 246.07 366.4 239.72 373.98 235.34 406.73 216.43 421.6 207.84 435.07 200.06 437.26 198.78 439.1 199.93 440.17 200.59 447.46 205.13"/><polygon class="cls-3" points="398.81 50.54 359.83 73.05 343.25 82.62 327.96 91.45 318.2 85.39 317.75 85.1 332.63 76.51 349.21 66.92 388.61 44.16 398.81 50.54"/><polygon class="cls-3" points="626.64 245.19 560.3 283.45 494.04 245.19 560.3 206.94 626.64 245.19"/><polygon class="cls-3" points="626.64 245.19 560.3 283.45 494.04 245.19 560.3 206.94 626.64 245.19"/><line class="cls-3" x1="506.29" y1="252.07" x2="572.38" y2="213.92"/><line class="cls-3" x1="506.29" y1="252.07" x2="572.38" y2="213.92"/><polygon class="cls-3" points="626.64 245.19 626.56 264.32 560.3 302.58 560.3 283.45 626.64 245.19"/><polygon class="cls-3" points="626.64 245.19 626.56 264.32 560.3 302.58 560.3 283.45 626.64 245.19"/><polygon class="cls-3" points="560.3 283.45 560.3 302.58 494.04 264.32 494.04 245.19 560.3 283.45"/><polygon class="cls-3" points="560.3 283.45 560.3 302.58 494.04 264.32 494.04 245.19 560.3 283.45"/><g id="LWPOLYLINE-39" data-name="LWPOLYLINE"><polygon class="cls-3" points="673.44 161.66 673.44 178.03 659.27 186.22 659.27 187.03 657.87 187.84 645.8 194.81 645.1 194.4 645.1 178.03 673.44 161.66"/><polyline class="cls-3" points="616.76 161.66 645.1 145.29 673.44 161.66"/></g><g id="LWPOLYLINE-40" data-name="LWPOLYLINE"><polygon class="cls-3" points="715.95 186.22 715.95 203.4 700.38 212.38 687.61 219.76 687.61 202.59 715.95 186.22"/><polyline class="cls-3" points="673.44 178.03 687.61 169.85 715.95 186.22"/></g><g id="LWPOLYLINE-41" data-name="LWPOLYLINE"><polygon class="cls-3" points="687.61 202.59 687.61 219.76 673.44 211.57 673.44 210.76 659.27 202.59 659.27 186.22 687.61 202.59"/></g><g id="LWPOLYLINE-42" data-name="LWPOLYLINE"><polyline class="cls-3" points="644.39 194.81 616.75 210.76 645.09 227.13 673.44 210.76"/><polyline class="cls-3" points="616.75 210.76 616.75 227.94 645.09 244.31 673.44 227.94 673.44 211.57"/><line class="cls-3" x1="659.27" y1="202.58" x2="645.8" y2="194.8"/></g><g id="LWPOLYLINE-43" data-name="LWPOLYLINE"><line class="cls-3" x1="645.09" y1="227.13" x2="645.09" y2="244.31"/></g><g id="LWPOLYLINE-44" data-name="LWPOLYLINE"><polygon class="cls-3" points="645.1 178.03 645.1 194.4 644.4 194.81 644.39 194.81 616.76 178.84 616.76 161.66 645.1 178.03"/></g><path class="cls-3" d="M837.85,559.37a29.44,29.44,0,0,1-4.35,7.22l-.63.82.25.58c.21.53.44,1,.65,1.55a16.33,16.33,0,0,0-2.9.2l-.33.07-.33.27a29.26,29.26,0,0,1-8.56,5.42c-4.12,1.59-7.72,1.28-9.64-.82-1.39-1.5-1.87-3.95-1.29-6.76.69-3.63,3.13-8,6.5-11.62,4.58-5,10.3-8.22,14.92-8.51,2.73-.15,4.86.79,6,2.69S839.24,555.92,837.85,559.37Z" transform="translate(-400.5 -300.5)"/><path class="cls-3" d="M824.94,547.09l-.08,0a38.5,38.5,0,0,0-12.78,12,26.75,26.75,0,0,0-4.48,10.54,13,13,0,0,0,.19,5.15,25.41,25.41,0,0,1-5.94,2.32l-.41.11-2.81,3.09-1.4,1.54c.31-1.12.65-2.26,1-3.41l.27-.9-.69-.07c-3.31-.33-5.55-2.09-6.35-5-.81-2.64-.25-6.39,1.54-10.29a37.61,37.61,0,0,1,8.52-11.49,36.65,36.65,0,0,1,6.81-5,21.84,21.84,0,0,1,8.51-2.93h1C821.28,542.69,823.84,544.3,824.94,547.09Z" transform="translate(-400.5 -300.5)"/><path class="cls-3" d="M473.15,456.48V461L466,465.19l-29.35,17v-4.56c0-3.27,3.53-7.71,7.74-11.67h0c.9-.84,1.83-1.67,2.76-2.45l1.4-1.15q.69-.56,1.38-1.08c.69-.52,1.36-1,2-1.46.4-.28.78-.54,1.15-.78l.56-.36.52-.33.71-.42a39.68,39.68,0,0,1,10.62-4.17h0C469.69,452.87,473.15,453.24,473.15,456.48Z" transform="translate(-400.5 -300.5)"/><path class="cls-3" d="M464,439c0,.23,0,.46,0,.7a11.66,11.66,0,0,1-.31,2,16.1,16.1,0,0,1-1,3c-.12.26-.25.52-.38.78-.28.54-.58,1.07-.91,1.59-.07.11-.14.23-.22.34s-.28.42-.43.62c-.26.37-.53.72-.81,1.07a19.17,19.17,0,0,1-4.06,3.8c-.15.1-.3.21-.46.3l-.47.29c-5,2.92-9.13,1.21-9.13-3.83a15.81,15.81,0,0,1,2.81-8.21c.21-.32.42-.63.64-.93s.31-.42.47-.62.31-.4.48-.59.42-.5.65-.74a3.5,3.5,0,0,1,.27-.28c.16-.18.33-.35.5-.51a17.86,17.86,0,0,1,1.4-1.23c.24-.19.49-.37.74-.55h0a6.18,6.18,0,0,1,.53-.36,7.33,7.33,0,0,1,.63-.4c2.47-1.43,4.7-1.75,6.34-1.1S464,436.39,464,439Z" transform="translate(-400.5 -300.5)"/><path class="cls-3" d="M686.48,535.22c4-2.39,7.29-7.55,7.29-11.58s-3.24-5.36-7.29-3-7.3,7.56-7.3,11.59S682.44,537.61,686.48,535.22ZM667,546.72c4-2.38,7.28-7.55,7.28-11.57s-3.24-5.37-7.28-3-7.31,7.56-7.31,11.59S663,549.11,667,546.72Zm0,4.85c-5.68,3.35-17,12.91-17,18.56v6.06l34.1-20.13V550C684.05,544.35,672.67,548.22,667,551.57Zm19.48-11.5c-.7.42-1.51.94-2.36,1.52,2.83.37,4.8,1.94,4.8,5.53v6.07l14.61-8.63V538.5C703.53,532.84,692.16,536.72,686.48,540.07Z" transform="translate(-400.5 -300.5)"/></g><path class="cls-3" d="M959.14,547.73c-.63.51-1.16.95-1.58,1.31l-8.14-5.56,12.44-7.18-5.13-3-17.1,9.87,16.26,10.84,3.88-.48a28.57,28.57,0,0,1,2.2-1.88,21.55,21.55,0,0,1,2.37-1.64q7.51-4.34,13.94-.63c2.25,1.3,3.32,2.64,3.24,4s-1.32,2.77-3.7,4.14a28,28,0,0,1-5,2.18,30.55,30.55,0,0,1-5.93,1.41l5.23,3a29.48,29.48,0,0,0,10.6-3.88q6.07-3.51,6.14-7.27T983.19,546a20.87,20.87,0,0,0-10.73-2.84A21.24,21.24,0,0,0,961.72,546,20,20,0,0,0,959.14,547.73Z" transform="translate(-400.5 -300.5)"/><path class="cls-3" d="M901.86,397.91l-68.44-39.64L817,348.75l-49.76-28.82-49.6,29-16.51,9.64-23.39,13.67" transform="translate(-400.5 -300.5)"/><path class="cls-4" d="M778.87,419.92l-27.93,16.36c-2.63,1.54-4.77.66-4.77-2v-26.5c0-2.62,2.14-6,4.77-7.54l2.06-1.2c.22-.13.39-.06.39.16v2.5c0,1,.84,1.37,1.88.77a4,4,0,0,0,1.87-3v-2.49a.85.85,0,0,1,.39-.63l14.75-8.64c.22-.12.4,0,.4.17v2.49c0,1,.84,1.38,1.87.77a3.91,3.91,0,0,0,1.87-3v-2.5a.82.82,0,0,1,.4-.62l2-1.21c2.63-1.54,4.77-.66,4.77,2v26.5C783.64,415,781.5,418.38,778.87,419.92Z" transform="translate(-400.5 -300.5)"/><path class="cls-4" d="M755.27,392.69a3.9,3.9,0,0,0-1.88,3v6.09c0,1,.84,1.37,1.88.77a4,4,0,0,0,1.87-3v-6.08a1,1,0,0,0-.55-1A1.56,1.56,0,0,0,755.27,392.69Z" transform="translate(-400.5 -300.5)"/><path class="cls-4" d="M774.55,381.4a3.91,3.91,0,0,0-1.87,3v6.08c0,1,.84,1.38,1.87.77a3.91,3.91,0,0,0,1.87-3v-6.08a1,1,0,0,0-.55-1A1.49,1.49,0,0,0,774.55,381.4Z" transform="translate(-400.5 -300.5)"/><path class="cls-4" d="M769.32,418.21a.52.52,0,0,1-.19.06l-4.22.26-4.23,4.69a.53.53,0,0,1-.41.21c-.13,0-.19-.13-.16-.29l.8-5.16-3.41-1.32c-.11,0-.15-.18-.1-.35a.86.86,0,0,1,.32-.46l4.72-3.45,2.11-5.5a1,1,0,0,1,.36-.43c.15-.09.29-.08.35,0l2.11,3,4.73-2.08c.15-.06.27,0,.32.08a.58.58,0,0,1-.1.47l-3.42,5.32.81,4.21a.69.69,0,0,1-.16.48A1,1,0,0,1,769.32,418.21Z" transform="translate(-400.5 -300.5)"/><path class="cls-4" d="M746.28,411.88a.82.82,0,0,1,.4-.62l36.46-21.36c.22-.13.4-.06.4.16" transform="translate(-400.5 -300.5)"/><line class="cls-1" x1="164.28" y1="230.63" x2="93.43" y2="189.7"/><line class="cls-1" x1="203.81" y1="171.56" x2="235.14" y2="189.69"/><g id="line_l-2" data-name="line_l"><g id="LINE-52" data-name="LINE"><line class="cls-5" x1="723.87" y1="225.96" x2="723.87" y2="243.15"/><line class="cls-5" x1="723.87" y1="225.96" x2="723.87" y2="243.15"/><line class="cls-5" x1="723.87" y1="225.96" x2="723.87" y2="225.96"/><line class="cls-5" x1="723.87" y1="243.15" x2="723.87" y2="243.15"/></g><g id="LINE-53" data-name="LINE"><line class="cls-5" x1="723.87" y1="243.15" x2="560.09" y2="337.71"/><line class="cls-5" x1="723.87" y1="243.15" x2="560.09" y2="337.71"/><line class="cls-5" x1="723.87" y1="243.15" x2="723.87" y2="243.15"/><line class="cls-5" x1="560.09" y1="337.71" x2="560.09" y2="337.71"/></g><g id="LINE-54" data-name="LINE"><line class="cls-5" x1="560.09" y1="320.51" x2="560.09" y2="320.51"/></g><g id="LINE-55" data-name="LINE"><line class="cls-5" x1="560.09" y1="337.71" x2="560.09" y2="337.71"/></g><g id="LINE-56" data-name="LINE"><line class="cls-5" x1="525.99" y1="318.01" x2="525.99" y2="318.01"/><line class="cls-5" x1="560.09" y1="337.71" x2="560.09" y2="337.71"/></g><g id="LINE-57" data-name="LINE"><line class="cls-5" x1="560.09" y1="320.51" x2="723.87" y2="225.96"/></g><g id="LINE-58" data-name="LINE"><line class="cls-5" x1="560.09" y1="320.51" x2="723.87" y2="225.96"/></g><g id="LINE-59" data-name="LINE"><line class="cls-5" x1="560.09" y1="320.51" x2="723.87" y2="225.96"/></g><g id="LINE-60" data-name="LINE"><polyline class="cls-5" points="447.46 272.66 560.09 337.71 560.09 320.51 447.46 255.48"/></g><g id="LINE-61" data-name="LINE"><polyline class="cls-5" points="468.39 184.31 440.18 200.6 440.17 200.6"/></g><g id="LINE-62" data-name="LINE"><line class="cls-5" x1="659.27" y1="188.64" x2="657.87" y2="187.83"/><line class="cls-5" x1="723.87" y1="225.95" x2="700.38" y2="212.38"/><line class="cls-5" x1="616.76" y1="164.1" x2="570.49" y2="137.37"/></g><g id="LINE-63" data-name="LINE"><line class="cls-5" x1="525.98" y1="357.4" x2="362.21" y2="451.96"/><line class="cls-5" x1="525.98" y1="357.4" x2="362.21" y2="451.96"/><line class="cls-5" x1="525.98" y1="357.4" x2="525.98" y2="357.4"/><line class="cls-5" x1="362.21" y1="451.96" x2="362.21" y2="451.96"/></g><g id="LINE-64" data-name="LINE"><line class="cls-5" x1="362.21" y1="434.76" x2="198.44" y2="340.21"/><line class="cls-5" x1="362.21" y1="434.76" x2="198.44" y2="340.21"/><line class="cls-5" x1="362.21" y1="434.76" x2="362.21" y2="434.76"/><line class="cls-5" x1="198.44" y1="340.21" x2="198.44" y2="340.21"/></g><g id="LINE-65" data-name="LINE"><line class="cls-5" x1="198.44" y1="357.36" x2="362.21" y2="451.96"/><line class="cls-5" x1="198.44" y1="357.36" x2="362.21" y2="451.96"/><line class="cls-5" x1="198.44" y1="357.36" x2="198.44" y2="357.36"/><line class="cls-5" x1="362.21" y1="451.96" x2="362.21" y2="451.96"/></g><g id="LINE-66" data-name="LINE"><line class="cls-5" x1="362.21" y1="434.76" x2="362.21" y2="451.96"/></g><g id="LINE-67" data-name="LINE"><line class="cls-5" x1="362.21" y1="434.76" x2="525.98" y2="340.21"/></g><g id="LINE-68" data-name="LINE"><line class="cls-5" x1="362.21" y1="434.76" x2="525.98" y2="340.21"/></g><g id="LINE-69" data-name="LINE"><line class="cls-5" x1="333.87" y1="262.04" x2="198.44" y2="340.17"/></g><g id="LINE-70" data-name="LINE"><line class="cls-5" x1="525.98" y1="340.21" x2="525.98" y2="357.4"/></g><g id="LINE-71" data-name="LINE"><line class="cls-5" x1="198.44" y1="340.21" x2="198.44" y2="357.36"/></g><g id="LINE-72" data-name="LINE"><path class="cls-5" d="M855.11,467.66a22,22,0,0,0,.17,2.76l-6.89,4-10.21,5.91-4,2.28L824,488.5,805.87,499l-10.21,5.89-22.41,12.94-10.59,6.11V506.71l97.42-56.25C857,456.19,855.11,462.23,855.11,467.66Z" transform="translate(-400.5 -300.5)"/></g><g id="LINE-73" data-name="LINE"><line class="cls-5" x1="362.16" y1="206.22" x2="362.16" y2="206.22"/></g><g id="LINE-74" data-name="LINE"><polygon class="cls-5" points="362.16 206.21 362.16 223.4 351.67 217.35 309.81 193.17 309.81 187.84 299.61 181.5 294.6 184.39 238.11 151.75 252.97 143.17 362.16 206.21"/></g><g id="LINE-75" data-name="LINE"><path class="cls-5" d="M799.31,418.45l5.87-3.39,28.34,16.36h0v17.16L805.17,465,791,456.77h0v16.36l-28.34,16.37-28.34-16.37V458.57m-14.17-1.79-1.9-1.18V416.15L691.81,431.4v17.18L720.15,465,727,461Z" transform="translate(-400.5 -300.5)"/></g><g id="LINE-76" data-name="LINE"><line class="cls-5" x1="560.09" y1="337.71" x2="447.46" y2="272.66"/><line class="cls-5" x1="525.99" y1="340.21" x2="430.41" y2="285.01"/></g><g id="LWPOLYLINE-45" data-name="LWPOLYLINE"><line class="cls-5" x1="376.33" y1="147.29" x2="376.33" y2="133.53"/></g><g id="LWPOLYLINE-46" data-name="LWPOLYLINE"><polyline class="cls-5" points="433.02 130.93 404.67 147.29 378.59 132.22"/></g><g id="LWPOLYLINE-47" data-name="LWPOLYLINE"><line class="cls-5" x1="404.67" y1="147.29" x2="404.67" y2="164.46"/></g><g id="LWPOLYLINE-48" data-name="LWPOLYLINE"><polyline class="cls-5" points="336.07 156.77 362.16 171.84 390.5 155.47"/><polyline class="cls-5" points="390.5 156.28 390.5 155.47 376.33 147.28 369.14 143.13"/></g><g id="LWPOLYLINE-49" data-name="LWPOLYLINE"><line class="cls-5" x1="362.16" y1="171.84" x2="362.16" y2="189.01"/></g><g id="LWPOLYLINE-50" data-name="LWPOLYLINE"><line class="cls-5" x1="317.75" y1="146.17" x2="291.31" y2="130.9"/></g><g id="LWPOLYLINE-51" data-name="LWPOLYLINE"><line class="cls-5" x1="319.65" y1="164.46" x2="319.65" y2="156.29"/></g><g id="LWPOLYLINE-52" data-name="LWPOLYLINE"><polygon class="cls-5" points="373.98 235.34 366.4 239.72 366.4 258.3 361.72 261 348.64 253.44 333.38 244.63 361.72 228.26 373.98 235.34"/><polygon class="cls-5" points="366.4 258.3 366.4 275.47 361.72 278.17 361.72 261 366.4 258.3"/><polygon class="cls-5" points="361.72 261 361.72 278.17 333.78 262.03 333.38 261.8 333.38 244.63 348.64 253.45 361.72 261"/></g><g id="LWPOLYLINE-53" data-name="LWPOLYLINE"><polyline class="cls-5" points="235.14 189.72 235.14 206.9 235.12 206.91 169.11 245.1"/><line class="cls-5" x1="164.29" y1="242.36" x2="164.28" y2="230.62"/><polyline class="cls-5" points="159.59 245.09 99.7 210.5 93.44 206.88 93.43 206.88 93.43 205.25 93.43 198 93.43 189.69"/></g><g id="LWPOLYLINE-54" data-name="LWPOLYLINE"><line class="cls-5" x1="93.43" y1="189.7" x2="126.75" y2="170.42"/><polyline class="cls-5" points="235.14 189.69 235.14 189.71 164.29 230.62 164.28 230.63"/></g><g id="LWPOLYLINE-55" data-name="LWPOLYLINE"><polygon class="cls-5" points="376.61 246.06 376.61 316.07 376.6 316.07 366.4 309.73 366.4 239.72 376.6 246.07 376.61 246.06"/><line class="cls-5" x1="407.17" y1="298.43" x2="415.44" y2="303.58"/></g><g id="LWPOLYLINE-56" data-name="LWPOLYLINE"><polygon class="cls-5" points="18.95 136.95 18.95 206.96 18.94 206.96 8.74 200.61 8.74 130.61 18.94 136.96 18.95 136.95"/><line class="cls-5" x1="32.87" y1="198.95" x2="41.14" y2="204.1"/></g><g id="LWPOLYLINE-57" data-name="LWPOLYLINE"><polygon class="cls-5" points="89.8 96.02 89.8 96.05 18.95 136.95 18.94 136.96 8.74 130.61 79.6 89.67 89.8 96.02"/></g><polygon class="cls-5" points="89.8 96.05 89.8 166.05 46.37 191.16 46.37 191.16 46.36 191.16 41.14 204.09 35.33 197.53 35.32 197.53 32.87 198.95 18.95 206.95 18.95 136.95 89.8 96.05"/><g id="LWPOLYLINE-58" data-name="LWPOLYLINE"><polyline class="cls-5" points="327.96 161.44 327.96 161.46 327.95 161.46 326.46 160.53"/><line class="cls-5" x1="317.75" y1="115.64" x2="317.75" y2="85.12"/><line class="cls-5" x1="358.51" y1="143.81" x2="366.78" y2="148.96"/></g><path class="cls-5" d="M760.33,373.55l-16.58,9.57L728.46,392v70l5.86-3.38,2.25-1.31L759,444.31l2.45-1.42h0l5.81,6.56,2.35-5.82,2.87-7.12h0l4.31-2.49,2.26-1.31,5.32-3.07,14.9-8.6V351Z" transform="translate(-400.5 -300.5)"/><g id="LWPOLYLINE-59" data-name="LWPOLYLINE"><polygon class="cls-5" points="238.96 228.78 238.96 298.79 238.95 298.79 230.61 293.6 228.75 292.44 228.75 222.44 238.95 228.78 238.96 228.78"/><line class="cls-5" x1="269.51" y1="281.14" x2="277.78" y2="286.29"/></g><g id="LWPOLYLINE-60" data-name="LWPOLYLINE"><polygon class="cls-5" points="309.81 187.84 309.81 187.88 305.22 190.53 239.18 228.65 238.96 228.78 238.95 228.78 228.75 222.44 294.6 184.38 299.61 181.5 309.81 187.84"/></g><polygon class="cls-5" points="309.81 187.88 309.81 257.88 294.91 266.48 287.98 270.48 283.5 273.06 283.02 273.35 283.01 273.35 277.79 286.29 271.98 279.73 271.97 279.71 269.52 281.13 238.96 298.77 238.96 228.78 239.18 228.65 305.22 190.53 309.81 187.88"/><polygon class="cls-5" points="228.75 279.5 228.75 281.69 164.33 318.86 98.06 280.6 159.59 245.09 164.29 242.37 164.33 242.34 169.11 245.1 228.75 279.5"/><polygon class="cls-5" points="230.61 293.6 230.59 299.73 164.33 337.99 164.33 318.86 228.75 281.69 228.75 292.44 230.61 293.6"/><polygon class="cls-5" points="230.61 293.6 230.59 299.73 164.33 337.99 164.33 318.86 228.75 281.69 228.75 292.44 230.61 293.6"/><polygon class="cls-5" points="164.33 318.86 164.33 337.99 98.06 299.73 98.06 280.6 164.33 318.86"/><polygon class="cls-5" points="164.33 318.86 164.33 337.99 98.06 299.73 98.06 280.6 164.33 318.86"/><polygon class="cls-5" points="447.46 205.16 447.46 275.17 432.56 283.76 430.41 285 420.67 290.63 420.66 290.63 415.44 303.57 409.63 297.01 409.62 297 407.17 298.43 376.61 316.06 376.61 246.06 445.69 206.19 447.46 205.16"/><polygon class="cls-5" points="447.46 205.13 447.46 205.16 445.69 206.19 376.61 246.06 376.6 246.07 366.4 239.72 373.98 235.34 406.73 216.43 421.6 207.84 435.07 200.06 437.26 198.78 439.1 199.93 440.17 200.59 447.46 205.13"/><polygon class="cls-5" points="398.81 50.54 359.83 73.05 343.25 82.62 327.96 91.45 318.2 85.39 317.75 85.1 332.63 76.51 349.21 66.92 388.61 44.16 398.81 50.54"/><polygon class="cls-5" points="626.64 245.19 560.3 283.45 494.04 245.19 560.3 206.94 626.64 245.19"/><polygon class="cls-5" points="626.64 245.19 560.3 283.45 494.04 245.19 560.3 206.94 626.64 245.19"/><line class="cls-5" x1="506.29" y1="252.07" x2="572.38" y2="213.92"/><line class="cls-5" x1="506.29" y1="252.07" x2="572.38" y2="213.92"/><polygon class="cls-5" points="626.64 245.19 626.56 264.32 560.3 302.58 560.3 283.45 626.64 245.19"/><polygon class="cls-5" points="626.64 245.19 626.56 264.32 560.3 302.58 560.3 283.45 626.64 245.19"/><polygon class="cls-5" points="560.3 283.45 560.3 302.58 494.04 264.32 494.04 245.19 560.3 283.45"/><polygon class="cls-5" points="560.3 283.45 560.3 302.58 494.04 264.32 494.04 245.19 560.3 283.45"/><g id="LWPOLYLINE-61" data-name="LWPOLYLINE"><polygon class="cls-5" points="673.44 161.66 673.44 178.03 659.27 186.22 659.27 187.03 657.87 187.84 645.8 194.81 645.1 194.4 645.1 178.03 673.44 161.66"/><polyline class="cls-5" points="616.76 161.66 645.1 145.29 673.44 161.66"/></g><g id="LWPOLYLINE-62" data-name="LWPOLYLINE"><polygon class="cls-5" points="715.95 186.22 715.95 203.4 700.38 212.38 687.61 219.76 687.61 202.59 715.95 186.22"/><polyline class="cls-5" points="673.44 178.03 687.61 169.85 715.95 186.22"/></g><g id="LWPOLYLINE-63" data-name="LWPOLYLINE"><polygon class="cls-5" points="687.61 202.59 687.61 219.76 673.44 211.57 673.44 210.76 659.27 202.59 659.27 186.22 687.61 202.59"/></g><g id="LWPOLYLINE-64" data-name="LWPOLYLINE"><polyline class="cls-5" points="644.39 194.81 616.75 210.76 645.09 227.13 673.44 210.76"/><polyline class="cls-5" points="616.75 210.76 616.75 227.94 645.09 244.31 673.44 227.94 673.44 211.57"/><line class="cls-5" x1="659.27" y1="202.58" x2="645.8" y2="194.8"/></g><g id="LWPOLYLINE-65" data-name="LWPOLYLINE"><line class="cls-5" x1="645.09" y1="227.13" x2="645.09" y2="244.31"/></g><g id="LWPOLYLINE-66" data-name="LWPOLYLINE"><polygon class="cls-5" points="645.1 178.03 645.1 194.4 644.4 194.81 644.39 194.81 616.76 178.84 616.76 161.66 645.1 178.03"/></g><path class="cls-5" d="M837.85,559.37a29.44,29.44,0,0,1-4.35,7.22l-.63.82.25.58c.21.53.44,1,.65,1.55a16.33,16.33,0,0,0-2.9.2l-.33.07-.33.27a29.26,29.26,0,0,1-8.56,5.42c-4.12,1.59-7.72,1.28-9.64-.82-1.39-1.5-1.87-3.95-1.29-6.76.69-3.63,3.13-8,6.5-11.62,4.58-5,10.3-8.22,14.92-8.51,2.73-.15,4.86.79,6,2.69S839.24,555.92,837.85,559.37Z" transform="translate(-400.5 -300.5)"/><path class="cls-5" d="M824.94,547.09l-.08,0a38.5,38.5,0,0,0-12.78,12,26.75,26.75,0,0,0-4.48,10.54,13,13,0,0,0,.19,5.15,25.41,25.41,0,0,1-5.94,2.32l-.41.11-2.81,3.09-1.4,1.54c.31-1.12.65-2.26,1-3.41l.27-.9-.69-.07c-3.31-.33-5.55-2.09-6.35-5-.81-2.64-.25-6.39,1.54-10.29a37.61,37.61,0,0,1,8.52-11.49,36.65,36.65,0,0,1,6.81-5,21.84,21.84,0,0,1,8.51-2.93h1C821.28,542.69,823.84,544.3,824.94,547.09Z" transform="translate(-400.5 -300.5)"/><path class="cls-5" d="M473.15,456.48V461L466,465.19l-29.35,17v-4.56c0-3.27,3.53-7.71,7.74-11.67h0c.9-.84,1.83-1.67,2.76-2.45l1.4-1.15q.69-.56,1.38-1.08c.69-.52,1.36-1,2-1.46.4-.28.78-.54,1.15-.78l.56-.36.52-.33.71-.42a39.68,39.68,0,0,1,10.62-4.17h0C469.69,452.87,473.15,453.24,473.15,456.48Z" transform="translate(-400.5 -300.5)"/><path class="cls-5" d="M464,439c0,.23,0,.46,0,.7a11.66,11.66,0,0,1-.31,2,16.1,16.1,0,0,1-1,3c-.12.26-.25.52-.38.78-.28.54-.58,1.07-.91,1.59-.07.11-.14.23-.22.34s-.28.42-.43.62c-.26.37-.53.72-.81,1.07a19.17,19.17,0,0,1-4.06,3.8c-.15.1-.3.21-.46.3l-.47.29c-5,2.92-9.13,1.21-9.13-3.83a15.81,15.81,0,0,1,2.81-8.21c.21-.32.42-.63.64-.93s.31-.42.47-.62.31-.4.48-.59.42-.5.65-.74a3.5,3.5,0,0,1,.27-.28c.16-.18.33-.35.5-.51a17.86,17.86,0,0,1,1.4-1.23c.24-.19.49-.37.74-.55h0a6.18,6.18,0,0,1,.53-.36,7.33,7.33,0,0,1,.63-.4c2.47-1.43,4.7-1.75,6.34-1.1S464,436.39,464,439Z" transform="translate(-400.5 -300.5)"/><path class="cls-5" d="M686.48,535.22c4-2.39,7.29-7.55,7.29-11.58s-3.24-5.36-7.29-3-7.3,7.56-7.3,11.59S682.44,537.61,686.48,535.22ZM667,546.72c4-2.38,7.28-7.55,7.28-11.57s-3.24-5.37-7.28-3-7.31,7.56-7.31,11.59S663,549.11,667,546.72Zm0,4.85c-5.68,3.35-17,12.91-17,18.56v6.06l34.1-20.13V550C684.05,544.35,672.67,548.22,667,551.57Zm19.48-11.5c-.7.42-1.51.94-2.36,1.52,2.83.37,4.8,1.94,4.8,5.53v6.07l14.61-8.63V538.5C703.53,532.84,692.16,536.72,686.48,540.07Z" transform="translate(-400.5 -300.5)"/><g id="LINE-77" data-name="LINE"><line class="cls-5" x1="723.87" y1="225.96" x2="723.87" y2="243.15"/><line class="cls-5" x1="723.87" y1="225.96" x2="723.87" y2="243.15"/><line class="cls-5" x1="723.87" y1="225.96" x2="723.87" y2="225.96"/><line class="cls-5" x1="723.87" y1="243.15" x2="723.87" y2="243.15"/></g><g id="LINE-78" data-name="LINE"><line class="cls-5" x1="723.87" y1="243.15" x2="560.09" y2="337.71"/><line class="cls-5" x1="723.87" y1="243.15" x2="560.09" y2="337.71"/><line class="cls-5" x1="723.87" y1="243.15" x2="723.87" y2="243.15"/><line class="cls-5" x1="560.09" y1="337.71" x2="560.09" y2="337.71"/></g><g id="LINE-79" data-name="LINE"><line class="cls-5" x1="560.09" y1="320.51" x2="560.09" y2="320.51"/></g><g id="LINE-80" data-name="LINE"><line class="cls-5" x1="560.09" y1="337.71" x2="560.09" y2="337.71"/></g><g id="LINE-81" data-name="LINE"><line class="cls-5" x1="525.99" y1="318.01" x2="525.99" y2="318.01"/><line class="cls-5" x1="560.09" y1="337.71" x2="560.09" y2="337.71"/></g><g id="LINE-82" data-name="LINE"><line class="cls-5" x1="560.09" y1="320.51" x2="723.87" y2="225.96"/></g><g id="LINE-83" data-name="LINE"><line class="cls-5" x1="560.09" y1="320.51" x2="723.87" y2="225.96"/></g><g id="LINE-84" data-name="LINE"><line class="cls-5" x1="560.09" y1="320.51" x2="723.87" y2="225.96"/></g><g id="LINE-85" data-name="LINE"><polyline class="cls-5" points="447.46 272.66 560.09 337.71 560.09 320.51 447.46 255.48"/></g><g id="LINE-86" data-name="LINE"><polyline class="cls-5" points="468.39 184.31 440.18 200.6 440.17 200.6"/></g><g id="LINE-87" data-name="LINE"><line class="cls-5" x1="659.27" y1="188.64" x2="657.87" y2="187.83"/><line class="cls-5" x1="723.87" y1="225.95" x2="700.38" y2="212.38"/><line class="cls-5" x1="616.76" y1="164.1" x2="570.49" y2="137.37"/></g><g id="LINE-88" data-name="LINE"><line class="cls-5" x1="525.98" y1="357.4" x2="362.21" y2="451.96"/><line class="cls-5" x1="525.98" y1="357.4" x2="362.21" y2="451.96"/><line class="cls-5" x1="525.98" y1="357.4" x2="525.98" y2="357.4"/><line class="cls-5" x1="362.21" y1="451.96" x2="362.21" y2="451.96"/></g><g id="LINE-89" data-name="LINE"><line class="cls-5" x1="362.21" y1="434.76" x2="198.44" y2="340.21"/><line class="cls-5" x1="362.21" y1="434.76" x2="198.44" y2="340.21"/><line class="cls-5" x1="362.21" y1="434.76" x2="362.21" y2="434.76"/><line class="cls-5" x1="198.44" y1="340.21" x2="198.44" y2="340.21"/></g><g id="LINE-90" data-name="LINE"><line class="cls-5" x1="198.44" y1="357.36" x2="362.21" y2="451.96"/><line class="cls-5" x1="198.44" y1="357.36" x2="362.21" y2="451.96"/><line class="cls-5" x1="198.44" y1="357.36" x2="198.44" y2="357.36"/><line class="cls-5" x1="362.21" y1="451.96" x2="362.21" y2="451.96"/></g><g id="LINE-91" data-name="LINE"><line class="cls-5" x1="362.21" y1="434.76" x2="362.21" y2="451.96"/></g><g id="LINE-92" data-name="LINE"><line class="cls-5" x1="362.21" y1="434.76" x2="525.98" y2="340.21"/></g><g id="LINE-93" data-name="LINE"><line class="cls-5" x1="362.21" y1="434.76" x2="525.98" y2="340.21"/></g><g id="LINE-94" data-name="LINE"><line class="cls-5" x1="333.87" y1="262.04" x2="198.44" y2="340.17"/></g><g id="LINE-95" data-name="LINE"><line class="cls-5" x1="525.98" y1="340.21" x2="525.98" y2="357.4"/></g><g id="LINE-96" data-name="LINE"><line class="cls-5" x1="198.44" y1="340.21" x2="198.44" y2="357.36"/></g><g id="LINE-97" data-name="LINE"><path class="cls-5" d="M855.11,467.66a22,22,0,0,0,.17,2.76l-6.89,4-10.21,5.91-4,2.28L824,488.5,805.87,499l-10.21,5.89-22.41,12.94-10.59,6.11V506.71l97.42-56.25C857,456.19,855.11,462.23,855.11,467.66Z" transform="translate(-400.5 -300.5)"/></g><g id="LINE-98" data-name="LINE"><line class="cls-5" x1="362.16" y1="206.22" x2="362.16" y2="206.22"/></g><g id="LINE-99" data-name="LINE"><polygon class="cls-5" points="362.16 206.21 362.16 223.4 351.67 217.35 309.81 193.17 309.81 187.84 299.61 181.5 294.6 184.39 238.11 151.75 252.97 143.17 362.16 206.21"/></g><g id="LINE-100" data-name="LINE"><path class="cls-5" d="M799.31,418.45l5.87-3.39,28.34,16.36h0v17.16L805.17,465,791,456.77h0v16.36l-28.34,16.37-28.34-16.37V458.57m-14.17-1.79-1.9-1.18V416.15L691.81,431.4v17.18L720.15,465,727,461Z" transform="translate(-400.5 -300.5)"/></g><g id="LINE-101" data-name="LINE"><line class="cls-5" x1="560.09" y1="337.71" x2="447.46" y2="272.66"/><line class="cls-5" x1="525.99" y1="340.21" x2="430.41" y2="285.01"/></g><g id="LWPOLYLINE-67" data-name="LWPOLYLINE"><line class="cls-5" x1="376.33" y1="147.29" x2="376.33" y2="133.53"/></g><g id="LWPOLYLINE-68" data-name="LWPOLYLINE"><polyline class="cls-5" points="433.02 130.93 404.67 147.29 378.59 132.22"/></g><g id="LWPOLYLINE-69" data-name="LWPOLYLINE"><line class="cls-5" x1="404.67" y1="147.29" x2="404.67" y2="164.46"/></g><g id="LWPOLYLINE-70" data-name="LWPOLYLINE"><polyline class="cls-5" points="336.07 156.77 362.16 171.84 390.5 155.47"/><polyline class="cls-5" points="390.5 156.28 390.5 155.47 376.33 147.28 369.14 143.13"/></g><g id="LWPOLYLINE-71" data-name="LWPOLYLINE"><line class="cls-5" x1="362.16" y1="171.84" x2="362.16" y2="189.01"/></g><g id="LWPOLYLINE-72" data-name="LWPOLYLINE"><line class="cls-5" x1="317.75" y1="146.17" x2="291.31" y2="130.9"/></g><g id="LWPOLYLINE-73" data-name="LWPOLYLINE"><line class="cls-5" x1="319.65" y1="164.46" x2="319.65" y2="156.29"/></g><g id="LWPOLYLINE-74" data-name="LWPOLYLINE"><polygon class="cls-5" points="373.98 235.34 366.4 239.72 366.4 258.3 361.72 261 348.64 253.44 333.38 244.63 361.72 228.26 373.98 235.34"/><polygon class="cls-5" points="366.4 258.3 366.4 275.47 361.72 278.17 361.72 261 366.4 258.3"/><polygon class="cls-5" points="361.72 261 361.72 278.17 333.78 262.03 333.38 261.8 333.38 244.63 348.64 253.45 361.72 261"/></g><g id="LWPOLYLINE-75" data-name="LWPOLYLINE"><polyline class="cls-5" points="235.14 189.72 235.14 206.9 235.12 206.91 169.11 245.1"/><line class="cls-5" x1="164.29" y1="242.36" x2="164.28" y2="230.62"/><polyline class="cls-5" points="159.59 245.09 99.7 210.5 93.44 206.88 93.43 206.88 93.43 205.25 93.43 198 93.43 189.69"/></g><g id="LWPOLYLINE-76" data-name="LWPOLYLINE"><line class="cls-5" x1="93.43" y1="189.7" x2="126.75" y2="170.42"/><polyline class="cls-5" points="235.14 189.69 235.14 189.71 164.29 230.62 164.28 230.63"/></g><g id="LWPOLYLINE-77" data-name="LWPOLYLINE"><polygon class="cls-5" points="376.61 246.06 376.61 316.07 376.6 316.07 366.4 309.73 366.4 239.72 376.6 246.07 376.61 246.06"/><line class="cls-5" x1="407.17" y1="298.43" x2="415.44" y2="303.58"/></g><g id="LWPOLYLINE-78" data-name="LWPOLYLINE"><polygon class="cls-5" points="18.95 136.95 18.95 206.96 18.94 206.96 8.74 200.61 8.74 130.61 18.94 136.96 18.95 136.95"/><line class="cls-5" x1="32.87" y1="198.95" x2="41.14" y2="204.1"/></g><g id="LWPOLYLINE-79" data-name="LWPOLYLINE"><polygon class="cls-5" points="89.8 96.02 89.8 96.05 18.95 136.95 18.94 136.96 8.74 130.61 79.6 89.67 89.8 96.02"/></g><polygon class="cls-5" points="89.8 96.05 89.8 166.05 46.37 191.16 46.37 191.16 46.36 191.16 41.14 204.09 35.33 197.53 35.32 197.53 32.87 198.95 18.95 206.95 18.95 136.95 89.8 96.05"/><g id="LWPOLYLINE-80" data-name="LWPOLYLINE"><polyline class="cls-5" points="327.96 161.44 327.96 161.46 327.95 161.46 326.46 160.53"/><line class="cls-5" x1="317.75" y1="115.64" x2="317.75" y2="85.12"/><line class="cls-5" x1="358.51" y1="143.81" x2="366.78" y2="148.96"/></g><path class="cls-5" d="M760.33,373.55l-16.58,9.57L728.46,392v70l5.86-3.38,2.25-1.31L759,444.31l2.45-1.42h0l5.81,6.56,2.35-5.82,2.87-7.12h0l4.31-2.49,2.26-1.31,5.32-3.07,14.9-8.6V351Z" transform="translate(-400.5 -300.5)"/><g id="LWPOLYLINE-81" data-name="LWPOLYLINE"><polygon class="cls-5" points="238.96 228.78 238.96 298.79 238.95 298.79 230.61 293.6 228.75 292.44 228.75 222.44 238.95 228.78 238.96 228.78"/><line class="cls-5" x1="269.51" y1="281.14" x2="277.78" y2="286.29"/></g><g id="LWPOLYLINE-82" data-name="LWPOLYLINE"><polygon class="cls-5" points="309.81 187.84 309.81 187.88 305.22 190.53 239.18 228.65 238.96 228.78 238.95 228.78 228.75 222.44 294.6 184.38 299.61 181.5 309.81 187.84"/></g><polygon class="cls-5" points="309.81 187.88 309.81 257.88 294.91 266.48 287.98 270.48 283.5 273.06 283.02 273.35 283.01 273.35 277.79 286.29 271.98 279.73 271.97 279.71 269.52 281.13 238.96 298.77 238.96 228.78 239.18 228.65 305.22 190.53 309.81 187.88"/><polygon class="cls-5" points="228.75 279.5 228.75 281.69 164.33 318.86 98.06 280.6 159.59 245.09 164.29 242.37 164.33 242.34 169.11 245.1 228.75 279.5"/><polygon class="cls-5" points="230.61 293.6 230.59 299.73 164.33 337.99 164.33 318.86 228.75 281.69 228.75 292.44 230.61 293.6"/><polygon class="cls-5" points="230.61 293.6 230.59 299.73 164.33 337.99 164.33 318.86 228.75 281.69 228.75 292.44 230.61 293.6"/><polygon class="cls-5" points="164.33 318.86 164.33 337.99 98.06 299.73 98.06 280.6 164.33 318.86"/><polygon class="cls-5" points="164.33 318.86 164.33 337.99 98.06 299.73 98.06 280.6 164.33 318.86"/><polygon class="cls-5" points="447.46 205.16 447.46 275.17 432.56 283.76 430.41 285 420.67 290.63 420.66 290.63 415.44 303.57 409.63 297.01 409.62 297 407.17 298.43 376.61 316.06 376.61 246.06 445.69 206.19 447.46 205.16"/><polygon class="cls-5" points="447.46 205.13 447.46 205.16 445.69 206.19 376.61 246.06 376.6 246.07 366.4 239.72 373.98 235.34 406.73 216.43 421.6 207.84 435.07 200.06 437.26 198.78 439.1 199.93 440.17 200.59 447.46 205.13"/><polygon class="cls-5" points="398.81 50.54 359.83 73.05 343.25 82.62 327.96 91.45 318.2 85.39 317.75 85.1 332.63 76.51 349.21 66.92 388.61 44.16 398.81 50.54"/><polygon class="cls-5" points="626.64 245.19 560.3 283.45 494.04 245.19 560.3 206.94 626.64 245.19"/><polygon class="cls-5" points="626.64 245.19 560.3 283.45 494.04 245.19 560.3 206.94 626.64 245.19"/><line class="cls-5" x1="506.29" y1="252.07" x2="572.38" y2="213.92"/><line class="cls-5" x1="506.29" y1="252.07" x2="572.38" y2="213.92"/><polygon class="cls-5" points="626.64 245.19 626.56 264.32 560.3 302.58 560.3 283.45 626.64 245.19"/><polygon class="cls-5" points="626.64 245.19 626.56 264.32 560.3 302.58 560.3 283.45 626.64 245.19"/><polygon class="cls-5" points="560.3 283.45 560.3 302.58 494.04 264.32 494.04 245.19 560.3 283.45"/><polygon class="cls-5" points="560.3 283.45 560.3 302.58 494.04 264.32 494.04 245.19 560.3 283.45"/><g id="LWPOLYLINE-83" data-name="LWPOLYLINE"><polygon class="cls-5" points="673.44 161.66 673.44 178.03 659.27 186.22 659.27 187.03 657.87 187.84 645.8 194.81 645.1 194.4 645.1 178.03 673.44 161.66"/><polyline class="cls-5" points="616.76 161.66 645.1 145.29 673.44 161.66"/></g><g id="LWPOLYLINE-84" data-name="LWPOLYLINE"><polygon class="cls-5" points="715.95 186.22 715.95 203.4 700.38 212.38 687.61 219.76 687.61 202.59 715.95 186.22"/><polyline class="cls-5" points="673.44 178.03 687.61 169.85 715.95 186.22"/></g><g id="LWPOLYLINE-85" data-name="LWPOLYLINE"><polygon class="cls-5" points="687.61 202.59 687.61 219.76 673.44 211.57 673.44 210.76 659.27 202.59 659.27 186.22 687.61 202.59"/></g><g id="LWPOLYLINE-86" data-name="LWPOLYLINE"><polyline class="cls-5" points="644.39 194.81 616.75 210.76 645.09 227.13 673.44 210.76"/><polyline class="cls-5" points="616.75 210.76 616.75 227.94 645.09 244.31 673.44 227.94 673.44 211.57"/><line class="cls-5" x1="659.27" y1="202.58" x2="645.8" y2="194.8"/></g><g id="LWPOLYLINE-87" data-name="LWPOLYLINE"><line class="cls-5" x1="645.09" y1="227.13" x2="645.09" y2="244.31"/></g><g id="LWPOLYLINE-88" data-name="LWPOLYLINE"><polygon class="cls-5" points="645.1 178.03 645.1 194.4 644.4 194.81 644.39 194.81 616.76 178.84 616.76 161.66 645.1 178.03"/></g><path class="cls-5" d="M837.85,559.37a29.44,29.44,0,0,1-4.35,7.22l-.63.82.25.58c.21.53.44,1,.65,1.55a16.33,16.33,0,0,0-2.9.2l-.33.07-.33.27a29.26,29.26,0,0,1-8.56,5.42c-4.12,1.59-7.72,1.28-9.64-.82-1.39-1.5-1.87-3.95-1.29-6.76.69-3.63,3.13-8,6.5-11.62,4.58-5,10.3-8.22,14.92-8.51,2.73-.15,4.86.79,6,2.69S839.24,555.92,837.85,559.37Z" transform="translate(-400.5 -300.5)"/><path class="cls-5" d="M824.94,547.09l-.08,0a38.5,38.5,0,0,0-12.78,12,26.75,26.75,0,0,0-4.48,10.54,13,13,0,0,0,.19,5.15,25.41,25.41,0,0,1-5.94,2.32l-.41.11-2.81,3.09-1.4,1.54c.31-1.12.65-2.26,1-3.41l.27-.9-.69-.07c-3.31-.33-5.55-2.09-6.35-5-.81-2.64-.25-6.39,1.54-10.29a37.61,37.61,0,0,1,8.52-11.49,36.65,36.65,0,0,1,6.81-5,21.84,21.84,0,0,1,8.51-2.93h1C821.28,542.69,823.84,544.3,824.94,547.09Z" transform="translate(-400.5 -300.5)"/><path class="cls-5" d="M473.15,456.48V461L466,465.19l-29.35,17v-4.56c0-3.27,3.53-7.71,7.74-11.67h0c.9-.84,1.83-1.67,2.76-2.45l1.4-1.15q.69-.56,1.38-1.08c.69-.52,1.36-1,2-1.46.4-.28.78-.54,1.15-.78l.56-.36.52-.33.71-.42a39.68,39.68,0,0,1,10.62-4.17h0C469.69,452.87,473.15,453.24,473.15,456.48Z" transform="translate(-400.5 -300.5)"/><path class="cls-5" d="M464,439c0,.23,0,.46,0,.7a11.66,11.66,0,0,1-.31,2,16.1,16.1,0,0,1-1,3c-.12.26-.25.52-.38.78-.28.54-.58,1.07-.91,1.59-.07.11-.14.23-.22.34s-.28.42-.43.62c-.26.37-.53.72-.81,1.07a19.17,19.17,0,0,1-4.06,3.8c-.15.1-.3.21-.46.3l-.47.29c-5,2.92-9.13,1.21-9.13-3.83a15.81,15.81,0,0,1,2.81-8.21c.21-.32.42-.63.64-.93s.31-.42.47-.62.31-.4.48-.59.42-.5.65-.74a3.5,3.5,0,0,1,.27-.28c.16-.18.33-.35.5-.51a17.86,17.86,0,0,1,1.4-1.23c.24-.19.49-.37.74-.55h0a6.18,6.18,0,0,1,.53-.36,7.33,7.33,0,0,1,.63-.4c2.47-1.43,4.7-1.75,6.34-1.1S464,436.39,464,439Z" transform="translate(-400.5 -300.5)"/><path class="cls-5" d="M686.48,535.22c4-2.39,7.29-7.55,7.29-11.58s-3.24-5.36-7.29-3-7.3,7.56-7.3,11.59S682.44,537.61,686.48,535.22ZM667,546.72c4-2.38,7.28-7.55,7.28-11.57s-3.24-5.37-7.28-3-7.31,7.56-7.31,11.59S663,549.11,667,546.72Zm0,4.85c-5.68,3.35-17,12.91-17,18.56v6.06l34.1-20.13V550C684.05,544.35,672.67,548.22,667,551.57Zm19.48-11.5c-.7.42-1.51.94-2.36,1.52,2.83.37,4.8,1.94,4.8,5.53v6.07l14.61-8.63V538.5C703.53,532.84,692.16,536.72,686.48,540.07Z" transform="translate(-400.5 -300.5)"/><g id="LINE-102" data-name="LINE"><line class="cls-5" x1="723.87" y1="225.96" x2="723.87" y2="243.15"/><line class="cls-5" x1="723.87" y1="225.96" x2="723.87" y2="243.15"/><line class="cls-5" x1="723.87" y1="225.96" x2="723.87" y2="225.96"/><line class="cls-5" x1="723.87" y1="243.15" x2="723.87" y2="243.15"/></g><g id="LINE-103" data-name="LINE"><line class="cls-5" x1="723.87" y1="243.15" x2="560.09" y2="337.71"/><line class="cls-5" x1="723.87" y1="243.15" x2="560.09" y2="337.71"/><line class="cls-5" x1="723.87" y1="243.15" x2="723.87" y2="243.15"/><line class="cls-5" x1="560.09" y1="337.71" x2="560.09" y2="337.71"/></g><g id="LINE-104" data-name="LINE"><line class="cls-5" x1="560.09" y1="320.51" x2="560.09" y2="320.51"/></g><g id="LINE-105" data-name="LINE"><line class="cls-5" x1="560.09" y1="337.71" x2="560.09" y2="337.71"/></g><g id="LINE-106" data-name="LINE"><line class="cls-5" x1="525.99" y1="318.01" x2="525.99" y2="318.01"/><line class="cls-5" x1="560.09" y1="337.71" x2="560.09" y2="337.71"/></g><g id="LINE-107" data-name="LINE"><line class="cls-5" x1="560.09" y1="320.51" x2="723.87" y2="225.96"/></g><g id="LINE-108" data-name="LINE"><line class="cls-5" x1="560.09" y1="320.51" x2="723.87" y2="225.96"/></g><g id="LINE-109" data-name="LINE"><line class="cls-5" x1="560.09" y1="320.51" x2="723.87" y2="225.96"/></g><g id="LINE-110" data-name="LINE"><polyline class="cls-5" points="447.46 272.66 560.09 337.71 560.09 320.51 447.46 255.48"/></g><g id="LINE-111" data-name="LINE"><polyline class="cls-5" points="468.39 184.31 440.18 200.6 440.17 200.6"/></g><g id="LINE-112" data-name="LINE"><line class="cls-5" x1="659.27" y1="188.64" x2="657.87" y2="187.83"/><line class="cls-5" x1="723.87" y1="225.95" x2="700.38" y2="212.38"/><line class="cls-5" x1="616.76" y1="164.1" x2="570.49" y2="137.37"/></g><g id="LINE-113" data-name="LINE"><line class="cls-5" x1="525.98" y1="357.4" x2="362.21" y2="451.96"/><line class="cls-5" x1="525.98" y1="357.4" x2="362.21" y2="451.96"/><line class="cls-5" x1="525.98" y1="357.4" x2="525.98" y2="357.4"/><line class="cls-5" x1="362.21" y1="451.96" x2="362.21" y2="451.96"/></g><g id="LINE-114" data-name="LINE"><line class="cls-5" x1="362.21" y1="434.76" x2="198.44" y2="340.21"/><line class="cls-5" x1="362.21" y1="434.76" x2="198.44" y2="340.21"/><line class="cls-5" x1="362.21" y1="434.76" x2="362.21" y2="434.76"/><line class="cls-5" x1="198.44" y1="340.21" x2="198.44" y2="340.21"/></g><g id="LINE-115" data-name="LINE"><line class="cls-5" x1="198.44" y1="357.36" x2="362.21" y2="451.96"/><line class="cls-5" x1="198.44" y1="357.36" x2="362.21" y2="451.96"/><line class="cls-5" x1="198.44" y1="357.36" x2="198.44" y2="357.36"/><line class="cls-5" x1="362.21" y1="451.96" x2="362.21" y2="451.96"/></g><g id="LINE-116" data-name="LINE"><line class="cls-5" x1="362.21" y1="434.76" x2="362.21" y2="451.96"/></g><g id="LINE-117" data-name="LINE"><line class="cls-5" x1="362.21" y1="434.76" x2="525.98" y2="340.21"/></g><g id="LINE-118" data-name="LINE"><line class="cls-5" x1="362.21" y1="434.76" x2="525.98" y2="340.21"/></g><g id="LINE-119" data-name="LINE"><line class="cls-5" x1="333.87" y1="262.04" x2="198.44" y2="340.17"/></g><g id="LINE-120" data-name="LINE"><line class="cls-5" x1="525.98" y1="340.21" x2="525.98" y2="357.4"/></g><g id="LINE-121" data-name="LINE"><line class="cls-5" x1="198.44" y1="340.21" x2="198.44" y2="357.36"/></g><g id="LINE-122" data-name="LINE"><path class="cls-5" d="M855.11,467.66a22,22,0,0,0,.17,2.76l-6.89,4-10.21,5.91-4,2.28L824,488.5,805.87,499l-10.21,5.89-22.41,12.94-10.59,6.11V506.71l97.42-56.25C857,456.19,855.11,462.23,855.11,467.66Z" transform="translate(-400.5 -300.5)"/></g><g id="LINE-123" data-name="LINE"><line class="cls-5" x1="362.16" y1="206.22" x2="362.16" y2="206.22"/></g><g id="LINE-124" data-name="LINE"><polygon class="cls-5" points="362.16 206.21 362.16 223.4 351.67 217.35 309.81 193.17 309.81 187.84 299.61 181.5 294.6 184.39 238.11 151.75 252.97 143.17 362.16 206.21"/></g><g id="LINE-125" data-name="LINE"><path class="cls-5" d="M799.31,418.45l5.87-3.39,28.34,16.36h0v17.16L805.17,465,791,456.77h0v16.36l-28.34,16.37-28.34-16.37V458.57m-14.17-1.79-1.9-1.18V416.15L691.81,431.4v17.18L720.15,465,727,461Z" transform="translate(-400.5 -300.5)"/></g><g id="LINE-126" data-name="LINE"><line class="cls-5" x1="560.09" y1="337.71" x2="447.46" y2="272.66"/><line class="cls-5" x1="525.99" y1="340.21" x2="430.41" y2="285.01"/></g><g id="LWPOLYLINE-89" data-name="LWPOLYLINE"><line class="cls-5" x1="376.33" y1="147.29" x2="376.33" y2="133.53"/></g><g id="LWPOLYLINE-90" data-name="LWPOLYLINE"><polyline class="cls-5" points="433.02 130.93 404.67 147.29 378.59 132.22"/></g><g id="LWPOLYLINE-91" data-name="LWPOLYLINE"><line class="cls-5" x1="404.67" y1="147.29" x2="404.67" y2="164.46"/></g><g id="LWPOLYLINE-92" data-name="LWPOLYLINE"><polyline class="cls-5" points="336.07 156.77 362.16 171.84 390.5 155.47"/><polyline class="cls-5" points="390.5 156.28 390.5 155.47 376.33 147.28 369.14 143.13"/></g><g id="LWPOLYLINE-93" data-name="LWPOLYLINE"><line class="cls-5" x1="362.16" y1="171.84" x2="362.16" y2="189.01"/></g><g id="LWPOLYLINE-94" data-name="LWPOLYLINE"><line class="cls-5" x1="317.75" y1="146.17" x2="291.31" y2="130.9"/></g><g id="LWPOLYLINE-95" data-name="LWPOLYLINE"><line class="cls-5" x1="319.65" y1="164.46" x2="319.65" y2="156.29"/></g><g id="LWPOLYLINE-96" data-name="LWPOLYLINE"><polygon class="cls-5" points="373.98 235.34 366.4 239.72 366.4 258.3 361.72 261 348.64 253.44 333.38 244.63 361.72 228.26 373.98 235.34"/><polygon class="cls-5" points="366.4 258.3 366.4 275.47 361.72 278.17 361.72 261 366.4 258.3"/><polygon class="cls-5" points="361.72 261 361.72 278.17 333.78 262.03 333.38 261.8 333.38 244.63 348.64 253.45 361.72 261"/></g><g id="LWPOLYLINE-97" data-name="LWPOLYLINE"><polyline class="cls-5" points="235.14 189.72 235.14 206.9 235.12 206.91 169.11 245.1"/><line class="cls-5" x1="164.29" y1="242.36" x2="164.28" y2="230.62"/><polyline class="cls-5" points="159.59 245.09 99.7 210.5 93.44 206.88 93.43 206.88 93.43 205.25 93.43 198 93.43 189.69"/></g><g id="LWPOLYLINE-98" data-name="LWPOLYLINE"><line class="cls-5" x1="93.43" y1="189.7" x2="126.75" y2="170.42"/><polyline class="cls-5" points="235.14 189.69 235.14 189.71 164.29 230.62 164.28 230.63"/></g><g id="LWPOLYLINE-99" data-name="LWPOLYLINE"><polygon class="cls-5" points="376.61 246.06 376.61 316.07 376.6 316.07 366.4 309.73 366.4 239.72 376.6 246.07 376.61 246.06"/><line class="cls-5" x1="407.17" y1="298.43" x2="415.44" y2="303.58"/></g><g id="LWPOLYLINE-100" data-name="LWPOLYLINE"><polygon class="cls-5" points="18.95 136.95 18.95 206.96 18.94 206.96 8.74 200.61 8.74 130.61 18.94 136.96 18.95 136.95"/><line class="cls-5" x1="32.87" y1="198.95" x2="41.14" y2="204.1"/></g><g id="LWPOLYLINE-101" data-name="LWPOLYLINE"><polygon class="cls-5" points="89.8 96.02 89.8 96.05 18.95 136.95 18.94 136.96 8.74 130.61 79.6 89.67 89.8 96.02"/></g><polygon class="cls-5" points="89.8 96.05 89.8 166.05 46.37 191.16 46.37 191.16 46.36 191.16 41.14 204.09 35.33 197.53 35.32 197.53 32.87 198.95 18.95 206.95 18.95 136.95 89.8 96.05"/><g id="LWPOLYLINE-102" data-name="LWPOLYLINE"><polyline class="cls-5" points="327.96 161.44 327.96 161.46 327.95 161.46 326.46 160.53"/><line class="cls-5" x1="317.75" y1="115.64" x2="317.75" y2="85.12"/><line class="cls-5" x1="358.51" y1="143.81" x2="366.78" y2="148.96"/></g><path class="cls-5" d="M760.33,373.55l-16.58,9.57L728.46,392v70l5.86-3.38,2.25-1.31L759,444.31l2.45-1.42h0l5.81,6.56,2.35-5.82,2.87-7.12h0l4.31-2.49,2.26-1.31,5.32-3.07,14.9-8.6V351Z" transform="translate(-400.5 -300.5)"/><g id="LWPOLYLINE-103" data-name="LWPOLYLINE"><polygon class="cls-5" points="238.96 228.78 238.96 298.79 238.95 298.79 230.61 293.6 228.75 292.44 228.75 222.44 238.95 228.78 238.96 228.78"/><line class="cls-5" x1="269.51" y1="281.14" x2="277.78" y2="286.29"/></g><g id="LWPOLYLINE-104" data-name="LWPOLYLINE"><polygon class="cls-5" points="309.81 187.84 309.81 187.88 305.22 190.53 239.18 228.65 238.96 228.78 238.95 228.78 228.75 222.44 294.6 184.38 299.61 181.5 309.81 187.84"/></g><polygon class="cls-5" points="309.81 187.88 309.81 257.88 294.91 266.48 287.98 270.48 283.5 273.06 283.02 273.35 283.01 273.35 277.79 286.29 271.98 279.73 271.97 279.71 269.52 281.13 238.96 298.77 238.96 228.78 239.18 228.65 305.22 190.53 309.81 187.88"/><polygon class="cls-5" points="228.75 279.5 228.75 281.69 164.33 318.86 98.06 280.6 159.59 245.09 164.29 242.37 164.33 242.34 169.11 245.1 228.75 279.5"/><polygon class="cls-5" points="230.61 293.6 230.59 299.73 164.33 337.99 164.33 318.86 228.75 281.69 228.75 292.44 230.61 293.6"/><polygon class="cls-5" points="230.61 293.6 230.59 299.73 164.33 337.99 164.33 318.86 228.75 281.69 228.75 292.44 230.61 293.6"/><polygon class="cls-5" points="164.33 318.86 164.33 337.99 98.06 299.73 98.06 280.6 164.33 318.86"/><polygon class="cls-5" points="164.33 318.86 164.33 337.99 98.06 299.73 98.06 280.6 164.33 318.86"/><polygon class="cls-5" points="447.46 205.16 447.46 275.17 432.56 283.76 430.41 285 420.67 290.63 420.66 290.63 415.44 303.57 409.63 297.01 409.62 297 407.17 298.43 376.61 316.06 376.61 246.06 445.69 206.19 447.46 205.16"/><polygon class="cls-5" points="447.46 205.13 447.46 205.16 445.69 206.19 376.61 246.06 376.6 246.07 366.4 239.72 373.98 235.34 406.73 216.43 421.6 207.84 435.07 200.06 437.26 198.78 439.1 199.93 440.17 200.59 447.46 205.13"/><polygon class="cls-5" points="398.81 50.54 359.83 73.05 343.25 82.62 327.96 91.45 318.2 85.39 317.75 85.1 332.63 76.51 349.21 66.92 388.61 44.16 398.81 50.54"/><polygon class="cls-5" points="626.64 245.19 560.3 283.45 494.04 245.19 560.3 206.94 626.64 245.19"/><polygon class="cls-5" points="626.64 245.19 560.3 283.45 494.04 245.19 560.3 206.94 626.64 245.19"/><line class="cls-5" x1="506.29" y1="252.07" x2="572.38" y2="213.92"/><line class="cls-5" x1="506.29" y1="252.07" x2="572.38" y2="213.92"/><polygon class="cls-5" points="626.64 245.19 626.56 264.32 560.3 302.58 560.3 283.45 626.64 245.19"/><polygon class="cls-5" points="626.64 245.19 626.56 264.32 560.3 302.58 560.3 283.45 626.64 245.19"/><polygon class="cls-5" points="560.3 283.45 560.3 302.58 494.04 264.32 494.04 245.19 560.3 283.45"/><polygon class="cls-5" points="560.3 283.45 560.3 302.58 494.04 264.32 494.04 245.19 560.3 283.45"/><g id="LWPOLYLINE-105" data-name="LWPOLYLINE"><polygon class="cls-5" points="673.44 161.66 673.44 178.03 659.27 186.22 659.27 187.03 657.87 187.84 645.8 194.81 645.1 194.4 645.1 178.03 673.44 161.66"/><polyline class="cls-5" points="616.76 161.66 645.1 145.29 673.44 161.66"/></g><g id="LWPOLYLINE-106" data-name="LWPOLYLINE"><polygon class="cls-5" points="715.95 186.22 715.95 203.4 700.38 212.38 687.61 219.76 687.61 202.59 715.95 186.22"/><polyline class="cls-5" points="673.44 178.03 687.61 169.85 715.95 186.22"/></g><g id="LWPOLYLINE-107" data-name="LWPOLYLINE"><polygon class="cls-5" points="687.61 202.59 687.61 219.76 673.44 211.57 673.44 210.76 659.27 202.59 659.27 186.22 687.61 202.59"/></g><g id="LWPOLYLINE-108" data-name="LWPOLYLINE"><polyline class="cls-5" points="644.39 194.81 616.75 210.76 645.09 227.13 673.44 210.76"/><polyline class="cls-5" points="616.75 210.76 616.75 227.94 645.09 244.31 673.44 227.94 673.44 211.57"/><line class="cls-5" x1="659.27" y1="202.58" x2="645.8" y2="194.8"/></g><g id="LWPOLYLINE-109" data-name="LWPOLYLINE"><line class="cls-5" x1="645.09" y1="227.13" x2="645.09" y2="244.31"/></g><g id="LWPOLYLINE-110" data-name="LWPOLYLINE"><polygon class="cls-5" points="645.1 178.03 645.1 194.4 644.4 194.81 644.39 194.81 616.76 178.84 616.76 161.66 645.1 178.03"/></g><path class="cls-5" d="M837.85,559.37a29.44,29.44,0,0,1-4.35,7.22l-.63.82.25.58c.21.53.44,1,.65,1.55a16.33,16.33,0,0,0-2.9.2l-.33.07-.33.27a29.26,29.26,0,0,1-8.56,5.42c-4.12,1.59-7.72,1.28-9.64-.82-1.39-1.5-1.87-3.95-1.29-6.76.69-3.63,3.13-8,6.5-11.62,4.58-5,10.3-8.22,14.92-8.51,2.73-.15,4.86.79,6,2.69S839.24,555.92,837.85,559.37Z" transform="translate(-400.5 -300.5)"/><path class="cls-5" d="M824.94,547.09l-.08,0a38.5,38.5,0,0,0-12.78,12,26.75,26.75,0,0,0-4.48,10.54,13,13,0,0,0,.19,5.15,25.41,25.41,0,0,1-5.94,2.32l-.41.11-2.81,3.09-1.4,1.54c.31-1.12.65-2.26,1-3.41l.27-.9-.69-.07c-3.31-.33-5.55-2.09-6.35-5-.81-2.64-.25-6.39,1.54-10.29a37.61,37.61,0,0,1,8.52-11.49,36.65,36.65,0,0,1,6.81-5,21.84,21.84,0,0,1,8.51-2.93h1C821.28,542.69,823.84,544.3,824.94,547.09Z" transform="translate(-400.5 -300.5)"/><path class="cls-5" d="M473.15,456.48V461L466,465.19l-29.35,17v-4.56c0-3.27,3.53-7.71,7.74-11.67h0c.9-.84,1.83-1.67,2.76-2.45l1.4-1.15q.69-.56,1.38-1.08c.69-.52,1.36-1,2-1.46.4-.28.78-.54,1.15-.78l.56-.36.52-.33.71-.42a39.68,39.68,0,0,1,10.62-4.17h0C469.69,452.87,473.15,453.24,473.15,456.48Z" transform="translate(-400.5 -300.5)"/><path class="cls-5" d="M464,439c0,.23,0,.46,0,.7a11.66,11.66,0,0,1-.31,2,16.1,16.1,0,0,1-1,3c-.12.26-.25.52-.38.78-.28.54-.58,1.07-.91,1.59-.07.11-.14.23-.22.34s-.28.42-.43.62c-.26.37-.53.72-.81,1.07a19.17,19.17,0,0,1-4.06,3.8c-.15.1-.3.21-.46.3l-.47.29c-5,2.92-9.13,1.21-9.13-3.83a15.81,15.81,0,0,1,2.81-8.21c.21-.32.42-.63.64-.93s.31-.42.47-.62.31-.4.48-.59.42-.5.65-.74a3.5,3.5,0,0,1,.27-.28c.16-.18.33-.35.5-.51a17.86,17.86,0,0,1,1.4-1.23c.24-.19.49-.37.74-.55h0a6.18,6.18,0,0,1,.53-.36,7.33,7.33,0,0,1,.63-.4c2.47-1.43,4.7-1.75,6.34-1.1S464,436.39,464,439Z" transform="translate(-400.5 -300.5)"/><path class="cls-5" d="M686.48,535.22c4-2.39,7.29-7.55,7.29-11.58s-3.24-5.36-7.29-3-7.3,7.56-7.3,11.59S682.44,537.61,686.48,535.22ZM667,546.72c4-2.38,7.28-7.55,7.28-11.57s-3.24-5.37-7.28-3-7.31,7.56-7.31,11.59S663,549.11,667,546.72Zm0,4.85c-5.68,3.35-17,12.91-17,18.56v6.06l34.1-20.13V550C684.05,544.35,672.67,548.22,667,551.57Zm19.48-11.5c-.7.42-1.51.94-2.36,1.52,2.83.37,4.8,1.94,4.8,5.53v6.07l14.61-8.63V538.5C703.53,532.84,692.16,536.72,686.48,540.07Z" transform="translate(-400.5 -300.5)"/></g><path class="cls-5" d="M959.14,547.73c-.63.51-1.16.95-1.58,1.31l-8.14-5.56,12.44-7.18-5.13-3-17.1,9.87,16.26,10.84,3.88-.48a28.57,28.57,0,0,1,2.2-1.88,21.55,21.55,0,0,1,2.37-1.64q7.51-4.34,13.94-.63c2.25,1.3,3.32,2.64,3.24,4s-1.32,2.77-3.7,4.14a28,28,0,0,1-5,2.18,30.55,30.55,0,0,1-5.93,1.41l5.23,3a29.48,29.48,0,0,0,10.6-3.88q6.07-3.51,6.14-7.27T983.19,546a20.87,20.87,0,0,0-10.73-2.84A21.24,21.24,0,0,0,961.72,546,20,20,0,0,0,959.14,547.73Z" transform="translate(-400.5 -300.5)"/><path class="cls-5" d="M959.14,547.73c-.63.51-1.16.95-1.58,1.31l-8.14-5.56,12.44-7.18-5.13-3-17.1,9.87,16.26,10.84,3.88-.48a28.57,28.57,0,0,1,2.2-1.88,21.55,21.55,0,0,1,2.37-1.64q7.51-4.34,13.94-.63c2.25,1.3,3.32,2.64,3.24,4s-1.32,2.77-3.7,4.14a28,28,0,0,1-5,2.18,30.55,30.55,0,0,1-5.93,1.41l5.23,3a29.48,29.48,0,0,0,10.6-3.88q6.07-3.51,6.14-7.27T983.19,546a20.87,20.87,0,0,0-10.73-2.84A21.24,21.24,0,0,0,961.72,546,20,20,0,0,0,959.14,547.73Z" transform="translate(-400.5 -300.5)"/><path class="cls-5" d="M901.86,397.91l-68.44-39.64L817,348.75l-49.76-28.82-49.6,29-16.51,9.64-23.39,13.67" transform="translate(-400.5 -300.5)"/><path class="cls-5" d="M901.86,397.91l-68.44-39.64L817,348.75l-49.76-28.82-49.6,29-16.51,9.64-23.39,13.67" transform="translate(-400.5 -300.5)"/><path class="cls-5" d="M778.87,419.92l-27.93,16.36c-2.63,1.54-4.77.66-4.77-2v-26.5c0-2.62,2.14-6,4.77-7.54l2.06-1.2c.22-.13.39-.06.39.16v2.5c0,1,.84,1.37,1.88.77a4,4,0,0,0,1.87-3v-2.49a.85.85,0,0,1,.39-.63l14.75-8.64c.22-.12.4,0,.4.17v2.49c0,1,.84,1.38,1.87.77a3.91,3.91,0,0,0,1.87-3v-2.5a.82.82,0,0,1,.4-.62l2-1.21c2.63-1.54,4.77-.66,4.77,2v26.5C783.64,415,781.5,418.38,778.87,419.92Z" transform="translate(-400.5 -300.5)"/><path class="cls-5" d="M755.27,392.69a3.9,3.9,0,0,0-1.88,3v6.09c0,1,.84,1.37,1.88.77a4,4,0,0,0,1.87-3v-6.08a1,1,0,0,0-.55-1A1.56,1.56,0,0,0,755.27,392.69Z" transform="translate(-400.5 -300.5)"/><path class="cls-5" d="M774.55,381.4a3.91,3.91,0,0,0-1.87,3v6.08c0,1,.84,1.38,1.87.77a3.91,3.91,0,0,0,1.87-3v-6.08a1,1,0,0,0-.55-1A1.49,1.49,0,0,0,774.55,381.4Z" transform="translate(-400.5 -300.5)"/><path class="cls-5" d="M769.32,418.21a.52.52,0,0,1-.19.06l-4.22.26-4.23,4.69a.53.53,0,0,1-.41.21c-.13,0-.19-.13-.16-.29l.8-5.16-3.41-1.32c-.11,0-.15-.18-.1-.35a.86.86,0,0,1,.32-.46l4.72-3.45,2.11-5.5a1,1,0,0,1,.36-.43c.15-.09.29-.08.35,0l2.11,3,4.73-2.08c.15-.06.27,0,.32.08a.58.58,0,0,1-.1.47l-3.42,5.32.81,4.21a.69.69,0,0,1-.16.48A1,1,0,0,1,769.32,418.21Z" transform="translate(-400.5 -300.5)"/><path class="cls-5" d="M746.28,411.88a.82.82,0,0,1,.4-.62l36.46-21.36c.22-.13.4-.06.4.16" transform="translate(-400.5 -300.5)"/><line class="cls-5" x1="164.28" y1="230.63" x2="93.43" y2="189.7"/><line class="cls-5" x1="203.81" y1="171.56" x2="235.14" y2="189.69"/></g><g id="dash"><polygon class="cls-1" points="432.94 38.75 416.48 48.25 398.81 58.46 398.81 50.54 388.61 44.16 349.21 66.92 334.31 58.33 317.12 48.42 300.35 38.75 366.69 0.5 400.57 20.06 432.94 38.75"/><polygon class="cls-1" points="432.94 38.75 432.94 57.76 432.92 57.77 423.45 63.36 398.81 77.59 398.81 58.46 416.48 48.25 432.94 38.75"/><polyline class="cls-1" points="300.33 38.77 300.33 57.9 300.61 58.06 332.63 76.51"/><g id="LWPOLYLINE-111" data-name="LWPOLYLINE"><polyline class="cls-1" points="43.01 250.72 43.01 267.89 71.35 284.26 99.69 267.9 99.69 250.72 71.35 234.35 43.01 250.72 71.35 267.09 99.69 250.72"/></g><g id="LWPOLYLINE-112" data-name="LWPOLYLINE"><line class="cls-1" x1="71.35" y1="267.09" x2="71.35" y2="284.26"/></g><g id="LWPOLYLINE-113" data-name="LWPOLYLINE"><polyline class="cls-1" points="0.5 226.16 0.5 243.34 28.84 259.71 43.01 251.53"/></g><g id="LWPOLYLINE-114" data-name="LWPOLYLINE"><polyline class="cls-1" points="57.18 242.54 57.18 226.17 28.84 209.8 0.5 226.16 28.84 242.53 57.18 226.17"/></g><g id="LWPOLYLINE-115" data-name="LWPOLYLINE"><line class="cls-1" x1="28.84" y1="242.53" x2="28.84" y2="259.71"/></g><g id="LWPOLYLINE-116" data-name="LWPOLYLINE"><line class="cls-1" x1="43.01" y1="201.62" x2="43.01" y2="217.99"/></g><g id="LWPOLYLINE-117" data-name="LWPOLYLINE"><line class="cls-1" x1="57.18" y1="226.98" x2="70.66" y2="234.76"/></g><g id="LWPOLYLINE-118" data-name="LWPOLYLINE"><line class="cls-1" x1="72.05" y1="234.76" x2="99.7" y2="218.8"/></g><g id="LWPOLYLINE-119" data-name="LWPOLYLINE"><polyline class="cls-1" points="99.7 218.8 99.7 201.62 71.36 185.25 43.02 201.62 71.35 217.99 99.7 201.62"/></g><g id="LWPOLYLINE-120" data-name="LWPOLYLINE"><line class="cls-1" x1="71.35" y1="217.99" x2="71.35" y2="234.36"/></g><g id="LINE-127" data-name="LINE"><line class="cls-1" x1="0.5" y1="243.34" x2="28.84" y2="226.97"/></g><g id="LINE-128" data-name="LINE"><line class="cls-1" x1="43.71" y1="218.39" x2="71.36" y2="202.43"/></g><g id="LINE-129" data-name="LINE"><line class="cls-1" x1="71.36" y1="202.43" x2="99.7" y2="218.8"/></g><g id="LINE-130" data-name="LINE"><line class="cls-1" x1="71.36" y1="185.25" x2="71.36" y2="202.43"/></g><g id="LINE-131" data-name="LINE"><line class="cls-1" x1="71.35" y1="251.53" x2="43.01" y2="267.89"/></g><g id="LINE-132" data-name="LINE"><line class="cls-1" x1="28.84" y1="209.8" x2="28.84" y2="226.97"/></g><g id="LINE-133" data-name="LINE"><line class="cls-1" x1="28.84" y1="226.97" x2="56.48" y2="242.94"/></g><g id="LINE-134" data-name="LINE"><line class="cls-1" x1="71.35" y1="251.53" x2="99.69" y2="267.9"/></g><g id="LINE-135" data-name="LINE"><line class="cls-1" x1="71.35" y1="234.36" x2="71.35" y2="251.53"/></g><g id="LWPOLYLINE-121" data-name="LWPOLYLINE"><polyline class="cls-1" points="192.63 257.25 214.69 244.51 228.75 252.63"/></g><g id="LWPOLYLINE-122" data-name="LWPOLYLINE"><polyline class="cls-1" points="309.81 250.35 328.05 260.89 299.71 277.26 287.98 270.48"/></g><g id="R"><g id="line-136" data-name="line"><path class="cls-1" d="M968.1,373.18l2.3,1.43A15.51,15.51,0,0,0,968.1,373.18Z" transform="translate(-400.5 -300.5)"/><path class="cls-1" d="M989.24,393.31a9.92,9.92,0,0,0-4.33-1.38,16.24,16.24,0,0,0-6.76.93,31.72,31.72,0,0,0-.52-5.6,10,10,0,0,1,4.25,1.48Z" transform="translate(-400.5 -300.5)"/><line class="cls-1" x1="483.93" y1="140.32" x2="483.92" y2="140.33"/><path class="cls-1" d="M974.42,435.9l-.95.56L971,437.87" transform="translate(-400.5 -300.5)"/><path class="cls-1" d="M968,373.13h0l.07,0h0" transform="translate(-400.5 -300.5)"/><path class="cls-1" d="M974.41,435.9c11-6.76,19.79-20.83,19.79-32,0-5-1.78-8.58-4.72-10.48l-.24-.16a10,10,0,0,0-4.33-1.37,16.38,16.38,0,0,0-6.76.92,32.67,32.67,0,0,0-.52-5.59c-1-5.64-3.56-9.91-7.22-12.64" transform="translate(-400.5 -300.5)"/><line class="cls-1" x1="483.92" y1="140.33" x2="473.38" y2="133.63"/><polyline class="cls-1" points="506.38 114.77 506.37 114.78 496.07 108.37"/><path class="cls-1" d="M968,373.1a17.58,17.58,0,0,0-2.83-1.13c-6.67-2-15.41-.61-25,4.82-9.89,5.61-18.89,14.5-25.64,24.52a82.17,82.17,0,0,0-7.63,14,18.1,18.1,0,0,0-6.42,2.33c-8.22,4.66-15,14.65-16,23.17h0l0,0c-10.69,8.21-18.72,22.19-18.72,33.5a15.82,15.82,0,0,0,2.26,8.75,10.48,10.48,0,0,0,1.23,1.55l-.27.16-9-5.73c-2.44-1.81-4.07-4.74-4.59-8.66a22,22,0,0,1-.17-2.76c0-5.43,1.86-11.47,5-17.2a52.15,52.15,0,0,1,13.8-16.33c1-8.54,7.82-18.52,16-23.19a18.26,18.26,0,0,1,6.42-2.32,79.35,79.35,0,0,1,5.52-10.71c.63-1,1.28-2,2-3.05,6.76-10.12,15.83-19.11,25.79-24.77,11.08-6.29,21-7.21,28-3.59h0c.69.36,6.62,4.12,7.35,4.59l-.64-.31Z" transform="translate(-400.5 -300.5)"/><path class="cls-1" d="M870.63,485.91l-1.74-1.1.27-.16A10.31,10.31,0,0,0,870.63,485.91Z" transform="translate(-400.5 -300.5)"/><path class="cls-1" d="M968,373.13h0l.07,0h0" transform="translate(-400.5 -300.5)"/><path class="cls-1" d="M968.1,373.18l2.3,1.43A15.51,15.51,0,0,0,968.1,373.18Z" transform="translate(-400.5 -300.5)"/><path class="cls-1" d="M989.24,393.31a9.92,9.92,0,0,0-4.33-1.38,16.24,16.24,0,0,0-6.76.93,31.72,31.72,0,0,0-.52-5.6,10,10,0,0,1,4.25,1.48Z" transform="translate(-400.5 -300.5)"/><line class="cls-1" x1="483.93" y1="140.32" x2="483.92" y2="140.33"/><path class="cls-1" d="M974.42,435.9l-.95.56L971,437.87" transform="translate(-400.5 -300.5)"/><path class="cls-1" d="M968,373.13h0l.07,0h0" transform="translate(-400.5 -300.5)"/><path class="cls-1" d="M974.41,435.9c11-6.76,19.79-20.83,19.79-32,0-5-1.78-8.58-4.72-10.48l-.24-.16a10,10,0,0,0-4.33-1.37,16.38,16.38,0,0,0-6.76.92,32.67,32.67,0,0,0-.52-5.59c-1-5.64-3.56-9.91-7.22-12.64" transform="translate(-400.5 -300.5)"/><line class="cls-1" x1="483.92" y1="140.33" x2="473.38" y2="133.63"/><polyline class="cls-1" points="506.38 114.77 506.37 114.78 496.07 108.37"/><path class="cls-1" d="M968,373.1a17.58,17.58,0,0,0-2.83-1.13c-6.67-2-15.41-.61-25,4.82-9.89,5.61-18.89,14.5-25.64,24.52a82.17,82.17,0,0,0-7.63,14,18.1,18.1,0,0,0-6.42,2.33c-8.22,4.66-15,14.65-16,23.17h0l0,0c-10.69,8.21-18.72,22.19-18.72,33.5a15.82,15.82,0,0,0,2.26,8.75,10.48,10.48,0,0,0,1.23,1.55l-.27.16-9-5.73c-2.44-1.81-4.07-4.74-4.59-8.66a22,22,0,0,1-.17-2.76c0-5.43,1.86-11.47,5-17.2a52.15,52.15,0,0,1,13.8-16.33c1-8.54,7.82-18.52,16-23.19a18.26,18.26,0,0,1,6.42-2.32,79.35,79.35,0,0,1,5.52-10.71c.63-1,1.28-2,2-3.05,6.76-10.12,15.83-19.11,25.79-24.77,11.08-6.29,21-7.21,28-3.59h0c.69.36,6.62,4.12,7.35,4.59l-.64-.31Z" transform="translate(-400.5 -300.5)"/><path class="cls-1" d="M870.63,485.91l-1.74-1.1.27-.16A10.31,10.31,0,0,0,870.63,485.91Z" transform="translate(-400.5 -300.5)"/><path class="cls-1" d="M968,373.13h0l.07,0h0" transform="translate(-400.5 -300.5)"/></g><line class="cls-1" x1="483.9" y1="140.32" x2="483.93" y2="140.32"/></g><path class="cls-1" d="M971,437.87c-13.74,7.8-78.74,44.71-82,46.55-6.9,3.93-13.11,4.45-17.38,2.1l-1-.61a10.31,10.31,0,0,1-1.47-1.26" transform="translate(-400.5 -300.5)"/><polygon class="cls-1" points="388.49 336.23 362.64 351.15 336.8 336.23 362.64 321.3 388.49 336.23"/><polygon class="cls-1" points="362.64 351.15 362.64 368.29 362.34 368.11 360.4 369.24 347.82 361.97 347.82 359.69 336.8 353.32 336.8 336.23 362.64 351.15"/><polygon class="cls-1" points="388.49 336.23 388.49 353.04 377.16 359.57 377.16 362.15 364.59 369.41 362.64 368.29 362.64 351.15 388.49 336.23"/><polygon class="cls-1" points="347.82 359.69 345.84 360.84 321.97 374.62 296.13 359.69 321.97 344.76 336.8 353.32 347.82 359.69"/><polygon class="cls-1" points="321.97 374.62 321.97 394.01 296.13 379.08 296.13 359.69 321.97 374.62"/><polygon class="cls-1" points="347.82 359.69 347.82 376.49 336.5 383.04 336.5 385.62 321.97 394.01 321.97 374.62 345.84 360.84 347.82 359.69"/><polygon class="cls-1" points="428.86 359.57 403.01 374.5 379.4 360.86 377.16 359.57 388.49 353.04 403.01 344.64 428.86 359.57"/><polygon class="cls-1" points="403.01 374.5 403.01 393.88 388.19 385.32 388.19 383.04 377.16 376.67 377.16 359.57 379.4 360.86 403.01 374.5"/><polygon class="cls-1" points="428.86 359.57 428.86 378.96 403.01 393.88 403.01 374.5 428.86 359.57"/><polygon class="cls-1" points="388.19 383.04 386.2 384.18 362.34 397.96 338.74 384.33 336.5 383.04 347.82 376.49 360.4 369.24 362.34 368.11 362.64 368.29 364.59 369.41 377.16 376.67 388.19 383.04"/><polygon class="cls-1" points="362.34 397.96 362.34 417.34 336.5 402.42 336.5 383.04 338.74 384.33 362.34 397.96"/><polygon class="cls-1" points="388.19 383.04 388.19 402.42 362.34 417.34 362.34 397.96 386.2 384.18 388.19 383.04"/><g id="LWPOLYLINE-123" data-name="LWPOLYLINE"><polyline class="cls-1" points="126.75 170.42 126.75 203.79 136.95 210.14 136.96 210.14"/></g><g id="LWPOLYLINE-124" data-name="LWPOLYLINE"><polygon class="cls-1" points="277.22 30.18 136.96 111.13 136.95 111.14 126.75 104.79 267.02 23.8 277.22 30.18"/></g><path class="cls-1" d="M537.46,411.65v99l13.92-8,2.46-1.41,5.81,6.56,5.23-12.94,39.43-22.78,34.3-19.81,14.86-8.58,24.25-14v-99Zm122.68-57c1.73-1,3.13-.38,3.13,1.35a6.41,6.41,0,0,1-3.13,4.92c-1.73,1-3.14.38-3.14-1.35A6.44,6.44,0,0,1,660.14,354.66ZM651,360.41c1.73-1,3.13-.38,3.13,1.36a6.41,6.41,0,0,1-3.13,4.91c-1.73,1-3.14.38-3.14-1.35A6.46,6.46,0,0,1,651,360.41Zm13.76,64.19-22.17,12.8L627.75,446l-34.31,19.81-41.57,24V433l112.91-65.17Z" transform="translate(-400.5 -300.5)"/><path class="cls-1" d="M654.15,361.77a6.41,6.41,0,0,1-3.13,4.91c-1.73,1-3.14.38-3.14-1.35a6.46,6.46,0,0,1,3.14-4.92C652.75,359.43,654.15,360,654.15,361.77Z" transform="translate(-400.5 -300.5)"/><path class="cls-1" d="M663.27,356a6.41,6.41,0,0,1-3.13,4.92c-1.73,1-3.14.38-3.14-1.35a6.44,6.44,0,0,1,3.14-4.92C661.87,353.68,663.27,354.28,663.27,356Z" transform="translate(-400.5 -300.5)"/><polygon class="cls-1" points="264.28 67.35 264.28 124.1 242.11 136.9 227.25 145.47 192.94 165.28 151.37 189.27 151.37 132.52 264.28 67.35"/><line class="cls-1" x1="264.28" y1="96.4" x2="151.37" y2="161.58"/><line class="cls-1" x1="264.28" y1="110.54" x2="151.37" y2="175.72"/><line class="cls-1" x1="264.28" y1="82.27" x2="151.37" y2="147.44"/><polygon class="cls-1" points="264.28 67.35 264.28 124.1 242.11 136.9 227.25 145.47 192.94 165.28 151.37 189.27 151.37 132.52 264.28 67.35"/><line class="cls-1" x1="151.37" y1="189.29" x2="151.37" y2="132.54"/><line class="cls-1" x1="173.95" y1="176.25" x2="173.95" y2="119.5"/><line class="cls-1" x1="196.53" y1="163.21" x2="196.53" y2="106.47"/><line class="cls-1" x1="219.11" y1="150.18" x2="219.11" y2="93.43"/><line class="cls-1" x1="241.69" y1="137.14" x2="241.69" y2="80.39"/><line class="cls-1" x1="264.27" y1="124.1" x2="264.27" y2="67.35"/><path class="cls-6" d="M651,360.41a6.46,6.46,0,0,0-3.14,4.92c0,1.73,1.41,2.33,3.14,1.35a6.41,6.41,0,0,0,3.13-4.91C654.15,360,652.75,359.43,651,360.41Z" transform="translate(-400.5 -300.5)"/><path class="cls-6" d="M660.14,354.66a6.44,6.44,0,0,0-3.14,4.92c0,1.73,1.41,2.33,3.14,1.35a6.41,6.41,0,0,0,3.13-4.92C663.27,354.28,661.87,353.68,660.14,354.66Z" transform="translate(-400.5 -300.5)"/><path class="cls-6" d="M642.18,366.86l-32.77,18.61" transform="translate(-400.5 -300.5)"/><path class="cls-6" d="M642.18,370.56l-18.52,10.52" transform="translate(-400.5 -300.5)"/><path class="cls-6" d="M556.28,433.56c1.07-.61,1.94-.24,1.94.83a4,4,0,0,1-1.94,3.05c-1.08.61-1.95.24-1.95-.84A4,4,0,0,1,556.28,433.56Z" transform="translate(-400.5 -300.5)"/><path class="cls-6" d="M578.36,435.56c1.07-.61,1.94-.24,1.94.83a4,4,0,0,1-1.94,3.05c-1.07.61-1.94.24-1.94-.84A4,4,0,0,1,578.36,435.56Z" transform="translate(-400.5 -300.5)"/><path class="cls-6" d="M623.78,437.43c1.07-.61,1.94-.23,1.94.84a4,4,0,0,1-1.94,3.05c-1.08.61-1.95.23-1.95-.84A4,4,0,0,1,623.78,437.43Z" transform="translate(-400.5 -300.5)"/><path class="cls-6" d="M629.84,433.87c1.07-.61,1.94-.24,1.94.84a4,4,0,0,1-1.94,3c-1.07.61-1.94.24-1.94-.83A4,4,0,0,1,629.84,433.87Z" transform="translate(-400.5 -300.5)"/><polyline class="cls-1" points="126.75 170.42 126.75 104.79 136.95 111.14 136.96 111.13 277.22 30.18 136.96 111.15 136.96 210.13 150.88 202.13 159.15 207.28 164.38 194.34 203.81 171.56"/><polygon class="cls-1" points="159.15 207.28 150.88 202.13 153.34 200.72 159.15 207.28"/></g></g></g></g></svg>