<svg xmlns="http://www.w3.org/2000/svg" viewBox="0 0 609.33 434.37"><defs><style>.cls-1,.cls-10,.cls-11,.cls-12,.cls-13,.cls-14,.cls-2,.cls-3,.cls-4,.cls-5,.cls-6,.cls-7,.cls-8,.cls-9{fill:none;stroke-linecap:round;stroke-linejoin:round;}.cls-1,.cls-10,.cls-11,.cls-12,.cls-13,.cls-2,.cls-3,.cls-4,.cls-5,.cls-6,.cls-7,.cls-8,.cls-9{stroke:#363a4d;}.cls-2{stroke-dasharray:8.44 5.27;}.cls-3{stroke-dasharray:4.08 2.55;}.cls-4{stroke-dasharray:6.38 3.99;}.cls-5{stroke-dasharray:8.42 5.26;}.cls-6{stroke-dasharray:8.42 5.26;}.cls-7{stroke-dasharray:9.24 5.77;}.cls-8{stroke-dasharray:8.22 5.14;}.cls-9{stroke-dasharray:9.79 6.12;}.cls-10{stroke-dasharray:9.23 5.77;}.cls-11{stroke-dasharray:5.41 3.38;}.cls-12{stroke-dasharray:4.8 3;}.cls-13{stroke-dasharray:6.89 4.31;}.cls-14{stroke:#7e39d7;}</style></defs><title>Asset 1</title><g id="Layer_2" data-name="Layer 2"><g id="Home"><g id="L"><g id="L-2" data-name="L"><g id="LWPOLYLINE"><line class="cls-1" x1="516.01" y1="392.94" x2="512.54" y2="394.94"/><line class="cls-2" x1="507.98" y1="397.58" x2="450.91" y2="430.55"/><polyline class="cls-1" points="448.62 431.87 445.16 433.87 441.69 431.87"/><line class="cls-2" x1="437.13" y1="429.23" x2="380.05" y2="396.27"/><line class="cls-1" x1="377.77" y1="394.96" x2="374.3" y2="392.96"/></g><g id="LWPOLYLINE-2" data-name="LWPOLYLINE"><line class="cls-1" x1="445.15" y1="334.85" x2="448.61" y2="336.85"/><line class="cls-2" x1="453.18" y1="339.49" x2="510.26" y2="372.44"/><polyline class="cls-1" points="512.54 373.76 516.01 375.76 512.54 377.76"/><line class="cls-2" x1="507.98" y1="380.4" x2="450.91" y2="413.36"/><polyline class="cls-1" points="448.62 414.68 445.16 416.68 441.69 414.68"/><line class="cls-2" x1="437.13" y1="412.05" x2="380.05" y2="379.09"/><polyline class="cls-1" points="377.76 377.77 374.3 375.77 377.76 373.77"/><line class="cls-2" x1="382.33" y1="371.14" x2="439.4" y2="338.17"/><line class="cls-1" x1="441.69" y1="336.85" x2="445.15" y2="334.85"/></g><g id="LINE"><line class="cls-1" x1="374.3" y1="375.77" x2="374.3" y2="379.77"/><line class="cls-3" x1="374.3" y1="382.33" x2="374.3" y2="387.68"/><line class="cls-1" x1="374.3" y1="388.96" x2="374.3" y2="392.96"/></g><g id="LINE-2" data-name="LINE"><line class="cls-1" x1="516.01" y1="375.76" x2="516.01" y2="379.76"/><line class="cls-3" x1="516.01" y1="382.31" x2="516.01" y2="387.67"/><line class="cls-1" x1="516.01" y1="388.94" x2="516.01" y2="392.94"/></g><g id="LINE-3" data-name="LINE"><line class="cls-1" x1="445.16" y1="416.68" x2="445.16" y2="420.68"/><line class="cls-3" x1="445.16" y1="423.23" x2="445.16" y2="428.59"/><line class="cls-1" x1="445.16" y1="429.87" x2="445.16" y2="433.87"/></g><g id="LINE-4" data-name="LINE"><line class="cls-1" x1="445.15" y1="334.85" x2="445.15" y2="338.85"/><line class="cls-3" x1="445.15" y1="341.4" x2="445.15" y2="346.76"/><line class="cls-1" x1="445.15" y1="348.03" x2="445.15" y2="352.03"/></g><g id="LWPOLYLINE-3" data-name="LWPOLYLINE"><line class="cls-1" x1="516.01" y1="392.94" x2="512.54" y2="390.94"/><line class="cls-2" x1="507.98" y1="388.3" x2="450.9" y2="355.35"/><polyline class="cls-1" points="448.61 354.03 445.15 352.03 441.69 354.03"/><line class="cls-2" x1="437.12" y1="356.67" x2="380.05" y2="389.64"/><line class="cls-1" x1="377.76" y1="390.96" x2="374.3" y2="392.96"/></g><g id="LWPOLYLINE-4" data-name="LWPOLYLINE"><line class="cls-1" x1="445.16" y1="334.83" x2="441.69" y2="336.83"/><line class="cls-4" x1="438.24" y1="338.83" x2="422.01" y2="348.2"/><polyline class="cls-1" points="420.28 349.2 416.82 351.2 420.28 353.2"/><line class="cls-4" x1="423.73" y1="355.19" x2="439.96" y2="364.57"/><polyline class="cls-1" points="441.69 365.57 445.15 367.57 448.62 365.57"/><line class="cls-4" x1="452.07" y1="363.57" x2="468.31" y2="354.2"/><polyline class="cls-1" points="470.03 353.2 473.5 351.2 470.04 349.2"/><line class="cls-4" x1="466.58" y1="347.21" x2="450.35" y2="337.83"/><line class="cls-1" x1="448.62" y1="336.83" x2="445.16" y2="334.83"/></g><g id="LWPOLYLINE-5" data-name="LWPOLYLINE"><line class="cls-1" x1="416.82" y1="351.2" x2="420.28" y2="353.2"/><line class="cls-4" x1="423.73" y1="355.19" x2="439.96" y2="364.57"/><polyline class="cls-1" points="441.69 365.57 445.15 367.57 448.62 365.57"/><line class="cls-4" x1="452.07" y1="363.57" x2="468.31" y2="354.2"/><line class="cls-1" x1="470.03" y1="353.2" x2="473.5" y2="351.2"/></g><g id="LINE-5" data-name="LINE"><line class="cls-1" x1="445.16" y1="326.93" x2="445.16" y2="330.93"/><line class="cls-5" x1="445.16" y1="336.2" x2="445.16" y2="360.93"/><line class="cls-1" x1="445.16" y1="363.57" x2="445.16" y2="367.57"/></g><g id="LINE-6" data-name="LINE"><line class="cls-1" x1="416.82" y1="310.56" x2="416.82" y2="314.56"/><line class="cls-6" x1="416.82" y1="319.83" x2="416.82" y2="344.57"/><line class="cls-1" x1="416.82" y1="347.2" x2="416.82" y2="351.2"/></g><g id="LINE-7" data-name="LINE"><line class="cls-1" x1="473.5" y1="310.57" x2="473.5" y2="314.57"/><line class="cls-6" x1="473.5" y1="319.83" x2="473.5" y2="344.57"/><line class="cls-1" x1="473.5" y1="347.2" x2="473.5" y2="351.2"/></g><g id="LINE-8" data-name="LINE"><line class="cls-1" x1="140.48" y1="178.15" x2="143.95" y2="180.15"/><line class="cls-7" x1="148.95" y1="183.04" x2="159.45" y2="189.1"/><line class="cls-1" x1="161.95" y1="190.55" x2="165.41" y2="192.55"/><line class="cls-1" x1="140.48" y1="178.15" x2="143.95" y2="180.15"/><line class="cls-7" x1="148.95" y1="183.04" x2="159.45" y2="189.1"/><line class="cls-1" x1="161.95" y1="190.55" x2="165.41" y2="192.55"/></g><g id="LINE-9" data-name="LINE"><line class="cls-1" x1="148.99" y1="173.24" x2="152.45" y2="175.24"/><line class="cls-8" x1="156.9" y1="177.81" x2="177.81" y2="189.89"/><line class="cls-1" x1="180.03" y1="191.17" x2="183.5" y2="193.17"/><line class="cls-1" x1="148.99" y1="173.24" x2="152.45" y2="175.24"/><line class="cls-8" x1="156.9" y1="177.81" x2="177.81" y2="189.89"/><line class="cls-1" x1="180.03" y1="191.17" x2="183.5" y2="193.17"/></g><g id="LINE-10" data-name="LINE"><line class="cls-1" x1="157.49" y1="168.33" x2="160.95" y2="170.33"/><line class="cls-9" x1="166.25" y1="173.39" x2="177.38" y2="179.82"/><line class="cls-1" x1="180.03" y1="181.35" x2="183.5" y2="183.35"/><line class="cls-1" x1="157.49" y1="168.33" x2="160.95" y2="170.33"/><line class="cls-9" x1="166.25" y1="173.39" x2="177.38" y2="179.82"/><line class="cls-1" x1="180.03" y1="181.35" x2="183.5" y2="183.35"/></g><g id="LINE-11" data-name="LINE"><line class="cls-1" x1="165.99" y1="163.42" x2="169.46" y2="165.42"/><line class="cls-10" x1="174.46" y1="168.31" x2="184.95" y2="174.37"/><line class="cls-1" x1="187.45" y1="175.81" x2="190.91" y2="177.81"/><line class="cls-1" x1="165.99" y1="163.42" x2="169.46" y2="165.42"/><line class="cls-10" x1="174.46" y1="168.31" x2="184.95" y2="174.37"/><line class="cls-1" x1="187.45" y1="175.81" x2="190.91" y2="177.81"/></g><g id="LINE-12" data-name="LINE"><line class="cls-1" x1="373.84" y1="312.91" x2="377.31" y2="314.91"/><line class="cls-7" x1="382.31" y1="317.8" x2="392.81" y2="323.86"/><line class="cls-1" x1="395.31" y1="325.31" x2="398.77" y2="327.31"/><line class="cls-1" x1="373.84" y1="312.91" x2="377.31" y2="314.91"/><line class="cls-7" x1="382.31" y1="317.8" x2="392.81" y2="323.86"/><line class="cls-1" x1="395.31" y1="325.31" x2="398.77" y2="327.31"/></g><g id="LINE-13" data-name="LINE"><line class="cls-1" x1="382.35" y1="308" x2="385.81" y2="310"/><line class="cls-8" x1="390.26" y1="312.57" x2="411.17" y2="324.64"/><line class="cls-1" x1="413.39" y1="325.93" x2="416.86" y2="327.93"/><line class="cls-1" x1="382.35" y1="308" x2="385.81" y2="310"/><line class="cls-8" x1="390.26" y1="312.57" x2="411.17" y2="324.64"/><line class="cls-1" x1="413.39" y1="325.93" x2="416.86" y2="327.93"/></g><g id="LINE-14" data-name="LINE"><line class="cls-1" x1="390.85" y1="303.09" x2="394.32" y2="305.09"/><line class="cls-9" x1="399.61" y1="308.15" x2="410.74" y2="314.58"/><line class="cls-1" x1="413.39" y1="316.11" x2="416.86" y2="318.11"/><line class="cls-1" x1="390.85" y1="303.09" x2="394.32" y2="305.09"/><line class="cls-9" x1="399.61" y1="308.15" x2="410.74" y2="314.58"/><line class="cls-1" x1="413.39" y1="316.11" x2="416.86" y2="318.11"/></g><g id="LINE-15" data-name="LINE"><line class="cls-1" x1="399.35" y1="298.18" x2="402.82" y2="300.18"/><line class="cls-11" x1="405.75" y1="301.87" x2="411.89" y2="305.42"/><line class="cls-1" x1="413.36" y1="306.27" x2="416.82" y2="308.27"/><line class="cls-1" x1="399.35" y1="298.18" x2="402.82" y2="300.18"/><line class="cls-11" x1="405.75" y1="301.87" x2="411.89" y2="305.42"/><line class="cls-1" x1="413.36" y1="306.27" x2="416.82" y2="308.27"/></g><g id="LINE-16" data-name="LINE"><line class="cls-1" x1="398.77" y1="327.31" x2="396.77" y2="330.77"/><line class="cls-12" x1="395.27" y1="333.37" x2="392.12" y2="338.82"/><line class="cls-1" x1="391.37" y1="340.12" x2="389.37" y2="343.58"/><line class="cls-1" x1="398.77" y1="327.31" x2="396.77" y2="330.77"/><line class="cls-12" x1="395.27" y1="333.37" x2="392.12" y2="338.82"/><line class="cls-1" x1="391.37" y1="340.12" x2="389.37" y2="343.58"/></g><g id="LINE-17" data-name="LINE"><line class="cls-1" x1="389.37" y1="343.58" x2="392.84" y2="345.58"/><line class="cls-13" x1="396.57" y1="347.73" x2="404.4" y2="352.26"/><line class="cls-1" x1="406.26" y1="353.33" x2="409.73" y2="355.33"/><line class="cls-1" x1="389.37" y1="343.58" x2="392.84" y2="345.58"/><line class="cls-13" x1="396.57" y1="347.73" x2="404.4" y2="352.26"/><line class="cls-1" x1="406.26" y1="353.33" x2="409.73" y2="355.33"/></g><g id="LINE-18" data-name="LINE"><line class="cls-1" x1="416.86" y1="327.93" x2="414.86" y2="331.39"/><line class="cls-12" x1="413.36" y1="333.99" x2="410.21" y2="339.44"/><line class="cls-1" x1="409.46" y1="340.74" x2="407.46" y2="344.2"/><line class="cls-1" x1="416.86" y1="327.93" x2="414.86" y2="331.39"/><line class="cls-12" x1="413.36" y1="333.99" x2="410.21" y2="339.44"/><line class="cls-1" x1="409.46" y1="340.74" x2="407.46" y2="344.2"/></g><g id="LINE-19" data-name="LINE"><line class="cls-1" x1="407.46" y1="344.2" x2="410.92" y2="346.2"/><line class="cls-1" x1="414.75" y1="348.41" x2="418.21" y2="350.41"/><line class="cls-1" x1="407.46" y1="344.2" x2="410.92" y2="346.2"/><line class="cls-1" x1="414.75" y1="348.41" x2="418.21" y2="350.41"/></g><g id="LWPOLYLINE-6" data-name="LWPOLYLINE"><polyline class="cls-1" points="425.97 232.05 440.14 240.24 468.49 223.87 468.49 206.7 440.15 190.33 411.81 206.69 440.14 223.06 468.49 206.7"/></g><g id="LWPOLYLINE-7" data-name="LWPOLYLINE"><line class="cls-1" x1="440.14" y1="223.06" x2="440.14" y2="240.23"/></g><g id="LWPOLYLINE-8" data-name="LWPOLYLINE"><polyline class="cls-1" points="369.29 231.24 369.29 248.41 397.63 264.78 425.97 248.42 425.97 231.24 397.63 214.87 369.29 231.24 397.63 247.61 425.97 231.24"/></g><g id="LWPOLYLINE-9" data-name="LWPOLYLINE"><polyline class="cls-1" points="326.78 206.68 326.78 223.85 355.12 240.22 369.29 232.04"/></g><g id="LWPOLYLINE-10" data-name="LWPOLYLINE"><polyline class="cls-1" points="383.46 223.05 383.46 206.69 355.12 190.32 326.78 206.68 355.12 223.05 383.46 206.69"/></g><g id="LWPOLYLINE-11" data-name="LWPOLYLINE"><line class="cls-1" x1="355.12" y1="223.05" x2="355.12" y2="240.23"/></g><g id="LWPOLYLINE-12" data-name="LWPOLYLINE"><line class="cls-1" x1="369.3" y1="182.14" x2="369.3" y2="198.5"/></g><g id="LWPOLYLINE-13" data-name="LWPOLYLINE"><line class="cls-1" x1="383.46" y1="207.49" x2="396.94" y2="215.28"/></g><g id="LWPOLYLINE-14" data-name="LWPOLYLINE"><polyline class="cls-1" points="425.98 198.51 425.98 182.14 397.64 165.77 369.3 182.14 397.63 198.51 425.98 182.14"/></g><g id="LWPOLYLINE-15" data-name="LWPOLYLINE"><line class="cls-1" x1="397.63" y1="198.51" x2="397.63" y2="214.87"/></g><g id="LINE-20" data-name="LINE"><line class="cls-1" x1="397.63" y1="247.58" x2="397.63" y2="264.77"/></g><g id="LWPOLYLINE-16" data-name="LWPOLYLINE"><line class="cls-1" x1="411.8" y1="206.69" x2="411.8" y2="223.06"/></g><g id="LWPOLYLINE-17" data-name="LWPOLYLINE"><line class="cls-1" x1="397.63" y1="247.61" x2="397.63" y2="264.78"/></g><g id="LWPOLYLINE-18" data-name="LWPOLYLINE"><line class="cls-1" x1="398.33" y1="215.28" x2="411.8" y2="207.5"/></g><g id="LINE-21" data-name="LINE"><line class="cls-1" x1="468.49" y1="206.68" x2="468.49" y2="223.87"/></g><g id="LINE-22" data-name="LINE"><line class="cls-1" x1="326.78" y1="206.67" x2="326.78" y2="223.85"/></g><g id="LWPOLYLINE-19" data-name="LWPOLYLINE"><polyline class="cls-1" points="71.36 54.15 0.5 95.05 71.35 135.98 142.21 95.07 71.36 54.15"/></g><g id="LINE-23" data-name="LINE"><line class="cls-1" x1="71.35" y1="135.98" x2="71.35" y2="153.17"/></g><g id="LINE-24" data-name="LINE"><line class="cls-1" x1="0.5" y1="95.05" x2="0.5" y2="112.25"/></g><g id="LWPOLYLINE-20" data-name="LWPOLYLINE"><polyline class="cls-1" points="0.5 112.25 71.35 153.17 142.21 112.26"/></g><g id="LINE-25" data-name="LINE"><line class="cls-1" x1="142.21" y1="95.07" x2="142.21" y2="112.26"/></g></g><g id="L-3" data-name="L"><g id="LINE-26" data-name="LINE"><line class="cls-1" x1="468.49" y1="241.08" x2="468.49" y2="258.27"/><line class="cls-1" x1="468.49" y1="241.08" x2="468.49" y2="258.27"/><line class="cls-1" x1="468.49" y1="241.08" x2="468.49" y2="241.08"/><line class="cls-1" x1="468.49" y1="258.27" x2="468.49" y2="258.27"/></g><g id="LINE-27" data-name="LINE"><line class="cls-1" x1="468.49" y1="258.27" x2="304.71" y2="352.83"/><line class="cls-1" x1="468.49" y1="258.27" x2="304.71" y2="352.83"/><line class="cls-1" x1="468.49" y1="258.27" x2="468.49" y2="258.27"/><line class="cls-1" x1="304.71" y1="352.83" x2="304.71" y2="352.83"/></g><g id="LINE-28" data-name="LINE"><line class="cls-1" x1="304.71" y1="335.63" x2="140.94" y2="241.08"/><line class="cls-1" x1="304.71" y1="335.63" x2="140.94" y2="241.08"/><line class="cls-1" x1="304.71" y1="335.63" x2="304.71" y2="335.63"/><line class="cls-1" x1="140.94" y1="241.08" x2="140.94" y2="241.08"/></g><g id="LINE-29" data-name="LINE"><line class="cls-1" x1="177.73" y1="279.48" x2="177.73" y2="279.48"/></g><g id="LINE-30" data-name="LINE"><line class="cls-1" x1="140.94" y1="258.64" x2="304.71" y2="352.83"/><line class="cls-1" x1="140.94" y1="258.64" x2="304.71" y2="352.83"/><line class="cls-1" x1="140.94" y1="258.64" x2="140.94" y2="258.64"/><line class="cls-1" x1="304.71" y1="352.83" x2="304.71" y2="352.83"/></g><g id="LINE-31" data-name="LINE"><line class="cls-1" x1="304.71" y1="335.63" x2="304.71" y2="352.83"/></g><g id="LINE-32" data-name="LINE"><line class="cls-1" x1="304.71" y1="335.63" x2="468.49" y2="241.08"/></g><g id="LINE-33" data-name="LINE"><line class="cls-1" x1="304.71" y1="335.63" x2="468.49" y2="241.08"/></g><g id="LINE-34" data-name="LINE"><line class="cls-1" x1="304.71" y1="335.63" x2="468.49" y2="241.08"/></g><g id="LINE-35" data-name="LINE"><line class="cls-1" x1="140.94" y1="241.04" x2="140.94" y2="258.64"/></g><g id="LINE-36" data-name="LINE"><line class="cls-1" x1="140.94" y1="241.04" x2="155.87" y2="232.42"/></g><g id="LINE-37" data-name="LINE"><line class="cls-1" x1="197.67" y1="208.29" x2="198.39" y2="207.87"/></g><g id="LINE-38" data-name="LINE"><line class="cls-1" x1="240.18" y1="183.75" x2="248.77" y2="178.79"/></g><g id="LINE-39" data-name="LINE"><line class="cls-1" x1="360.7" y1="178.82" x2="369.3" y2="183.79"/></g><g id="LINE-40" data-name="LINE"><line class="cls-1" x1="453.59" y1="232.47" x2="468.49" y2="241.08"/></g><g id="LINE-41" data-name="LINE"><line class="cls-1" x1="235.13" y1="106.32" x2="235.13" y2="123.51"/><line class="cls-1" x1="235.13" y1="106.32" x2="235.13" y2="123.51"/><line class="cls-1" x1="235.13" y1="106.32" x2="235.13" y2="106.32"/><line class="cls-1" x1="235.13" y1="123.51" x2="235.13" y2="123.51"/></g><g id="LINE-42" data-name="LINE"><line class="cls-1" x1="235.13" y1="123.51" x2="71.35" y2="218.07"/><line class="cls-1" x1="235.13" y1="123.51" x2="71.35" y2="218.07"/><line class="cls-1" x1="235.13" y1="123.51" x2="235.13" y2="123.51"/><line class="cls-1" x1="71.35" y1="218.07" x2="71.35" y2="218.07"/></g><g id="LINE-43" data-name="LINE"><line class="cls-1" x1="71.35" y1="200.87" x2="71.35" y2="200.87"/></g><g id="LINE-44" data-name="LINE"><line class="cls-1" x1="71.35" y1="218.07" x2="71.35" y2="218.07"/></g><g id="LINE-45" data-name="LINE"><line class="cls-1" x1="71.35" y1="200.87" x2="71.35" y2="218.07"/></g><g id="LINE-46" data-name="LINE"><line class="cls-1" x1="71.35" y1="200.87" x2="235.13" y2="106.32"/></g><g id="LINE-47" data-name="LINE"><line class="cls-1" x1="71.35" y1="200.87" x2="235.13" y2="106.32"/></g><g id="LINE-48" data-name="LINE"><line class="cls-1" x1="71.35" y1="200.87" x2="235.13" y2="106.32"/></g><g id="LINE-49" data-name="LINE"><line class="cls-1" x1="71.35" y1="218.07" x2="71.35" y2="218.07"/></g><g id="LINE-50" data-name="LINE"><line class="cls-1" x1="71.35" y1="200.87" x2="0.5" y2="159.97"/><line class="cls-1" x1="71.35" y1="200.87" x2="0.5" y2="159.97"/><line class="cls-1" x1="71.35" y1="200.87" x2="71.35" y2="200.87"/><polyline class="cls-1" points="0.5 159.97 0.5 159.97 0.5 177.14"/></g><g id="LINE-51" data-name="LINE"><line class="cls-1" x1="0.5" y1="177.14" x2="71.35" y2="218.07"/><line class="cls-1" x1="0.5" y1="177.14" x2="71.35" y2="218.07"/><line class="cls-1" x1="0.5" y1="177.14" x2="0.5" y2="177.14"/><line class="cls-1" x1="71.35" y1="218.07" x2="71.35" y2="218.07"/></g><g id="LINE-52" data-name="LINE"><line class="cls-1" x1="71.35" y1="200.87" x2="71.35" y2="218.07"/></g><g id="LWPOLYLINE-21" data-name="LWPOLYLINE"><polyline class="cls-1" points="99.69 150.93 113.87 159.12 142.21 142.76 142.21 125.58 130.68 118.92"/></g><g id="LWPOLYLINE-22" data-name="LWPOLYLINE"><polyline class="cls-1" points="102.33 135.29 113.87 141.95 142.21 125.58"/></g><g id="LWPOLYLINE-23" data-name="LWPOLYLINE"><line class="cls-1" x1="113.87" y1="141.95" x2="113.87" y2="159.12"/></g><g id="LWPOLYLINE-24" data-name="LWPOLYLINE"><polyline class="cls-1" points="43.01 150.12 43.01 167.3 71.35 183.67 99.69 167.3 99.69 150.13 88.16 143.47"/></g><g id="LWPOLYLINE-25" data-name="LWPOLYLINE"><polyline class="cls-1" points="54.55 143.46 43.01 150.12 71.35 166.49 99.69 150.13"/></g><g id="LWPOLYLINE-26" data-name="LWPOLYLINE"><line class="cls-1" x1="71.35" y1="166.49" x2="71.35" y2="183.67"/></g><g id="LWPOLYLINE-27" data-name="LWPOLYLINE"><polyline class="cls-1" points="0.5 125.57 0.5 142.74 28.84 159.11 43.01 150.93"/></g><g id="LWPOLYLINE-28" data-name="LWPOLYLINE"><polyline class="cls-1" points="12.04 118.91 0.5 125.57 28.84 141.94"/></g><g id="LWPOLYLINE-29" data-name="LWPOLYLINE"><line class="cls-1" x1="28.84" y1="141.94" x2="28.84" y2="159.11"/></g><g id="LWPOLYLINE-30" data-name="LWPOLYLINE"><line class="cls-1" x1="178.48" y1="41.42" x2="178.48" y2="57.79"/></g><g id="LWPOLYLINE-31" data-name="LWPOLYLINE"><polyline class="cls-1" points="192.65 66.78 206.82 74.96 235.16 58.6 235.16 41.42 206.82 25.05 178.48 41.42 206.82 57.79 235.16 41.42"/></g><g id="LWPOLYLINE-32" data-name="LWPOLYLINE"><line class="cls-1" x1="206.82" y1="57.79" x2="206.82" y2="74.96"/></g><g id="LWPOLYLINE-33" data-name="LWPOLYLINE"><polyline class="cls-1" points="135.97 65.96 135.97 83.14 164.31 99.51 192.65 83.14 192.65 65.97 164.31 49.6 135.97 65.96 164.31 82.33 192.65 65.97"/></g><g id="LWPOLYLINE-34" data-name="LWPOLYLINE"><line class="cls-1" x1="164.31" y1="82.33" x2="164.31" y2="99.51"/></g><g id="LWPOLYLINE-35" data-name="LWPOLYLINE"><polyline class="cls-1" points="93.46 41.41 93.46 58.58 121.8 74.95 135.97 66.77"/></g><g id="LWPOLYLINE-36" data-name="LWPOLYLINE"><polyline class="cls-1" points="150.14 57.78 150.14 41.42 121.8 25.05 93.46 41.41 121.8 57.78 150.14 41.42"/></g><g id="LWPOLYLINE-37" data-name="LWPOLYLINE"><line class="cls-1" x1="135.97" y1="16.86" x2="135.97" y2="33.23"/></g><g id="LWPOLYLINE-38" data-name="LWPOLYLINE"><line class="cls-1" x1="150.14" y1="42.22" x2="163.61" y2="50"/></g><g id="LWPOLYLINE-39" data-name="LWPOLYLINE"><line class="cls-1" x1="165.01" y1="50" x2="178.48" y2="42.23"/></g><g id="LWPOLYLINE-40" data-name="LWPOLYLINE"><polyline class="cls-1" points="192.66 33.24 192.66 16.87 164.31 0.5 135.97 16.86 164.31 33.23 192.66 16.87"/></g><g id="LWPOLYLINE-41" data-name="LWPOLYLINE"><line class="cls-1" x1="164.31" y1="33.23" x2="164.31" y2="49.6"/></g><g id="LINE-53" data-name="LINE"><line class="cls-1" x1="453.59" y1="249.66" x2="453.6" y2="249.67"/></g><g id="LWPOLYLINE-42" data-name="LWPOLYLINE"><line class="cls-1" x1="552.14" y1="322.16" x2="552.14" y2="339.33"/></g><g id="LWPOLYLINE-43" data-name="LWPOLYLINE"><polyline class="cls-1" points="552.14 339.33 580.48 355.7 608.83 339.34 608.83 322.17 580.49 305.8 552.14 322.16 580.48 338.53 608.83 322.17"/></g><g id="LWPOLYLINE-44" data-name="LWPOLYLINE"><line class="cls-1" x1="580.48" y1="338.53" x2="580.48" y2="355.7"/></g><g id="LWPOLYLINE-45" data-name="LWPOLYLINE"><polyline class="cls-1" points="467.12 322.15 467.12 339.32 495.46 355.69 523.8 339.33"/></g><g id="LWPOLYLINE-46" data-name="LWPOLYLINE"><polyline class="cls-1" points="523.8 339.33 523.8 322.16 495.46 305.79 467.12 322.15 495.46 338.52 523.8 322.16"/></g><g id="LWPOLYLINE-47" data-name="LWPOLYLINE"><line class="cls-1" x1="495.46" y1="338.52" x2="495.46" y2="355.7"/></g><g id="LWPOLYLINE-48" data-name="LWPOLYLINE"><line class="cls-1" x1="509.63" y1="297.61" x2="509.63" y2="313.97"/></g><g id="LWPOLYLINE-49" data-name="LWPOLYLINE"><line class="cls-1" x1="523.8" y1="322.96" x2="537.97" y2="331.15"/></g><g id="LWPOLYLINE-50" data-name="LWPOLYLINE"><line class="cls-1" x1="537.97" y1="331.15" x2="552.14" y2="322.97"/></g><g id="LWPOLYLINE-51" data-name="LWPOLYLINE"><polyline class="cls-1" points="566.32 313.98 566.32 297.61 537.98 281.24 509.63 297.61 537.97 313.98 566.32 297.61"/></g><g id="LWPOLYLINE-52" data-name="LWPOLYLINE"><line class="cls-1" x1="537.97" y1="313.98" x2="537.97" y2="330.34"/></g><g id="LWPOLYLINE-53" data-name="LWPOLYLINE"><polyline class="cls-1" points="416.82 293.39 416.82 310.56 445.16 326.93 473.5 310.57 473.5 293.4 445.16 277.03 416.82 293.39 445.16 309.76 473.5 293.4"/></g><g id="LWPOLYLINE-54" data-name="LWPOLYLINE"><line class="cls-1" x1="445.16" y1="309.76" x2="445.16" y2="326.93"/></g><g id="LWPOLYLINE-55" data-name="LWPOLYLINE"><polyline class="cls-1" points="233.86 277.5 304.71 318.43 375.57 277.52"/></g><g id="LWPOLYLINE-56" data-name="LWPOLYLINE"><polyline class="cls-1" points="304.72 219.41 233.86 260.32 304.71 301.24 375.57 260.33 304.72 219.41"/></g><g id="LINE-54" data-name="LINE"><line class="cls-1" x1="304.71" y1="301.23" x2="304.71" y2="318.43"/></g><g id="LWPOLYLINE-57" data-name="LWPOLYLINE"><polyline class="cls-1" points="233.91 170.2 304.75 211.13 375.61 170.22"/></g><g id="LWPOLYLINE-58" data-name="LWPOLYLINE"><polyline class="cls-1" points="304.76 112.11 233.91 153.02 304.75 193.94 375.61 153.03 304.76 112.11"/></g><g id="LINE-55" data-name="LINE"><line class="cls-1" x1="304.76" y1="193.93" x2="304.75" y2="211.13"/></g><g id="LINE-56" data-name="LINE"><line class="cls-1" x1="375.61" y1="153.03" x2="375.61" y2="170.22"/></g><g id="LINE-57" data-name="LINE"><line class="cls-1" x1="233.9" y1="153.02" x2="233.9" y2="170.2"/></g><g id="LINE-58" data-name="LINE"><line class="cls-1" x1="233.86" y1="260.32" x2="233.86" y2="277.5"/></g><g id="LINE-59" data-name="LINE"><line class="cls-1" x1="375.57" y1="260.33" x2="375.57" y2="277.52"/></g><g id="LWPOLYLINE-59" data-name="LWPOLYLINE"><line class="cls-1" x1="197.67" y1="206.65" x2="197.67" y2="223.02"/></g><g id="LWPOLYLINE-60" data-name="LWPOLYLINE"><polyline class="cls-1" points="183.5 232 169.33 240.19 140.99 223.83 140.99 206.65 169.32 190.28 197.67 206.65 169.33 223.02 140.99 206.65"/></g><g id="LWPOLYLINE-61" data-name="LWPOLYLINE"><line class="cls-1" x1="169.33" y1="223.02" x2="169.33" y2="240.19"/></g><g id="LWPOLYLINE-62" data-name="LWPOLYLINE"><polyline class="cls-1" points="240.18 231.19 240.18 248.37 211.84 264.74 183.5 248.37 183.5 231.2 211.84 214.83 240.18 231.19 211.84 247.56 183.5 231.2"/></g><g id="LWPOLYLINE-63" data-name="LWPOLYLINE"><line class="cls-1" x1="211.84" y1="247.56" x2="211.84" y2="264.74"/></g><g id="LWPOLYLINE-64" data-name="LWPOLYLINE"><polyline class="cls-1" points="282.69 206.64 282.69 223.81 254.35 240.18 240.18 232"/></g><g id="LWPOLYLINE-65" data-name="LWPOLYLINE"><polyline class="cls-1" points="226.01 223.01 226.01 206.65 254.35 190.28 282.69 206.64 254.35 223.01 226.01 206.65"/></g><g id="LWPOLYLINE-66" data-name="LWPOLYLINE"><line class="cls-1" x1="254.35" y1="223.01" x2="254.35" y2="240.18"/></g><g id="LWPOLYLINE-67" data-name="LWPOLYLINE"><line class="cls-1" x1="240.18" y1="182.09" x2="240.18" y2="198.46"/></g><g id="LWPOLYLINE-68" data-name="LWPOLYLINE"><line class="cls-1" x1="226.01" y1="207.45" x2="212.54" y2="215.23"/></g><g id="LWPOLYLINE-69" data-name="LWPOLYLINE"><line class="cls-1" x1="211.14" y1="215.23" x2="197.67" y2="207.46"/></g><g id="LWPOLYLINE-70" data-name="LWPOLYLINE"><polyline class="cls-1" points="183.5 198.47 183.5 182.1 211.84 165.73 240.18 182.09 211.84 198.46 183.5 182.1"/></g><g id="LWPOLYLINE-71" data-name="LWPOLYLINE"><line class="cls-1" x1="211.84" y1="198.46" x2="211.84" y2="214.83"/></g><g id="LWPOLYLINE-72" data-name="LWPOLYLINE"><polyline class="cls-1" points="235.16 106.29 235.17 106.29 164.32 147.22 142.21 134.45"/></g><g id="LWPOLYLINE-73" data-name="LWPOLYLINE"><line class="cls-1" x1="127.57" y1="86.61" x2="135.97" y2="81.76"/></g><g id="LWPOLYLINE-74" data-name="LWPOLYLINE"><line class="cls-1" x1="119.87" y1="73.84" x2="112.66" y2="78"/></g><g id="LWPOLYLINE-75" data-name="LWPOLYLINE"><polyline class="cls-1" points="137.89 114.76 164.3 130.01 235.16 89.1 208.75 73.85"/></g><g id="LINE-60" data-name="LINE"><line class="cls-1" x1="235.16" y1="89.1" x2="235.16" y2="106.3"/></g><g id="LINE-61" data-name="LINE"><line class="cls-1" x1="28.84" y1="141.94" x2="40.37" y2="135.28"/><line class="cls-1" x1="28.84" y1="141.94" x2="40.37" y2="135.28"/><line class="cls-1" x1="28.84" y1="141.94" x2="28.84" y2="141.94"/><line class="cls-1" x1="40.37" y1="135.28" x2="40.37" y2="135.28"/></g><g id="LINE-62" data-name="LINE"><line class="cls-1" x1="121.8" y1="57.78" x2="121.8" y2="74.95"/><line class="cls-1" x1="121.8" y1="57.78" x2="121.8" y2="74.95"/><line class="cls-1" x1="121.8" y1="57.78" x2="121.8" y2="57.78"/><line class="cls-1" x1="121.8" y1="74.95" x2="121.8" y2="74.95"/></g><g id="LINE-63" data-name="LINE"><line class="cls-1" x1="164.3" y1="130.01" x2="164.3" y2="147.21"/><line class="cls-1" x1="164.3" y1="130.01" x2="164.3" y2="147.21"/><line class="cls-1" x1="164.3" y1="130.01" x2="164.3" y2="130.01"/><line class="cls-1" x1="164.3" y1="147.21" x2="164.3" y2="147.21"/></g><line class="cls-1" x1="0.5" y1="159.97" x2="15.14" y2="151.51"/><g id="LINE-64" data-name="LINE"><line class="cls-14" x1="468.49" y1="241.08" x2="468.49" y2="258.27"/><line class="cls-14" x1="468.49" y1="241.08" x2="468.49" y2="258.27"/><line class="cls-14" x1="468.49" y1="241.08" x2="468.49" y2="241.08"/><line class="cls-14" x1="468.49" y1="258.27" x2="468.49" y2="258.27"/></g><g id="LINE-65" data-name="LINE"><line class="cls-14" x1="468.49" y1="258.27" x2="304.71" y2="352.83"/><line class="cls-14" x1="468.49" y1="258.27" x2="304.71" y2="352.83"/><line class="cls-14" x1="468.49" y1="258.27" x2="468.49" y2="258.27"/><line class="cls-14" x1="304.71" y1="352.83" x2="304.71" y2="352.83"/></g><g id="LINE-66" data-name="LINE"><line class="cls-14" x1="304.71" y1="335.63" x2="140.94" y2="241.08"/><line class="cls-14" x1="304.71" y1="335.63" x2="140.94" y2="241.08"/><line class="cls-14" x1="304.71" y1="335.63" x2="304.71" y2="335.63"/><line class="cls-14" x1="140.94" y1="241.08" x2="140.94" y2="241.08"/></g><g id="LINE-67" data-name="LINE"><line class="cls-14" x1="177.73" y1="279.48" x2="177.73" y2="279.48"/></g><g id="LINE-68" data-name="LINE"><line class="cls-14" x1="140.94" y1="258.64" x2="304.71" y2="352.83"/><line class="cls-14" x1="140.94" y1="258.64" x2="304.71" y2="352.83"/><line class="cls-14" x1="140.94" y1="258.64" x2="140.94" y2="258.64"/><line class="cls-14" x1="304.71" y1="352.83" x2="304.71" y2="352.83"/></g><g id="LINE-69" data-name="LINE"><line class="cls-14" x1="304.71" y1="335.63" x2="304.71" y2="352.83"/></g><g id="LINE-70" data-name="LINE"><line class="cls-14" x1="304.71" y1="335.63" x2="468.49" y2="241.08"/></g><g id="LINE-71" data-name="LINE"><line class="cls-14" x1="304.71" y1="335.63" x2="468.49" y2="241.08"/></g><g id="LINE-72" data-name="LINE"><line class="cls-14" x1="304.71" y1="335.63" x2="468.49" y2="241.08"/></g><g id="LINE-73" data-name="LINE"><line class="cls-14" x1="140.94" y1="241.04" x2="140.94" y2="258.64"/></g><g id="LINE-74" data-name="LINE"><line class="cls-14" x1="140.94" y1="241.04" x2="155.87" y2="232.42"/></g><g id="LINE-75" data-name="LINE"><line class="cls-14" x1="197.67" y1="208.29" x2="198.39" y2="207.87"/></g><g id="LINE-76" data-name="LINE"><line class="cls-14" x1="240.18" y1="183.75" x2="248.77" y2="178.79"/></g><g id="LINE-77" data-name="LINE"><line class="cls-14" x1="360.7" y1="178.82" x2="369.3" y2="183.79"/></g><g id="LINE-78" data-name="LINE"><line class="cls-14" x1="453.59" y1="232.47" x2="468.49" y2="241.08"/></g><g id="LINE-79" data-name="LINE"><line class="cls-14" x1="235.13" y1="106.32" x2="235.13" y2="123.51"/><line class="cls-14" x1="235.13" y1="106.32" x2="235.13" y2="123.51"/><line class="cls-14" x1="235.13" y1="106.32" x2="235.13" y2="106.32"/><line class="cls-14" x1="235.13" y1="123.51" x2="235.13" y2="123.51"/></g><g id="LINE-80" data-name="LINE"><line class="cls-14" x1="235.13" y1="123.51" x2="71.35" y2="218.07"/><line class="cls-14" x1="235.13" y1="123.51" x2="71.35" y2="218.07"/><line class="cls-14" x1="235.13" y1="123.51" x2="235.13" y2="123.51"/><line class="cls-14" x1="71.35" y1="218.07" x2="71.35" y2="218.07"/></g><g id="LINE-81" data-name="LINE"><line class="cls-14" x1="71.35" y1="200.87" x2="71.35" y2="200.87"/></g><g id="LINE-82" data-name="LINE"><line class="cls-14" x1="71.35" y1="218.07" x2="71.35" y2="218.07"/></g><g id="LINE-83" data-name="LINE"><line class="cls-14" x1="71.35" y1="200.87" x2="71.35" y2="218.07"/></g><g id="LINE-84" data-name="LINE"><line class="cls-14" x1="71.35" y1="200.87" x2="235.13" y2="106.32"/></g><g id="LINE-85" data-name="LINE"><line class="cls-14" x1="71.35" y1="200.87" x2="235.13" y2="106.32"/></g><g id="LINE-86" data-name="LINE"><line class="cls-14" x1="71.35" y1="200.87" x2="235.13" y2="106.32"/></g><g id="LINE-87" data-name="LINE"><line class="cls-14" x1="71.35" y1="218.07" x2="71.35" y2="218.07"/></g><g id="LINE-88" data-name="LINE"><line class="cls-14" x1="71.35" y1="200.87" x2="0.5" y2="159.97"/><line class="cls-14" x1="71.35" y1="200.87" x2="0.5" y2="159.97"/><line class="cls-14" x1="71.35" y1="200.87" x2="71.35" y2="200.87"/><polyline class="cls-14" points="0.5 159.97 0.5 159.97 0.5 177.14"/></g><g id="LINE-89" data-name="LINE"><line class="cls-14" x1="0.5" y1="177.14" x2="71.35" y2="218.07"/><line class="cls-14" x1="0.5" y1="177.14" x2="71.35" y2="218.07"/><line class="cls-14" x1="0.5" y1="177.14" x2="0.5" y2="177.14"/><line class="cls-14" x1="71.35" y1="218.07" x2="71.35" y2="218.07"/></g><g id="LINE-90" data-name="LINE"><line class="cls-14" x1="71.35" y1="200.87" x2="71.35" y2="218.07"/></g><g id="LWPOLYLINE-76" data-name="LWPOLYLINE"><polyline class="cls-14" points="99.69 150.93 113.87 159.12 142.21 142.76 142.21 125.58 130.68 118.92"/></g><g id="LWPOLYLINE-77" data-name="LWPOLYLINE"><polyline class="cls-14" points="102.33 135.29 113.87 141.95 142.21 125.58"/></g><g id="LWPOLYLINE-78" data-name="LWPOLYLINE"><line class="cls-14" x1="113.87" y1="141.95" x2="113.87" y2="159.12"/></g><g id="LWPOLYLINE-79" data-name="LWPOLYLINE"><polyline class="cls-14" points="43.01 150.12 43.01 167.3 71.35 183.67 99.69 167.3 99.69 150.13 88.16 143.47"/></g><g id="LWPOLYLINE-80" data-name="LWPOLYLINE"><polyline class="cls-14" points="54.55 143.46 43.01 150.12 71.35 166.49 99.69 150.13"/></g><g id="LWPOLYLINE-81" data-name="LWPOLYLINE"><line class="cls-14" x1="71.35" y1="166.49" x2="71.35" y2="183.67"/></g><g id="LWPOLYLINE-82" data-name="LWPOLYLINE"><polyline class="cls-14" points="0.5 125.57 0.5 142.74 28.84 159.11 43.01 150.93"/></g><g id="LWPOLYLINE-83" data-name="LWPOLYLINE"><polyline class="cls-14" points="12.04 118.91 0.5 125.57 28.84 141.94"/></g><g id="LWPOLYLINE-84" data-name="LWPOLYLINE"><line class="cls-14" x1="28.84" y1="141.94" x2="28.84" y2="159.11"/></g><g id="LWPOLYLINE-85" data-name="LWPOLYLINE"><line class="cls-14" x1="178.48" y1="41.42" x2="178.48" y2="57.79"/></g><g id="LWPOLYLINE-86" data-name="LWPOLYLINE"><polyline class="cls-14" points="192.65 66.78 206.82 74.96 235.16 58.6 235.16 41.42 206.82 25.05 178.48 41.42 206.82 57.79 235.16 41.42"/></g><g id="LWPOLYLINE-87" data-name="LWPOLYLINE"><line class="cls-14" x1="206.82" y1="57.79" x2="206.82" y2="74.96"/></g><g id="LWPOLYLINE-88" data-name="LWPOLYLINE"><polyline class="cls-14" points="135.97 65.96 135.97 83.14 164.31 99.51 192.65 83.14 192.65 65.97 164.31 49.6 135.97 65.96 164.31 82.33 192.65 65.97"/></g><g id="LWPOLYLINE-89" data-name="LWPOLYLINE"><line class="cls-14" x1="164.31" y1="82.33" x2="164.31" y2="99.51"/></g><g id="LWPOLYLINE-90" data-name="LWPOLYLINE"><polyline class="cls-14" points="93.46 41.41 93.46 58.58 121.8 74.95 135.97 66.77"/></g><g id="LWPOLYLINE-91" data-name="LWPOLYLINE"><polyline class="cls-14" points="150.14 57.78 150.14 41.42 121.8 25.05 93.46 41.41 121.8 57.78 150.14 41.42"/></g><g id="LWPOLYLINE-92" data-name="LWPOLYLINE"><line class="cls-14" x1="135.97" y1="16.86" x2="135.97" y2="33.23"/></g><g id="LWPOLYLINE-93" data-name="LWPOLYLINE"><line class="cls-14" x1="150.14" y1="42.22" x2="163.61" y2="50"/></g><g id="LWPOLYLINE-94" data-name="LWPOLYLINE"><line class="cls-14" x1="165.01" y1="50" x2="178.48" y2="42.23"/></g><g id="LWPOLYLINE-95" data-name="LWPOLYLINE"><polyline class="cls-14" points="192.66 33.24 192.66 16.87 164.31 0.5 135.97 16.86 164.31 33.23 192.66 16.87"/></g><g id="LWPOLYLINE-96" data-name="LWPOLYLINE"><line class="cls-14" x1="164.31" y1="33.23" x2="164.31" y2="49.6"/></g><g id="LINE-91" data-name="LINE"><line class="cls-14" x1="453.59" y1="249.66" x2="453.6" y2="249.67"/></g><g id="LWPOLYLINE-97" data-name="LWPOLYLINE"><line class="cls-14" x1="552.14" y1="322.16" x2="552.14" y2="339.33"/></g><g id="LWPOLYLINE-98" data-name="LWPOLYLINE"><polyline class="cls-14" points="552.14 339.33 580.48 355.7 608.83 339.34 608.83 322.17 580.49 305.8 552.14 322.16 580.48 338.53 608.83 322.17"/></g><g id="LWPOLYLINE-99" data-name="LWPOLYLINE"><line class="cls-14" x1="580.48" y1="338.53" x2="580.48" y2="355.7"/></g><g id="LWPOLYLINE-100" data-name="LWPOLYLINE"><polyline class="cls-14" points="467.12 322.15 467.12 339.32 495.46 355.69 523.8 339.33"/></g><g id="LWPOLYLINE-101" data-name="LWPOLYLINE"><polyline class="cls-14" points="523.8 339.33 523.8 322.16 495.46 305.79 467.12 322.15 495.46 338.52 523.8 322.16"/></g><g id="LWPOLYLINE-102" data-name="LWPOLYLINE"><line class="cls-14" x1="495.46" y1="338.52" x2="495.46" y2="355.7"/></g><g id="LWPOLYLINE-103" data-name="LWPOLYLINE"><line class="cls-14" x1="509.63" y1="297.61" x2="509.63" y2="313.97"/></g><g id="LWPOLYLINE-104" data-name="LWPOLYLINE"><line class="cls-14" x1="523.8" y1="322.96" x2="537.97" y2="331.15"/></g><g id="LWPOLYLINE-105" data-name="LWPOLYLINE"><line class="cls-14" x1="537.97" y1="331.15" x2="552.14" y2="322.97"/></g><g id="LWPOLYLINE-106" data-name="LWPOLYLINE"><polyline class="cls-14" points="566.32 313.98 566.32 297.61 537.98 281.24 509.63 297.61 537.97 313.98 566.32 297.61"/></g><g id="LWPOLYLINE-107" data-name="LWPOLYLINE"><line class="cls-14" x1="537.97" y1="313.98" x2="537.97" y2="330.34"/></g><g id="LWPOLYLINE-108" data-name="LWPOLYLINE"><polyline class="cls-14" points="416.82 293.39 416.82 310.56 445.16 326.93 473.5 310.57 473.5 293.4 445.16 277.03 416.82 293.39 445.16 309.76 473.5 293.4"/></g><g id="LWPOLYLINE-109" data-name="LWPOLYLINE"><line class="cls-14" x1="445.16" y1="309.76" x2="445.16" y2="326.93"/></g><g id="LWPOLYLINE-110" data-name="LWPOLYLINE"><polyline class="cls-14" points="233.86 277.5 304.71 318.43 375.57 277.52"/></g><g id="LWPOLYLINE-111" data-name="LWPOLYLINE"><polyline class="cls-14" points="304.72 219.41 233.86 260.32 304.71 301.24 375.57 260.33 304.72 219.41"/></g><g id="LINE-92" data-name="LINE"><line class="cls-14" x1="304.71" y1="301.23" x2="304.71" y2="318.43"/></g><g id="LWPOLYLINE-112" data-name="LWPOLYLINE"><polyline class="cls-14" points="233.91 170.2 304.75 211.13 375.61 170.22"/></g><g id="LWPOLYLINE-113" data-name="LWPOLYLINE"><polyline class="cls-14" points="304.76 112.11 233.91 153.02 304.75 193.94 375.61 153.03 304.76 112.11"/></g><g id="LINE-93" data-name="LINE"><line class="cls-14" x1="304.76" y1="193.93" x2="304.75" y2="211.13"/></g><g id="LINE-94" data-name="LINE"><line class="cls-14" x1="375.61" y1="153.03" x2="375.61" y2="170.22"/></g><g id="LINE-95" data-name="LINE"><line class="cls-14" x1="233.9" y1="153.02" x2="233.9" y2="170.2"/></g><g id="LINE-96" data-name="LINE"><line class="cls-14" x1="233.86" y1="260.32" x2="233.86" y2="277.5"/></g><g id="LINE-97" data-name="LINE"><line class="cls-14" x1="375.57" y1="260.33" x2="375.57" y2="277.52"/></g><g id="LWPOLYLINE-114" data-name="LWPOLYLINE"><line class="cls-14" x1="197.67" y1="206.65" x2="197.67" y2="223.02"/></g><g id="LWPOLYLINE-115" data-name="LWPOLYLINE"><polyline class="cls-14" points="183.5 232 169.33 240.19 140.99 223.83 140.99 206.65 169.32 190.28 197.67 206.65 169.33 223.02 140.99 206.65"/></g><g id="LWPOLYLINE-116" data-name="LWPOLYLINE"><line class="cls-14" x1="169.33" y1="223.02" x2="169.33" y2="240.19"/></g><g id="LWPOLYLINE-117" data-name="LWPOLYLINE"><polyline class="cls-14" points="240.18 231.19 240.18 248.37 211.84 264.74 183.5 248.37 183.5 231.2 211.84 214.83 240.18 231.19 211.84 247.56 183.5 231.2"/></g><g id="LWPOLYLINE-118" data-name="LWPOLYLINE"><line class="cls-14" x1="211.84" y1="247.56" x2="211.84" y2="264.74"/></g><g id="LWPOLYLINE-119" data-name="LWPOLYLINE"><polyline class="cls-14" points="282.69 206.64 282.69 223.81 254.35 240.18 240.18 232"/></g><g id="LWPOLYLINE-120" data-name="LWPOLYLINE"><polyline class="cls-14" points="226.01 223.01 226.01 206.65 254.35 190.28 282.69 206.64 254.35 223.01 226.01 206.65"/></g><g id="LWPOLYLINE-121" data-name="LWPOLYLINE"><line class="cls-14" x1="254.35" y1="223.01" x2="254.35" y2="240.18"/></g><g id="LWPOLYLINE-122" data-name="LWPOLYLINE"><line class="cls-14" x1="240.18" y1="182.09" x2="240.18" y2="198.46"/></g><g id="LWPOLYLINE-123" data-name="LWPOLYLINE"><line class="cls-14" x1="226.01" y1="207.45" x2="212.54" y2="215.23"/></g><g id="LWPOLYLINE-124" data-name="LWPOLYLINE"><line class="cls-14" x1="211.14" y1="215.23" x2="197.67" y2="207.46"/></g><g id="LWPOLYLINE-125" data-name="LWPOLYLINE"><polyline class="cls-14" points="183.5 198.47 183.5 182.1 211.84 165.73 240.18 182.09 211.84 198.46 183.5 182.1"/></g><g id="LWPOLYLINE-126" data-name="LWPOLYLINE"><line class="cls-14" x1="211.84" y1="198.46" x2="211.84" y2="214.83"/></g><g id="LWPOLYLINE-127" data-name="LWPOLYLINE"><polyline class="cls-14" points="235.16 106.29 235.17 106.29 164.32 147.22 142.21 134.45"/></g><g id="LWPOLYLINE-128" data-name="LWPOLYLINE"><line class="cls-14" x1="127.57" y1="86.61" x2="135.97" y2="81.76"/></g><g id="LWPOLYLINE-129" data-name="LWPOLYLINE"><line class="cls-14" x1="119.87" y1="73.84" x2="112.66" y2="78"/></g><g id="LWPOLYLINE-130" data-name="LWPOLYLINE"><polyline class="cls-14" points="137.89 114.76 164.3 130.01 235.16 89.1 208.75 73.85"/></g><g id="LINE-98" data-name="LINE"><line class="cls-14" x1="235.16" y1="89.1" x2="235.16" y2="106.3"/></g><g id="LINE-99" data-name="LINE"><line class="cls-14" x1="28.84" y1="141.94" x2="40.37" y2="135.28"/><line class="cls-14" x1="28.84" y1="141.94" x2="40.37" y2="135.28"/><line class="cls-14" x1="28.84" y1="141.94" x2="28.84" y2="141.94"/><line class="cls-14" x1="40.37" y1="135.28" x2="40.37" y2="135.28"/></g><g id="LINE-100" data-name="LINE"><line class="cls-14" x1="121.8" y1="57.78" x2="121.8" y2="74.95"/><line class="cls-14" x1="121.8" y1="57.78" x2="121.8" y2="74.95"/><line class="cls-14" x1="121.8" y1="57.78" x2="121.8" y2="57.78"/><line class="cls-14" x1="121.8" y1="74.95" x2="121.8" y2="74.95"/></g><g id="LINE-101" data-name="LINE"><line class="cls-14" x1="164.3" y1="130.01" x2="164.3" y2="147.21"/><line class="cls-14" x1="164.3" y1="130.01" x2="164.3" y2="147.21"/><line class="cls-14" x1="164.3" y1="130.01" x2="164.3" y2="130.01"/><line class="cls-14" x1="164.3" y1="147.21" x2="164.3" y2="147.21"/></g><line class="cls-14" x1="0.5" y1="159.97" x2="15.14" y2="151.51"/></g></g></g></g></svg>