<?xml version="1.0" encoding="UTF-8"?>
<svg width="24px" height="24px" viewBox="0 0 24 24" version="1.1" xmlns="http://www.w3.org/2000/svg" xmlns:xlink="http://www.w3.org/1999/xlink">
    <!-- Generator: sketchtool 49 (51002) - http://www.bohemiancoding.com/sketch -->
    <title>274CB3D7-3B09-43AF-B426-6F70601A2DD3@3x</title>
    <desc>Created with sketchtool.</desc>
    <defs></defs>
    <g id="Main" stroke="none" stroke-width="1" fill="none" fill-rule="evenodd" stroke-linecap="round" stroke-linejoin="round">
        <g id="Platform" transform="translate(-53.000000, -671.000000)" stroke="#FFFFFF">
            <g id="icon-circle" transform="translate(54.000000, 672.000000)">
                <path d="M20.007,4.683 C21.263,6.471 22,8.649 22,11 C22,17.075 17.076,22 11,22 C4.925,22 0,17.075 0,11 C0,4.925 4.925,0 11,0 C13.326,0 15.483,0.722 17.26,1.953" id="Stroke-3185"></path>
                <path d="M5.0005,10.9999 C5.0005,7.6859 7.6865,4.9999 11.0005,4.9999 C14.3145,4.9999 17.0005,7.6859 17.0005,10.9999 C17.0005,14.3139 14.3145,16.9999 11.0005,16.9999 C7.6865,16.9999 5.0005,14.3139 5.0005,10.9999 L5.0005,10.9999 Z" id="Stroke-3187"></path>
                <path d="M11.0005,9.9999 C11.5525,9.9999 12.0005,10.4479 12.0005,10.9999 C12.0005,11.5519 11.5525,11.9999 11.0005,11.9999 C10.4485,11.9999 10.0005,11.5519 10.0005,10.9999 C10.0005,10.4479 10.4485,9.9999 11.0005,9.9999 Z" id="Stroke-3189"></path>
                <path d="M17.0005,2.9999 C17.0005,1.8949 17.8955,0.9999 19.0005,0.9999 C20.1055,0.9999 21.0005,1.8949 21.0005,2.9999 C21.0005,4.1049 20.1055,4.9999 19.0005,4.9999 C17.8955,4.9999 17.0005,4.1049 17.0005,2.9999 L17.0005,2.9999 Z" id="Stroke-3191"></path>
            </g>
        </g>
    </g>
</svg>