<?xml version="1.0" encoding="UTF-8"?>
<svg width="13px" height="16px" viewBox="0 0 13 16" version="1.1" xmlns="http://www.w3.org/2000/svg" xmlns:xlink="http://www.w3.org/1999/xlink">
    <!-- Generator: sketchtool 49 (51002) - http://www.bohemiancoding.com/sketch -->
    <title>FE4BD837-A5A1-4924-BF4F-8F65D6114EDE@3x</title>
    <desc>Created with sketchtool.</desc>
    <defs></defs>
    <g id="Main" stroke="none" stroke-width="1" fill="none" fill-rule="evenodd" stroke-linecap="round" stroke-linejoin="round">
        <g id="Events" transform="translate(-429.000000, -814.000000)" stroke="#FFFFFF">
            <g id="Event-item" transform="translate(65.000000, 703.000000)">
                <g id="icon-pin" transform="translate(365.000000, 112.000000)">
                    <path d="M5.5,15 C5.5,15 0,9.24071429 0,5.71428571 C0,2.09857143 2.842125,0 5.5,0 C8.157875,0 11,2.09857143 11,5.71428571 C11,9.24071429 5.5,15 5.5,15 Z" id="Stroke-3111"></path>
                    <path d="M5.5,3.75 C6.51261111,3.75 7.33333333,4.589375 7.33333333,5.625 C7.33333333,6.660625 6.51261111,7.5 5.5,7.5 C4.48738889,7.5 3.66666667,6.660625 3.66666667,5.625 C3.66666667,4.589375 4.48738889,3.75 5.5,3.75 Z" id="Stroke-3113"></path>
                </g>
            </g>
        </g>
    </g>
</svg>